%TF.GenerationSoftware,KiCad,Pcbnew,7.0.6-0*%
%TF.CreationDate,2024-10-14T12:06:59-04:00*%
%TF.ProjectId,GuitarFX,47756974-6172-4465-982e-6b696361645f,rev?*%
%TF.SameCoordinates,Original*%
%TF.FileFunction,Paste,Top*%
%TF.FilePolarity,Positive*%
%FSLAX46Y46*%
G04 Gerber Fmt 4.6, Leading zero omitted, Abs format (unit mm)*
G04 Created by KiCad (PCBNEW 7.0.6-0) date 2024-10-14 12:06:59*
%MOMM*%
%LPD*%
G01*
G04 APERTURE LIST*
G04 Aperture macros list*
%AMRoundRect*
0 Rectangle with rounded corners*
0 $1 Rounding radius*
0 $2 $3 $4 $5 $6 $7 $8 $9 X,Y pos of 4 corners*
0 Add a 4 corners polygon primitive as box body*
4,1,4,$2,$3,$4,$5,$6,$7,$8,$9,$2,$3,0*
0 Add four circle primitives for the rounded corners*
1,1,$1+$1,$2,$3*
1,1,$1+$1,$4,$5*
1,1,$1+$1,$6,$7*
1,1,$1+$1,$8,$9*
0 Add four rect primitives between the rounded corners*
20,1,$1+$1,$2,$3,$4,$5,0*
20,1,$1+$1,$4,$5,$6,$7,0*
20,1,$1+$1,$6,$7,$8,$9,0*
20,1,$1+$1,$8,$9,$2,$3,0*%
%AMRotRect*
0 Rectangle, with rotation*
0 The origin of the aperture is its center*
0 $1 length*
0 $2 width*
0 $3 Rotation angle, in degrees counterclockwise*
0 Add horizontal line*
21,1,$1,$2,0,0,$3*%
G04 Aperture macros list end*
%ADD10RoundRect,0.135000X0.135000X0.185000X-0.135000X0.185000X-0.135000X-0.185000X0.135000X-0.185000X0*%
%ADD11RoundRect,0.200000X0.053033X-0.335876X0.335876X-0.053033X-0.053033X0.335876X-0.335876X0.053033X0*%
%ADD12RotRect,1.400000X1.200000X225.000000*%
%ADD13RoundRect,0.200000X-0.275000X0.200000X-0.275000X-0.200000X0.275000X-0.200000X0.275000X0.200000X0*%
%ADD14RotRect,0.900000X1.200000X225.000000*%
%ADD15RoundRect,0.135000X0.185000X-0.135000X0.185000X0.135000X-0.185000X0.135000X-0.185000X-0.135000X0*%
%ADD16RoundRect,0.135000X-0.226274X-0.035355X-0.035355X-0.226274X0.226274X0.035355X0.035355X0.226274X0*%
%ADD17RoundRect,0.250000X0.250000X0.475000X-0.250000X0.475000X-0.250000X-0.475000X0.250000X-0.475000X0*%
%ADD18RoundRect,0.200000X0.335876X0.053033X0.053033X0.335876X-0.335876X-0.053033X-0.053033X-0.335876X0*%
%ADD19RoundRect,0.225000X0.375000X-0.225000X0.375000X0.225000X-0.375000X0.225000X-0.375000X-0.225000X0*%
%ADD20RoundRect,0.200000X0.275000X-0.200000X0.275000X0.200000X-0.275000X0.200000X-0.275000X-0.200000X0*%
%ADD21RoundRect,0.250000X-0.250000X-0.475000X0.250000X-0.475000X0.250000X0.475000X-0.250000X0.475000X0*%
%ADD22RoundRect,0.135000X-0.135000X-0.185000X0.135000X-0.185000X0.135000X0.185000X-0.135000X0.185000X0*%
%ADD23RoundRect,0.218750X0.218750X0.256250X-0.218750X0.256250X-0.218750X-0.256250X0.218750X-0.256250X0*%
%ADD24RoundRect,0.140000X0.140000X0.170000X-0.140000X0.170000X-0.140000X-0.170000X0.140000X-0.170000X0*%
%ADD25RoundRect,0.140000X-0.170000X0.140000X-0.170000X-0.140000X0.170000X-0.140000X0.170000X0.140000X0*%
%ADD26RoundRect,0.218750X-0.256250X0.218750X-0.256250X-0.218750X0.256250X-0.218750X0.256250X0.218750X0*%
%ADD27RoundRect,0.250000X-0.650000X1.000000X-0.650000X-1.000000X0.650000X-1.000000X0.650000X1.000000X0*%
%ADD28RoundRect,0.200000X0.200000X0.275000X-0.200000X0.275000X-0.200000X-0.275000X0.200000X-0.275000X0*%
%ADD29RoundRect,0.225000X-0.225000X-0.250000X0.225000X-0.250000X0.225000X0.250000X-0.225000X0.250000X0*%
%ADD30RoundRect,0.140000X0.021213X-0.219203X0.219203X-0.021213X-0.021213X0.219203X-0.219203X0.021213X0*%
%ADD31R,0.450000X1.475000*%
%ADD32R,1.200000X0.600000*%
%ADD33RoundRect,0.140000X-0.140000X-0.170000X0.140000X-0.170000X0.140000X0.170000X-0.140000X0.170000X0*%
%ADD34R,0.800000X1.000000*%
%ADD35R,1.500000X0.700000*%
%ADD36RoundRect,0.140000X-0.219203X-0.021213X-0.021213X-0.219203X0.219203X0.021213X0.021213X0.219203X0*%
%ADD37RoundRect,0.225000X0.225000X0.250000X-0.225000X0.250000X-0.225000X-0.250000X0.225000X-0.250000X0*%
%ADD38RoundRect,0.225000X0.335876X0.017678X0.017678X0.335876X-0.335876X-0.017678X-0.017678X-0.335876X0*%
%ADD39RoundRect,0.075000X-0.459619X-0.565685X0.565685X0.459619X0.459619X0.565685X-0.565685X-0.459619X0*%
%ADD40RoundRect,0.075000X0.459619X-0.565685X0.565685X-0.459619X-0.459619X0.565685X-0.565685X0.459619X0*%
%ADD41RoundRect,0.250000X-0.450000X0.262500X-0.450000X-0.262500X0.450000X-0.262500X0.450000X0.262500X0*%
%ADD42RoundRect,0.140000X0.219203X0.021213X0.021213X0.219203X-0.219203X-0.021213X-0.021213X-0.219203X0*%
%ADD43RoundRect,0.225000X0.017678X-0.335876X0.335876X-0.017678X-0.017678X0.335876X-0.335876X0.017678X0*%
%ADD44RoundRect,0.140000X-0.021213X0.219203X-0.219203X0.021213X0.021213X-0.219203X0.219203X-0.021213X0*%
%ADD45RoundRect,0.150000X0.512500X0.150000X-0.512500X0.150000X-0.512500X-0.150000X0.512500X-0.150000X0*%
%ADD46R,2.000000X1.500000*%
%ADD47R,2.000000X3.800000*%
%ADD48RoundRect,0.150000X-0.150000X0.512500X-0.150000X-0.512500X0.150000X-0.512500X0.150000X0.512500X0*%
%ADD49R,1.450000X0.600000*%
%ADD50R,1.450000X0.300000*%
%ADD51RoundRect,0.218750X-0.026517X0.335876X-0.335876X0.026517X0.026517X-0.335876X0.335876X-0.026517X0*%
%ADD52RotRect,0.650000X0.400000X135.000000*%
%ADD53RoundRect,0.250000X-0.475000X0.250000X-0.475000X-0.250000X0.475000X-0.250000X0.475000X0.250000X0*%
%ADD54RoundRect,0.218750X-0.218750X-0.256250X0.218750X-0.256250X0.218750X0.256250X-0.218750X0.256250X0*%
G04 APERTURE END LIST*
D10*
%TO.C,R202*%
X144900000Y-72650000D03*
X143880000Y-72650000D03*
%TD*%
D11*
%TO.C,R309*%
X154666637Y-84243363D03*
X155833363Y-83076637D03*
%TD*%
D12*
%TO.C,Y301*%
X134087366Y-94710553D03*
X132531731Y-96266188D03*
X133733812Y-97468269D03*
X135289447Y-95912634D03*
%TD*%
D11*
%TO.C,R302*%
X136356084Y-99135997D03*
X137522810Y-97969271D03*
%TD*%
D13*
%TO.C,R421*%
X132500000Y-129825000D03*
X132500000Y-131475000D03*
%TD*%
D10*
%TO.C,R409*%
X167285000Y-131365000D03*
X166265000Y-131365000D03*
%TD*%
D14*
%TO.C,D303*%
X156022703Y-78407398D03*
X154997398Y-79432703D03*
X156977297Y-81412602D03*
X158002602Y-80387297D03*
%TD*%
D11*
%TO.C,R310*%
X153416637Y-82993363D03*
X154583363Y-81826637D03*
%TD*%
D15*
%TO.C,R427*%
X122000000Y-128650000D03*
X122000000Y-127630000D03*
%TD*%
D16*
%TO.C,R301*%
X134889376Y-83049376D03*
X135610624Y-83770624D03*
%TD*%
D17*
%TO.C,C203*%
X163200000Y-121660000D03*
X161300000Y-121660000D03*
%TD*%
D18*
%TO.C,R305*%
X139533363Y-75333363D03*
X138366637Y-74166637D03*
%TD*%
D19*
%TO.C,D201*%
X164450000Y-109060000D03*
X164450000Y-105760000D03*
%TD*%
D20*
%TO.C,R407*%
X153775000Y-133165000D03*
X153775000Y-131515000D03*
%TD*%
D21*
%TO.C,C206*%
X166050000Y-100900000D03*
X167950000Y-100900000D03*
%TD*%
D15*
%TO.C,R425*%
X126450000Y-128410000D03*
X126450000Y-127390000D03*
%TD*%
D13*
%TO.C,R411*%
X134350000Y-115275000D03*
X134350000Y-116925000D03*
%TD*%
D10*
%TO.C,R303*%
X175760000Y-82350000D03*
X174740000Y-82350000D03*
%TD*%
D22*
%TO.C,R401*%
X144190000Y-128260000D03*
X145210000Y-128260000D03*
%TD*%
D23*
%TO.C,FB302*%
X168475000Y-78800000D03*
X166900000Y-78800000D03*
%TD*%
D21*
%TO.C,C405*%
X146390000Y-126600000D03*
X148290000Y-126600000D03*
%TD*%
D24*
%TO.C,C429*%
X145230000Y-111410000D03*
X144270000Y-111410000D03*
%TD*%
D21*
%TO.C,C201*%
X165350000Y-119410000D03*
X167250000Y-119410000D03*
%TD*%
D17*
%TO.C,C204*%
X163200000Y-119410000D03*
X161300000Y-119410000D03*
%TD*%
D25*
%TO.C,C423*%
X132500000Y-133520000D03*
X132500000Y-134480000D03*
%TD*%
D26*
%TO.C,FB201*%
X164250000Y-98900000D03*
X164250000Y-100475000D03*
%TD*%
D22*
%TO.C,R429*%
X138490000Y-120910000D03*
X139510000Y-120910000D03*
%TD*%
D27*
%TO.C,D401*%
X170300000Y-129182500D03*
X170300000Y-133182500D03*
%TD*%
D28*
%TO.C,R406*%
X158350000Y-133200000D03*
X156700000Y-133200000D03*
%TD*%
D13*
%TO.C,R420*%
X146000000Y-105675000D03*
X146000000Y-107325000D03*
%TD*%
D24*
%TO.C,C421*%
X130480000Y-128500000D03*
X129520000Y-128500000D03*
%TD*%
D29*
%TO.C,C410*%
X152250000Y-129840000D03*
X153800000Y-129840000D03*
%TD*%
D30*
%TO.C,C316*%
X138660589Y-80805334D03*
X139339411Y-80126512D03*
%TD*%
D10*
%TO.C,R404*%
X167285000Y-130115000D03*
X166265000Y-130115000D03*
%TD*%
D31*
%TO.C,IC401*%
X149225000Y-113062000D03*
X148575000Y-113062000D03*
X147925000Y-113062000D03*
X147275000Y-113062000D03*
X146625000Y-113062000D03*
X145975000Y-113062000D03*
X145325000Y-113062000D03*
X144675000Y-113062000D03*
X144025000Y-113062000D03*
X143375000Y-113062000D03*
X142725000Y-113062000D03*
X142075000Y-113062000D03*
X141425000Y-113062000D03*
X140775000Y-113062000D03*
X140775000Y-118938000D03*
X141425000Y-118938000D03*
X142075000Y-118938000D03*
X142725000Y-118938000D03*
X143375000Y-118938000D03*
X144025000Y-118938000D03*
X144675000Y-118938000D03*
X145325000Y-118938000D03*
X145975000Y-118938000D03*
X146625000Y-118938000D03*
X147275000Y-118938000D03*
X147925000Y-118938000D03*
X148575000Y-118938000D03*
X149225000Y-118938000D03*
%TD*%
D25*
%TO.C,C419*%
X123250000Y-130200000D03*
X123250000Y-131160000D03*
%TD*%
%TO.C,C312*%
X166687500Y-80320000D03*
X166687500Y-81280000D03*
%TD*%
D29*
%TO.C,C407*%
X151000000Y-127400000D03*
X152550000Y-127400000D03*
%TD*%
D32*
%TO.C,U407*%
X128000000Y-130000000D03*
X128000000Y-130950000D03*
X128000000Y-131900000D03*
X130500000Y-131900000D03*
X130500000Y-130000000D03*
%TD*%
D30*
%TO.C,C315*%
X134471178Y-99028822D03*
X135150000Y-98350000D03*
%TD*%
D13*
%TO.C,R424*%
X148500000Y-105660000D03*
X148500000Y-107310000D03*
%TD*%
D29*
%TO.C,C408*%
X166025000Y-133300000D03*
X167575000Y-133300000D03*
%TD*%
D33*
%TO.C,C313*%
X168470000Y-73350000D03*
X169430000Y-73350000D03*
%TD*%
D13*
%TO.C,R405*%
X160025000Y-129660000D03*
X160025000Y-131310000D03*
%TD*%
D33*
%TO.C,C433*%
X144545000Y-120910000D03*
X145505000Y-120910000D03*
%TD*%
D25*
%TO.C,C311*%
X168687500Y-80320000D03*
X168687500Y-81280000D03*
%TD*%
D34*
%TO.C,SW301*%
X113000000Y-80760000D03*
X110790000Y-80760000D03*
X113000000Y-88060000D03*
X110790000Y-88060000D03*
D35*
X113650000Y-82160000D03*
X113650000Y-85160000D03*
X113650000Y-86660000D03*
%TD*%
D24*
%TO.C,C404*%
X158035000Y-128000000D03*
X157075000Y-128000000D03*
%TD*%
D25*
%TO.C,C401*%
X150775000Y-129610000D03*
X150775000Y-130570000D03*
%TD*%
D24*
%TO.C,C431*%
X147505000Y-120910000D03*
X146545000Y-120910000D03*
%TD*%
D28*
%TO.C,R422*%
X130825000Y-133550000D03*
X129175000Y-133550000D03*
%TD*%
D36*
%TO.C,C304*%
X146960589Y-77635589D03*
X147639411Y-78314411D03*
%TD*%
D37*
%TO.C,C430*%
X148525000Y-122410000D03*
X146975000Y-122410000D03*
%TD*%
D38*
%TO.C,C319*%
X149298008Y-77798008D03*
X148201992Y-76701992D03*
%TD*%
D13*
%TO.C,R428*%
X153500000Y-105675000D03*
X153500000Y-107325000D03*
%TD*%
D29*
%TO.C,C422*%
X123450000Y-127640000D03*
X125000000Y-127640000D03*
%TD*%
D10*
%TO.C,R304*%
X175710000Y-70350000D03*
X174690000Y-70350000D03*
%TD*%
D32*
%TO.C,U401*%
X146350000Y-131700000D03*
X146350000Y-130750000D03*
X146350000Y-129800000D03*
X143850000Y-129800000D03*
X143850000Y-131700000D03*
%TD*%
D22*
%TO.C,R403*%
X146380000Y-128260000D03*
X147400000Y-128260000D03*
%TD*%
D33*
%TO.C,C420*%
X134750000Y-133200000D03*
X135710000Y-133200000D03*
%TD*%
D39*
%TO.C,U303*%
X135330315Y-90094404D03*
X135683868Y-90447957D03*
X136037422Y-90801511D03*
X136390975Y-91155064D03*
X136744528Y-91508617D03*
X137098082Y-91862171D03*
X137451635Y-92215724D03*
X137805189Y-92569278D03*
X138158742Y-92922831D03*
X138512295Y-93276384D03*
X138865849Y-93629938D03*
X139219402Y-93983491D03*
X139572955Y-94337045D03*
X139926509Y-94690598D03*
X140280062Y-95044151D03*
X140633616Y-95397705D03*
X140987169Y-95751258D03*
X141340722Y-96104811D03*
X141694276Y-96458365D03*
X142047829Y-96811918D03*
X142401383Y-97165472D03*
X142754936Y-97519025D03*
X143108489Y-97872578D03*
X143462043Y-98226132D03*
X143815596Y-98579685D03*
D40*
X146184404Y-98579685D03*
X146537957Y-98226132D03*
X146891511Y-97872578D03*
X147245064Y-97519025D03*
X147598617Y-97165472D03*
X147952171Y-96811918D03*
X148305724Y-96458365D03*
X148659278Y-96104811D03*
X149012831Y-95751258D03*
X149366384Y-95397705D03*
X149719938Y-95044151D03*
X150073491Y-94690598D03*
X150427045Y-94337045D03*
X150780598Y-93983491D03*
X151134151Y-93629938D03*
X151487705Y-93276384D03*
X151841258Y-92922831D03*
X152194811Y-92569278D03*
X152548365Y-92215724D03*
X152901918Y-91862171D03*
X153255472Y-91508617D03*
X153609025Y-91155064D03*
X153962578Y-90801511D03*
X154316132Y-90447957D03*
X154669685Y-90094404D03*
D39*
X154669685Y-87725596D03*
X154316132Y-87372043D03*
X153962578Y-87018489D03*
X153609025Y-86664936D03*
X153255472Y-86311383D03*
X152901918Y-85957829D03*
X152548365Y-85604276D03*
X152194811Y-85250722D03*
X151841258Y-84897169D03*
X151487705Y-84543616D03*
X151134151Y-84190062D03*
X150780598Y-83836509D03*
X150427045Y-83482955D03*
X150073491Y-83129402D03*
X149719938Y-82775849D03*
X149366384Y-82422295D03*
X149012831Y-82068742D03*
X148659278Y-81715189D03*
X148305724Y-81361635D03*
X147952171Y-81008082D03*
X147598617Y-80654528D03*
X147245064Y-80300975D03*
X146891511Y-79947422D03*
X146537957Y-79593868D03*
X146184404Y-79240315D03*
D40*
X143815596Y-79240315D03*
X143462043Y-79593868D03*
X143108489Y-79947422D03*
X142754936Y-80300975D03*
X142401383Y-80654528D03*
X142047829Y-81008082D03*
X141694276Y-81361635D03*
X141340722Y-81715189D03*
X140987169Y-82068742D03*
X140633616Y-82422295D03*
X140280062Y-82775849D03*
X139926509Y-83129402D03*
X139572955Y-83482955D03*
X139219402Y-83836509D03*
X138865849Y-84190062D03*
X138512295Y-84543616D03*
X138158742Y-84897169D03*
X137805189Y-85250722D03*
X137451635Y-85604276D03*
X137098082Y-85957829D03*
X136744528Y-86311383D03*
X136390975Y-86664936D03*
X136037422Y-87018489D03*
X135683868Y-87372043D03*
X135330315Y-87725596D03*
%TD*%
D13*
%TO.C,R426*%
X143500000Y-105675000D03*
X143500000Y-107325000D03*
%TD*%
D41*
%TO.C,R201*%
X164200000Y-115087500D03*
X164200000Y-116912500D03*
%TD*%
D32*
%TO.C,U402*%
X162025000Y-129600000D03*
X162025000Y-130550000D03*
X162025000Y-131500000D03*
X164525000Y-131500000D03*
X164525000Y-129600000D03*
%TD*%
D42*
%TO.C,C309*%
X139900000Y-99250000D03*
X139221178Y-98571178D03*
%TD*%
D29*
%TO.C,C432*%
X143750000Y-122410000D03*
X145300000Y-122410000D03*
%TD*%
D13*
%TO.C,R417*%
X151750000Y-109500000D03*
X151750000Y-111150000D03*
%TD*%
D10*
%TO.C,R402*%
X162535000Y-133300000D03*
X161515000Y-133300000D03*
%TD*%
D32*
%TO.C,U406*%
X137250000Y-131730000D03*
X137250000Y-130780000D03*
X137250000Y-129830000D03*
X134750000Y-129830000D03*
X134750000Y-131730000D03*
%TD*%
D18*
%TO.C,R306*%
X138334350Y-76514478D03*
X137167624Y-75347752D03*
%TD*%
D43*
%TO.C,C318*%
X156201992Y-92998008D03*
X157298008Y-91901992D03*
%TD*%
D32*
%TO.C,U403*%
X155525000Y-129600000D03*
X155525000Y-130550000D03*
X155525000Y-131500000D03*
X158025000Y-131500000D03*
X158025000Y-129600000D03*
%TD*%
D44*
%TO.C,C314*%
X136650000Y-96850000D03*
X135971178Y-97528822D03*
%TD*%
D21*
%TO.C,C411*%
X134350000Y-113250000D03*
X136250000Y-113250000D03*
%TD*%
D45*
%TO.C,U301*%
X169625000Y-76800000D03*
X169625000Y-75850000D03*
X169625000Y-74900000D03*
X167350000Y-74900000D03*
X167350000Y-75850000D03*
X167350000Y-76800000D03*
%TD*%
D15*
%TO.C,R408*%
X154000000Y-128160000D03*
X154000000Y-127140000D03*
%TD*%
D42*
%TO.C,C303*%
X135839411Y-93039411D03*
X135160589Y-92360589D03*
%TD*%
%TO.C,C307*%
X137639411Y-94789411D03*
X136960589Y-94110589D03*
%TD*%
D27*
%TO.C,D203*%
X170750000Y-93900000D03*
X170750000Y-97900000D03*
%TD*%
D44*
%TO.C,C306*%
X156400000Y-90900000D03*
X155721178Y-91578822D03*
%TD*%
D42*
%TO.C,C317*%
X159589411Y-79499411D03*
X158910589Y-78820589D03*
%TD*%
D37*
%TO.C,C428*%
X145025000Y-109910000D03*
X143475000Y-109910000D03*
%TD*%
D24*
%TO.C,C406*%
X164505000Y-133300000D03*
X163545000Y-133300000D03*
%TD*%
D25*
%TO.C,C409*%
X160025000Y-133150000D03*
X160025000Y-134110000D03*
%TD*%
D46*
%TO.C,U202*%
X148150000Y-70210000D03*
X148150000Y-67910000D03*
D47*
X141850000Y-67910000D03*
D46*
X148150000Y-65610000D03*
%TD*%
D21*
%TO.C,C205*%
X166050000Y-98400000D03*
X167950000Y-98400000D03*
%TD*%
D13*
%TO.C,R419*%
X151000000Y-105660000D03*
X151000000Y-107310000D03*
%TD*%
D17*
%TO.C,C207*%
X162150000Y-108660000D03*
X160250000Y-108660000D03*
%TD*%
D29*
%TO.C,C424*%
X124700000Y-130100000D03*
X126250000Y-130100000D03*
%TD*%
D30*
%TO.C,C302*%
X133860589Y-86589411D03*
X134539411Y-85910589D03*
%TD*%
D19*
%TO.C,D202*%
X167500000Y-96300000D03*
X167500000Y-93000000D03*
%TD*%
D10*
%TO.C,R410*%
X141760000Y-120910000D03*
X140740000Y-120910000D03*
%TD*%
D48*
%TO.C,U201*%
X162150000Y-110772500D03*
X161200000Y-110772500D03*
X160250000Y-110772500D03*
X160250000Y-113047500D03*
X162150000Y-113047500D03*
%TD*%
D49*
%TO.C,J301*%
X173405000Y-79600000D03*
X173405000Y-78800000D03*
D50*
X173405000Y-77600000D03*
X173405000Y-76600000D03*
X173405000Y-76100000D03*
X173405000Y-75100000D03*
D49*
X173405000Y-73900000D03*
X173405000Y-73100000D03*
X173405000Y-73100000D03*
X173405000Y-73900000D03*
D50*
X173405000Y-74600000D03*
X173405000Y-75600000D03*
X173405000Y-77100000D03*
X173405000Y-78100000D03*
D49*
X173405000Y-78800000D03*
X173405000Y-79600000D03*
%TD*%
D42*
%TO.C,C310*%
X138789411Y-100289411D03*
X138110589Y-99610589D03*
%TD*%
D27*
%TO.C,D403*%
X119500000Y-129150000D03*
X119500000Y-133150000D03*
%TD*%
D51*
%TO.C,FB301*%
X140956847Y-100193153D03*
X139843153Y-101306847D03*
%TD*%
D25*
%TO.C,C402*%
X142400000Y-131720000D03*
X142400000Y-132680000D03*
%TD*%
D18*
%TO.C,R307*%
X135083363Y-79733363D03*
X133916637Y-78566637D03*
%TD*%
D21*
%TO.C,C202*%
X165350000Y-121660000D03*
X167250000Y-121660000D03*
%TD*%
%TO.C,C209*%
X146250000Y-72660000D03*
X148150000Y-72660000D03*
%TD*%
D42*
%TO.C,C308*%
X140914411Y-98289411D03*
X140235589Y-97610589D03*
%TD*%
D11*
%TO.C,R308*%
X137365650Y-79952248D03*
X138532376Y-78785522D03*
%TD*%
D20*
%TO.C,R423*%
X126250000Y-133575000D03*
X126250000Y-131925000D03*
%TD*%
D52*
%TO.C,D302*%
X136411145Y-78750256D03*
X136870764Y-78290636D03*
X137330384Y-77831017D03*
X135986881Y-76487514D03*
X135527262Y-76947134D03*
X135067642Y-77406753D03*
%TD*%
D24*
%TO.C,C403*%
X164505000Y-128050000D03*
X163545000Y-128050000D03*
%TD*%
D21*
%TO.C,C412*%
X134350000Y-118900000D03*
X136250000Y-118900000D03*
%TD*%
D43*
%TO.C,C301*%
X132587581Y-85637419D03*
X133683597Y-84541403D03*
%TD*%
D17*
%TO.C,C208*%
X162150000Y-115100000D03*
X160250000Y-115100000D03*
%TD*%
D53*
%TO.C,C210*%
X150750000Y-66460000D03*
X150750000Y-68360000D03*
%TD*%
D11*
%TO.C,R311*%
X152166637Y-81743363D03*
X153333363Y-80576637D03*
%TD*%
D13*
%TO.C,R418*%
X150000000Y-109500000D03*
X150000000Y-111150000D03*
%TD*%
D54*
%TO.C,D204*%
X140602500Y-72650000D03*
X142177500Y-72650000D03*
%TD*%
D44*
%TO.C,C305*%
X147689411Y-99610589D03*
X147010589Y-100289411D03*
%TD*%
M02*
