M48
; DRILL file {KiCad 7.0.6-0} date 2024 October 14, Monday 12:06:53
; FORMAT={-:-/ absolute / metric / decimal}
; #@! TF.CreationDate,2024-10-14T12:06:53-04:00
; #@! TF.GenerationSoftware,Kicad,Pcbnew,7.0.6-0
; #@! TF.FileFunction,MixedPlating,1,4
FMAT,2
METRIC
; #@! TA.AperFunction,Plated,PTH,ViaDrill
T1C0.300
; #@! TA.AperFunction,Plated,PTH,ViaDrill
T2C0.400
; #@! TA.AperFunction,Plated,PTH,ComponentDrill
T3C0.500
; #@! TA.AperFunction,Plated,PTH,ComponentDrill
T4C0.600
; #@! TA.AperFunction,Plated,PTH,ComponentDrill
T5C1.100
; #@! TA.AperFunction,Plated,PTH,ComponentDrill
T6C3.200
; #@! TA.AperFunction,NonPlated,NPTH,ComponentDrill
T7C0.650
; #@! TA.AperFunction,NonPlated,NPTH,ComponentDrill
T8C0.900
; #@! TA.AperFunction,NonPlated,NPTH,ComponentDrill
T9C0.991
; #@! TA.AperFunction,NonPlated,NPTH,ComponentDrill
T10C1.100
; #@! TA.AperFunction,NonPlated,NPTH,ComponentDrill
T11C2.375
%
G90
G05
T1
X114.98Y-82.13
X115.2Y-86.7
X116.25Y-86.7
X119.5Y-134.95
X122.0Y-129.49
X126.222Y-129.303
X126.85Y-131.0
X128.65Y-128.5
X129.0Y-68.4
X129.45Y-75.1
X129.85Y-69.25
X131.639Y-97.153
X131.862Y-86.362
X133.35Y-134.5
X134.5Y-85.05
X134.55Y-68.5
X134.55Y-69.45
X134.55Y-91.75
X135.239Y-97.653
X135.3Y-78.6
X135.996Y-94.154
X136.014Y-79.224
X136.06Y-77.826
X136.56Y-133.2
X136.65Y-93.4
X137.3Y-113.2
X137.3Y-118.9
X137.95Y-101.501
X138.183Y-77.593
X138.4Y-130.8
X138.6Y-102.25
X138.65Y-99.1
X138.65Y-103.25
X138.7Y-104.9
X138.75Y-106.45
X138.75Y-108.0
X139.35Y-104.05
X139.5Y-81.6
X139.5Y-92.3
X139.5Y-121.7
X139.55Y-72.65
X139.55Y-107.3
X139.65Y-78.55
X139.7Y-98.05
X139.95Y-79.5
X140.7Y-121.7
X141.406Y-83.529
X141.8Y-124.3
X141.8Y-125.2
X142.2Y-109.9
X142.8Y-95.35
X143.2Y-125.2
X143.2Y-124.3
X143.25Y-132.7
X143.6Y-111.3
X143.65Y-94.7
X143.9Y-74.1
X143.9Y-75.0
X144.35Y-94.0
X144.562Y-107.604
X144.6Y-108.996
X145.1Y-93.3
X145.3Y-123.5
X146.0Y-108.3
X146.45Y-100.85
X146.95Y-123.5
X146.956Y-108.067
X147.55Y-130.75
X147.6Y-76.1
X147.65Y-109.9
X147.75Y-101.7
X147.754Y-100.758
X147.978Y-109.014
X148.3Y-127.95
X148.45Y-74.1
X148.45Y-75.0
X149.7Y-69.9
X149.7Y-71.4
X149.7Y-72.95
X149.95Y-118.6
X149.95Y-119.55
X150.3Y-124.25
X150.3Y-125.2
X151.0Y-69.9
X151.0Y-71.4
X151.0Y-72.95
X151.75Y-108.3
X151.75Y-124.25
X151.75Y-125.2
X152.7Y-110.4
X152.75Y-66.5
X152.75Y-67.45
X152.75Y-108.3
X152.8Y-111.55
X152.8Y-112.45
X152.804Y-109.45
X153.35Y-89.45
X153.798Y-128.979
X154.401Y-130.653
X154.75Y-111.5
X154.75Y-112.45
X156.1Y-110.4
X156.169Y-111.297
X156.25Y-128.0
X156.3Y-89.55
X157.05Y-90.25
X158.05Y-91.15
X158.3Y-78.2
X158.8Y-114.6
X158.8Y-115.55
X159.0Y-108.3
X159.0Y-109.3
X159.1Y-77.5
X159.4Y-107.1
X159.8Y-119.05
X159.8Y-119.95
X159.8Y-121.2
X159.8Y-122.1
X159.951Y-78.7
X160.4Y-107.1
X160.815Y-134.1
X160.85Y-130.585
X161.3Y-100.5
X161.3Y-101.45
X162.7Y-106.75
X162.7Y-128.035
X162.75Y-105.75
X165.65Y-80.3
X165.65Y-81.2
X166.7Y-82.0
X168.1Y-131.35
X168.55Y-119.0
X168.55Y-119.9
X168.55Y-121.15
X168.55Y-122.05
X168.6Y-133.3
X168.7Y-82.0
X169.3Y-99.8
X169.3Y-101.05
X169.809Y-74.05
X170.3Y-99.8
X170.3Y-101.05
X170.3Y-135.0
X170.85Y-75.85
X171.3Y-72.3
X171.3Y-73.1
X171.3Y-79.6
X171.3Y-80.4
X171.3Y-99.8
X171.3Y-101.05
X172.1Y-72.3
X172.1Y-73.1
X172.1Y-79.6
X172.1Y-80.4
X173.85Y-70.35
X173.9Y-82.35
T2
X112.5Y-68.5
X112.5Y-71.0
X112.5Y-73.5
X112.5Y-76.0
X112.5Y-91.0
X112.5Y-111.0
X112.5Y-113.5
X112.5Y-116.0
X112.5Y-118.5
X112.5Y-121.0
X112.5Y-123.5
X112.5Y-133.5
X115.0Y-68.5
X115.0Y-71.0
X115.0Y-73.5
X115.0Y-76.0
X115.0Y-78.5
X115.0Y-81.0
X115.0Y-83.5
X115.0Y-91.0
X115.0Y-111.0
X115.0Y-113.5
X115.0Y-116.0
X115.0Y-118.5
X115.0Y-121.0
X115.0Y-123.5
X115.0Y-133.5
X117.5Y-68.5
X117.5Y-71.0
X117.5Y-73.5
X117.5Y-76.0
X117.5Y-78.5
X117.5Y-81.0
X117.5Y-83.5
X117.5Y-86.0
X117.5Y-88.5
X117.5Y-91.0
X117.5Y-111.0
X117.5Y-113.5
X117.5Y-116.0
X117.5Y-123.5
X117.5Y-126.0
X117.5Y-131.0
X117.5Y-133.5
X120.0Y-61.0
X120.0Y-63.5
X120.0Y-66.0
X120.0Y-68.5
X120.0Y-71.0
X120.0Y-73.5
X120.0Y-76.0
X120.0Y-78.5
X120.0Y-81.0
X120.0Y-86.0
X120.0Y-88.5
X120.0Y-91.0
X120.0Y-93.5
X120.0Y-111.0
X120.0Y-118.5
X120.0Y-123.5
X120.0Y-126.0
X120.0Y-136.0
X120.0Y-138.5
X120.0Y-141.0
X122.5Y-61.0
X122.5Y-63.5
X122.5Y-66.0
X122.5Y-68.5
X122.5Y-71.0
X122.5Y-73.5
X122.5Y-76.0
X122.5Y-78.5
X122.5Y-81.0
X122.5Y-83.5
X122.5Y-86.0
X122.5Y-88.5
X122.5Y-91.0
X122.5Y-93.5
X122.5Y-108.5
X122.5Y-111.0
X122.5Y-116.0
X122.5Y-121.0
X122.5Y-123.5
X122.5Y-126.0
X122.5Y-136.0
X122.5Y-138.5
X122.5Y-141.0
X125.0Y-61.0
X125.0Y-63.5
X125.0Y-66.0
X125.0Y-68.5
X125.0Y-71.0
X125.0Y-73.5
X125.0Y-76.0
X125.0Y-78.5
X125.0Y-81.0
X125.0Y-83.5
X125.0Y-86.0
X125.0Y-88.5
X125.0Y-91.0
X125.0Y-93.5
X125.0Y-111.0
X125.0Y-113.5
X125.0Y-116.0
X125.0Y-121.0
X125.0Y-123.5
X125.0Y-126.0
X125.0Y-136.0
X125.0Y-138.5
X125.0Y-141.0
X127.5Y-61.0
X127.5Y-63.5
X127.5Y-68.5
X127.5Y-71.0
X127.5Y-73.5
X127.5Y-76.0
X127.5Y-78.5
X127.5Y-81.0
X127.5Y-83.5
X127.5Y-86.0
X127.5Y-88.5
X127.5Y-91.0
X127.5Y-93.5
X127.5Y-96.0
X127.5Y-111.0
X127.5Y-116.0
X127.5Y-118.5
X127.5Y-121.0
X127.5Y-123.5
X127.5Y-126.0
X127.5Y-136.0
X127.5Y-138.5
X127.5Y-141.0
X130.0Y-61.0
X130.0Y-63.5
X130.0Y-78.5
X130.0Y-81.0
X130.0Y-83.5
X130.0Y-86.0
X130.0Y-88.5
X130.0Y-91.0
X130.0Y-93.5
X130.0Y-96.0
X130.0Y-111.0
X130.0Y-113.5
X130.0Y-116.0
X130.0Y-118.5
X130.0Y-121.0
X130.0Y-123.5
X130.0Y-136.0
X130.0Y-138.5
X130.0Y-141.0
X132.5Y-61.0
X132.5Y-63.5
X132.5Y-66.0
X132.5Y-81.0
X132.5Y-83.5
X132.5Y-91.0
X132.5Y-93.5
X132.5Y-111.0
X132.5Y-113.5
X132.5Y-116.0
X132.5Y-118.5
X132.5Y-121.0
X132.5Y-123.5
X132.5Y-128.5
X132.5Y-136.0
X132.5Y-138.5
X132.5Y-141.0
X135.0Y-61.0
X135.0Y-63.5
X135.0Y-66.0
X135.0Y-123.5
X135.0Y-128.5
X135.0Y-136.0
X137.5Y-61.0
X137.5Y-63.5
X137.5Y-66.0
X137.5Y-68.5
X137.5Y-116.0
X137.5Y-123.5
X137.5Y-128.5
X137.5Y-136.0
X140.0Y-61.0
X140.0Y-63.5
X140.0Y-66.0
X140.0Y-68.5
X140.0Y-123.5
X140.0Y-136.0
X142.5Y-61.0
X142.5Y-63.5
X142.5Y-116.0
X142.5Y-136.0
X145.0Y-61.0
X145.0Y-63.5
X145.0Y-116.0
X145.0Y-136.0
X147.5Y-61.0
X147.5Y-63.5
X147.5Y-116.0
X147.5Y-136.0
X150.0Y-61.0
X150.0Y-63.5
X150.0Y-136.0
X152.5Y-61.0
X152.5Y-63.5
X152.5Y-68.5
X152.5Y-71.0
X152.5Y-73.5
X152.5Y-116.0
X152.5Y-118.5
X152.5Y-121.0
X152.5Y-123.5
X155.0Y-61.0
X155.0Y-63.5
X155.0Y-68.5
X155.0Y-71.0
X155.0Y-73.5
X155.0Y-113.5
X155.0Y-116.0
X155.0Y-118.5
X155.0Y-121.0
X155.0Y-123.5
X157.5Y-61.0
X157.5Y-63.5
X157.5Y-68.5
X157.5Y-71.0
X157.5Y-73.5
X157.5Y-103.5
X157.5Y-106.0
X157.5Y-108.5
X157.5Y-111.0
X157.5Y-113.5
X157.5Y-116.0
X157.5Y-118.5
X157.5Y-121.0
X157.5Y-123.5
X157.5Y-136.0
X157.5Y-138.5
X157.5Y-141.0
X160.0Y-61.0
X160.0Y-63.5
X160.0Y-103.5
X160.0Y-106.0
X160.0Y-136.0
X160.0Y-138.5
X160.0Y-141.0
X162.5Y-61.0
X162.5Y-63.5
X162.5Y-66.0
X162.5Y-68.5
X162.5Y-71.0
X162.5Y-73.5
X162.5Y-136.0
X162.5Y-138.5
X162.5Y-141.0
X165.0Y-61.0
X165.0Y-63.5
X165.0Y-66.0
X165.0Y-68.5
X165.0Y-71.0
X165.0Y-73.5
X165.0Y-83.5
X165.0Y-86.0
X165.0Y-88.5
X165.0Y-91.0
X165.0Y-93.5
X165.0Y-96.0
X165.0Y-111.0
X165.0Y-113.5
X165.0Y-123.5
X165.0Y-136.0
X165.0Y-138.5
X165.0Y-141.0
X167.5Y-61.0
X167.5Y-63.5
X167.5Y-66.0
X167.5Y-71.0
X167.5Y-73.5
X167.5Y-83.5
X167.5Y-86.0
X167.5Y-88.5
X167.5Y-91.0
X167.5Y-103.5
X167.5Y-106.0
X167.5Y-108.5
X167.5Y-111.0
X167.5Y-113.5
X167.5Y-116.0
X167.5Y-123.5
X167.5Y-126.0
X167.5Y-128.5
X167.5Y-136.0
X167.5Y-138.5
X167.5Y-141.0
X170.0Y-61.0
X170.0Y-63.5
X170.0Y-66.0
X170.0Y-71.0
X170.0Y-83.5
X170.0Y-86.0
X170.0Y-88.5
X170.0Y-91.0
X170.0Y-103.5
X170.0Y-106.0
X170.0Y-108.5
X170.0Y-111.0
X170.0Y-113.5
X170.0Y-116.0
X170.0Y-118.5
X170.0Y-121.0
X170.0Y-123.5
X170.0Y-126.0
X170.0Y-136.0
X170.0Y-138.5
X170.0Y-141.0
X172.5Y-68.5
X172.5Y-71.0
X172.5Y-83.5
X172.5Y-86.0
X172.5Y-88.5
X172.5Y-91.0
X172.5Y-98.5
X172.5Y-101.0
X172.5Y-103.5
X172.5Y-106.0
X172.5Y-108.5
X172.5Y-111.0
X172.5Y-113.5
X172.5Y-116.0
X172.5Y-118.5
X172.5Y-121.0
X172.5Y-123.5
X172.5Y-126.0
X172.5Y-131.0
X172.5Y-133.5
X175.0Y-68.5
X175.0Y-83.5
X175.0Y-86.0
X175.0Y-88.5
X175.0Y-98.5
X175.0Y-101.0
X175.0Y-103.5
X175.0Y-106.0
X175.0Y-108.5
X175.0Y-111.0
X175.0Y-113.5
X175.0Y-116.0
X175.0Y-118.5
X175.0Y-121.0
X175.0Y-123.5
X175.0Y-133.5
X177.5Y-68.5
X177.5Y-83.5
X177.5Y-86.0
X177.5Y-88.5
X177.5Y-98.5
X177.5Y-101.0
X177.5Y-103.5
X177.5Y-106.0
X177.5Y-108.5
X177.5Y-111.0
X177.5Y-113.5
X177.5Y-116.0
X177.5Y-118.5
X177.5Y-121.0
X177.5Y-123.5
X177.5Y-126.0
X177.5Y-133.5
T3
X112.6Y-63.5
X112.6Y-138.5
X113.303Y-61.803
X113.303Y-65.197
X113.303Y-136.803
X113.303Y-140.197
X115.0Y-61.1
X115.0Y-65.9
X115.0Y-136.1
X115.0Y-140.9
X116.697Y-61.803
X116.697Y-65.197
X116.697Y-136.803
X116.697Y-140.197
X117.4Y-63.5
X117.4Y-138.5
X172.6Y-63.5
X172.6Y-138.5
X173.303Y-61.803
X173.303Y-65.197
X173.303Y-136.803
X173.303Y-140.197
X175.0Y-61.1
X175.0Y-65.9
X175.0Y-136.1
X175.0Y-140.9
X176.697Y-61.803
X176.697Y-65.197
X176.697Y-136.803
X176.697Y-140.197
X177.4Y-63.5
X177.4Y-138.5
T5
X113.5Y-96.12
X113.5Y-98.66
X113.5Y-101.2
X113.5Y-103.74
X113.5Y-106.28
X113.5Y-108.82
X113.5Y-129.16
X113.5Y-131.7
X176.5Y-93.91
X176.5Y-96.45
X176.5Y-129.14
X176.5Y-131.68
T6
X115.0Y-63.5
X115.0Y-138.5
X175.0Y-63.5
X175.0Y-138.5
T7
X174.85Y-73.46
X174.85Y-79.24
T8
X111.89Y-82.91
X111.89Y-85.91
T9
X129.388Y-73.743
X130.825Y-75.179
X133.699Y-70.869
T10
X110.96Y-129.16
X110.96Y-131.7
X179.04Y-93.91
X179.04Y-96.45
X179.04Y-129.14
X179.04Y-131.68
T11
X129.658Y-71.318
X131.903Y-69.073
X133.25Y-74.91
X135.495Y-72.665
T4
G00X173.77Y-72.03
M15
G01X174.87Y-72.03
M16
G05
G00X173.77Y-80.67
M15
G01X174.87Y-80.67
M16
G05
G00X178.2Y-72.03
M15
G01X178.8Y-72.03
M16
G05
G00X178.2Y-80.67
M15
G01X178.8Y-80.67
M16
G05
T0
M30
