%TF.GenerationSoftware,KiCad,Pcbnew,7.0.6-0*%
%TF.CreationDate,2024-09-28T22:57:35-04:00*%
%TF.ProjectId,GuitarFX,47756974-6172-4465-982e-6b696361645f,rev?*%
%TF.SameCoordinates,Original*%
%TF.FileFunction,Copper,L1,Top*%
%TF.FilePolarity,Positive*%
%FSLAX46Y46*%
G04 Gerber Fmt 4.6, Leading zero omitted, Abs format (unit mm)*
G04 Created by KiCad (PCBNEW 7.0.6-0) date 2024-09-28 22:57:35*
%MOMM*%
%LPD*%
G01*
G04 APERTURE LIST*
G04 Aperture macros list*
%AMRoundRect*
0 Rectangle with rounded corners*
0 $1 Rounding radius*
0 $2 $3 $4 $5 $6 $7 $8 $9 X,Y pos of 4 corners*
0 Add a 4 corners polygon primitive as box body*
4,1,4,$2,$3,$4,$5,$6,$7,$8,$9,$2,$3,0*
0 Add four circle primitives for the rounded corners*
1,1,$1+$1,$2,$3*
1,1,$1+$1,$4,$5*
1,1,$1+$1,$6,$7*
1,1,$1+$1,$8,$9*
0 Add four rect primitives between the rounded corners*
20,1,$1+$1,$2,$3,$4,$5,0*
20,1,$1+$1,$4,$5,$6,$7,0*
20,1,$1+$1,$6,$7,$8,$9,0*
20,1,$1+$1,$8,$9,$2,$3,0*%
%AMRotRect*
0 Rectangle, with rotation*
0 The origin of the aperture is its center*
0 $1 length*
0 $2 width*
0 $3 Rotation angle, in degrees counterclockwise*
0 Add horizontal line*
21,1,$1,$2,0,0,$3*%
G04 Aperture macros list end*
%TA.AperFunction,SMDPad,CuDef*%
%ADD10RoundRect,0.135000X0.135000X0.185000X-0.135000X0.185000X-0.135000X-0.185000X0.135000X-0.185000X0*%
%TD*%
%TA.AperFunction,SMDPad,CuDef*%
%ADD11RoundRect,0.200000X0.053033X-0.335876X0.335876X-0.053033X-0.053033X0.335876X-0.335876X0.053033X0*%
%TD*%
%TA.AperFunction,SMDPad,CuDef*%
%ADD12RotRect,1.400000X1.200000X225.000000*%
%TD*%
%TA.AperFunction,SMDPad,CuDef*%
%ADD13RoundRect,0.200000X-0.275000X0.200000X-0.275000X-0.200000X0.275000X-0.200000X0.275000X0.200000X0*%
%TD*%
%TA.AperFunction,ComponentPad*%
%ADD14C,0.800000*%
%TD*%
%TA.AperFunction,ComponentPad*%
%ADD15C,6.400000*%
%TD*%
%TA.AperFunction,SMDPad,CuDef*%
%ADD16RotRect,0.900000X1.200000X225.000000*%
%TD*%
%TA.AperFunction,SMDPad,CuDef*%
%ADD17RoundRect,0.135000X0.185000X-0.135000X0.185000X0.135000X-0.185000X0.135000X-0.185000X-0.135000X0*%
%TD*%
%TA.AperFunction,SMDPad,CuDef*%
%ADD18RoundRect,0.135000X-0.226274X-0.035355X-0.035355X-0.226274X0.226274X0.035355X0.035355X0.226274X0*%
%TD*%
%TA.AperFunction,SMDPad,CuDef*%
%ADD19RoundRect,0.250000X0.250000X0.475000X-0.250000X0.475000X-0.250000X-0.475000X0.250000X-0.475000X0*%
%TD*%
%TA.AperFunction,SMDPad,CuDef*%
%ADD20RoundRect,0.200000X0.335876X0.053033X0.053033X0.335876X-0.335876X-0.053033X-0.053033X-0.335876X0*%
%TD*%
%TA.AperFunction,SMDPad,CuDef*%
%ADD21RoundRect,0.225000X0.375000X-0.225000X0.375000X0.225000X-0.375000X0.225000X-0.375000X-0.225000X0*%
%TD*%
%TA.AperFunction,SMDPad,CuDef*%
%ADD22RoundRect,0.200000X0.275000X-0.200000X0.275000X0.200000X-0.275000X0.200000X-0.275000X-0.200000X0*%
%TD*%
%TA.AperFunction,SMDPad,CuDef*%
%ADD23RoundRect,0.250000X-0.250000X-0.475000X0.250000X-0.475000X0.250000X0.475000X-0.250000X0.475000X0*%
%TD*%
%TA.AperFunction,ComponentPad*%
%ADD24R,2.200000X2.200000*%
%TD*%
%TA.AperFunction,ComponentPad*%
%ADD25C,2.200000*%
%TD*%
%TA.AperFunction,SMDPad,CuDef*%
%ADD26RoundRect,0.135000X-0.135000X-0.185000X0.135000X-0.185000X0.135000X0.185000X-0.135000X0.185000X0*%
%TD*%
%TA.AperFunction,SMDPad,CuDef*%
%ADD27RoundRect,0.218750X0.218750X0.256250X-0.218750X0.256250X-0.218750X-0.256250X0.218750X-0.256250X0*%
%TD*%
%TA.AperFunction,SMDPad,CuDef*%
%ADD28RoundRect,0.140000X0.140000X0.170000X-0.140000X0.170000X-0.140000X-0.170000X0.140000X-0.170000X0*%
%TD*%
%TA.AperFunction,SMDPad,CuDef*%
%ADD29RoundRect,0.140000X-0.170000X0.140000X-0.170000X-0.140000X0.170000X-0.140000X0.170000X0.140000X0*%
%TD*%
%TA.AperFunction,SMDPad,CuDef*%
%ADD30R,0.750000X0.400000*%
%TD*%
%TA.AperFunction,SMDPad,CuDef*%
%ADD31RoundRect,0.218750X-0.256250X0.218750X-0.256250X-0.218750X0.256250X-0.218750X0.256250X0.218750X0*%
%TD*%
%TA.AperFunction,SMDPad,CuDef*%
%ADD32RoundRect,0.250000X-0.650000X1.000000X-0.650000X-1.000000X0.650000X-1.000000X0.650000X1.000000X0*%
%TD*%
%TA.AperFunction,SMDPad,CuDef*%
%ADD33RoundRect,0.200000X0.200000X0.275000X-0.200000X0.275000X-0.200000X-0.275000X0.200000X-0.275000X0*%
%TD*%
%TA.AperFunction,SMDPad,CuDef*%
%ADD34RoundRect,0.225000X-0.225000X-0.250000X0.225000X-0.250000X0.225000X0.250000X-0.225000X0.250000X0*%
%TD*%
%TA.AperFunction,SMDPad,CuDef*%
%ADD35RoundRect,0.140000X0.021213X-0.219203X0.219203X-0.021213X-0.021213X0.219203X-0.219203X0.021213X0*%
%TD*%
%TA.AperFunction,SMDPad,CuDef*%
%ADD36R,0.450000X1.475000*%
%TD*%
%TA.AperFunction,SMDPad,CuDef*%
%ADD37R,1.200000X0.600000*%
%TD*%
%TA.AperFunction,SMDPad,CuDef*%
%ADD38RoundRect,0.140000X-0.140000X-0.170000X0.140000X-0.170000X0.140000X0.170000X-0.140000X0.170000X0*%
%TD*%
%TA.AperFunction,SMDPad,CuDef*%
%ADD39R,0.800000X1.000000*%
%TD*%
%TA.AperFunction,SMDPad,CuDef*%
%ADD40R,1.500000X0.700000*%
%TD*%
%TA.AperFunction,SMDPad,CuDef*%
%ADD41RoundRect,0.140000X-0.219203X-0.021213X-0.021213X-0.219203X0.219203X0.021213X0.021213X0.219203X0*%
%TD*%
%TA.AperFunction,SMDPad,CuDef*%
%ADD42RoundRect,0.225000X0.225000X0.250000X-0.225000X0.250000X-0.225000X-0.250000X0.225000X-0.250000X0*%
%TD*%
%TA.AperFunction,SMDPad,CuDef*%
%ADD43RoundRect,0.225000X0.335876X0.017678X0.017678X0.335876X-0.335876X-0.017678X-0.017678X-0.335876X0*%
%TD*%
%TA.AperFunction,SMDPad,CuDef*%
%ADD44RoundRect,0.075000X-0.459619X-0.565685X0.565685X0.459619X0.459619X0.565685X-0.565685X-0.459619X0*%
%TD*%
%TA.AperFunction,SMDPad,CuDef*%
%ADD45RoundRect,0.075000X0.459619X-0.565685X0.565685X-0.459619X-0.459619X0.565685X-0.565685X0.459619X0*%
%TD*%
%TA.AperFunction,SMDPad,CuDef*%
%ADD46RoundRect,0.250000X-0.450000X0.262500X-0.450000X-0.262500X0.450000X-0.262500X0.450000X0.262500X0*%
%TD*%
%TA.AperFunction,SMDPad,CuDef*%
%ADD47RoundRect,0.140000X0.219203X0.021213X0.021213X0.219203X-0.219203X-0.021213X-0.021213X-0.219203X0*%
%TD*%
%TA.AperFunction,SMDPad,CuDef*%
%ADD48RoundRect,0.225000X0.017678X-0.335876X0.335876X-0.017678X-0.017678X0.335876X-0.335876X0.017678X0*%
%TD*%
%TA.AperFunction,SMDPad,CuDef*%
%ADD49RoundRect,0.140000X-0.021213X0.219203X-0.219203X0.021213X0.021213X-0.219203X0.219203X-0.021213X0*%
%TD*%
%TA.AperFunction,SMDPad,CuDef*%
%ADD50RoundRect,0.150000X0.512500X0.150000X-0.512500X0.150000X-0.512500X-0.150000X0.512500X-0.150000X0*%
%TD*%
%TA.AperFunction,SMDPad,CuDef*%
%ADD51R,2.000000X1.500000*%
%TD*%
%TA.AperFunction,SMDPad,CuDef*%
%ADD52R,2.000000X3.800000*%
%TD*%
%TA.AperFunction,ConnectorPad*%
%ADD53C,0.787400*%
%TD*%
%TA.AperFunction,SMDPad,CuDef*%
%ADD54RoundRect,0.150000X-0.150000X0.512500X-0.150000X-0.512500X0.150000X-0.512500X0.150000X0.512500X0*%
%TD*%
%TA.AperFunction,SMDPad,CuDef*%
%ADD55R,1.450000X0.600000*%
%TD*%
%TA.AperFunction,SMDPad,CuDef*%
%ADD56R,1.450000X0.300000*%
%TD*%
%TA.AperFunction,ComponentPad*%
%ADD57O,2.100000X1.000000*%
%TD*%
%TA.AperFunction,ComponentPad*%
%ADD58O,1.600000X1.000000*%
%TD*%
%TA.AperFunction,SMDPad,CuDef*%
%ADD59RoundRect,0.218750X-0.026517X0.335876X-0.335876X0.026517X0.026517X-0.335876X0.335876X-0.026517X0*%
%TD*%
%TA.AperFunction,SMDPad,CuDef*%
%ADD60RotRect,0.650000X0.400000X135.000000*%
%TD*%
%TA.AperFunction,SMDPad,CuDef*%
%ADD61RoundRect,0.250000X-0.475000X0.250000X-0.475000X-0.250000X0.475000X-0.250000X0.475000X0.250000X0*%
%TD*%
%TA.AperFunction,SMDPad,CuDef*%
%ADD62RoundRect,0.218750X-0.218750X-0.256250X0.218750X-0.256250X0.218750X0.256250X-0.218750X0.256250X0*%
%TD*%
%TA.AperFunction,ViaPad*%
%ADD63C,0.700000*%
%TD*%
%TA.AperFunction,ViaPad*%
%ADD64C,0.800000*%
%TD*%
%TA.AperFunction,Conductor*%
%ADD65C,0.500000*%
%TD*%
%TA.AperFunction,Conductor*%
%ADD66C,0.300000*%
%TD*%
%TA.AperFunction,Conductor*%
%ADD67C,0.200000*%
%TD*%
%TA.AperFunction,Conductor*%
%ADD68C,0.293370*%
%TD*%
%TA.AperFunction,Conductor*%
%ADD69C,0.261000*%
%TD*%
G04 APERTURE END LIST*
D10*
%TO.P,R202,1*%
%TO.N,+3.3V*%
X144900000Y-72650000D03*
%TO.P,R202,2*%
%TO.N,/Power/R_LED*%
X143880000Y-72650000D03*
%TD*%
D11*
%TO.P,R309,1*%
%TO.N,/MCU/TIM4_CH1*%
X154666637Y-84243363D03*
%TO.P,R309,2*%
%TO.N,/MCU/LED_B*%
X155833363Y-83076637D03*
%TD*%
D12*
%TO.P,Y301,1,1*%
%TO.N,/MCU/HSE_IN*%
X134087366Y-94710553D03*
%TO.P,Y301,2,2*%
%TO.N,GND*%
X132531731Y-96266188D03*
%TO.P,Y301,3,3*%
%TO.N,Net-(C315-Pad1)*%
X133733812Y-97468269D03*
%TO.P,Y301,4,4*%
%TO.N,GND*%
X135289447Y-95912634D03*
%TD*%
D11*
%TO.P,R302,1*%
%TO.N,Net-(C315-Pad1)*%
X136356084Y-99135997D03*
%TO.P,R302,2*%
%TO.N,/MCU/HSE_OUT*%
X137522810Y-97969271D03*
%TD*%
D13*
%TO.P,R421,1*%
%TO.N,/Codec/OUT_BUF_OUT*%
X132500000Y-129825000D03*
%TO.P,R421,2*%
%TO.N,Net-(C423-Pad1)*%
X132500000Y-131475000D03*
%TD*%
D14*
%TO.P,H102,1,1*%
%TO.N,GND*%
X172600000Y-63500000D03*
X173302944Y-61802944D03*
X173302944Y-65197056D03*
X175000000Y-61100000D03*
D15*
X175000000Y-63500000D03*
D14*
X175000000Y-65900000D03*
X176697056Y-61802944D03*
X176697056Y-65197056D03*
X177400000Y-63500000D03*
%TD*%
D10*
%TO.P,R409,1*%
%TO.N,GND*%
X167285000Y-131365000D03*
%TO.P,R409,2*%
%TO.N,/Codec/IN_RF*%
X166265000Y-131365000D03*
%TD*%
D16*
%TO.P,D303,1,RK*%
%TO.N,/MCU/LED_R*%
X156022703Y-78407398D03*
%TO.P,D303,2,GK*%
%TO.N,/MCU/LED_G*%
X154997398Y-79432703D03*
%TO.P,D303,3,BK*%
%TO.N,/MCU/LED_B*%
X156977297Y-81412602D03*
%TO.P,D303,4,A*%
%TO.N,+3.3V*%
X158002602Y-80387297D03*
%TD*%
D11*
%TO.P,R310,1*%
%TO.N,/MCU/TIM4_CH2*%
X153416637Y-82993363D03*
%TO.P,R310,2*%
%TO.N,/MCU/LED_G*%
X154583363Y-81826637D03*
%TD*%
D17*
%TO.P,R427,1*%
%TO.N,GND*%
X122000000Y-128650000D03*
%TO.P,R427,2*%
%TO.N,/Codec/AUDIO_VOUT*%
X122000000Y-127630000D03*
%TD*%
D18*
%TO.P,R301,1*%
%TO.N,Net-(SW301-B)*%
X134889376Y-83049376D03*
%TO.P,R301,2*%
%TO.N,/MCU/BOOT0*%
X135610624Y-83770624D03*
%TD*%
D19*
%TO.P,C203,1*%
%TO.N,+5VA*%
X163200000Y-121660000D03*
%TO.P,C203,2*%
%TO.N,GND*%
X161300000Y-121660000D03*
%TD*%
D20*
%TO.P,R305,1*%
%TO.N,/MCU/MCU_SWDIO*%
X139533363Y-75333363D03*
%TO.P,R305,2*%
%TO.N,/MCU/SWDIO*%
X138366637Y-74166637D03*
%TD*%
D14*
%TO.P,H103,1,1*%
%TO.N,GND*%
X172600000Y-138500000D03*
X173302944Y-136802944D03*
X173302944Y-140197056D03*
X175000000Y-136100000D03*
D15*
X175000000Y-138500000D03*
D14*
X175000000Y-140900000D03*
X176697056Y-136802944D03*
X176697056Y-140197056D03*
X177400000Y-138500000D03*
%TD*%
D21*
%TO.P,D201,1,K*%
%TO.N,/Power/VCC_FILT*%
X164450000Y-109060000D03*
%TO.P,D201,2,A*%
%TO.N,VUSB_FILT*%
X164450000Y-105760000D03*
%TD*%
D22*
%TO.P,R407,1*%
%TO.N,Net-(C401-Pad2)*%
X153775000Y-133165000D03*
%TO.P,R407,2*%
%TO.N,/Codec/IN_AA_BUFF_IN*%
X153775000Y-131515000D03*
%TD*%
D23*
%TO.P,C206,1*%
%TO.N,/Power/VCC_FILT*%
X166050000Y-100900000D03*
%TO.P,C206,2*%
%TO.N,GND*%
X167950000Y-100900000D03*
%TD*%
D24*
%TO.P,J402,1,Pin_1*%
%TO.N,/Codec/AUDIO_VOUT*%
X113500000Y-129160000D03*
D25*
%TO.P,J402,2,Pin_2*%
%TO.N,GND*%
X113500000Y-131700000D03*
%TD*%
D17*
%TO.P,R425,1*%
%TO.N,/Codec/OUT_AA_BUFF_OUT*%
X126450000Y-128410000D03*
%TO.P,R425,2*%
%TO.N,Net-(C422-Pad2)*%
X126450000Y-127390000D03*
%TD*%
D13*
%TO.P,R411,1*%
%TO.N,CODEC_NRST*%
X134350000Y-115275000D03*
%TO.P,R411,2*%
%TO.N,/Codec/NRST_FILT*%
X134350000Y-116925000D03*
%TD*%
D10*
%TO.P,R303,1*%
%TO.N,/MCU/USB_CON_CC1*%
X175760000Y-82350000D03*
%TO.P,R303,2*%
%TO.N,GND*%
X174740000Y-82350000D03*
%TD*%
D26*
%TO.P,R401,1*%
%TO.N,+5VA*%
X144190000Y-128260000D03*
%TO.P,R401,2*%
%TO.N,/Codec/VREF*%
X145210000Y-128260000D03*
%TD*%
D27*
%TO.P,FB302,1*%
%TO.N,VBUS*%
X168475000Y-78800000D03*
%TO.P,FB302,2*%
%TO.N,VUSB_FILT*%
X166900000Y-78800000D03*
%TD*%
D23*
%TO.P,C405,1*%
%TO.N,/Codec/VREF*%
X146390000Y-126600000D03*
%TO.P,C405,2*%
%TO.N,GND*%
X148290000Y-126600000D03*
%TD*%
D28*
%TO.P,C429,1*%
%TO.N,+3.3V*%
X145230000Y-111410000D03*
%TO.P,C429,2*%
%TO.N,GND*%
X144270000Y-111410000D03*
%TD*%
D23*
%TO.P,C201,1*%
%TO.N,+5VA*%
X165350000Y-119410000D03*
%TO.P,C201,2*%
%TO.N,GND*%
X167250000Y-119410000D03*
%TD*%
D19*
%TO.P,C204,1*%
%TO.N,+5VA*%
X163200000Y-119410000D03*
%TO.P,C204,2*%
%TO.N,GND*%
X161300000Y-119410000D03*
%TD*%
D29*
%TO.P,C423,1*%
%TO.N,Net-(C423-Pad1)*%
X132500000Y-133520000D03*
%TO.P,C423,2*%
%TO.N,GND*%
X132500000Y-134480000D03*
%TD*%
D30*
%TO.P,FL301,1,1*%
%TO.N,/MCU/USB_CMC_D-*%
X164337500Y-76250000D03*
%TO.P,FL301,2,2*%
%TO.N,/MCU/USB_CMC_D+*%
X164337500Y-75450000D03*
%TO.P,FL301,3,3*%
%TO.N,/MCU/USB_FS_D+*%
X162487500Y-75450000D03*
%TO.P,FL301,4,4*%
%TO.N,/MCU/USB_FS_D-*%
X162487500Y-76250000D03*
%TD*%
D31*
%TO.P,FB201,1*%
%TO.N,/Power/VCC_RP*%
X164250000Y-98900000D03*
%TO.P,FB201,2*%
%TO.N,/Power/VCC_FILT*%
X164250000Y-100475000D03*
%TD*%
D26*
%TO.P,R429,1*%
%TO.N,/Codec/NRST_FILT*%
X138490000Y-120910000D03*
%TO.P,R429,2*%
%TO.N,GND*%
X139510000Y-120910000D03*
%TD*%
D24*
%TO.P,J303,1,Pin_1*%
%TO.N,/MCU/ADC3_INP1*%
X113500000Y-96120000D03*
D25*
%TO.P,J303,2,Pin_2*%
%TO.N,/MCU/ADC3_INP0*%
X113500000Y-98660000D03*
%TO.P,J303,3,Pin_3*%
%TO.N,/MCU/ADC3_INP11*%
X113500000Y-101200000D03*
%TO.P,J303,4,Pin_4*%
%TO.N,/MCU/ADC3_INP10*%
X113500000Y-103740000D03*
%TO.P,J303,5,Pin_5*%
%TO.N,+3.3V*%
X113500000Y-106280000D03*
%TO.P,J303,6,Pin_6*%
%TO.N,GND*%
X113500000Y-108820000D03*
%TD*%
D32*
%TO.P,D401,1,A1*%
%TO.N,/Codec/AUDIO_VIN*%
X170300000Y-129182500D03*
%TO.P,D401,2,A2*%
%TO.N,GND*%
X170300000Y-133182500D03*
%TD*%
D33*
%TO.P,R406,1*%
%TO.N,Net-(C409-Pad1)*%
X158350000Y-133200000D03*
%TO.P,R406,2*%
%TO.N,Net-(C401-Pad2)*%
X156700000Y-133200000D03*
%TD*%
D13*
%TO.P,R420,1*%
%TO.N,I2S1_WS*%
X146000000Y-105675000D03*
%TO.P,R420,2*%
%TO.N,/Codec/CODEC_LRCK1*%
X146000000Y-107325000D03*
%TD*%
D28*
%TO.P,C421,1*%
%TO.N,+5VA*%
X130480000Y-128500000D03*
%TO.P,C421,2*%
%TO.N,GND*%
X129520000Y-128500000D03*
%TD*%
D14*
%TO.P,H104,1,1*%
%TO.N,GND*%
X112600000Y-138500000D03*
X113302944Y-136802944D03*
X113302944Y-140197056D03*
X115000000Y-136100000D03*
D15*
X115000000Y-138500000D03*
D14*
X115000000Y-140900000D03*
X116697056Y-136802944D03*
X116697056Y-140197056D03*
X117400000Y-138500000D03*
%TD*%
D34*
%TO.P,C410,1*%
%TO.N,/Codec/IN_AA_BUFF_IN*%
X152250000Y-129840000D03*
%TO.P,C410,2*%
%TO.N,GND*%
X153800000Y-129840000D03*
%TD*%
D35*
%TO.P,C316,1*%
%TO.N,/MCU/MCU_NRST*%
X138660589Y-80805334D03*
%TO.P,C316,2*%
%TO.N,GND*%
X139339411Y-80126512D03*
%TD*%
D10*
%TO.P,R404,1*%
%TO.N,/Codec/AUDIO_VIN*%
X167285000Y-130115000D03*
%TO.P,R404,2*%
%TO.N,/Codec/IN_RF*%
X166265000Y-130115000D03*
%TD*%
D36*
%TO.P,IC401,1,MC/SCL/FMT*%
%TO.N,I2C1_SCL*%
X149225000Y-113062000D03*
%TO.P,IC401,2,MD/SDA/DEMP*%
%TO.N,I2C1_SDA*%
X148575000Y-113062000D03*
%TO.P,IC401,3,DOUT*%
%TO.N,/Codec/CODEC_DOUT*%
X147925000Y-113062000D03*
%TO.P,IC401,4,LRCK1*%
%TO.N,/Codec/CODEC_LRCK1*%
X147275000Y-113062000D03*
%TO.P,IC401,5,BCK1*%
%TO.N,/Codec/CODEC_BCK1*%
X146625000Y-113062000D03*
%TO.P,IC401,6,SCKI1*%
%TO.N,/Codec/CODEC_SCK1*%
X145975000Y-113062000D03*
%TO.P,IC401,7,VDD*%
%TO.N,+3.3V*%
X145325000Y-113062000D03*
%TO.P,IC401,8,DGND*%
%TO.N,GND*%
X144675000Y-113062000D03*
%TO.P,IC401,9,SCKI2*%
%TO.N,unconnected-(IC401-SCKI2-Pad9)*%
X144025000Y-113062000D03*
%TO.P,IC401,10,BCK2*%
%TO.N,unconnected-(IC401-BCK2-Pad10)*%
X143375000Y-113062000D03*
%TO.P,IC401,11,LRCK2*%
%TO.N,unconnected-(IC401-LRCK2-Pad11)*%
X142725000Y-113062000D03*
%TO.P,IC401,12,DIN*%
%TO.N,/Codec/CODEC_DIN*%
X142075000Y-113062000D03*
%TO.P,IC401,13,ZEROR*%
%TO.N,unconnected-(IC401-ZEROR-Pad13)*%
X141425000Y-113062000D03*
%TO.P,IC401,14,ZEROL*%
%TO.N,unconnected-(IC401-ZEROL-Pad14)*%
X140775000Y-113062000D03*
%TO.P,IC401,15,~{RST}*%
%TO.N,/Codec/NRST_FILT*%
X140775000Y-118938000D03*
%TO.P,IC401,16,SGND*%
%TO.N,GND*%
X141425000Y-118938000D03*
%TO.P,IC401,17,VOUTR-*%
%TO.N,unconnected-(IC401-VOUTR--Pad17)*%
X142075000Y-118938000D03*
%TO.P,IC401,18,VOUTR+*%
%TO.N,Net-(IC401-VOUTR+)*%
X142725000Y-118938000D03*
%TO.P,IC401,19,VOUTL-*%
%TO.N,unconnected-(IC401-VOUTL--Pad19)*%
X143375000Y-118938000D03*
%TO.P,IC401,20,VOUTL+*%
%TO.N,/Codec/CODEC_VOUT*%
X144025000Y-118938000D03*
%TO.P,IC401,21,VCOM*%
%TO.N,/Codec/CODEC_VCOM*%
X144675000Y-118938000D03*
%TO.P,IC401,22,AGND2*%
%TO.N,GND*%
X145325000Y-118938000D03*
%TO.P,IC401,23,AGND1*%
X145975000Y-118938000D03*
%TO.P,IC401,24,VCC*%
%TO.N,+5VA*%
X146625000Y-118938000D03*
%TO.P,IC401,25,VINL*%
%TO.N,/Codec/CODEC_VIN*%
X147275000Y-118938000D03*
%TO.P,IC401,26,VINR*%
X147925000Y-118938000D03*
%TO.P,IC401,27,~{MS}/ADR/IFMD*%
%TO.N,GND*%
X148575000Y-118938000D03*
%TO.P,IC401,28,MODE*%
X149225000Y-118938000D03*
%TD*%
D29*
%TO.P,C419,1*%
%TO.N,/Codec/OUT_AA_BUFF_OUT*%
X123250000Y-130200000D03*
%TO.P,C419,2*%
%TO.N,Net-(C419-Pad2)*%
X123250000Y-131160000D03*
%TD*%
%TO.P,C312,1*%
%TO.N,VUSB_FILT*%
X166687500Y-80320000D03*
%TO.P,C312,2*%
%TO.N,GND*%
X166687500Y-81280000D03*
%TD*%
D34*
%TO.P,C407,1*%
%TO.N,/Codec/CODEC_VIN*%
X151000000Y-127400000D03*
%TO.P,C407,2*%
%TO.N,Net-(C407-Pad2)*%
X152550000Y-127400000D03*
%TD*%
D37*
%TO.P,U407,1*%
%TO.N,/Codec/OUT_AA_BUFF_OUT*%
X128000000Y-130000000D03*
%TO.P,U407,2,V-*%
%TO.N,GND*%
X128000000Y-130950000D03*
%TO.P,U407,3,+*%
%TO.N,/Codec/OUT_AA_BUFF_IN*%
X128000000Y-131900000D03*
%TO.P,U407,4,-*%
%TO.N,/Codec/OUT_AA_BUFF_OUT*%
X130500000Y-131900000D03*
%TO.P,U407,5,V+*%
%TO.N,+5VA*%
X130500000Y-130000000D03*
%TD*%
D35*
%TO.P,C315,1*%
%TO.N,Net-(C315-Pad1)*%
X134471178Y-99028822D03*
%TO.P,C315,2*%
%TO.N,GND*%
X135150000Y-98350000D03*
%TD*%
D13*
%TO.P,R424,1*%
%TO.N,I2S1_CK*%
X148500000Y-105660000D03*
%TO.P,R424,2*%
%TO.N,/Codec/CODEC_BCK1*%
X148500000Y-107310000D03*
%TD*%
D34*
%TO.P,C408,1*%
%TO.N,/Codec/IN_RF*%
X166025000Y-133300000D03*
%TO.P,C408,2*%
%TO.N,GND*%
X167575000Y-133300000D03*
%TD*%
D38*
%TO.P,C313,1*%
%TO.N,VBUS*%
X168470000Y-73350000D03*
%TO.P,C313,2*%
%TO.N,GND*%
X169430000Y-73350000D03*
%TD*%
D13*
%TO.P,R405,1*%
%TO.N,/Codec/IN_BUF_OUT*%
X160025000Y-129660000D03*
%TO.P,R405,2*%
%TO.N,Net-(C409-Pad1)*%
X160025000Y-131310000D03*
%TD*%
D38*
%TO.P,C433,1*%
%TO.N,/Codec/CODEC_VCOM*%
X144545000Y-120910000D03*
%TO.P,C433,2*%
%TO.N,GND*%
X145505000Y-120910000D03*
%TD*%
D29*
%TO.P,C311,1*%
%TO.N,VBUS*%
X168687500Y-80320000D03*
%TO.P,C311,2*%
%TO.N,GND*%
X168687500Y-81280000D03*
%TD*%
D39*
%TO.P,SW301,*%
%TO.N,*%
X113000000Y-80760000D03*
X110790000Y-80760000D03*
X113000000Y-88060000D03*
X110790000Y-88060000D03*
D40*
%TO.P,SW301,1,A*%
%TO.N,GND*%
X113650000Y-82160000D03*
%TO.P,SW301,2,B*%
%TO.N,Net-(SW301-B)*%
X113650000Y-85160000D03*
%TO.P,SW301,3,C*%
%TO.N,+3.3V*%
X113650000Y-86660000D03*
%TD*%
D28*
%TO.P,C404,1*%
%TO.N,+5VA*%
X158035000Y-128000000D03*
%TO.P,C404,2*%
%TO.N,GND*%
X157075000Y-128000000D03*
%TD*%
D29*
%TO.P,C401,1*%
%TO.N,/Codec/IN_AA_BUFF_OUT*%
X150775000Y-129610000D03*
%TO.P,C401,2*%
%TO.N,Net-(C401-Pad2)*%
X150775000Y-130570000D03*
%TD*%
D28*
%TO.P,C431,1*%
%TO.N,+5VA*%
X147505000Y-120910000D03*
%TO.P,C431,2*%
%TO.N,GND*%
X146545000Y-120910000D03*
%TD*%
D33*
%TO.P,R422,1*%
%TO.N,Net-(C423-Pad1)*%
X130825000Y-133550000D03*
%TO.P,R422,2*%
%TO.N,Net-(C419-Pad2)*%
X129175000Y-133550000D03*
%TD*%
D41*
%TO.P,C304,1*%
%TO.N,+3.3V*%
X146960589Y-77635589D03*
%TO.P,C304,2*%
%TO.N,GND*%
X147639411Y-78314411D03*
%TD*%
D42*
%TO.P,C430,1*%
%TO.N,+5VA*%
X148525000Y-122410000D03*
%TO.P,C430,2*%
%TO.N,GND*%
X146975000Y-122410000D03*
%TD*%
D24*
%TO.P,J202,1,Pin_1*%
%TO.N,GND*%
X176500000Y-96450000D03*
D25*
%TO.P,J202,2,Pin_2*%
%TO.N,VCC*%
X176500000Y-93910000D03*
%TD*%
D14*
%TO.P,H101,1,1*%
%TO.N,GND*%
X112600000Y-63500000D03*
X113302944Y-61802944D03*
X113302944Y-65197056D03*
X115000000Y-61100000D03*
D15*
X115000000Y-63500000D03*
D14*
X115000000Y-65900000D03*
X116697056Y-61802944D03*
X116697056Y-65197056D03*
X117400000Y-63500000D03*
%TD*%
D43*
%TO.P,C319,1*%
%TO.N,/MCU/MCU_VCAP2*%
X149298008Y-77798008D03*
%TO.P,C319,2*%
%TO.N,GND*%
X148201992Y-76701992D03*
%TD*%
D13*
%TO.P,R428,1*%
%TO.N,I2S1_SDO*%
X153500000Y-105675000D03*
%TO.P,R428,2*%
%TO.N,/Codec/CODEC_DIN*%
X153500000Y-107325000D03*
%TD*%
D34*
%TO.P,C422,1*%
%TO.N,/Codec/AUDIO_VOUT*%
X123450000Y-127640000D03*
%TO.P,C422,2*%
%TO.N,Net-(C422-Pad2)*%
X125000000Y-127640000D03*
%TD*%
D10*
%TO.P,R304,1*%
%TO.N,/MCU/USB_CON_CC2*%
X175710000Y-70350000D03*
%TO.P,R304,2*%
%TO.N,GND*%
X174690000Y-70350000D03*
%TD*%
D37*
%TO.P,U401,1*%
%TO.N,VCOM*%
X146350000Y-131700000D03*
%TO.P,U401,2,V-*%
%TO.N,GND*%
X146350000Y-130750000D03*
%TO.P,U401,3,+*%
%TO.N,/Codec/VREF*%
X146350000Y-129800000D03*
%TO.P,U401,4,-*%
%TO.N,VCOM*%
X143850000Y-129800000D03*
%TO.P,U401,5,V+*%
%TO.N,+5VA*%
X143850000Y-131700000D03*
%TD*%
D24*
%TO.P,J401,1,Pin_1*%
%TO.N,GND*%
X176500000Y-131680000D03*
D25*
%TO.P,J401,2,Pin_2*%
%TO.N,/Codec/AUDIO_VIN*%
X176500000Y-129140000D03*
%TD*%
D26*
%TO.P,R403,1*%
%TO.N,/Codec/VREF*%
X146380000Y-128260000D03*
%TO.P,R403,2*%
%TO.N,GND*%
X147400000Y-128260000D03*
%TD*%
D38*
%TO.P,C420,1*%
%TO.N,+5VA*%
X134750000Y-133200000D03*
%TO.P,C420,2*%
%TO.N,GND*%
X135710000Y-133200000D03*
%TD*%
D13*
%TO.P,R426,1*%
%TO.N,I2S1_MCK*%
X143500000Y-105675000D03*
%TO.P,R426,2*%
%TO.N,/Codec/CODEC_SCK1*%
X143500000Y-107325000D03*
%TD*%
D44*
%TO.P,U302,1,PE2*%
%TO.N,unconnected-(U302-PE2-Pad1)*%
X135330315Y-90094404D03*
%TO.P,U302,2,PE3*%
%TO.N,unconnected-(U302-PE3-Pad2)*%
X135683868Y-90447957D03*
%TO.P,U302,3,PE4*%
%TO.N,unconnected-(U302-PE4-Pad3)*%
X136037422Y-90801511D03*
%TO.P,U302,4,PE5*%
%TO.N,unconnected-(U302-PE5-Pad4)*%
X136390975Y-91155064D03*
%TO.P,U302,5,PE6*%
%TO.N,unconnected-(U302-PE6-Pad5)*%
X136744528Y-91508617D03*
%TO.P,U302,6,VBAT*%
%TO.N,+3.3V*%
X137098082Y-91862171D03*
%TO.P,U302,7,PC13*%
%TO.N,unconnected-(U302-PC13-Pad7)*%
X137451635Y-92215724D03*
%TO.P,U302,8,PC14*%
%TO.N,unconnected-(U302-PC14-Pad8)*%
X137805189Y-92569278D03*
%TO.P,U302,9,PC15*%
%TO.N,unconnected-(U302-PC15-Pad9)*%
X138158742Y-92922831D03*
%TO.P,U302,10,VSS*%
%TO.N,GND*%
X138512295Y-93276384D03*
%TO.P,U302,11,VDD*%
%TO.N,+3.3V*%
X138865849Y-93629938D03*
%TO.P,U302,12,PH0*%
%TO.N,/MCU/HSE_IN*%
X139219402Y-93983491D03*
%TO.P,U302,13,PH1*%
%TO.N,/MCU/HSE_OUT*%
X139572955Y-94337045D03*
%TO.P,U302,14,NRST*%
%TO.N,/MCU/MCU_NRST*%
X139926509Y-94690598D03*
%TO.P,U302,15,PC0*%
%TO.N,/MCU/ADC3_INP10*%
X140280062Y-95044151D03*
%TO.P,U302,16,PC1*%
%TO.N,/MCU/ADC3_INP11*%
X140633616Y-95397705D03*
%TO.P,U302,17,PC2_C*%
%TO.N,/MCU/ADC3_INP0*%
X140987169Y-95751258D03*
%TO.P,U302,18,PC3_C*%
%TO.N,/MCU/ADC3_INP1*%
X141340722Y-96104811D03*
%TO.P,U302,19,VSSA*%
%TO.N,GND*%
X141694276Y-96458365D03*
%TO.P,U302,20,VREF+*%
%TO.N,VDDA*%
X142047829Y-96811918D03*
%TO.P,U302,21,VDDA*%
X142401383Y-97165472D03*
%TO.P,U302,22,PA0*%
%TO.N,CODEC_NRST*%
X142754936Y-97519025D03*
%TO.P,U302,23,PA1*%
%TO.N,unconnected-(U302-PA1-Pad23)*%
X143108489Y-97872578D03*
%TO.P,U302,24,PA2*%
%TO.N,unconnected-(U302-PA2-Pad24)*%
X143462043Y-98226132D03*
%TO.P,U302,25,PA3*%
%TO.N,unconnected-(U302-PA3-Pad25)*%
X143815596Y-98579685D03*
D45*
%TO.P,U302,26,VSS*%
%TO.N,GND*%
X146184404Y-98579685D03*
%TO.P,U302,27,VDD*%
%TO.N,+3.3V*%
X146537957Y-98226132D03*
%TO.P,U302,28,PA4*%
%TO.N,I2S1_WS*%
X146891511Y-97872578D03*
%TO.P,U302,29,PA5*%
%TO.N,I2S1_CK*%
X147245064Y-97519025D03*
%TO.P,U302,30,PA6*%
%TO.N,I2S1_SDI*%
X147598617Y-97165472D03*
%TO.P,U302,31,PA7*%
%TO.N,I2S1_SDO*%
X147952171Y-96811918D03*
%TO.P,U302,32,PC4*%
%TO.N,I2S1_MCK*%
X148305724Y-96458365D03*
%TO.P,U302,33,PC5*%
%TO.N,unconnected-(U302-PC5-Pad33)*%
X148659278Y-96104811D03*
%TO.P,U302,34,PB0*%
%TO.N,unconnected-(U302-PB0-Pad34)*%
X149012831Y-95751258D03*
%TO.P,U302,35,PB1*%
%TO.N,unconnected-(U302-PB1-Pad35)*%
X149366384Y-95397705D03*
%TO.P,U302,36,PB2*%
%TO.N,unconnected-(U302-PB2-Pad36)*%
X149719938Y-95044151D03*
%TO.P,U302,37,PE7*%
%TO.N,unconnected-(U302-PE7-Pad37)*%
X150073491Y-94690598D03*
%TO.P,U302,38,PE8*%
%TO.N,unconnected-(U302-PE8-Pad38)*%
X150427045Y-94337045D03*
%TO.P,U302,39,PE9*%
%TO.N,unconnected-(U302-PE9-Pad39)*%
X150780598Y-93983491D03*
%TO.P,U302,40,PE10*%
%TO.N,unconnected-(U302-PE10-Pad40)*%
X151134151Y-93629938D03*
%TO.P,U302,41,PE11*%
%TO.N,unconnected-(U302-PE11-Pad41)*%
X151487705Y-93276384D03*
%TO.P,U302,42,PE12*%
%TO.N,unconnected-(U302-PE12-Pad42)*%
X151841258Y-92922831D03*
%TO.P,U302,43,PE13*%
%TO.N,unconnected-(U302-PE13-Pad43)*%
X152194811Y-92569278D03*
%TO.P,U302,44,PE14*%
%TO.N,unconnected-(U302-PE14-Pad44)*%
X152548365Y-92215724D03*
%TO.P,U302,45,PE15*%
%TO.N,unconnected-(U302-PE15-Pad45)*%
X152901918Y-91862171D03*
%TO.P,U302,46,PB10*%
%TO.N,I2C1_SCL*%
X153255472Y-91508617D03*
%TO.P,U302,47,PB11*%
%TO.N,I2C1_SDA*%
X153609025Y-91155064D03*
%TO.P,U302,48,VCAP*%
%TO.N,/MCU/MCU_VCAP1*%
X153962578Y-90801511D03*
%TO.P,U302,49,VSS*%
%TO.N,GND*%
X154316132Y-90447957D03*
%TO.P,U302,50,VDD*%
%TO.N,+3.3V*%
X154669685Y-90094404D03*
D44*
%TO.P,U302,51,PB12*%
%TO.N,unconnected-(U302-PB12-Pad51)*%
X154669685Y-87725596D03*
%TO.P,U302,52,PB13*%
%TO.N,unconnected-(U302-PB13-Pad52)*%
X154316132Y-87372043D03*
%TO.P,U302,53,PB14*%
%TO.N,unconnected-(U302-PB14-Pad53)*%
X153962578Y-87018489D03*
%TO.P,U302,54,PB15*%
%TO.N,unconnected-(U302-PB15-Pad54)*%
X153609025Y-86664936D03*
%TO.P,U302,55,PD8*%
%TO.N,unconnected-(U302-PD8-Pad55)*%
X153255472Y-86311383D03*
%TO.P,U302,56,PD9*%
%TO.N,unconnected-(U302-PD9-Pad56)*%
X152901918Y-85957829D03*
%TO.P,U302,57,PD10*%
%TO.N,unconnected-(U302-PD10-Pad57)*%
X152548365Y-85604276D03*
%TO.P,U302,58,PD11*%
%TO.N,unconnected-(U302-PD11-Pad58)*%
X152194811Y-85250722D03*
%TO.P,U302,59,PD12*%
%TO.N,/MCU/TIM4_CH1*%
X151841258Y-84897169D03*
%TO.P,U302,60,PD13*%
%TO.N,/MCU/TIM4_CH2*%
X151487705Y-84543616D03*
%TO.P,U302,61,PD14*%
%TO.N,/MCU/TIM4_CH3*%
X151134151Y-84190062D03*
%TO.P,U302,62,PD15*%
%TO.N,unconnected-(U302-PD15-Pad62)*%
X150780598Y-83836509D03*
%TO.P,U302,63,PC6*%
%TO.N,unconnected-(U302-PC6-Pad63)*%
X150427045Y-83482955D03*
%TO.P,U302,64,PC7*%
%TO.N,unconnected-(U302-PC7-Pad64)*%
X150073491Y-83129402D03*
%TO.P,U302,65,PC8*%
%TO.N,unconnected-(U302-PC8-Pad65)*%
X149719938Y-82775849D03*
%TO.P,U302,66,PC9*%
%TO.N,unconnected-(U302-PC9-Pad66)*%
X149366384Y-82422295D03*
%TO.P,U302,67,PA8*%
%TO.N,unconnected-(U302-PA8-Pad67)*%
X149012831Y-82068742D03*
%TO.P,U302,68,PA9*%
%TO.N,unconnected-(U302-PA9-Pad68)*%
X148659278Y-81715189D03*
%TO.P,U302,69,PA10*%
%TO.N,unconnected-(U302-PA10-Pad69)*%
X148305724Y-81361635D03*
%TO.P,U302,70,PA11*%
%TO.N,/MCU/USB_FS_D-*%
X147952171Y-81008082D03*
%TO.P,U302,71,PA12*%
%TO.N,/MCU/USB_FS_D+*%
X147598617Y-80654528D03*
%TO.P,U302,72,PA13(JTMS*%
%TO.N,/MCU/MCU_SWDIO*%
X147245064Y-80300975D03*
%TO.P,U302,73,VCAP*%
%TO.N,/MCU/MCU_VCAP2*%
X146891511Y-79947422D03*
%TO.P,U302,74,VSS*%
%TO.N,GND*%
X146537957Y-79593868D03*
%TO.P,U302,75,VDD*%
%TO.N,+3.3V*%
X146184404Y-79240315D03*
D45*
%TO.P,U302,76,PA14(JTCK*%
%TO.N,/MCU/MCU_SWCLK*%
X143815596Y-79240315D03*
%TO.P,U302,77,PA15(JTDI)*%
%TO.N,unconnected-(U302-PA15(JTDI)-Pad77)*%
X143462043Y-79593868D03*
%TO.P,U302,78,PC10*%
%TO.N,unconnected-(U302-PC10-Pad78)*%
X143108489Y-79947422D03*
%TO.P,U302,79,PC11*%
%TO.N,unconnected-(U302-PC11-Pad79)*%
X142754936Y-80300975D03*
%TO.P,U302,80,PC12*%
%TO.N,unconnected-(U302-PC12-Pad80)*%
X142401383Y-80654528D03*
%TO.P,U302,81,PD0*%
%TO.N,unconnected-(U302-PD0-Pad81)*%
X142047829Y-81008082D03*
%TO.P,U302,82,PD1*%
%TO.N,unconnected-(U302-PD1-Pad82)*%
X141694276Y-81361635D03*
%TO.P,U302,83,PD2*%
%TO.N,unconnected-(U302-PD2-Pad83)*%
X141340722Y-81715189D03*
%TO.P,U302,84,PD3*%
%TO.N,unconnected-(U302-PD3-Pad84)*%
X140987169Y-82068742D03*
%TO.P,U302,85,PD4*%
%TO.N,unconnected-(U302-PD4-Pad85)*%
X140633616Y-82422295D03*
%TO.P,U302,86,PD5*%
%TO.N,unconnected-(U302-PD5-Pad86)*%
X140280062Y-82775849D03*
%TO.P,U302,87,PD6*%
%TO.N,unconnected-(U302-PD6-Pad87)*%
X139926509Y-83129402D03*
%TO.P,U302,88,PD7*%
%TO.N,unconnected-(U302-PD7-Pad88)*%
X139572955Y-83482955D03*
%TO.P,U302,89,PB3(JTDO*%
%TO.N,/MCU/MCU_SWO*%
X139219402Y-83836509D03*
%TO.P,U302,90,PB4(NJTRST)*%
%TO.N,unconnected-(U302-PB4(NJTRST)-Pad90)*%
X138865849Y-84190062D03*
%TO.P,U302,91,PB5*%
%TO.N,unconnected-(U302-PB5-Pad91)*%
X138512295Y-84543616D03*
%TO.P,U302,92,PB6*%
%TO.N,unconnected-(U302-PB6-Pad92)*%
X138158742Y-84897169D03*
%TO.P,U302,93,PB7*%
%TO.N,unconnected-(U302-PB7-Pad93)*%
X137805189Y-85250722D03*
%TO.P,U302,94,BOOT0*%
%TO.N,/MCU/BOOT0*%
X137451635Y-85604276D03*
%TO.P,U302,95,PB8*%
%TO.N,unconnected-(U302-PB8-Pad95)*%
X137098082Y-85957829D03*
%TO.P,U302,96,PB9*%
%TO.N,unconnected-(U302-PB9-Pad96)*%
X136744528Y-86311383D03*
%TO.P,U302,97,PE0*%
%TO.N,unconnected-(U302-PE0-Pad97)*%
X136390975Y-86664936D03*
%TO.P,U302,98,PE1*%
%TO.N,unconnected-(U302-PE1-Pad98)*%
X136037422Y-87018489D03*
%TO.P,U302,99,VSS*%
%TO.N,GND*%
X135683868Y-87372043D03*
%TO.P,U302,100,VDD*%
%TO.N,+3.3V*%
X135330315Y-87725596D03*
%TD*%
D46*
%TO.P,R201,1*%
%TO.N,+5V*%
X164200000Y-115087500D03*
%TO.P,R201,2*%
%TO.N,+5VA*%
X164200000Y-116912500D03*
%TD*%
D37*
%TO.P,U402,1*%
%TO.N,/Codec/IN_BUF_OUT*%
X162025000Y-129600000D03*
%TO.P,U402,2,V-*%
%TO.N,GND*%
X162025000Y-130550000D03*
%TO.P,U402,3,+*%
%TO.N,/Codec/IN_BUF_IN*%
X162025000Y-131500000D03*
%TO.P,U402,4,-*%
%TO.N,/Codec/IN_BUF_OUT*%
X164525000Y-131500000D03*
%TO.P,U402,5,V+*%
%TO.N,+5VA*%
X164525000Y-129600000D03*
%TD*%
D47*
%TO.P,C309,1*%
%TO.N,VDDA*%
X139900000Y-99250000D03*
%TO.P,C309,2*%
%TO.N,GND*%
X139221178Y-98571178D03*
%TD*%
D34*
%TO.P,C432,1*%
%TO.N,/Codec/CODEC_VCOM*%
X143750000Y-122410000D03*
%TO.P,C432,2*%
%TO.N,GND*%
X145300000Y-122410000D03*
%TD*%
D13*
%TO.P,R417,1*%
%TO.N,+3.3V*%
X151750000Y-109500000D03*
%TO.P,R417,2*%
%TO.N,I2C1_SCL*%
X151750000Y-111150000D03*
%TD*%
D10*
%TO.P,R402,1*%
%TO.N,/Codec/IN_BUF_IN*%
X162535000Y-133300000D03*
%TO.P,R402,2*%
%TO.N,VCOM*%
X161515000Y-133300000D03*
%TD*%
D37*
%TO.P,U406,1*%
%TO.N,/Codec/OUT_BUF_OUT*%
X137250000Y-131730000D03*
%TO.P,U406,2,V-*%
%TO.N,GND*%
X137250000Y-130780000D03*
%TO.P,U406,3,+*%
%TO.N,/Codec/CODEC_VOUT*%
X137250000Y-129830000D03*
%TO.P,U406,4,-*%
%TO.N,/Codec/OUT_BUF_OUT*%
X134750000Y-129830000D03*
%TO.P,U406,5,V+*%
%TO.N,+5VA*%
X134750000Y-131730000D03*
%TD*%
D20*
%TO.P,R306,1*%
%TO.N,/MCU/MCU_SWCLK*%
X138334350Y-76514478D03*
%TO.P,R306,2*%
%TO.N,/MCU/SWCLK*%
X137167624Y-75347752D03*
%TD*%
D48*
%TO.P,C318,1*%
%TO.N,/MCU/MCU_VCAP1*%
X156201992Y-92998008D03*
%TO.P,C318,2*%
%TO.N,GND*%
X157298008Y-91901992D03*
%TD*%
D37*
%TO.P,U403,1*%
%TO.N,/Codec/IN_AA_BUFF_OUT*%
X155525000Y-129600000D03*
%TO.P,U403,2,V-*%
%TO.N,GND*%
X155525000Y-130550000D03*
%TO.P,U403,3,+*%
%TO.N,/Codec/IN_AA_BUFF_IN*%
X155525000Y-131500000D03*
%TO.P,U403,4,-*%
%TO.N,/Codec/IN_AA_BUFF_OUT*%
X158025000Y-131500000D03*
%TO.P,U403,5,V+*%
%TO.N,+5VA*%
X158025000Y-129600000D03*
%TD*%
D49*
%TO.P,C314,1*%
%TO.N,/MCU/HSE_IN*%
X136650000Y-96850000D03*
%TO.P,C314,2*%
%TO.N,GND*%
X135971178Y-97528822D03*
%TD*%
D23*
%TO.P,C411,1*%
%TO.N,CODEC_NRST*%
X134350000Y-113250000D03*
%TO.P,C411,2*%
%TO.N,GND*%
X136250000Y-113250000D03*
%TD*%
D50*
%TO.P,U301,1,I/O1*%
%TO.N,/MCU/USB_CON_D-*%
X169625000Y-76800000D03*
%TO.P,U301,2,GND*%
%TO.N,GND*%
X169625000Y-75850000D03*
%TO.P,U301,3,I/O2*%
%TO.N,/MCU/USB_CON_D+*%
X169625000Y-74900000D03*
%TO.P,U301,4,I/O2*%
%TO.N,/MCU/USB_CMC_D+*%
X167350000Y-74900000D03*
%TO.P,U301,5,VBUS*%
%TO.N,VBUS*%
X167350000Y-75850000D03*
%TO.P,U301,6,I/O1*%
%TO.N,/MCU/USB_CMC_D-*%
X167350000Y-76800000D03*
%TD*%
D17*
%TO.P,R408,1*%
%TO.N,/Codec/IN_AA_BUFF_OUT*%
X154000000Y-128160000D03*
%TO.P,R408,2*%
%TO.N,Net-(C407-Pad2)*%
X154000000Y-127140000D03*
%TD*%
D47*
%TO.P,C303,1*%
%TO.N,+3.3V*%
X135839411Y-93039411D03*
%TO.P,C303,2*%
%TO.N,GND*%
X135160589Y-92360589D03*
%TD*%
%TO.P,C307,1*%
%TO.N,+3.3V*%
X137639411Y-94789411D03*
%TO.P,C307,2*%
%TO.N,GND*%
X136960589Y-94110589D03*
%TD*%
D32*
%TO.P,D203,1,A1*%
%TO.N,VCC*%
X170750000Y-93900000D03*
%TO.P,D203,2,A2*%
%TO.N,GND*%
X170750000Y-97900000D03*
%TD*%
D49*
%TO.P,C306,1*%
%TO.N,+3.3V*%
X156400000Y-90900000D03*
%TO.P,C306,2*%
%TO.N,GND*%
X155721178Y-91578822D03*
%TD*%
D47*
%TO.P,C317,1*%
%TO.N,+3.3V*%
X159589411Y-79499411D03*
%TO.P,C317,2*%
%TO.N,GND*%
X158910589Y-78820589D03*
%TD*%
D42*
%TO.P,C428,1*%
%TO.N,+3.3V*%
X145025000Y-109910000D03*
%TO.P,C428,2*%
%TO.N,GND*%
X143475000Y-109910000D03*
%TD*%
D28*
%TO.P,C406,1*%
%TO.N,/Codec/IN_RF*%
X164505000Y-133300000D03*
%TO.P,C406,2*%
%TO.N,/Codec/IN_BUF_IN*%
X163545000Y-133300000D03*
%TD*%
D29*
%TO.P,C409,1*%
%TO.N,Net-(C409-Pad1)*%
X160025000Y-133150000D03*
%TO.P,C409,2*%
%TO.N,GND*%
X160025000Y-134110000D03*
%TD*%
D51*
%TO.P,U202,1,GND*%
%TO.N,GND*%
X148150000Y-70210000D03*
%TO.P,U202,2,VO*%
%TO.N,+3.3V*%
X148150000Y-67910000D03*
D52*
X141850000Y-67910000D03*
D51*
%TO.P,U202,3,VI*%
%TO.N,/Power/VCC_FILT*%
X148150000Y-65610000D03*
%TD*%
D23*
%TO.P,C205,1*%
%TO.N,/Power/VCC_RP*%
X166050000Y-98400000D03*
%TO.P,C205,2*%
%TO.N,GND*%
X167950000Y-98400000D03*
%TD*%
D13*
%TO.P,R419,1*%
%TO.N,I2S1_SDI*%
X151000000Y-105660000D03*
%TO.P,R419,2*%
%TO.N,/Codec/CODEC_DOUT*%
X151000000Y-107310000D03*
%TD*%
D19*
%TO.P,C207,1*%
%TO.N,/Power/VCC_FILT*%
X162150000Y-108660000D03*
%TO.P,C207,2*%
%TO.N,GND*%
X160250000Y-108660000D03*
%TD*%
D34*
%TO.P,C424,1*%
%TO.N,/Codec/OUT_AA_BUFF_IN*%
X124700000Y-130100000D03*
%TO.P,C424,2*%
%TO.N,GND*%
X126250000Y-130100000D03*
%TD*%
D35*
%TO.P,C302,1*%
%TO.N,+3.3V*%
X133860589Y-86589411D03*
%TO.P,C302,2*%
%TO.N,GND*%
X134539411Y-85910589D03*
%TD*%
D21*
%TO.P,D202,1,K*%
%TO.N,/Power/VCC_RP*%
X167500000Y-96300000D03*
%TO.P,D202,2,A*%
%TO.N,VCC*%
X167500000Y-93000000D03*
%TD*%
D10*
%TO.P,R410,1*%
%TO.N,Net-(IC401-VOUTR+)*%
X141760000Y-120910000D03*
%TO.P,R410,2*%
%TO.N,GND*%
X140740000Y-120910000D03*
%TD*%
D53*
%TO.P,J302,1,VCC*%
%TO.N,+3.3V*%
X132351975Y-71317898D03*
%TO.P,J302,2,SWDIO*%
%TO.N,/MCU/SWDIO*%
X133250000Y-72215923D03*
%TO.P,J302,3,~{RESET}*%
%TO.N,/MCU/NRST*%
X131453949Y-72215923D03*
%TO.P,J302,4,SWCLK*%
%TO.N,/MCU/SWCLK*%
X132351975Y-73113949D03*
%TO.P,J302,5,GND*%
%TO.N,GND*%
X130555924Y-73113949D03*
%TO.P,J302,6,SWO*%
%TO.N,/MCU/SWO*%
X131453949Y-74011974D03*
%TD*%
D54*
%TO.P,U201,1,IN*%
%TO.N,/Power/VCC_FILT*%
X162150000Y-110772500D03*
%TO.P,U201,2,GND*%
%TO.N,GND*%
X161200000Y-110772500D03*
%TO.P,U201,3,EN*%
%TO.N,/Power/VCC_FILT*%
X160250000Y-110772500D03*
%TO.P,U201,4,NC*%
%TO.N,unconnected-(U201-NC-Pad4)*%
X160250000Y-113047500D03*
%TO.P,U201,5,OUT*%
%TO.N,+5V*%
X162150000Y-113047500D03*
%TD*%
D55*
%TO.P,J301,A1,GND*%
%TO.N,GND*%
X173405000Y-79600000D03*
%TO.P,J301,A4,VBUS*%
%TO.N,VBUS*%
X173405000Y-78800000D03*
D56*
%TO.P,J301,A5,CC1*%
%TO.N,/MCU/USB_CON_CC1*%
X173405000Y-77600000D03*
%TO.P,J301,A6,D+*%
%TO.N,/MCU/USB_CON_D+*%
X173405000Y-76600000D03*
%TO.P,J301,A7,D-*%
%TO.N,/MCU/USB_CON_D-*%
X173405000Y-76100000D03*
%TO.P,J301,A8,SBU1*%
%TO.N,unconnected-(J301-SBU1-PadA8)*%
X173405000Y-75100000D03*
D55*
%TO.P,J301,A9,VBUS*%
%TO.N,VBUS*%
X173405000Y-73900000D03*
%TO.P,J301,A12,GND*%
%TO.N,GND*%
X173405000Y-73100000D03*
%TO.P,J301,B1,GND*%
X173405000Y-73100000D03*
%TO.P,J301,B4,VBUS*%
%TO.N,VBUS*%
X173405000Y-73900000D03*
D56*
%TO.P,J301,B5,CC2*%
%TO.N,/MCU/USB_CON_CC2*%
X173405000Y-74600000D03*
%TO.P,J301,B6,D+*%
%TO.N,/MCU/USB_CON_D+*%
X173405000Y-75600000D03*
%TO.P,J301,B7,D-*%
%TO.N,/MCU/USB_CON_D-*%
X173405000Y-77100000D03*
%TO.P,J301,B8,SBU2*%
%TO.N,unconnected-(J301-SBU2-PadB8)*%
X173405000Y-78100000D03*
D55*
%TO.P,J301,B9,VBUS*%
%TO.N,VBUS*%
X173405000Y-78800000D03*
%TO.P,J301,B12,GND*%
%TO.N,GND*%
X173405000Y-79600000D03*
D57*
%TO.P,J301,S1,SHIELD*%
%TO.N,N/C*%
X174320000Y-80670000D03*
D58*
X178500000Y-80670000D03*
D57*
X174320000Y-72030000D03*
D58*
X178500000Y-72030000D03*
%TD*%
D47*
%TO.P,C310,1*%
%TO.N,+3.3V*%
X138789411Y-100289411D03*
%TO.P,C310,2*%
%TO.N,GND*%
X138110589Y-99610589D03*
%TD*%
D32*
%TO.P,D403,1,A1*%
%TO.N,/Codec/AUDIO_VOUT*%
X119500000Y-129150000D03*
%TO.P,D403,2,A2*%
%TO.N,GND*%
X119500000Y-133150000D03*
%TD*%
D59*
%TO.P,FB301,1*%
%TO.N,VDDA*%
X140956847Y-100193153D03*
%TO.P,FB301,2*%
%TO.N,+3.3V*%
X139843153Y-101306847D03*
%TD*%
D29*
%TO.P,C402,1*%
%TO.N,+5VA*%
X142400000Y-131720000D03*
%TO.P,C402,2*%
%TO.N,GND*%
X142400000Y-132680000D03*
%TD*%
D20*
%TO.P,R307,1*%
%TO.N,/MCU/MCU_SWO*%
X135083363Y-79733363D03*
%TO.P,R307,2*%
%TO.N,/MCU/SWO*%
X133916637Y-78566637D03*
%TD*%
D23*
%TO.P,C202,1*%
%TO.N,+5VA*%
X165350000Y-121660000D03*
%TO.P,C202,2*%
%TO.N,GND*%
X167250000Y-121660000D03*
%TD*%
%TO.P,C209,1*%
%TO.N,+3.3V*%
X146250000Y-72660000D03*
%TO.P,C209,2*%
%TO.N,GND*%
X148150000Y-72660000D03*
%TD*%
D47*
%TO.P,C308,1*%
%TO.N,VDDA*%
X140914411Y-98289411D03*
%TO.P,C308,2*%
%TO.N,GND*%
X140235589Y-97610589D03*
%TD*%
D11*
%TO.P,R308,1*%
%TO.N,/MCU/MCU_NRST*%
X137365650Y-79952248D03*
%TO.P,R308,2*%
%TO.N,/MCU/NRST*%
X138532376Y-78785522D03*
%TD*%
D22*
%TO.P,R423,1*%
%TO.N,Net-(C419-Pad2)*%
X126250000Y-133575000D03*
%TO.P,R423,2*%
%TO.N,/Codec/OUT_AA_BUFF_IN*%
X126250000Y-131925000D03*
%TD*%
D60*
%TO.P,D302,1,K1*%
%TO.N,+3.3V*%
X136411145Y-78750256D03*
%TO.P,D302,2,A*%
%TO.N,GND*%
X136870764Y-78290636D03*
%TO.P,D302,3,K2*%
%TO.N,/MCU/NRST*%
X137330384Y-77831017D03*
%TO.P,D302,4,K3*%
%TO.N,/MCU/SWDIO*%
X135986881Y-76487514D03*
%TO.P,D302,5,K4*%
%TO.N,/MCU/SWCLK*%
X135527262Y-76947134D03*
%TO.P,D302,6,K5*%
%TO.N,/MCU/SWO*%
X135067642Y-77406753D03*
%TD*%
D28*
%TO.P,C403,1*%
%TO.N,+5VA*%
X164505000Y-128050000D03*
%TO.P,C403,2*%
%TO.N,GND*%
X163545000Y-128050000D03*
%TD*%
D23*
%TO.P,C412,1*%
%TO.N,/Codec/NRST_FILT*%
X134350000Y-118900000D03*
%TO.P,C412,2*%
%TO.N,GND*%
X136250000Y-118900000D03*
%TD*%
D48*
%TO.P,C301,1*%
%TO.N,+3.3V*%
X132587581Y-85637419D03*
%TO.P,C301,2*%
%TO.N,GND*%
X133683597Y-84541403D03*
%TD*%
D19*
%TO.P,C208,1*%
%TO.N,+5V*%
X162150000Y-115100000D03*
%TO.P,C208,2*%
%TO.N,GND*%
X160250000Y-115100000D03*
%TD*%
D61*
%TO.P,C210,1*%
%TO.N,/Power/VCC_FILT*%
X150750000Y-66460000D03*
%TO.P,C210,2*%
%TO.N,GND*%
X150750000Y-68360000D03*
%TD*%
D11*
%TO.P,R311,1*%
%TO.N,/MCU/TIM4_CH3*%
X152166637Y-81743363D03*
%TO.P,R311,2*%
%TO.N,/MCU/LED_R*%
X153333363Y-80576637D03*
%TD*%
D13*
%TO.P,R418,1*%
%TO.N,+3.3V*%
X150000000Y-109500000D03*
%TO.P,R418,2*%
%TO.N,I2C1_SDA*%
X150000000Y-111150000D03*
%TD*%
D62*
%TO.P,D204,1,K*%
%TO.N,GND*%
X140602500Y-72650000D03*
%TO.P,D204,2,A*%
%TO.N,/Power/R_LED*%
X142177500Y-72650000D03*
%TD*%
D49*
%TO.P,C305,1*%
%TO.N,+3.3V*%
X147689411Y-99610589D03*
%TO.P,C305,2*%
%TO.N,GND*%
X147010589Y-100289411D03*
%TD*%
D63*
%TO.N,+5VA*%
X143199500Y-125200000D03*
X151750000Y-125200000D03*
X141800500Y-125200000D03*
X150300500Y-125200000D03*
D64*
%TO.N,GND*%
X162500000Y-73500000D03*
D63*
X152750000Y-67450000D03*
D64*
X170000000Y-71000000D03*
X172500000Y-131000000D03*
D63*
X172100000Y-80400000D03*
D64*
X135000000Y-136000000D03*
X162500000Y-136000000D03*
X125000000Y-73500000D03*
D63*
X143900000Y-74100000D03*
D64*
X160000000Y-103500000D03*
X167500000Y-88500000D03*
X165000000Y-91000000D03*
X170000000Y-123500000D03*
D63*
X139550000Y-107300000D03*
D64*
X157500000Y-121000000D03*
X112500000Y-121000000D03*
X167500000Y-61000000D03*
X132500000Y-128500000D03*
X177500000Y-113500000D03*
X117500000Y-113500000D03*
X152500000Y-68500000D03*
X155000000Y-118500000D03*
X170000000Y-103500000D03*
D63*
X139350000Y-104050000D03*
D64*
X155000000Y-63500000D03*
X140000000Y-68500000D03*
X117500000Y-86000000D03*
X112500000Y-118500000D03*
X120000000Y-71000000D03*
X152500000Y-116000000D03*
X172500000Y-68500000D03*
D63*
X137300000Y-113200000D03*
D64*
X177500000Y-123500000D03*
X165000000Y-63500000D03*
X125000000Y-123500000D03*
X125000000Y-136000000D03*
X122500000Y-83500000D03*
X157500000Y-118500000D03*
X172500000Y-83500000D03*
X120000000Y-93500000D03*
X177500000Y-111000000D03*
X122500000Y-141000000D03*
D63*
X143200000Y-124300000D03*
D64*
X125000000Y-113500000D03*
D63*
X147550000Y-130750000D03*
D64*
X165000000Y-141000000D03*
X122500000Y-138500000D03*
X127500000Y-81000000D03*
X115000000Y-113500000D03*
X132500000Y-81000000D03*
X117500000Y-123500000D03*
X152500000Y-71000000D03*
D63*
X173900000Y-82350000D03*
D64*
X172500000Y-101000000D03*
X172500000Y-88500000D03*
X125000000Y-111000000D03*
X152500000Y-61000000D03*
X170000000Y-108500000D03*
D63*
X159800000Y-119050000D03*
D64*
X145000000Y-61000000D03*
X167500000Y-123500000D03*
X170000000Y-83500000D03*
D63*
X159100000Y-77500000D03*
D64*
X132500000Y-138500000D03*
X122500000Y-126000000D03*
D63*
X162700000Y-106750000D03*
D64*
X175000000Y-98500000D03*
X157500000Y-68500000D03*
X120000000Y-136000000D03*
D63*
X160815500Y-134100000D03*
X133350000Y-134500000D03*
D64*
X172500000Y-116000000D03*
X122500000Y-71000000D03*
D63*
X165650000Y-81200000D03*
D64*
X132500000Y-123500000D03*
D63*
X172100000Y-72300000D03*
D64*
X167500000Y-91000000D03*
D63*
X159800000Y-122100000D03*
D64*
X172500000Y-133500000D03*
D63*
X169300000Y-99800000D03*
X148300000Y-127950000D03*
D64*
X167500000Y-126000000D03*
X162500000Y-63500000D03*
D63*
X149700000Y-71400000D03*
X156168989Y-111296853D03*
D64*
X120000000Y-73500000D03*
X175000000Y-113500000D03*
X157500000Y-138500000D03*
X120000000Y-118500000D03*
X122500000Y-123500000D03*
X112500000Y-91000000D03*
D63*
X146950000Y-123500000D03*
X168550000Y-119000000D03*
D64*
X167500000Y-141000000D03*
X137500000Y-63500000D03*
X125000000Y-61000000D03*
X137500000Y-136000000D03*
D63*
X171300000Y-73100000D03*
D64*
X125000000Y-63500000D03*
X115000000Y-118500000D03*
X150000000Y-63500000D03*
X162500000Y-66000000D03*
X152500000Y-121000000D03*
X167500000Y-71000000D03*
X177500000Y-88500000D03*
X172500000Y-123500000D03*
D63*
X170850000Y-75850000D03*
D64*
X157500000Y-123500000D03*
D63*
X144561902Y-107603815D03*
D64*
X165000000Y-71000000D03*
X137500000Y-61000000D03*
X177500000Y-121000000D03*
X170000000Y-111000000D03*
X177500000Y-126000000D03*
X127500000Y-121000000D03*
X130000000Y-138500000D03*
D63*
X142200000Y-109900000D03*
D64*
X177500000Y-133500000D03*
X175000000Y-83500000D03*
X142500000Y-136000000D03*
X117500000Y-78500000D03*
X155000000Y-68500000D03*
X130000000Y-113500000D03*
D63*
X139700000Y-98050000D03*
D64*
X165000000Y-61000000D03*
X172500000Y-71000000D03*
X165000000Y-136000000D03*
X172500000Y-121000000D03*
X120000000Y-76000000D03*
D63*
X139500000Y-121700000D03*
X152750000Y-108300000D03*
D64*
X165000000Y-86000000D03*
D63*
X148450000Y-74100000D03*
D64*
X167500000Y-136000000D03*
X177500000Y-83500000D03*
X125000000Y-81000000D03*
X155000000Y-73500000D03*
X132500000Y-113500000D03*
X147500000Y-63500000D03*
X167500000Y-113500000D03*
D63*
X152803815Y-109450000D03*
D64*
X130000000Y-61000000D03*
X130000000Y-81000000D03*
X130000000Y-63500000D03*
X127500000Y-136000000D03*
D63*
X116250000Y-86700000D03*
X170300000Y-135000000D03*
D64*
X175000000Y-133500000D03*
X170000000Y-121000000D03*
X115000000Y-83500000D03*
X167500000Y-86000000D03*
X162500000Y-61000000D03*
X155000000Y-71000000D03*
D63*
X150300000Y-124250000D03*
X151000000Y-72950000D03*
X159400000Y-107100000D03*
D64*
X120000000Y-88500000D03*
X120000000Y-81000000D03*
X112500000Y-76000000D03*
X177500000Y-103500000D03*
D63*
X171300000Y-79600000D03*
X139650000Y-78550000D03*
D64*
X127500000Y-93500000D03*
X127500000Y-76000000D03*
X135000000Y-128500000D03*
X137500000Y-68500000D03*
X135000000Y-63500000D03*
X160000000Y-63500000D03*
D63*
X158800000Y-115550000D03*
D64*
X120000000Y-91000000D03*
D63*
X136560000Y-133200000D03*
D64*
X162500000Y-68500000D03*
X132500000Y-61000000D03*
X135000000Y-123500000D03*
X125000000Y-66000000D03*
X157500000Y-111000000D03*
D63*
X168100000Y-131350000D03*
D64*
X167500000Y-66000000D03*
X130000000Y-111000000D03*
X130000000Y-93500000D03*
D63*
X147750000Y-101700000D03*
X149950000Y-119550000D03*
D64*
X157500000Y-73500000D03*
D63*
X168550000Y-121150000D03*
D64*
X117500000Y-76000000D03*
X157500000Y-136000000D03*
X157500000Y-141000000D03*
X132500000Y-111000000D03*
X167500000Y-103500000D03*
X165000000Y-73500000D03*
X140000000Y-66000000D03*
X127500000Y-118500000D03*
D63*
X149700000Y-72950000D03*
D64*
X160000000Y-136000000D03*
X167500000Y-116000000D03*
X125000000Y-88500000D03*
D63*
X134500000Y-85050000D03*
X169300000Y-101050000D03*
X139500000Y-92300000D03*
D64*
X130000000Y-88500000D03*
D63*
X145300000Y-123500000D03*
D64*
X172500000Y-111000000D03*
X167500000Y-63500000D03*
X175000000Y-118500000D03*
X157500000Y-103500000D03*
X115000000Y-76000000D03*
X120000000Y-63500000D03*
X177500000Y-118500000D03*
X117500000Y-73500000D03*
X127500000Y-91000000D03*
X135000000Y-66000000D03*
X177500000Y-86000000D03*
X172500000Y-91000000D03*
X140000000Y-61000000D03*
X170000000Y-116000000D03*
D63*
X149950000Y-118600000D03*
D64*
X117500000Y-83500000D03*
X157500000Y-113500000D03*
D63*
X170300000Y-99800000D03*
D64*
X175000000Y-106000000D03*
X130000000Y-83500000D03*
D63*
X126850000Y-131000000D03*
D64*
X132500000Y-91000000D03*
X162500000Y-138500000D03*
X157500000Y-61000000D03*
D63*
X166700000Y-82000000D03*
D64*
X170000000Y-66000000D03*
X170000000Y-88500000D03*
D63*
X138400000Y-130800000D03*
D64*
X130000000Y-121000000D03*
X152500000Y-123500000D03*
X125000000Y-68500000D03*
X142500000Y-61000000D03*
X115000000Y-78500000D03*
D63*
X171300000Y-72300000D03*
X159800000Y-119950000D03*
D64*
X147500000Y-116000000D03*
X120000000Y-126000000D03*
D63*
X136060000Y-77826444D03*
D64*
X175000000Y-108500000D03*
X122500000Y-68500000D03*
X165000000Y-123500000D03*
X130000000Y-141000000D03*
X167500000Y-108500000D03*
X115000000Y-81000000D03*
X125000000Y-121000000D03*
X132500000Y-141000000D03*
X112500000Y-123500000D03*
X167500000Y-138500000D03*
X127500000Y-78500000D03*
X177500000Y-106000000D03*
X162500000Y-71000000D03*
D63*
X134550000Y-91750000D03*
X139550000Y-72650000D03*
D64*
X120000000Y-86000000D03*
X117500000Y-81000000D03*
X115000000Y-111000000D03*
X177500000Y-108500000D03*
X170000000Y-61000000D03*
X115000000Y-116000000D03*
X125000000Y-138500000D03*
D63*
X152800000Y-112450000D03*
D64*
X160000000Y-61000000D03*
D63*
X136650000Y-93400000D03*
D64*
X140000000Y-63500000D03*
D63*
X171300000Y-101050000D03*
X168550000Y-122050000D03*
X140700000Y-121700000D03*
D64*
X127500000Y-83500000D03*
X160000000Y-106000000D03*
X127500000Y-88500000D03*
X122500000Y-81000000D03*
X132500000Y-83500000D03*
D63*
X143250000Y-132700000D03*
D64*
X170000000Y-141000000D03*
X127500000Y-141000000D03*
X130000000Y-123500000D03*
X117500000Y-91000000D03*
X125000000Y-86000000D03*
D63*
X162700000Y-128035000D03*
X169808550Y-74050500D03*
D64*
X132500000Y-118500000D03*
X127500000Y-138500000D03*
D63*
X168550000Y-119900000D03*
D64*
X120000000Y-66000000D03*
X137500000Y-116000000D03*
X175000000Y-121000000D03*
X147500000Y-136000000D03*
D63*
X168700000Y-82000000D03*
D64*
X132500000Y-136000000D03*
X115000000Y-123500000D03*
X157500000Y-71000000D03*
X175000000Y-103500000D03*
D63*
X170300000Y-101050000D03*
D64*
X150000000Y-136000000D03*
X137500000Y-128500000D03*
X165000000Y-113500000D03*
D63*
X137300000Y-118900000D03*
D64*
X112500000Y-111000000D03*
X170000000Y-126000000D03*
X125000000Y-71000000D03*
X170000000Y-136000000D03*
X172500000Y-126000000D03*
D63*
X168600000Y-133300000D03*
D64*
X127500000Y-86000000D03*
D63*
X119500000Y-134950000D03*
D64*
X155000000Y-121000000D03*
D63*
X135239447Y-97652634D03*
D64*
X167500000Y-73500000D03*
D63*
X114980000Y-82130000D03*
D64*
X130000000Y-96000000D03*
X172500000Y-86000000D03*
X117500000Y-116000000D03*
X125000000Y-91000000D03*
X170000000Y-91000000D03*
X160000000Y-138500000D03*
X170000000Y-138500000D03*
X112500000Y-133500000D03*
D63*
X154750000Y-112450000D03*
X135300000Y-78600000D03*
D64*
X157500000Y-116000000D03*
X175000000Y-68500000D03*
X165000000Y-93500000D03*
X115000000Y-68500000D03*
X137500000Y-123500000D03*
X170000000Y-63500000D03*
D63*
X153798034Y-128979291D03*
D64*
X117500000Y-133500000D03*
X120000000Y-123500000D03*
D63*
X159800000Y-121200000D03*
X173850000Y-70350000D03*
D64*
X175000000Y-123500000D03*
D63*
X147600000Y-76100000D03*
D64*
X125000000Y-126000000D03*
X122500000Y-121000000D03*
D63*
X143600000Y-111300000D03*
D64*
X165000000Y-83500000D03*
X152500000Y-73500000D03*
X112500000Y-116000000D03*
X157500000Y-63500000D03*
X172500000Y-113500000D03*
X162500000Y-141000000D03*
X167500000Y-111000000D03*
X115000000Y-121000000D03*
X177500000Y-98500000D03*
X122500000Y-136000000D03*
X115000000Y-91000000D03*
D63*
X128650000Y-128500000D03*
D64*
X127500000Y-96000000D03*
X140000000Y-123500000D03*
X122500000Y-108500000D03*
X122500000Y-76000000D03*
X122500000Y-86000000D03*
X120000000Y-78500000D03*
X112500000Y-68500000D03*
D63*
X172100000Y-73100000D03*
D64*
X127500000Y-68500000D03*
X165000000Y-96000000D03*
X175000000Y-88500000D03*
X120000000Y-68500000D03*
X127500000Y-111000000D03*
X135000000Y-61000000D03*
X137500000Y-66000000D03*
D63*
X151000000Y-71400000D03*
D64*
X117500000Y-71000000D03*
D63*
X151000000Y-69900000D03*
D64*
X117500000Y-131000000D03*
D63*
X154401490Y-130653028D03*
D64*
X127500000Y-73500000D03*
D63*
X158050000Y-91150000D03*
X156250000Y-128000000D03*
X159000000Y-109300000D03*
D64*
X175000000Y-111000000D03*
X142500000Y-63500000D03*
D63*
X139950000Y-79500000D03*
D64*
X125000000Y-116000000D03*
X117500000Y-126000000D03*
X145000000Y-116000000D03*
X170000000Y-86000000D03*
X152500000Y-118500000D03*
D63*
X141800000Y-124300000D03*
D64*
X117500000Y-111000000D03*
X175000000Y-101000000D03*
D63*
X137950000Y-101500500D03*
D64*
X120000000Y-61000000D03*
D63*
X161300000Y-101450000D03*
D64*
X147500000Y-61000000D03*
X127500000Y-63500000D03*
X127500000Y-123500000D03*
X165000000Y-88500000D03*
X132500000Y-116000000D03*
X130000000Y-78500000D03*
X127500000Y-116000000D03*
X165000000Y-111000000D03*
X155000000Y-61000000D03*
D63*
X158300000Y-78200000D03*
D64*
X115000000Y-73500000D03*
X117500000Y-68500000D03*
X160000000Y-141000000D03*
X155000000Y-113500000D03*
D63*
X146450000Y-100850000D03*
D64*
X120000000Y-141000000D03*
D63*
X151750000Y-124250000D03*
D64*
X132500000Y-93500000D03*
X140000000Y-136000000D03*
X157500000Y-106000000D03*
X122500000Y-78500000D03*
X130000000Y-86000000D03*
D63*
X134550000Y-68500000D03*
D64*
X127500000Y-126000000D03*
X167500000Y-106000000D03*
X165000000Y-138500000D03*
X177500000Y-101000000D03*
X152500000Y-63500000D03*
D63*
X129000000Y-68400000D03*
D64*
X127500000Y-61000000D03*
D63*
X149700000Y-69900000D03*
D64*
X132500000Y-66000000D03*
X120000000Y-111000000D03*
X125000000Y-141000000D03*
D63*
X172100000Y-79600000D03*
D64*
X125000000Y-78500000D03*
X122500000Y-88500000D03*
D63*
X171300000Y-80400000D03*
D64*
X122500000Y-91000000D03*
X112500000Y-71000000D03*
D63*
X153350000Y-89450000D03*
D64*
X115000000Y-133500000D03*
X177500000Y-116000000D03*
X122500000Y-73500000D03*
X130000000Y-91000000D03*
X165000000Y-66000000D03*
X177500000Y-68500000D03*
X132500000Y-121000000D03*
D63*
X159000000Y-108300000D03*
D64*
X127500000Y-71000000D03*
D63*
X147978486Y-109014319D03*
D64*
X122500000Y-63500000D03*
X172500000Y-118500000D03*
X155000000Y-123500000D03*
X145000000Y-136000000D03*
X125000000Y-83500000D03*
D63*
X129450000Y-75100000D03*
D64*
X122500000Y-61000000D03*
X165000000Y-68500000D03*
X112500000Y-113500000D03*
X170000000Y-118500000D03*
X150000000Y-61000000D03*
X122500000Y-66000000D03*
X132500000Y-63500000D03*
X175000000Y-86000000D03*
D63*
X146956241Y-108066747D03*
D64*
X172500000Y-103500000D03*
X155000000Y-116000000D03*
X172500000Y-106000000D03*
D63*
X156300000Y-89550000D03*
D64*
X157500000Y-108500000D03*
X175000000Y-116000000D03*
D63*
X160850000Y-130585000D03*
D64*
X130000000Y-118500000D03*
X115000000Y-71000000D03*
X130000000Y-136000000D03*
X167500000Y-128500000D03*
X125000000Y-76000000D03*
X117500000Y-88500000D03*
D63*
X122000000Y-129490000D03*
D64*
X170000000Y-106000000D03*
X122500000Y-111000000D03*
X122500000Y-93500000D03*
X122500000Y-116000000D03*
X145000000Y-63500000D03*
X172500000Y-108500000D03*
X172500000Y-98500000D03*
D63*
X171300000Y-99800000D03*
D64*
X112500000Y-73500000D03*
X142500000Y-116000000D03*
X125000000Y-93500000D03*
D63*
X126222196Y-129303180D03*
X131639447Y-97152634D03*
D64*
X170000000Y-113500000D03*
X130000000Y-116000000D03*
X167500000Y-83500000D03*
X120000000Y-138500000D03*
D63*
X158800000Y-114600000D03*
X160400000Y-107100000D03*
X138650000Y-99100000D03*
%TO.N,/Power/VCC_FILT*%
X152750000Y-66500000D03*
X161300000Y-100500000D03*
%TO.N,+3.3V*%
X135995803Y-94154196D03*
X157050000Y-90250000D03*
X115200000Y-86700000D03*
X143900000Y-75000000D03*
X147754258Y-100758224D03*
X144600000Y-108996185D03*
X136013994Y-79224241D03*
X134550000Y-69450000D03*
X148450000Y-75000000D03*
X131862500Y-86362500D03*
X159950500Y-78700000D03*
X151750000Y-108300000D03*
X138600000Y-102250000D03*
%TO.N,VUSB_FILT*%
X162750000Y-105750000D03*
X165650000Y-80300000D03*
%TO.N,/MCU/MCU_NRST*%
X139500000Y-81600000D03*
X141405971Y-83528532D03*
%TO.N,/MCU/NRST*%
X138183452Y-77593438D03*
X129850000Y-69250000D03*
%TO.N,I2C1_SCL*%
X152800000Y-111550000D03*
X154750000Y-111500000D03*
%TO.N,I2C1_SDA*%
X152700000Y-110400000D03*
X156100000Y-110400000D03*
%TO.N,/Codec/CODEC_LRCK1*%
X147650000Y-109900000D03*
X146000000Y-108300000D03*
%TO.N,/MCU/ADC3_INP10*%
X145100000Y-93300000D03*
X138750000Y-108000000D03*
%TO.N,/MCU/ADC3_INP11*%
X138750000Y-106450000D03*
X144350000Y-94000000D03*
%TO.N,/MCU/ADC3_INP0*%
X143650000Y-94700000D03*
X138700000Y-104900000D03*
%TO.N,/MCU/ADC3_INP1*%
X142800000Y-95350000D03*
X138650000Y-103250000D03*
%TD*%
D65*
%TO.N,+5VA*%
X143850000Y-131700000D02*
X142420000Y-131700000D01*
X141800500Y-125200000D02*
X131450000Y-125200000D01*
X148525000Y-122410000D02*
X148525000Y-125175000D01*
X163200000Y-121660000D02*
X163200000Y-125200000D01*
D66*
X147505000Y-120797894D02*
X147505000Y-120910000D01*
D65*
X142400000Y-128300000D02*
X142400000Y-130400000D01*
X139050000Y-134250000D02*
X135250000Y-134250000D01*
X164525000Y-129600000D02*
X164525000Y-128070000D01*
X134750000Y-131730000D02*
X134750000Y-133200000D01*
X163200000Y-125200000D02*
X163705000Y-125200000D01*
X158050000Y-125200000D02*
X151750000Y-125200000D01*
X144190000Y-127150000D02*
X143550000Y-127150000D01*
X134750000Y-133750000D02*
X134750000Y-133200000D01*
X163705000Y-125200000D02*
X164505000Y-126000000D01*
X144190000Y-127150000D02*
X144190000Y-125200000D01*
X130480000Y-128500000D02*
X130480000Y-129980000D01*
X142400000Y-130400000D02*
X140950000Y-130400000D01*
X142420000Y-131700000D02*
X142400000Y-131720000D01*
X135250000Y-134250000D02*
X134750000Y-133750000D01*
X131450000Y-125200000D02*
X130480000Y-126170000D01*
X140950000Y-130400000D02*
X139900000Y-131450000D01*
X164525000Y-128070000D02*
X164505000Y-128050000D01*
X139900000Y-133400000D02*
X139050000Y-134250000D01*
X158025000Y-129600000D02*
X158025000Y-128010000D01*
D66*
X146625000Y-119917894D02*
X147505000Y-120797894D01*
D65*
X158025000Y-128010000D02*
X158035000Y-128000000D01*
X144190000Y-125200000D02*
X143199500Y-125200000D01*
X130480000Y-129980000D02*
X130500000Y-130000000D01*
X148500000Y-125200000D02*
X144190000Y-125200000D01*
X144190000Y-128260000D02*
X144190000Y-127150000D01*
X142400000Y-130400000D02*
X142400000Y-131720000D01*
X143550000Y-127150000D02*
X142400000Y-128300000D01*
X139900000Y-131450000D02*
X139900000Y-133400000D01*
X150300500Y-125200000D02*
X148500000Y-125200000D01*
X130480000Y-126170000D02*
X130480000Y-128500000D01*
D66*
X146625000Y-119036000D02*
X146625000Y-119917894D01*
D65*
X163200000Y-125200000D02*
X158050000Y-125200000D01*
X158035000Y-125215000D02*
X158050000Y-125200000D01*
X164505000Y-128050000D02*
X164505000Y-126000000D01*
X148525000Y-125175000D02*
X148500000Y-125200000D01*
X158035000Y-128000000D02*
X158035000Y-125215000D01*
%TO.N,GND*%
X157298008Y-91901992D02*
X158050000Y-91150000D01*
X119500000Y-133150000D02*
X119500000Y-134950000D01*
X170300000Y-133182500D02*
X170300000Y-135000000D01*
D66*
X146537957Y-79593868D02*
X147350000Y-78781825D01*
D65*
X126250000Y-129330984D02*
X126222196Y-129303180D01*
X142400000Y-132680000D02*
X143230000Y-132680000D01*
D66*
X144270000Y-111410000D02*
X144270000Y-111717500D01*
D65*
X135289447Y-97602634D02*
X135239447Y-97652634D01*
X160815500Y-134100000D02*
X160035000Y-134100000D01*
X153800000Y-129840000D02*
X153800000Y-128981257D01*
D66*
X137875163Y-93913516D02*
X137157662Y-93913516D01*
D65*
X139339411Y-80110589D02*
X139950000Y-79500000D01*
D66*
X144270000Y-111717500D02*
X144675000Y-112122500D01*
D65*
X160885000Y-130550000D02*
X160850000Y-130585000D01*
D66*
X140596178Y-97250000D02*
X140235589Y-97610589D01*
X145325000Y-119036000D02*
X145325000Y-120075000D01*
D65*
X169625000Y-75850000D02*
X170850000Y-75850000D01*
X171300000Y-72300000D02*
X172100000Y-72300000D01*
X162025000Y-130550000D02*
X160885000Y-130550000D01*
D66*
X153350000Y-89481825D02*
X153350000Y-89450000D01*
X146184404Y-98579685D02*
X146750000Y-99145281D01*
X147350000Y-78603822D02*
X147639411Y-78314411D01*
D65*
X113650000Y-82160000D02*
X114950000Y-82160000D01*
D66*
X146750000Y-99145281D02*
X146750000Y-100028822D01*
D65*
X160035000Y-134100000D02*
X160025000Y-134110000D01*
D66*
X134539411Y-85910589D02*
X134560589Y-85910589D01*
D65*
X154504518Y-130550000D02*
X154401490Y-130653028D01*
X168085000Y-131365000D02*
X168100000Y-131350000D01*
D66*
X138512295Y-93276384D02*
X137875163Y-93913516D01*
D65*
X172100000Y-79600000D02*
X172100000Y-80400000D01*
X173405000Y-79600000D02*
X171300000Y-79600000D01*
X136250000Y-118900000D02*
X137300000Y-118900000D01*
X126250000Y-130100000D02*
X126250000Y-129330984D01*
D66*
X145505000Y-120255000D02*
X145505000Y-120910000D01*
D65*
X169430000Y-73350000D02*
X169430000Y-73671950D01*
X172100000Y-79600000D02*
X171300000Y-80400000D01*
X140602500Y-72650000D02*
X139550000Y-72650000D01*
D66*
X154316132Y-90447957D02*
X153350000Y-89481825D01*
D65*
X157075000Y-128000000D02*
X156250000Y-128000000D01*
X136406572Y-77826444D02*
X136060000Y-77826444D01*
D66*
X140740000Y-120910000D02*
X140740000Y-120558500D01*
X141694276Y-96458365D02*
X140902639Y-97250000D01*
D65*
X126900000Y-130950000D02*
X126850000Y-131000000D01*
X146450000Y-100850000D02*
X147010589Y-100289411D01*
X163545000Y-128050000D02*
X162715000Y-128050000D01*
X136250000Y-113250000D02*
X137250000Y-113250000D01*
X171300000Y-80400000D02*
X172100000Y-80400000D01*
X167285000Y-131365000D02*
X168085000Y-131365000D01*
X128000000Y-130950000D02*
X126900000Y-130950000D01*
D66*
X145975000Y-119975000D02*
X146545000Y-120545000D01*
D65*
X114950000Y-82160000D02*
X114980000Y-82130000D01*
D67*
X130555924Y-73113949D02*
X130555924Y-73994076D01*
D66*
X140740000Y-120558500D02*
X141425000Y-119873500D01*
D65*
X173405000Y-73100000D02*
X171300000Y-73100000D01*
X137250000Y-113250000D02*
X137300000Y-113200000D01*
D66*
X145325000Y-120075000D02*
X145505000Y-120255000D01*
X137157662Y-93913516D02*
X136960589Y-94110589D01*
D65*
X153800000Y-128981257D02*
X153798034Y-128979291D01*
X162715000Y-128050000D02*
X162700000Y-128035000D01*
D66*
X134850000Y-86200000D02*
X134850000Y-86538173D01*
D65*
X133330000Y-134480000D02*
X133350000Y-134500000D01*
X169430000Y-73671950D02*
X169808550Y-74050500D01*
D66*
X140902639Y-97250000D02*
X140596178Y-97250000D01*
D65*
X146350000Y-130750000D02*
X147550000Y-130750000D01*
X132525893Y-96266188D02*
X131639447Y-97152634D01*
D66*
X139488679Y-92300000D02*
X139500000Y-92300000D01*
D65*
X143230000Y-132680000D02*
X143250000Y-132700000D01*
X174740000Y-82350000D02*
X173900000Y-82350000D01*
D66*
X146545000Y-120545000D02*
X146545000Y-120910000D01*
X141425000Y-119873500D02*
X141425000Y-119036000D01*
D65*
X171300000Y-79600000D02*
X171300000Y-80400000D01*
D66*
X134850000Y-86538173D02*
X135683868Y-87372043D01*
D65*
X139339411Y-80126512D02*
X139339411Y-80110589D01*
X137250000Y-130780000D02*
X138380000Y-130780000D01*
D66*
X155292356Y-91150000D02*
X155721178Y-91578822D01*
D65*
X155525000Y-130550000D02*
X154504518Y-130550000D01*
D67*
X130555924Y-73994076D02*
X129450000Y-75100000D01*
D65*
X171300000Y-72300000D02*
X172100000Y-73100000D01*
X135160589Y-92360589D02*
X134550000Y-91750000D01*
X172100000Y-72300000D02*
X172100000Y-73100000D01*
X174690000Y-70350000D02*
X173850000Y-70350000D01*
X135289447Y-95912634D02*
X135289447Y-97602634D01*
D66*
X138512295Y-93276384D02*
X139488679Y-92300000D01*
D65*
X135710000Y-133200000D02*
X136560000Y-133200000D01*
X171300000Y-79600000D02*
X172100000Y-80400000D01*
D66*
X134560589Y-85910589D02*
X134850000Y-86200000D01*
D65*
X167575000Y-133300000D02*
X168600000Y-133300000D01*
X172100000Y-72300000D02*
X171300000Y-73100000D01*
X158910589Y-78810589D02*
X158300000Y-78200000D01*
X132500000Y-134480000D02*
X133330000Y-134480000D01*
D66*
X155018175Y-91150000D02*
X155292356Y-91150000D01*
X154316132Y-90447957D02*
X155018175Y-91150000D01*
X144675000Y-112122500D02*
X144675000Y-113160000D01*
D65*
X158910589Y-78820589D02*
X158910589Y-78810589D01*
X129520000Y-128500000D02*
X128650000Y-128500000D01*
X136870764Y-78290636D02*
X136406572Y-77826444D01*
X122000000Y-128650000D02*
X122000000Y-129490000D01*
D66*
X145975000Y-119036000D02*
X145975000Y-119975000D01*
D65*
X171300000Y-72300000D02*
X171300000Y-73100000D01*
D66*
X146750000Y-100028822D02*
X147010589Y-100289411D01*
X147350000Y-78781825D02*
X147350000Y-78603822D01*
D65*
X132531731Y-96266188D02*
X132525893Y-96266188D01*
%TO.N,/Power/VCC_FILT*%
X150790000Y-66500000D02*
X150750000Y-66460000D01*
D66*
X161600000Y-111950000D02*
X160700000Y-111950000D01*
X160250000Y-111500000D02*
X160250000Y-110772500D01*
X160700000Y-111950000D02*
X160250000Y-111500000D01*
X162150000Y-111400000D02*
X161600000Y-111950000D01*
D65*
X166050000Y-108650000D02*
X165640000Y-109060000D01*
X161325000Y-100475000D02*
X161300000Y-100500000D01*
D66*
X162150000Y-110772500D02*
X162150000Y-111400000D01*
D65*
X164250000Y-100475000D02*
X161325000Y-100475000D01*
X152750000Y-66500000D02*
X150790000Y-66500000D01*
X166050000Y-100900000D02*
X166050000Y-108650000D01*
X165640000Y-109060000D02*
X164450000Y-109060000D01*
D66*
%TO.N,+3.3V*%
X145325000Y-112025000D02*
X145325000Y-113160000D01*
X135920842Y-93039411D02*
X137098082Y-91862171D01*
X138865849Y-93629938D02*
X137706376Y-94789411D01*
X135839411Y-93039411D02*
X135920842Y-93039411D01*
D67*
X132351975Y-71317898D02*
X132351975Y-70949778D01*
D65*
X146250000Y-76925000D02*
X146960589Y-77635589D01*
D66*
X146184685Y-79240315D02*
X146700000Y-78725000D01*
D67*
X133851753Y-69450000D02*
X134550000Y-69450000D01*
D65*
X141850000Y-66400000D02*
X141850000Y-67910000D01*
X113690000Y-86700000D02*
X113650000Y-86660000D01*
D66*
X156150000Y-90650000D02*
X156400000Y-90900000D01*
X145230000Y-111410000D02*
X145230000Y-111930000D01*
D65*
X136694990Y-94919792D02*
X137509030Y-94919792D01*
D66*
X137656376Y-94839411D02*
X137639411Y-94839411D01*
X134604719Y-87000000D02*
X135330315Y-87725596D01*
D65*
X159950500Y-79138322D02*
X159589411Y-79499411D01*
X145025000Y-109421185D02*
X145025000Y-109910000D01*
D66*
X133864411Y-86589411D02*
X134275000Y-87000000D01*
D67*
X132351975Y-70949778D02*
X133851753Y-69450000D01*
D66*
X147250000Y-99171178D02*
X147689411Y-99610589D01*
D65*
X137509030Y-94919792D02*
X137639411Y-94789411D01*
X146250000Y-75000000D02*
X148450000Y-75000000D01*
D66*
X134275000Y-87000000D02*
X134604719Y-87000000D01*
D65*
X147819792Y-99740970D02*
X147689411Y-99610589D01*
X138600000Y-102250000D02*
X138900000Y-102250000D01*
X144910000Y-72660000D02*
X144900000Y-72650000D01*
D66*
X154669685Y-90094404D02*
X155225281Y-90650000D01*
D65*
X136013994Y-79224241D02*
X136013994Y-79147407D01*
X147754258Y-100758224D02*
X147819792Y-100692690D01*
D66*
X137706376Y-94789411D02*
X137639411Y-94789411D01*
D65*
X131862500Y-86362500D02*
X132587581Y-85637419D01*
D66*
X146184404Y-79240315D02*
X146184685Y-79240315D01*
D65*
X136013994Y-79147407D02*
X136375790Y-78785611D01*
X135995803Y-94220605D02*
X136694990Y-94919792D01*
D66*
X146700000Y-78725000D02*
X146700000Y-77896178D01*
D65*
X135995803Y-94154196D02*
X135500000Y-93658393D01*
X135995803Y-94154196D02*
X135995803Y-94220605D01*
D66*
X146700000Y-77896178D02*
X146960589Y-77635589D01*
X155225281Y-90650000D02*
X156150000Y-90650000D01*
D65*
X147819792Y-100692690D02*
X147819792Y-99740970D01*
X135500000Y-93378822D02*
X135839411Y-93039411D01*
X151750000Y-108300000D02*
X151750000Y-109500000D01*
X159950500Y-78700000D02*
X159950500Y-79138322D01*
X138900000Y-102250000D02*
X139843153Y-101306847D01*
D66*
X146537957Y-98226132D02*
X147250000Y-98938175D01*
D65*
X135500000Y-93658393D02*
X135500000Y-93378822D01*
X115200000Y-86700000D02*
X113690000Y-86700000D01*
X146250000Y-75000000D02*
X143900000Y-75000000D01*
X146250000Y-72660000D02*
X144910000Y-72660000D01*
X157050000Y-90250000D02*
X156400000Y-90900000D01*
D66*
X145230000Y-111930000D02*
X145325000Y-112025000D01*
D65*
X146250000Y-72660000D02*
X146250000Y-75000000D01*
X144600000Y-108996185D02*
X145025000Y-109421185D01*
D66*
X147250000Y-98938175D02*
X147250000Y-99171178D01*
D65*
X151750000Y-109500000D02*
X150000000Y-109500000D01*
X146250000Y-75000000D02*
X146250000Y-76925000D01*
D66*
%TO.N,VDDA*%
X141642906Y-97923949D02*
X141279873Y-97923949D01*
X142047829Y-96811918D02*
X141279873Y-97579873D01*
X141279873Y-97579873D02*
X141279873Y-97923949D01*
X141279873Y-97923949D02*
X140914411Y-98289411D01*
X142401383Y-97165472D02*
X141642906Y-97923949D01*
D65*
%TO.N,VBUS*%
X168475000Y-78800000D02*
X173405000Y-78800000D01*
X170150000Y-72450000D02*
X168800000Y-72450000D01*
X173405000Y-73900000D02*
X170800000Y-73900000D01*
X168470000Y-73350000D02*
X168470000Y-75850000D01*
X170500000Y-73600000D02*
X170500000Y-72800000D01*
X168470000Y-78795000D02*
X168475000Y-78800000D01*
X170500000Y-72800000D02*
X170150000Y-72450000D01*
X168470000Y-72780000D02*
X168470000Y-73350000D01*
X170800000Y-73900000D02*
X170500000Y-73600000D01*
X168470000Y-75850000D02*
X168470000Y-78795000D01*
X167350000Y-75850000D02*
X168470000Y-75850000D01*
X168800000Y-72450000D02*
X168470000Y-72780000D01*
%TO.N,VUSB_FILT*%
X165670000Y-80320000D02*
X165650000Y-80300000D01*
X162760000Y-105760000D02*
X162750000Y-105750000D01*
X164450000Y-105760000D02*
X162760000Y-105760000D01*
X166687500Y-80320000D02*
X165670000Y-80320000D01*
D68*
%TO.N,/MCU/HSE_IN*%
X136289447Y-96489447D02*
X136650000Y-96850000D01*
X138445769Y-95054231D02*
X136650000Y-96850000D01*
X134087366Y-94710553D02*
X134645285Y-94152634D01*
X134645285Y-94152634D02*
X135009685Y-94152634D01*
X139219402Y-93983491D02*
X138445769Y-94757124D01*
X136555371Y-95985526D02*
X136289447Y-96251450D01*
X135009685Y-94152634D02*
X136555371Y-95698320D01*
X136289447Y-96251450D02*
X136289447Y-96489447D01*
X138445769Y-94757124D02*
X138445769Y-95054231D01*
X136555371Y-95698320D02*
X136555371Y-95985526D01*
%TO.N,Net-(C315-Pad1)*%
X134239447Y-98797091D02*
X134239447Y-97973904D01*
X135792081Y-99700000D02*
X135142356Y-99700000D01*
X136356084Y-99135997D02*
X135792081Y-99700000D01*
X135142356Y-99700000D02*
X134471178Y-99028822D01*
X134471178Y-99028822D02*
X134239447Y-98797091D01*
X134239447Y-97973904D02*
X133733812Y-97468269D01*
D67*
%TO.N,/MCU/MCU_NRST*%
X137863402Y-80450000D02*
X137365650Y-79952248D01*
X144550000Y-86650000D02*
X144550000Y-90067107D01*
X138660589Y-80805334D02*
X138655334Y-80805334D01*
X138655334Y-80805334D02*
X138300000Y-80450000D01*
X141405971Y-83528532D02*
X141428532Y-83528532D01*
X141428532Y-83528532D02*
X144550000Y-86650000D01*
X139500000Y-81600000D02*
X139455255Y-81600000D01*
X138300000Y-80450000D02*
X137863402Y-80450000D01*
X139455255Y-81600000D02*
X138660589Y-80805334D01*
X144550000Y-90067107D02*
X139926509Y-94690598D01*
D66*
%TO.N,/MCU/MCU_VCAP1*%
X153962578Y-90801511D02*
X155150000Y-91988933D01*
X155150000Y-91988933D02*
X155150000Y-92000000D01*
D65*
X156201992Y-92998008D02*
X156107988Y-92998008D01*
X156107988Y-92998008D02*
X155129990Y-92020010D01*
%TO.N,/MCU/MCU_VCAP2*%
X149298008Y-77798008D02*
X149298008Y-77801992D01*
X149298008Y-77801992D02*
X147950000Y-79150000D01*
D66*
X146891511Y-79947422D02*
X147688933Y-79150000D01*
X147688933Y-79150000D02*
X147950000Y-79150000D01*
%TO.N,/Codec/IN_AA_BUFF_OUT*%
X154550000Y-128400000D02*
X154310000Y-128160000D01*
X155525000Y-129600000D02*
X154850000Y-129600000D01*
X154850000Y-129600000D02*
X154550000Y-129300000D01*
X151575000Y-128225000D02*
X153935000Y-128225000D01*
X158025000Y-131500000D02*
X156850000Y-131500000D01*
X154310000Y-128160000D02*
X154000000Y-128160000D01*
X156850000Y-131500000D02*
X156650000Y-131300000D01*
X156650000Y-131300000D02*
X156650000Y-129800000D01*
X156450000Y-129600000D02*
X155525000Y-129600000D01*
X153935000Y-128225000D02*
X154000000Y-128160000D01*
X156650000Y-129800000D02*
X156450000Y-129600000D01*
X150775000Y-129025000D02*
X151575000Y-128225000D01*
X150775000Y-129610000D02*
X150775000Y-129025000D01*
X154550000Y-129300000D02*
X154550000Y-128400000D01*
%TO.N,Net-(C401-Pad2)*%
X156700000Y-133150000D02*
X153790000Y-133150000D01*
X150775000Y-132175000D02*
X151765000Y-133165000D01*
X151765000Y-133165000D02*
X153775000Y-133165000D01*
X150775000Y-130570000D02*
X150775000Y-132175000D01*
%TO.N,/Codec/VREF*%
X146350000Y-129800000D02*
X146350000Y-128290000D01*
X146380000Y-128260000D02*
X145210000Y-128260000D01*
X146350000Y-128290000D02*
X146380000Y-128260000D01*
X146380000Y-128260000D02*
X146380000Y-126610000D01*
X146380000Y-126610000D02*
X146390000Y-126600000D01*
%TO.N,/Codec/IN_BUF_IN*%
X163545000Y-133300000D02*
X162535000Y-133300000D01*
X162025000Y-132150000D02*
X162025000Y-131500000D01*
X162535000Y-132660000D02*
X162025000Y-132150000D01*
X162535000Y-133300000D02*
X162535000Y-132660000D01*
%TO.N,/Codec/IN_RF*%
X166025000Y-133300000D02*
X164505000Y-133300000D01*
X166265000Y-132035000D02*
X166025000Y-132275000D01*
X166025000Y-132275000D02*
X166025000Y-133300000D01*
X166265000Y-130115000D02*
X166265000Y-131365000D01*
X166265000Y-131365000D02*
X166265000Y-132035000D01*
%TO.N,/Codec/CODEC_VIN*%
X147925000Y-120327035D02*
X147925000Y-119850000D01*
X147275000Y-119036000D02*
X147275000Y-119860788D01*
X147275000Y-119860788D02*
X147357106Y-119942894D01*
X148750000Y-121152035D02*
X147925000Y-120327035D01*
X151000000Y-127400000D02*
X151000000Y-121900000D01*
X147357106Y-119942894D02*
X147832106Y-119942894D01*
X151000000Y-121900000D02*
X150250000Y-121150000D01*
X147925000Y-119850000D02*
X147925000Y-119036000D01*
X147832106Y-119942894D02*
X147925000Y-119850000D01*
X150250000Y-121150000D02*
X148752035Y-121150000D01*
X148752035Y-121150000D02*
X148750000Y-121152035D01*
%TO.N,Net-(C407-Pad2)*%
X153620000Y-127140000D02*
X153360000Y-127400000D01*
X154000000Y-127140000D02*
X153620000Y-127140000D01*
X153360000Y-127400000D02*
X152550000Y-127400000D01*
%TO.N,Net-(C409-Pad1)*%
X160025000Y-131310000D02*
X160025000Y-133150000D01*
X160025000Y-133150000D02*
X158350000Y-133150000D01*
%TO.N,/Codec/IN_AA_BUFF_IN*%
X152565000Y-131515000D02*
X153775000Y-131515000D01*
X155510000Y-131515000D02*
X155525000Y-131500000D01*
X152250000Y-131200000D02*
X152565000Y-131515000D01*
X152250000Y-129840000D02*
X152250000Y-131200000D01*
X153775000Y-131515000D02*
X155510000Y-131515000D01*
%TO.N,/Codec/OUT_AA_BUFF_OUT*%
X123250000Y-129450000D02*
X124235000Y-128465000D01*
X126395000Y-128465000D02*
X126450000Y-128410000D01*
X123250000Y-130200000D02*
X123250000Y-129450000D01*
X124235000Y-128465000D02*
X126395000Y-128465000D01*
X128850000Y-130000000D02*
X129300000Y-130450000D01*
X129300000Y-130450000D02*
X129300000Y-131450000D01*
X129750000Y-131900000D02*
X130500000Y-131900000D01*
X127360000Y-128410000D02*
X128000000Y-129050000D01*
X128000000Y-129050000D02*
X128000000Y-130000000D01*
X128000000Y-130000000D02*
X128850000Y-130000000D01*
X129300000Y-131450000D02*
X129750000Y-131900000D01*
X126450000Y-128410000D02*
X127360000Y-128410000D01*
%TO.N,/Codec/AUDIO_VOUT*%
X123450000Y-127640000D02*
X122010000Y-127640000D01*
X121170000Y-127630000D02*
X122000000Y-127630000D01*
X113500000Y-129160000D02*
X119490000Y-129160000D01*
X119500000Y-129150000D02*
X120650000Y-129150000D01*
X120900000Y-127900000D02*
X121170000Y-127630000D01*
X119490000Y-129160000D02*
X119500000Y-129150000D01*
X120650000Y-129150000D02*
X120900000Y-128900000D01*
X120900000Y-128900000D02*
X120900000Y-127900000D01*
%TO.N,/Codec/OUT_AA_BUFF_IN*%
X127975000Y-131925000D02*
X128000000Y-131900000D01*
X124700000Y-130430000D02*
X124700000Y-131700000D01*
X124925000Y-131925000D02*
X126250000Y-131925000D01*
X126250000Y-131925000D02*
X127975000Y-131925000D01*
X124700000Y-131700000D02*
X124925000Y-131925000D01*
%TO.N,/Codec/AUDIO_VIN*%
X170282500Y-129200000D02*
X168650000Y-129200000D01*
X168350000Y-129850000D02*
X168085000Y-130115000D01*
X176500000Y-129140000D02*
X170342500Y-129140000D01*
X168085000Y-130115000D02*
X167285000Y-130115000D01*
X170342500Y-129140000D02*
X170300000Y-129182500D01*
X168650000Y-129200000D02*
X168350000Y-129500000D01*
X170300000Y-129182500D02*
X170282500Y-129200000D01*
X168350000Y-129500000D02*
X168350000Y-129850000D01*
%TO.N,/Codec/CODEC_VOUT*%
X142500000Y-121300000D02*
X142800000Y-121000000D01*
X142500000Y-126800000D02*
X142500000Y-121300000D01*
X137250000Y-129830000D02*
X139470000Y-129830000D01*
X144025000Y-120425000D02*
X144025000Y-119036000D01*
X139470000Y-129830000D02*
X142500000Y-126800000D01*
X142800000Y-121000000D02*
X143450000Y-121000000D01*
X143450000Y-121000000D02*
X144025000Y-120425000D01*
%TO.N,Net-(IC401-VOUTR+)*%
X141760000Y-120910000D02*
X142140000Y-120910000D01*
X142725000Y-120325000D02*
X142725000Y-119036000D01*
X142140000Y-120910000D02*
X142725000Y-120325000D01*
%TO.N,/Codec/IN_BUF_OUT*%
X162025000Y-129600000D02*
X162825000Y-129600000D01*
X160085000Y-129600000D02*
X160025000Y-129660000D01*
X163240000Y-131135000D02*
X163605000Y-131500000D01*
X163240000Y-130015000D02*
X163240000Y-131135000D01*
X162825000Y-129600000D02*
X163240000Y-130015000D01*
X162025000Y-129600000D02*
X160085000Y-129600000D01*
X163605000Y-131500000D02*
X164525000Y-131500000D01*
%TO.N,/Codec/OUT_BUF_OUT*%
X132505000Y-129830000D02*
X132500000Y-129825000D01*
X135950000Y-131300000D02*
X135950000Y-130350000D01*
X134750000Y-129830000D02*
X132505000Y-129830000D01*
X135430000Y-129830000D02*
X134750000Y-129830000D01*
X136380000Y-131730000D02*
X135950000Y-131300000D01*
X135950000Y-130350000D02*
X135430000Y-129830000D01*
X137250000Y-131730000D02*
X136380000Y-131730000D01*
%TO.N,Net-(C419-Pad2)*%
X124275000Y-133575000D02*
X126250000Y-133575000D01*
X123250000Y-131160000D02*
X123250000Y-132550000D01*
X126275000Y-133550000D02*
X126250000Y-133575000D01*
X123250000Y-132550000D02*
X124275000Y-133575000D01*
X129175000Y-133550000D02*
X126275000Y-133550000D01*
%TO.N,Net-(C422-Pad2)*%
X125960000Y-127390000D02*
X125710000Y-127640000D01*
X126450000Y-127390000D02*
X125960000Y-127390000D01*
X125710000Y-127640000D02*
X125000000Y-127640000D01*
%TO.N,Net-(C423-Pad1)*%
X132500000Y-133520000D02*
X130855000Y-133520000D01*
X130855000Y-133520000D02*
X130825000Y-133550000D01*
X132500000Y-131475000D02*
X132500000Y-133520000D01*
%TO.N,/Codec/CODEC_VCOM*%
X144675000Y-119036000D02*
X144675000Y-120025000D01*
X144675000Y-120025000D02*
X144545000Y-120155000D01*
X144545000Y-120155000D02*
X144545000Y-120910000D01*
D65*
%TO.N,VCC*%
X170750000Y-93900000D02*
X169350000Y-93900000D01*
X170760000Y-93910000D02*
X170750000Y-93900000D01*
X176500000Y-93910000D02*
X170760000Y-93910000D01*
X168450000Y-93000000D02*
X167500000Y-93000000D01*
X169350000Y-93900000D02*
X168450000Y-93000000D01*
%TO.N,/Power/R_LED*%
X143880000Y-72650000D02*
X142177500Y-72650000D01*
D67*
%TO.N,/MCU/NRST*%
X138890000Y-78299986D02*
X138890000Y-78427898D01*
X131453949Y-70868814D02*
X131453949Y-72215923D01*
X137980014Y-77390000D02*
X137771401Y-77390000D01*
X129850000Y-69264865D02*
X131453949Y-70868814D01*
X138183452Y-77593438D02*
X138890000Y-78299986D01*
X138890000Y-78427898D02*
X138532376Y-78785522D01*
X138183452Y-77593438D02*
X137980014Y-77390000D01*
X129850000Y-69250000D02*
X129850000Y-69264865D01*
X137771401Y-77390000D02*
X137330384Y-77831017D01*
%TO.N,/MCU/SWCLK*%
X134950000Y-75500000D02*
X135200000Y-75250000D01*
X135200000Y-74614865D02*
X133699084Y-73113949D01*
X137550000Y-76050000D02*
X136423056Y-77176944D01*
X135527262Y-76947134D02*
X134950000Y-76369872D01*
X133699084Y-73113949D02*
X132351975Y-73113949D01*
X134950000Y-76369872D02*
X134950000Y-75500000D01*
X137550000Y-75700000D02*
X137550000Y-76050000D01*
X137197752Y-75347752D02*
X137550000Y-75700000D01*
X136423056Y-77176944D02*
X135757072Y-77176944D01*
X137167624Y-75347752D02*
X137197752Y-75347752D01*
X135757072Y-77176944D02*
X135527262Y-76947134D01*
X135200000Y-75250000D02*
X135200000Y-74614865D01*
%TO.N,/MCU/SWDIO*%
X135600000Y-76100633D02*
X135986881Y-76487514D01*
X137300000Y-72224879D02*
X137300000Y-73600000D01*
X133634077Y-72215923D02*
X134772514Y-71077486D01*
X138366637Y-74166637D02*
X137800000Y-73600000D01*
X135600000Y-75300000D02*
X135600000Y-76100633D01*
X133250000Y-72215923D02*
X133634077Y-72215923D01*
X137300000Y-73600000D02*
X135600000Y-75300000D01*
X136152607Y-71077486D02*
X137300000Y-72224879D01*
X134772514Y-71077486D02*
X136152607Y-71077486D01*
X137800000Y-73600000D02*
X137300000Y-73600000D01*
%TO.N,/MCU/SWO*%
X133001575Y-76850000D02*
X131680631Y-75529056D01*
X133916637Y-78566637D02*
X133916637Y-78557758D01*
X131680631Y-75529056D02*
X131680631Y-74238656D01*
X134510889Y-76850000D02*
X133001575Y-76850000D01*
X131680631Y-74238656D02*
X131453949Y-74011974D01*
X133916637Y-78557758D02*
X135067642Y-77406753D01*
X135067642Y-77406753D02*
X134510889Y-76850000D01*
D66*
%TO.N,/MCU/LED_R*%
X155415305Y-77800000D02*
X154900000Y-77800000D01*
X153850000Y-80060000D02*
X153333363Y-80576637D01*
X154900000Y-77800000D02*
X153850000Y-78850000D01*
X153850000Y-78850000D02*
X153850000Y-80060000D01*
X156022703Y-78407398D02*
X155415305Y-77800000D01*
%TO.N,/MCU/LED_G*%
X155750000Y-80185305D02*
X155750000Y-80660000D01*
X155750000Y-80660000D02*
X154583363Y-81826637D01*
X154997398Y-79432703D02*
X155750000Y-80185305D01*
%TO.N,/MCU/LED_B*%
X156450000Y-81939899D02*
X156450000Y-82460000D01*
X156450000Y-82460000D02*
X155833363Y-83076637D01*
X156977297Y-81412602D02*
X156450000Y-81939899D01*
D67*
%TO.N,/MCU/USB_CMC_D-*%
X166356249Y-76800000D02*
X165631249Y-76075000D01*
X164900001Y-76250000D02*
X164337500Y-76250000D01*
X165631249Y-76075000D02*
X165075001Y-76075000D01*
X167350000Y-76800000D02*
X166356249Y-76800000D01*
X165075001Y-76075000D02*
X164900001Y-76250000D01*
%TO.N,/MCU/USB_CMC_D+*%
X165631249Y-75625000D02*
X165075001Y-75625000D01*
X167350000Y-74900000D02*
X166356249Y-74900000D01*
X164900001Y-75450000D02*
X164337500Y-75450000D01*
X165075001Y-75625000D02*
X164900001Y-75450000D01*
X166356249Y-74900000D02*
X165631249Y-75625000D01*
%TO.N,/MCU/USB_FS_D-*%
X161749999Y-76075000D02*
X152849897Y-76075000D01*
X148631721Y-80328532D02*
X147952171Y-81008082D01*
X148631721Y-80293176D02*
X148631721Y-80328532D01*
X161924999Y-76250000D02*
X161749999Y-76075000D01*
X162487500Y-76250000D02*
X161924999Y-76250000D01*
X152849897Y-76075000D02*
X148631721Y-80293176D01*
%TO.N,/MCU/USB_FS_D+*%
X152663501Y-75625000D02*
X148313523Y-79974978D01*
X161924999Y-75450000D02*
X161749999Y-75625000D01*
X161749999Y-75625000D02*
X152663501Y-75625000D01*
X148278167Y-79974978D02*
X147598617Y-80654528D01*
X162487500Y-75450000D02*
X161924999Y-75450000D01*
X148313523Y-79974978D02*
X148278167Y-79974978D01*
D66*
%TO.N,I2C1_SCL*%
X154350000Y-93700000D02*
X154750000Y-94100000D01*
D68*
X149400000Y-112000000D02*
X149225000Y-112175000D01*
X149225000Y-112175000D02*
X149225000Y-113160000D01*
D66*
X154750000Y-94100000D02*
X154750000Y-109700000D01*
X153892603Y-92145750D02*
X153892603Y-93242603D01*
X152800000Y-111550000D02*
X152400000Y-111150000D01*
X154750000Y-109700000D02*
X154750000Y-111500000D01*
X153892603Y-93242603D02*
X154350000Y-93700000D01*
D68*
X151750000Y-111150000D02*
X151750000Y-111800000D01*
X151750000Y-111800000D02*
X151550000Y-112000000D01*
D66*
X153255472Y-91508617D02*
X153892603Y-92145750D01*
D68*
X151550000Y-112000000D02*
X149400000Y-112000000D01*
D66*
X152400000Y-111150000D02*
X151750000Y-111150000D01*
%TO.N,I2C1_SDA*%
X152700000Y-110400000D02*
X150300000Y-110400000D01*
D68*
X150000000Y-111150000D02*
X149197731Y-111150000D01*
D66*
X156100000Y-94027386D02*
X154529990Y-92457376D01*
X154529990Y-92076029D02*
X153609025Y-91155064D01*
X150300000Y-110400000D02*
X150000000Y-110700000D01*
D68*
X148575000Y-111772731D02*
X148575000Y-113160000D01*
D66*
X154529990Y-92457376D02*
X154529990Y-92076029D01*
X150000000Y-110700000D02*
X150000000Y-111150000D01*
X156100000Y-110400000D02*
X156100000Y-94027386D01*
D68*
X149197731Y-111150000D02*
X148575000Y-111772731D01*
%TO.N,/Codec/CODEC_DOUT*%
X147925000Y-111725000D02*
X147925000Y-113160000D01*
X151000000Y-107310000D02*
X151000000Y-107950000D01*
X149450000Y-108600000D02*
X148850000Y-109200000D01*
X148850000Y-110800000D02*
X147925000Y-111725000D01*
X148850000Y-109200000D02*
X148850000Y-110800000D01*
X150350000Y-108600000D02*
X149450000Y-108600000D01*
X151000000Y-107950000D02*
X150350000Y-108600000D01*
%TO.N,/Codec/CODEC_LRCK1*%
X146000000Y-108300000D02*
X146000000Y-107325000D01*
X147650000Y-109900000D02*
X147650000Y-111200000D01*
X147650000Y-111200000D02*
X147275000Y-111575000D01*
X147275000Y-111575000D02*
X147275000Y-113160000D01*
%TO.N,/Codec/CODEC_BCK1*%
X147689909Y-108317634D02*
X148032366Y-108317634D01*
X146850000Y-111302269D02*
X146850000Y-109157543D01*
X146625000Y-111527269D02*
X146850000Y-111302269D01*
X148032366Y-108317634D02*
X148500000Y-107850000D01*
X148500000Y-107850000D02*
X148500000Y-107310000D01*
X146625000Y-113160000D02*
X146625000Y-111527269D01*
X146850000Y-109157543D02*
X147689909Y-108317634D01*
%TO.N,/Codec/CODEC_SCK1*%
X143750000Y-108300000D02*
X144900000Y-108300000D01*
X145975000Y-109375000D02*
X145975000Y-113160000D01*
X143500000Y-107325000D02*
X143500000Y-108050000D01*
X144900000Y-108300000D02*
X145975000Y-109375000D01*
X143500000Y-108050000D02*
X143750000Y-108300000D01*
%TO.N,/Codec/CODEC_DIN*%
X152950000Y-114250000D02*
X153500000Y-113700000D01*
X153500000Y-113700000D02*
X153500000Y-107325000D01*
X142075000Y-113160000D02*
X142075000Y-113925000D01*
X142400000Y-114250000D02*
X152950000Y-114250000D01*
X142075000Y-113925000D02*
X142400000Y-114250000D01*
D66*
%TO.N,CODEC_NRST*%
X134350000Y-109950000D02*
X135300000Y-109000000D01*
X141950000Y-98323961D02*
X142754936Y-97519025D01*
X141950000Y-107350000D02*
X141950000Y-98323961D01*
X134350000Y-115275000D02*
X134350000Y-113250000D01*
X140300000Y-109000000D02*
X141950000Y-107350000D01*
X134350000Y-113250000D02*
X134350000Y-109950000D01*
X135300000Y-109000000D02*
X140300000Y-109000000D01*
D69*
%TO.N,/MCU/USB_CON_CC1*%
X175760000Y-78260000D02*
X175760000Y-82350000D01*
X173405000Y-77600000D02*
X175100000Y-77600000D01*
X175100000Y-77600000D02*
X175760000Y-78260000D01*
%TO.N,/MCU/USB_CON_D+*%
X174650000Y-76391000D02*
X174650000Y-75809000D01*
X174650000Y-75809000D02*
X174441000Y-75600000D01*
X174441000Y-76600000D02*
X174650000Y-76391000D01*
X174441000Y-75600000D02*
X173405000Y-75600000D01*
X173405000Y-76600000D02*
X174441000Y-76600000D01*
D67*
X173405000Y-75600000D02*
X171519239Y-75600000D01*
X171519239Y-75600000D02*
X170819239Y-74900000D01*
X170819239Y-74900000D02*
X169625000Y-74900000D01*
%TO.N,/MCU/USB_CON_D-*%
X173405000Y-76100000D02*
X171950000Y-76100000D01*
X171519239Y-76100000D02*
X170819239Y-76800000D01*
X172200000Y-76950000D02*
X172350000Y-77100000D01*
X172350000Y-77100000D02*
X173405000Y-77100000D01*
X171950000Y-76100000D02*
X171519239Y-76100000D01*
X170819239Y-76800000D02*
X169625000Y-76800000D01*
X172200000Y-76100000D02*
X172200000Y-76950000D01*
D69*
%TO.N,/MCU/USB_CON_CC2*%
X175710000Y-74040000D02*
X175710000Y-70350000D01*
X175150000Y-74600000D02*
X175710000Y-74040000D01*
X173405000Y-74600000D02*
X175150000Y-74600000D01*
D66*
%TO.N,/MCU/ADC3_INP10*%
X121790000Y-103740000D02*
X113500000Y-103740000D01*
X123950000Y-108000000D02*
X122100000Y-106150000D01*
X122100000Y-104050000D02*
X121790000Y-103740000D01*
X140280062Y-95044151D02*
X142024213Y-93300000D01*
X142024213Y-93300000D02*
X145100000Y-93300000D01*
X122100000Y-106150000D02*
X122100000Y-104050000D01*
X138750000Y-108000000D02*
X123950000Y-108000000D01*
%TO.N,/MCU/ADC3_INP11*%
X123800000Y-104450000D02*
X123800000Y-102150000D01*
X123800000Y-102150000D02*
X122850000Y-101200000D01*
X140633616Y-95397705D02*
X142031321Y-94000000D01*
X142031321Y-94000000D02*
X144350000Y-94000000D01*
X125800000Y-106450000D02*
X123800000Y-104450000D01*
X138750000Y-106450000D02*
X125800000Y-106450000D01*
X122850000Y-101200000D02*
X113500000Y-101200000D01*
%TO.N,/MCU/ADC3_INP0*%
X125750000Y-103000000D02*
X125750000Y-100000000D01*
X125750000Y-100000000D02*
X124410000Y-98660000D01*
X142088427Y-94650000D02*
X143600000Y-94650000D01*
X140987169Y-95751258D02*
X142088427Y-94650000D01*
X138700000Y-104900000D02*
X127650000Y-104900000D01*
X127650000Y-104900000D02*
X125750000Y-103000000D01*
X124410000Y-98660000D02*
X113500000Y-98660000D01*
X143600000Y-94650000D02*
X143650000Y-94700000D01*
%TO.N,/MCU/ADC3_INP1*%
X127450000Y-101400000D02*
X127450000Y-97600000D01*
X125970000Y-96120000D02*
X113500000Y-96120000D01*
X138650000Y-103250000D02*
X129300000Y-103250000D01*
X142095533Y-95350000D02*
X142800000Y-95350000D01*
X141340722Y-96104811D02*
X142095533Y-95350000D01*
X129300000Y-103250000D02*
X127450000Y-101400000D01*
X127450000Y-97600000D02*
X125970000Y-96120000D01*
%TO.N,Net-(SW301-B)*%
X134889376Y-83049376D02*
X134090000Y-82250000D01*
X120700000Y-82250000D02*
X119970000Y-82980000D01*
X134090000Y-82250000D02*
X120700000Y-82250000D01*
X119260000Y-85160000D02*
X113650000Y-85160000D01*
X119970000Y-84450000D02*
X119260000Y-85160000D01*
X119970000Y-82980000D02*
X119970000Y-84450000D01*
%TO.N,/MCU/BOOT0*%
X135610624Y-83770624D02*
X135617983Y-83770624D01*
X135617983Y-83770624D02*
X137451635Y-85604276D01*
D68*
%TO.N,/MCU/HSE_OUT*%
X138939139Y-94970861D02*
X138939139Y-96510861D01*
X138939139Y-96510861D02*
X137522810Y-97927190D01*
X139572955Y-94337045D02*
X138939139Y-94970861D01*
X137522810Y-97927190D02*
X137522810Y-97969271D01*
D67*
%TO.N,/MCU/MCU_SWDIO*%
X145000000Y-78950000D02*
X142600000Y-76550000D01*
X146450000Y-81100000D02*
X146200000Y-81100000D01*
X147245064Y-80300975D02*
X147245064Y-80304936D01*
X142600000Y-76550000D02*
X140750000Y-76550000D01*
X145000000Y-79900000D02*
X145000000Y-78950000D01*
X146200000Y-81100000D02*
X145000000Y-79900000D01*
X147245064Y-80304936D02*
X146450000Y-81100000D01*
X140750000Y-76550000D02*
X139533363Y-75333363D01*
%TO.N,/MCU/MCU_SWCLK*%
X143815596Y-79240315D02*
X142335281Y-77760000D01*
X139579872Y-77760000D02*
X138334350Y-76514478D01*
X142335281Y-77760000D02*
X139579872Y-77760000D01*
%TO.N,/MCU/MCU_SWO*%
X139219402Y-83836509D02*
X139186509Y-83836509D01*
X139186509Y-83836509D02*
X135083363Y-79733363D01*
D66*
%TO.N,/MCU/TIM4_CH1*%
X153450000Y-84800000D02*
X154110000Y-84800000D01*
X152488427Y-84250000D02*
X152900000Y-84250000D01*
X151841258Y-84897169D02*
X152488427Y-84250000D01*
X152900000Y-84250000D02*
X153450000Y-84800000D01*
X154110000Y-84800000D02*
X154666637Y-84243363D01*
%TO.N,/MCU/TIM4_CH2*%
X152910000Y-83500000D02*
X153416637Y-82993363D01*
X152531321Y-83500000D02*
X152910000Y-83500000D01*
X151487705Y-84543616D02*
X152531321Y-83500000D01*
%TO.N,/MCU/TIM4_CH3*%
X151771283Y-83552930D02*
X151771283Y-82138717D01*
X151771283Y-82138717D02*
X152166637Y-81743363D01*
X151134151Y-84190062D02*
X151771283Y-83552930D01*
%TO.N,VCOM*%
X161400000Y-135000000D02*
X161515000Y-134885000D01*
X158700000Y-134400000D02*
X158700000Y-134900000D01*
X146350000Y-131700000D02*
X146350000Y-133900000D01*
X146350000Y-133900000D02*
X146750000Y-134300000D01*
X161515000Y-134885000D02*
X161515000Y-133300000D01*
X144850000Y-129800000D02*
X143850000Y-129800000D01*
X146750000Y-134300000D02*
X158600000Y-134300000D01*
X146350000Y-131700000D02*
X145350000Y-131700000D01*
X145350000Y-131700000D02*
X145100000Y-131450000D01*
X145100000Y-130050000D02*
X144850000Y-129800000D01*
X158700000Y-134900000D02*
X158800000Y-135000000D01*
X145100000Y-131450000D02*
X145100000Y-130050000D01*
X158800000Y-135000000D02*
X161400000Y-135000000D01*
X158600000Y-134300000D02*
X158700000Y-134400000D01*
D68*
%TO.N,I2S1_SDO*%
X147952171Y-96811918D02*
X148640253Y-97500000D01*
X148640253Y-97500000D02*
X152100000Y-97500000D01*
X153500000Y-98900000D02*
X153500000Y-105675000D01*
X152100000Y-97500000D02*
X153500000Y-98900000D01*
%TO.N,I2S1_WS*%
X148600000Y-102550000D02*
X146000000Y-105150000D01*
X148600000Y-99581067D02*
X148600000Y-102550000D01*
X146891511Y-97872578D02*
X148600000Y-99581067D01*
X146000000Y-105150000D02*
X146000000Y-105675000D01*
%TO.N,I2S1_CK*%
X148395299Y-98669260D02*
X149219260Y-98669260D01*
X150250000Y-102900000D02*
X148500000Y-104650000D01*
X150250000Y-99700000D02*
X150250000Y-102900000D01*
X147245064Y-97519025D02*
X148395299Y-98669260D01*
X149219260Y-98669260D02*
X150250000Y-99700000D01*
X148500000Y-104650000D02*
X148500000Y-105660000D01*
%TO.N,I2S1_MCK*%
X147671907Y-95824548D02*
X147317885Y-95824548D01*
X148305724Y-96458365D02*
X147671907Y-95824548D01*
X147317885Y-95824548D02*
X144650000Y-98492433D01*
X144650000Y-98492433D02*
X144650000Y-103250000D01*
X144650000Y-103250000D02*
X143500000Y-104400000D01*
X143500000Y-104400000D02*
X143500000Y-105675000D01*
%TO.N,I2S1_SDI*%
X148533145Y-98100000D02*
X150350000Y-98100000D01*
X151950000Y-103600000D02*
X151000000Y-104550000D01*
X147598617Y-97165472D02*
X148533145Y-98100000D01*
X151000000Y-104550000D02*
X151000000Y-105660000D01*
X150350000Y-98100000D02*
X151950000Y-99700000D01*
X151950000Y-99700000D02*
X151950000Y-103600000D01*
D66*
%TO.N,/Codec/NRST_FILT*%
X138650000Y-120200000D02*
X140391393Y-120200000D01*
X134350000Y-120250000D02*
X135010000Y-120910000D01*
X138490000Y-120910000D02*
X138490000Y-120360000D01*
X134350000Y-118900000D02*
X134350000Y-120250000D01*
X134350000Y-118900000D02*
X134350000Y-116925000D01*
X135010000Y-120910000D02*
X138490000Y-120910000D01*
X140391393Y-120200000D02*
X140775000Y-119816394D01*
X138490000Y-120360000D02*
X138650000Y-120200000D01*
X140775000Y-119816394D02*
X140775000Y-119036000D01*
%TD*%
%TA.AperFunction,Conductor*%
%TO.N,+3.3V*%
G36*
X159765677Y-79019685D02*
G01*
X159786319Y-79036319D01*
X160213682Y-79463682D01*
X160247166Y-79525003D01*
X160250000Y-79551361D01*
X160250000Y-79698638D01*
X160230315Y-79765677D01*
X160213681Y-79786319D01*
X158536319Y-81463681D01*
X158474996Y-81497166D01*
X158448638Y-81500000D01*
X158301362Y-81500000D01*
X158234323Y-81480315D01*
X158213681Y-81463681D01*
X157286319Y-80536319D01*
X157252834Y-80474996D01*
X157250000Y-80448638D01*
X157250000Y-80051361D01*
X157269685Y-79984322D01*
X157286314Y-79963685D01*
X157713681Y-79536319D01*
X157775004Y-79502834D01*
X157801362Y-79500000D01*
X158198638Y-79500000D01*
X158265677Y-79519685D01*
X158286319Y-79536319D01*
X158500000Y-79750000D01*
X158750000Y-79750000D01*
X159463681Y-79036318D01*
X159525004Y-79002834D01*
X159551362Y-79000000D01*
X159698638Y-79000000D01*
X159765677Y-79019685D01*
G37*
%TD.AperFunction*%
%TD*%
%TA.AperFunction,Conductor*%
%TO.N,/Power/VCC_FILT*%
G36*
X149358278Y-64669685D02*
G01*
X149387207Y-64695475D01*
X150250000Y-65750000D01*
X151348638Y-65750000D01*
X151415677Y-65769685D01*
X151436319Y-65786319D01*
X151663681Y-66013681D01*
X151697166Y-66075004D01*
X151700000Y-66101362D01*
X151700000Y-66938000D01*
X151680315Y-67005039D01*
X151650400Y-67037200D01*
X151548426Y-67113681D01*
X151533067Y-67125200D01*
X151467625Y-67149676D01*
X151458667Y-67150000D01*
X149801362Y-67150000D01*
X149734323Y-67130315D01*
X149713681Y-67113681D01*
X149150000Y-66550000D01*
X147151362Y-66550000D01*
X147084323Y-66530315D01*
X147063685Y-66513685D01*
X146986318Y-66436318D01*
X146952834Y-66374994D01*
X146950000Y-66348637D01*
X146950000Y-64901362D01*
X146969685Y-64834323D01*
X146986319Y-64813681D01*
X147113681Y-64686319D01*
X147175004Y-64652834D01*
X147201362Y-64650000D01*
X149291239Y-64650000D01*
X149358278Y-64669685D01*
G37*
%TD.AperFunction*%
%TD*%
%TA.AperFunction,Conductor*%
%TO.N,VBUS*%
G36*
X168872145Y-78169685D02*
G01*
X168884480Y-78178733D01*
X169105384Y-78362820D01*
X169144282Y-78420858D01*
X169150000Y-78458078D01*
X169150000Y-80540402D01*
X169130315Y-80607441D01*
X169103462Y-80637230D01*
X169062664Y-80669868D01*
X168998018Y-80696376D01*
X168967556Y-80695778D01*
X168958668Y-80694500D01*
X168958667Y-80694500D01*
X168145862Y-80694500D01*
X168078823Y-80674815D01*
X168058181Y-80658181D01*
X168036318Y-80636318D01*
X168002833Y-80574995D01*
X168000000Y-80548646D01*
X168000000Y-79450000D01*
X167874800Y-79283066D01*
X167850324Y-79217623D01*
X167850000Y-79208666D01*
X167850000Y-78501362D01*
X167869685Y-78434323D01*
X167886319Y-78413681D01*
X168113681Y-78186319D01*
X168175004Y-78152834D01*
X168201362Y-78150000D01*
X168805106Y-78150000D01*
X168872145Y-78169685D01*
G37*
%TD.AperFunction*%
%TD*%
%TA.AperFunction,Conductor*%
%TO.N,+3.3V*%
G36*
X139148561Y-99608177D02*
G01*
X139188907Y-99633519D01*
X140710900Y-101063270D01*
X140746284Y-101123516D01*
X140750000Y-101153646D01*
X140750000Y-101548638D01*
X140730315Y-101615677D01*
X140713681Y-101636319D01*
X139936319Y-102413681D01*
X139874996Y-102447166D01*
X139848638Y-102450000D01*
X139503235Y-102450000D01*
X139436196Y-102430315D01*
X139413335Y-102411405D01*
X138539708Y-101491798D01*
X138507806Y-101429637D01*
X138506366Y-101392704D01*
X138545197Y-101043226D01*
X138572164Y-100978774D01*
X138580738Y-100969261D01*
X138700000Y-100850000D01*
X138700000Y-100700000D01*
X138399644Y-100399644D01*
X138366159Y-100338321D01*
X138367022Y-100281908D01*
X138368339Y-100276641D01*
X138403685Y-100216377D01*
X138430367Y-100197249D01*
X138432737Y-100195988D01*
X138479927Y-100161431D01*
X139017256Y-99635294D01*
X139078925Y-99602459D01*
X139148561Y-99608177D01*
G37*
%TD.AperFunction*%
%TD*%
%TA.AperFunction,Conductor*%
%TO.N,+3.3V*%
G36*
X144418676Y-65819685D02*
G01*
X144435592Y-65832745D01*
X145429197Y-66746861D01*
X145650000Y-66950000D01*
X149098638Y-66950000D01*
X149165677Y-66969685D01*
X149186319Y-66986319D01*
X149313681Y-67113681D01*
X149347166Y-67175004D01*
X149350000Y-67201362D01*
X149350000Y-68598637D01*
X149330315Y-68665676D01*
X149313681Y-68686318D01*
X149185008Y-68814991D01*
X149123685Y-68848476D01*
X149100505Y-68851269D01*
X147200001Y-68899999D01*
X147199997Y-68900001D01*
X146850000Y-69149999D01*
X146850000Y-69284061D01*
X146830315Y-69351100D01*
X146821997Y-69361523D01*
X146822105Y-69361604D01*
X146817155Y-69368211D01*
X146772512Y-69448021D01*
X146772509Y-69448026D01*
X146752826Y-69515058D01*
X146744500Y-69572965D01*
X146744500Y-72124900D01*
X146744612Y-72129702D01*
X146744932Y-72136536D01*
X146745000Y-72139436D01*
X146745000Y-73157772D01*
X146745280Y-73165353D01*
X146746908Y-73187375D01*
X146760843Y-73241157D01*
X146758601Y-73310991D01*
X146740006Y-73346657D01*
X146587200Y-73550400D01*
X146531229Y-73592221D01*
X146488000Y-73600000D01*
X145834345Y-73600000D01*
X145770549Y-73582329D01*
X145608685Y-73485210D01*
X145561327Y-73433840D01*
X145548512Y-73381579D01*
X145500000Y-71150000D01*
X145390908Y-71020453D01*
X144700001Y-70200000D01*
X144700000Y-70200000D01*
X140909598Y-70200000D01*
X140842559Y-70180315D01*
X140812770Y-70153462D01*
X140677172Y-69983965D01*
X140650664Y-69919319D01*
X140650000Y-69906503D01*
X140650000Y-65976635D01*
X140669685Y-65909596D01*
X140718543Y-65865728D01*
X140823818Y-65813091D01*
X140879272Y-65800000D01*
X144351637Y-65800000D01*
X144418676Y-65819685D01*
G37*
%TD.AperFunction*%
%TD*%
%TA.AperFunction,Conductor*%
%TO.N,/Codec/CODEC_VCOM*%
G36*
X144847388Y-120469685D02*
G01*
X144893143Y-120522489D01*
X144903087Y-120591647D01*
X144903087Y-120591649D01*
X144902827Y-120593455D01*
X144902825Y-120593463D01*
X144894768Y-120649500D01*
X144894500Y-120651364D01*
X144894500Y-121263583D01*
X144874815Y-121330622D01*
X144843433Y-121363866D01*
X144450000Y-121649998D01*
X144450000Y-121935040D01*
X144448184Y-121956185D01*
X144443458Y-121983489D01*
X144443458Y-121983493D01*
X144421774Y-122742456D01*
X144400183Y-122808906D01*
X144393085Y-122818298D01*
X144237179Y-123005384D01*
X144179142Y-123044282D01*
X144141922Y-123050000D01*
X143351362Y-123050000D01*
X143284323Y-123030315D01*
X143263681Y-123013681D01*
X143086319Y-122836319D01*
X143052834Y-122774996D01*
X143050000Y-122748638D01*
X143050000Y-121845870D01*
X143069685Y-121778831D01*
X143079848Y-121765177D01*
X143312883Y-121493302D01*
X143371459Y-121455212D01*
X143407032Y-121450000D01*
X144000000Y-121450000D01*
X144100000Y-121350000D01*
X144100000Y-120897042D01*
X144119685Y-120830003D01*
X144136313Y-120809367D01*
X144238047Y-120707632D01*
X144257894Y-120691516D01*
X144265669Y-120686437D01*
X144285864Y-120660488D01*
X144290942Y-120654737D01*
X144293375Y-120652306D01*
X144306038Y-120634569D01*
X144337517Y-120594126D01*
X144337519Y-120594119D01*
X144341017Y-120587655D01*
X144344236Y-120581070D01*
X144344240Y-120581066D01*
X144351270Y-120557453D01*
X144356878Y-120538618D01*
X144394873Y-120479982D01*
X144458538Y-120451197D01*
X144475723Y-120450000D01*
X144780349Y-120450000D01*
X144847388Y-120469685D01*
G37*
%TD.AperFunction*%
%TD*%
%TA.AperFunction,Conductor*%
%TO.N,GND*%
G36*
X148478156Y-125650889D02*
G01*
X148513324Y-125654851D01*
X148517008Y-125655267D01*
X148581422Y-125682333D01*
X148590806Y-125690806D01*
X148913682Y-126013682D01*
X148947166Y-126075003D01*
X148950000Y-126101361D01*
X148950000Y-128198637D01*
X148930315Y-128265676D01*
X148913681Y-128286318D01*
X148586319Y-128613681D01*
X148524996Y-128647166D01*
X148498638Y-128650000D01*
X147201362Y-128650000D01*
X147134323Y-128630315D01*
X147113681Y-128613681D01*
X146986319Y-128486319D01*
X146952834Y-128424996D01*
X146950000Y-128398638D01*
X146950000Y-127901362D01*
X146969685Y-127834323D01*
X146986319Y-127813681D01*
X146986318Y-127813680D01*
X147550000Y-127250000D01*
X147550000Y-126101361D01*
X147569685Y-126034323D01*
X147586319Y-126013681D01*
X147913181Y-125686819D01*
X147974504Y-125653334D01*
X148000862Y-125650500D01*
X148432098Y-125650500D01*
X148471217Y-125650500D01*
X148478156Y-125650889D01*
G37*
%TD.AperFunction*%
%TD*%
%TA.AperFunction,Conductor*%
%TO.N,+5V*%
G36*
X163412747Y-112219685D02*
G01*
X163436824Y-112239893D01*
X164380585Y-113262300D01*
X164411592Y-113324913D01*
X164412408Y-113362592D01*
X164394318Y-113499998D01*
X164394318Y-113500001D01*
X164414955Y-113656760D01*
X164414956Y-113656762D01*
X164475464Y-113802841D01*
X164571718Y-113928282D01*
X164697159Y-114024536D01*
X164843238Y-114085044D01*
X164921619Y-114095362D01*
X164999999Y-114105682D01*
X165000000Y-114105682D01*
X165059815Y-114097807D01*
X165128849Y-114108572D01*
X165181105Y-114154952D01*
X165200000Y-114220746D01*
X165200000Y-115652855D01*
X165180315Y-115719894D01*
X165168679Y-115735236D01*
X164836995Y-116108381D01*
X164777744Y-116145409D01*
X164744316Y-116150000D01*
X161855684Y-116150000D01*
X161788645Y-116130315D01*
X161763005Y-116108381D01*
X161431321Y-115735236D01*
X161401495Y-115672052D01*
X161400000Y-115652855D01*
X161400000Y-112743496D01*
X161419685Y-112676457D01*
X161427164Y-112666043D01*
X161726963Y-112291295D01*
X161769328Y-112257360D01*
X161806484Y-112239198D01*
X161806488Y-112239193D01*
X161812453Y-112234935D01*
X161823753Y-112226142D01*
X161888749Y-112200503D01*
X161899909Y-112200000D01*
X163345708Y-112200000D01*
X163412747Y-112219685D01*
G37*
%TD.AperFunction*%
%TD*%
%TA.AperFunction,Conductor*%
%TO.N,GND*%
G36*
X169370447Y-118469685D02*
G01*
X169385061Y-118480679D01*
X169391508Y-118486319D01*
X169707655Y-118762948D01*
X169745145Y-118821908D01*
X169750000Y-118856268D01*
X169749999Y-122258666D01*
X169730314Y-122325705D01*
X169725199Y-122333066D01*
X169487200Y-122650400D01*
X169431229Y-122692221D01*
X169388000Y-122700000D01*
X166957032Y-122700000D01*
X166889993Y-122680315D01*
X166862884Y-122656698D01*
X166857486Y-122650400D01*
X166629850Y-122384825D01*
X166601168Y-122321117D01*
X166600000Y-122304143D01*
X166600000Y-118851362D01*
X166619685Y-118784323D01*
X166636319Y-118763681D01*
X166913681Y-118486319D01*
X166975004Y-118452834D01*
X167001362Y-118450000D01*
X169303408Y-118450000D01*
X169370447Y-118469685D01*
G37*
%TD.AperFunction*%
%TD*%
%TA.AperFunction,Conductor*%
%TO.N,+5VA*%
G36*
X164905039Y-116419685D02*
G01*
X164937200Y-116449600D01*
X165108390Y-116677854D01*
X165175200Y-116766933D01*
X165199676Y-116832375D01*
X165200000Y-116841333D01*
X165200000Y-118200000D01*
X165500000Y-118500000D01*
X165748638Y-118500000D01*
X165815677Y-118519685D01*
X165836319Y-118536319D01*
X166063681Y-118763681D01*
X166097166Y-118825004D01*
X166100000Y-118851362D01*
X166100000Y-122258666D01*
X166080315Y-122325705D01*
X166075200Y-122333066D01*
X165837200Y-122650400D01*
X165781229Y-122692221D01*
X165738000Y-122700000D01*
X162951362Y-122700000D01*
X162884323Y-122680315D01*
X162863681Y-122663681D01*
X162536319Y-122336319D01*
X162502834Y-122274996D01*
X162500000Y-122248638D01*
X162500000Y-118851362D01*
X162519685Y-118784323D01*
X162536319Y-118763681D01*
X162763681Y-118536319D01*
X162825004Y-118502834D01*
X162851362Y-118500000D01*
X163099998Y-118500000D01*
X163100000Y-118500000D01*
X163350000Y-118200000D01*
X163349999Y-116744892D01*
X163369685Y-116677854D01*
X163378736Y-116665516D01*
X163562819Y-116444616D01*
X163620858Y-116405718D01*
X163658078Y-116400000D01*
X164838000Y-116400000D01*
X164905039Y-116419685D01*
G37*
%TD.AperFunction*%
%TD*%
%TA.AperFunction,Conductor*%
%TO.N,GND*%
G36*
X151370447Y-67669685D02*
G01*
X151385061Y-67680679D01*
X151708732Y-67963891D01*
X151746222Y-68022850D01*
X151751054Y-68054826D01*
X151848825Y-73138939D01*
X151830433Y-73206344D01*
X151802310Y-73238151D01*
X151383965Y-73572828D01*
X151319319Y-73599336D01*
X151306503Y-73600000D01*
X147356268Y-73600000D01*
X147289229Y-73580315D01*
X147262948Y-73557655D01*
X146981180Y-73235634D01*
X146951849Y-73172219D01*
X146950500Y-73153979D01*
X146950500Y-72130736D01*
X146950271Y-72128296D01*
X146950000Y-72122502D01*
X146950000Y-69572962D01*
X146969685Y-69505923D01*
X147013778Y-69464567D01*
X147371912Y-69265604D01*
X147432133Y-69250000D01*
X149450000Y-69250000D01*
X149750000Y-68950000D01*
X149750000Y-68016362D01*
X149769685Y-67949323D01*
X149805215Y-67913189D01*
X150168761Y-67670826D01*
X150235461Y-67650018D01*
X150237544Y-67650000D01*
X151303408Y-67650000D01*
X151370447Y-67669685D01*
G37*
%TD.AperFunction*%
%TD*%
%TA.AperFunction,Conductor*%
%TO.N,GND*%
G36*
X161620447Y-118469685D02*
G01*
X161635061Y-118480679D01*
X161641508Y-118486319D01*
X161957655Y-118762948D01*
X161995145Y-118821908D01*
X162000000Y-118856268D01*
X162000000Y-122258666D01*
X161980315Y-122325705D01*
X161975200Y-122333066D01*
X161737200Y-122650400D01*
X161681229Y-122692221D01*
X161638000Y-122700000D01*
X159207032Y-122700000D01*
X159139993Y-122680315D01*
X159112884Y-122656698D01*
X158879852Y-122384827D01*
X158851169Y-122321116D01*
X158850000Y-122304129D01*
X158850000Y-118851362D01*
X158869685Y-118784323D01*
X158886319Y-118763681D01*
X159163681Y-118486319D01*
X159225004Y-118452834D01*
X159251362Y-118450000D01*
X161553408Y-118450000D01*
X161620447Y-118469685D01*
G37*
%TD.AperFunction*%
%TD*%
%TA.AperFunction,Conductor*%
%TO.N,GND*%
G36*
X140922145Y-120419685D02*
G01*
X140934480Y-120428733D01*
X141155384Y-120612820D01*
X141194282Y-120670858D01*
X141200000Y-120708078D01*
X141200000Y-121664436D01*
X141181152Y-121730156D01*
X140986425Y-122041720D01*
X140934202Y-122088136D01*
X140881273Y-122100000D01*
X139363813Y-122100000D01*
X139296774Y-122080315D01*
X139262910Y-122048073D01*
X139073097Y-121782334D01*
X139050149Y-121716341D01*
X139050000Y-121710261D01*
X139050000Y-120751362D01*
X139069685Y-120684323D01*
X139086319Y-120663681D01*
X139163181Y-120586819D01*
X139224504Y-120553334D01*
X139250862Y-120550500D01*
X140342181Y-120550500D01*
X140367626Y-120553138D01*
X140376707Y-120555043D01*
X140392397Y-120553087D01*
X140409331Y-120550977D01*
X140417007Y-120550500D01*
X140420431Y-120550500D01*
X140420433Y-120550500D01*
X140420435Y-120550499D01*
X140420441Y-120550499D01*
X140431210Y-120548701D01*
X140441936Y-120546911D01*
X140492785Y-120540573D01*
X140492787Y-120540571D01*
X140499805Y-120538482D01*
X140506762Y-120536093D01*
X140506774Y-120536092D01*
X140539126Y-120518582D01*
X140551847Y-120511699D01*
X140575397Y-120500186D01*
X140597876Y-120489198D01*
X140597879Y-120489194D01*
X140603853Y-120484929D01*
X140609649Y-120480419D01*
X140609648Y-120480419D01*
X140609651Y-120480418D01*
X140644359Y-120442714D01*
X140650754Y-120436318D01*
X140712077Y-120402834D01*
X140738435Y-120400000D01*
X140855106Y-120400000D01*
X140922145Y-120419685D01*
G37*
%TD.AperFunction*%
%TD*%
%TA.AperFunction,Conductor*%
%TO.N,VDDA*%
G36*
X140958313Y-97918749D02*
G01*
X140993329Y-97943329D01*
X141563181Y-98513181D01*
X141596666Y-98574504D01*
X141599500Y-98600862D01*
X141599500Y-99149137D01*
X141579815Y-99216176D01*
X141563181Y-99236818D01*
X141300000Y-99499999D01*
X141300000Y-99700000D01*
X141563181Y-99963181D01*
X141596666Y-100024504D01*
X141599500Y-100050862D01*
X141599500Y-100499137D01*
X141579815Y-100566176D01*
X141563181Y-100586818D01*
X141226547Y-100923452D01*
X141165224Y-100956937D01*
X141163184Y-100957363D01*
X141015073Y-100986985D01*
X140945475Y-100980830D01*
X140903074Y-100953074D01*
X139436319Y-99486319D01*
X139402834Y-99424996D01*
X139400000Y-99398638D01*
X139400000Y-99312652D01*
X139419685Y-99245613D01*
X139437242Y-99224058D01*
X140734696Y-97953635D01*
X140796364Y-97920800D01*
X140805036Y-97919328D01*
X140889262Y-97908098D01*
X140958313Y-97918749D01*
G37*
%TD.AperFunction*%
%TD*%
%TA.AperFunction,Conductor*%
%TO.N,GND*%
G36*
X171623542Y-96419685D02*
G01*
X171633965Y-96427172D01*
X171803462Y-96562770D01*
X171843514Y-96620019D01*
X171850000Y-96659597D01*
X171849999Y-101506502D01*
X171830314Y-101573541D01*
X171822827Y-101583964D01*
X171687230Y-101753462D01*
X171629980Y-101793514D01*
X171590402Y-101800000D01*
X167551362Y-101800000D01*
X167484323Y-101780315D01*
X167463681Y-101763681D01*
X167286319Y-101586318D01*
X167252834Y-101524995D01*
X167250000Y-101498637D01*
X167250000Y-97716362D01*
X167269685Y-97649323D01*
X167305215Y-97613189D01*
X167518761Y-97470826D01*
X167585461Y-97450018D01*
X167587544Y-97450000D01*
X169150000Y-97450000D01*
X169650000Y-97000000D01*
X169650000Y-96659597D01*
X169669685Y-96592558D01*
X169696536Y-96562771D01*
X169866035Y-96427172D01*
X169930681Y-96400664D01*
X169943497Y-96400000D01*
X171556503Y-96400000D01*
X171623542Y-96419685D01*
G37*
%TD.AperFunction*%
%TD*%
%TA.AperFunction,Conductor*%
%TO.N,VUSB_FILT*%
G36*
X167315677Y-78119685D02*
G01*
X167336319Y-78136319D01*
X167513681Y-78313681D01*
X167547166Y-78375004D01*
X167550000Y-78401362D01*
X167550000Y-79403408D01*
X167530315Y-79470447D01*
X167519320Y-79485062D01*
X167200000Y-79850000D01*
X167200000Y-80491921D01*
X167180315Y-80558960D01*
X167155383Y-80587180D01*
X167061089Y-80665759D01*
X166996986Y-80693555D01*
X166981706Y-80694500D01*
X166490835Y-80694500D01*
X166485518Y-80694638D01*
X166470052Y-80695438D01*
X166434813Y-80703335D01*
X166365091Y-80698786D01*
X166320017Y-80670017D01*
X166236319Y-80586319D01*
X166202834Y-80524996D01*
X166200000Y-80498638D01*
X166200000Y-78457031D01*
X166219685Y-78389992D01*
X166243298Y-78362886D01*
X166515172Y-78129852D01*
X166578884Y-78101169D01*
X166595871Y-78100000D01*
X167248638Y-78100000D01*
X167315677Y-78119685D01*
G37*
%TD.AperFunction*%
%TD*%
%TA.AperFunction,Conductor*%
%TO.N,GND*%
G36*
X160815677Y-106519685D02*
G01*
X160836319Y-106536319D01*
X161163681Y-106863681D01*
X161197166Y-106925004D01*
X161200000Y-106951362D01*
X161200000Y-109500000D01*
X161385770Y-109685770D01*
X161408998Y-109717996D01*
X161586909Y-110073819D01*
X161600000Y-110129271D01*
X161600000Y-111402954D01*
X161580315Y-111469993D01*
X161563682Y-111490635D01*
X161491137Y-111563181D01*
X161429814Y-111596666D01*
X161403455Y-111599500D01*
X160950862Y-111599500D01*
X160883823Y-111579815D01*
X160863181Y-111563181D01*
X160836319Y-111536319D01*
X160802834Y-111474996D01*
X160800000Y-111448638D01*
X160800000Y-110300000D01*
X160783643Y-110283643D01*
X160750158Y-110222320D01*
X160748625Y-110213875D01*
X160740573Y-110158607D01*
X160689198Y-110053517D01*
X160689196Y-110053515D01*
X160689196Y-110053514D01*
X160606485Y-109970803D01*
X160501391Y-109919426D01*
X160432626Y-109909407D01*
X160403053Y-109901264D01*
X160400001Y-109900000D01*
X160400000Y-109900000D01*
X158651362Y-109900000D01*
X158584323Y-109880315D01*
X158563681Y-109863681D01*
X158236319Y-109536319D01*
X158202834Y-109474996D01*
X158200000Y-109448638D01*
X158200000Y-106951361D01*
X158219685Y-106884322D01*
X158236314Y-106863685D01*
X158563681Y-106536318D01*
X158625004Y-106502834D01*
X158651362Y-106500000D01*
X160748638Y-106500000D01*
X160815677Y-106519685D01*
G37*
%TD.AperFunction*%
%TD*%
%TA.AperFunction,Conductor*%
%TO.N,+3.3V*%
G36*
X132683383Y-84928163D02*
G01*
X132729067Y-84965678D01*
X132740999Y-84981618D01*
X132741015Y-84981636D01*
X133439225Y-85679846D01*
X134128087Y-86368708D01*
X134137370Y-86377343D01*
X134192135Y-86413883D01*
X134202910Y-86418792D01*
X134255756Y-86464496D01*
X134270733Y-86497569D01*
X134279955Y-86529846D01*
X134279445Y-86599713D01*
X134248407Y-86651592D01*
X133924287Y-86975713D01*
X133866679Y-87008330D01*
X133765723Y-87033568D01*
X133695911Y-87030730D01*
X133650665Y-87003567D01*
X132850000Y-86250000D01*
X132849999Y-86250000D01*
X132408468Y-86294153D01*
X132339803Y-86281236D01*
X132308449Y-86258449D01*
X131851592Y-85801592D01*
X131818107Y-85740269D01*
X131820044Y-85679846D01*
X131820043Y-85679846D01*
X131891173Y-85430892D01*
X131922718Y-85377281D01*
X132319918Y-84980081D01*
X132381239Y-84946598D01*
X132392194Y-84944725D01*
X132614424Y-84916946D01*
X132683383Y-84928163D01*
G37*
%TD.AperFunction*%
%TD*%
%TA.AperFunction,Conductor*%
%TO.N,/Power/VCC_RP*%
G36*
X168065677Y-95669685D02*
G01*
X168086319Y-95686319D01*
X168263681Y-95863681D01*
X168297166Y-95925004D01*
X168300000Y-95951362D01*
X168300000Y-96662456D01*
X168280315Y-96729495D01*
X168279174Y-96731239D01*
X168136811Y-96944783D01*
X168083246Y-96989644D01*
X168033637Y-97000000D01*
X167200000Y-97000000D01*
X166750000Y-97499999D01*
X166750000Y-99102855D01*
X166730315Y-99169894D01*
X166718678Y-99185236D01*
X166406694Y-99536220D01*
X166386995Y-99558381D01*
X166327744Y-99595409D01*
X166294316Y-99600000D01*
X163672963Y-99600000D01*
X163605924Y-99580315D01*
X163564568Y-99536220D01*
X163365605Y-99178087D01*
X163350000Y-99117867D01*
X163350000Y-97995422D01*
X163369685Y-97928383D01*
X163379340Y-97915325D01*
X163862851Y-97343903D01*
X163921182Y-97305441D01*
X163957511Y-97300000D01*
X165350000Y-97300000D01*
X165850000Y-96750000D01*
X165849999Y-95958078D01*
X165869685Y-95891039D01*
X165894613Y-95862822D01*
X166115513Y-95678739D01*
X166179614Y-95650945D01*
X166194894Y-95650000D01*
X167998638Y-95650000D01*
X168065677Y-95669685D01*
G37*
%TD.AperFunction*%
%TD*%
%TA.AperFunction,Conductor*%
%TO.N,GND*%
G36*
X148117439Y-75519685D02*
G01*
X148135917Y-75534207D01*
X149124977Y-76476169D01*
X149159091Y-76533335D01*
X149261341Y-76908255D01*
X149259989Y-76978111D01*
X149221084Y-77036148D01*
X149180030Y-77058812D01*
X149120104Y-77078283D01*
X149120102Y-77078284D01*
X149038494Y-77137576D01*
X149038488Y-77137581D01*
X148637581Y-77538488D01*
X148637576Y-77538494D01*
X148578284Y-77620102D01*
X148578283Y-77620105D01*
X148536632Y-77748291D01*
X148536632Y-77762006D01*
X148516947Y-77829045D01*
X148500313Y-77849687D01*
X147767997Y-78582002D01*
X147726369Y-78609452D01*
X147569730Y-78672108D01*
X147500174Y-78678729D01*
X147442979Y-78651125D01*
X147193302Y-78437116D01*
X147155212Y-78378541D01*
X147150000Y-78342968D01*
X147150000Y-78301362D01*
X147169685Y-78234323D01*
X147186319Y-78213681D01*
X147186318Y-78213681D01*
X147650000Y-77750000D01*
X147650000Y-77350000D01*
X146972720Y-76672720D01*
X146941173Y-76619105D01*
X146870044Y-76370154D01*
X146870554Y-76300286D01*
X146901592Y-76248408D01*
X147613681Y-75536319D01*
X147675004Y-75502834D01*
X147701362Y-75500000D01*
X148050400Y-75500000D01*
X148117439Y-75519685D01*
G37*
%TD.AperFunction*%
%TD*%
%TA.AperFunction,Conductor*%
%TO.N,GND*%
G36*
X160810007Y-114169685D02*
G01*
X160837116Y-114193302D01*
X161070148Y-114465173D01*
X161098831Y-114528882D01*
X161100000Y-114545870D01*
X161100000Y-115623684D01*
X161089313Y-115674045D01*
X160932728Y-116026361D01*
X160887512Y-116079628D01*
X160820677Y-116099994D01*
X160819415Y-116100000D01*
X158362000Y-116100000D01*
X158294961Y-116080315D01*
X158262800Y-116050400D01*
X158024800Y-115733066D01*
X158000324Y-115667624D01*
X158000000Y-115658666D01*
X158000000Y-115623684D01*
X158000000Y-114605680D01*
X158019683Y-114538645D01*
X158041613Y-114513010D01*
X158414763Y-114181321D01*
X158477948Y-114151495D01*
X158497145Y-114150000D01*
X160742968Y-114150000D01*
X160810007Y-114169685D01*
G37*
%TD.AperFunction*%
%TD*%
%TA.AperFunction,Conductor*%
%TO.N,GND*%
G36*
X143815677Y-109219685D02*
G01*
X143836319Y-109236319D01*
X144063681Y-109463681D01*
X144097166Y-109525004D01*
X144100000Y-109551362D01*
X144100000Y-110500000D01*
X144655383Y-110962819D01*
X144694282Y-111020858D01*
X144700000Y-111058078D01*
X144700000Y-111570728D01*
X144686909Y-111626182D01*
X144681595Y-111636811D01*
X144634273Y-111731454D01*
X144586686Y-111782613D01*
X144523364Y-111800000D01*
X143437544Y-111800000D01*
X143370505Y-111780315D01*
X143368761Y-111779174D01*
X143155217Y-111636811D01*
X143110356Y-111583246D01*
X143100000Y-111533637D01*
X143100000Y-111100000D01*
X142900000Y-110900000D01*
X142144894Y-110900000D01*
X142077855Y-110880315D01*
X142065511Y-110871259D01*
X141544617Y-110437180D01*
X141505718Y-110379141D01*
X141500000Y-110341921D01*
X141500000Y-109651362D01*
X141519685Y-109584323D01*
X141536319Y-109563681D01*
X141863681Y-109236319D01*
X141925004Y-109202834D01*
X141951362Y-109200000D01*
X143748638Y-109200000D01*
X143815677Y-109219685D01*
G37*
%TD.AperFunction*%
%TD*%
%TA.AperFunction,Conductor*%
%TO.N,GND*%
G36*
X140117817Y-97034695D02*
G01*
X140129922Y-97039961D01*
X140332005Y-97141002D01*
X140364229Y-97164229D01*
X140623452Y-97423452D01*
X140656937Y-97484775D01*
X140657363Y-97486815D01*
X140686820Y-97634101D01*
X140680665Y-97703699D01*
X140651981Y-97747018D01*
X138336154Y-100014599D01*
X138274482Y-100047437D01*
X138249401Y-100050000D01*
X138001362Y-100050000D01*
X137934323Y-100030315D01*
X137913681Y-100013681D01*
X137730083Y-99830083D01*
X137696598Y-99768760D01*
X137694724Y-99757798D01*
X137657522Y-99460176D01*
X137668739Y-99391214D01*
X137692880Y-99357119D01*
X139986806Y-97063193D01*
X140048125Y-97029711D01*
X140117817Y-97034695D01*
G37*
%TD.AperFunction*%
%TD*%
%TA.AperFunction,Conductor*%
%TO.N,GND*%
G36*
X150258961Y-118169685D02*
G01*
X150287180Y-118194616D01*
X150471259Y-118415511D01*
X150499055Y-118479613D01*
X150500000Y-118494893D01*
X150500000Y-119791921D01*
X150480315Y-119858960D01*
X150455383Y-119887180D01*
X150234489Y-120071259D01*
X150170386Y-120099055D01*
X150155106Y-120100000D01*
X148639738Y-120100000D01*
X148572699Y-120080315D01*
X148567664Y-120076903D01*
X148559762Y-120071259D01*
X148364415Y-119931725D01*
X148321305Y-119876741D01*
X148314764Y-119807178D01*
X148333388Y-119761930D01*
X148338867Y-119753731D01*
X148350500Y-119695248D01*
X148350500Y-118274000D01*
X148370185Y-118206961D01*
X148422989Y-118161206D01*
X148474500Y-118150000D01*
X150191922Y-118150000D01*
X150258961Y-118169685D01*
G37*
%TD.AperFunction*%
%TD*%
%TA.AperFunction,Conductor*%
%TO.N,GND*%
G36*
X146677101Y-120469685D02*
G01*
X146697743Y-120486319D01*
X146810228Y-120598804D01*
X146843713Y-120660127D01*
X146845286Y-120704121D01*
X146844501Y-120709584D01*
X146844500Y-120709598D01*
X146844500Y-121304138D01*
X146845090Y-121315144D01*
X146845090Y-121315145D01*
X146848511Y-121346961D01*
X146848513Y-121346970D01*
X146872470Y-121423478D01*
X146872471Y-121423483D01*
X146886872Y-121449855D01*
X146905956Y-121484805D01*
X146905958Y-121484808D01*
X146905960Y-121484811D01*
X146940998Y-121531615D01*
X146941002Y-121531619D01*
X146941009Y-121531629D01*
X146941016Y-121531636D01*
X146959082Y-121549702D01*
X146986532Y-121591331D01*
X147049999Y-121749999D01*
X147050000Y-121750000D01*
X147143399Y-121750000D01*
X147200872Y-121764123D01*
X147226425Y-121777490D01*
X147248771Y-121784051D01*
X147293456Y-121797173D01*
X147293458Y-121797173D01*
X147293464Y-121797175D01*
X147351362Y-121805500D01*
X147395671Y-121805500D01*
X147462710Y-121825185D01*
X147490929Y-121850116D01*
X147565759Y-121939912D01*
X147593555Y-122004013D01*
X147594500Y-122019294D01*
X147594500Y-122758282D01*
X147594696Y-122764626D01*
X147595836Y-122783066D01*
X147595836Y-122783070D01*
X147596578Y-122786160D01*
X147600000Y-122815088D01*
X147600000Y-123706503D01*
X147580315Y-123773542D01*
X147572828Y-123783965D01*
X147437230Y-123953462D01*
X147379979Y-123993514D01*
X147340402Y-124000000D01*
X144951362Y-124000000D01*
X144884323Y-123980315D01*
X144863681Y-123963681D01*
X144637794Y-123737794D01*
X144604309Y-123676471D01*
X144601526Y-123646576D01*
X144648875Y-121989357D01*
X144670466Y-121922909D01*
X144673587Y-121918550D01*
X144762801Y-121799597D01*
X144818772Y-121757779D01*
X144862000Y-121750000D01*
X145000000Y-121750000D01*
X145100000Y-121650000D01*
X145100000Y-120651361D01*
X145119685Y-120584322D01*
X145136310Y-120563689D01*
X145213683Y-120486316D01*
X145275005Y-120452834D01*
X145301362Y-120450000D01*
X146610062Y-120450000D01*
X146677101Y-120469685D01*
G37*
%TD.AperFunction*%
%TD*%
%TA.AperFunction,Conductor*%
%TO.N,GND*%
G36*
X136005124Y-97072319D02*
G01*
X136025766Y-97088953D01*
X136353128Y-97416315D01*
X136386613Y-97477638D01*
X136389447Y-97503996D01*
X136389447Y-97701272D01*
X136369762Y-97768311D01*
X136353128Y-97788953D01*
X135425766Y-98716315D01*
X135364443Y-98749800D01*
X135338085Y-98752634D01*
X135140809Y-98752634D01*
X135073770Y-98732949D01*
X135053128Y-98716315D01*
X134710146Y-98373333D01*
X134680190Y-98324864D01*
X134663681Y-98275336D01*
X134661156Y-98205511D01*
X134693635Y-98148445D01*
X134889447Y-97952634D01*
X134889447Y-97652634D01*
X134877128Y-97640314D01*
X134843643Y-97578992D01*
X134848627Y-97509300D01*
X134877128Y-97464953D01*
X135101766Y-97240315D01*
X135163089Y-97206830D01*
X135232781Y-97211814D01*
X135277128Y-97240315D01*
X135339447Y-97302634D01*
X135539447Y-97302634D01*
X135753127Y-97088953D01*
X135814451Y-97055468D01*
X135840809Y-97052634D01*
X135938085Y-97052634D01*
X136005124Y-97072319D01*
G37*
%TD.AperFunction*%
%TD*%
%TA.AperFunction,Conductor*%
%TO.N,+5VA*%
G36*
X147584607Y-120469685D02*
G01*
X147628967Y-120519538D01*
X147635802Y-120533519D01*
X147635803Y-120533520D01*
X147635804Y-120533522D01*
X147640065Y-120539490D01*
X147644580Y-120545291D01*
X147682275Y-120579993D01*
X147963681Y-120861398D01*
X147997166Y-120922721D01*
X148000000Y-120949079D01*
X148000000Y-121200000D01*
X147999999Y-121200000D01*
X148131517Y-121298638D01*
X148400000Y-121500000D01*
X148672353Y-121500000D01*
X148695842Y-121503422D01*
X148695848Y-121503381D01*
X148708020Y-121504898D01*
X148733350Y-121506996D01*
X148735309Y-121507076D01*
X148735315Y-121507078D01*
X148776446Y-121501949D01*
X148781535Y-121501529D01*
X148791249Y-121501127D01*
X148806434Y-121500500D01*
X148942339Y-121500500D01*
X149009378Y-121520185D01*
X149037596Y-121545115D01*
X149221259Y-121765511D01*
X149249055Y-121829613D01*
X149250000Y-121844893D01*
X149250000Y-122791921D01*
X149230315Y-122858960D01*
X149205383Y-122887180D01*
X148984489Y-123071259D01*
X148920386Y-123099055D01*
X148905106Y-123100000D01*
X148108078Y-123100000D01*
X148041039Y-123080315D01*
X148012822Y-123055386D01*
X147828739Y-122834486D01*
X147800945Y-122770386D01*
X147800000Y-122755106D01*
X147800000Y-121900001D01*
X147800000Y-121900000D01*
X147550000Y-121600000D01*
X147549999Y-121600000D01*
X147351362Y-121600000D01*
X147284323Y-121580315D01*
X147263681Y-121563681D01*
X147086319Y-121386319D01*
X147052834Y-121324996D01*
X147050000Y-121298638D01*
X147050000Y-120709597D01*
X147069685Y-120642558D01*
X147096536Y-120612771D01*
X147266035Y-120477172D01*
X147330681Y-120450664D01*
X147343497Y-120450000D01*
X147517568Y-120450000D01*
X147584607Y-120469685D01*
G37*
%TD.AperFunction*%
%TD*%
%TA.AperFunction,Conductor*%
%TO.N,/Power/VCC_FILT*%
G36*
X166455039Y-99869685D02*
G01*
X166487200Y-99899600D01*
X166725200Y-100216933D01*
X166749676Y-100282375D01*
X166750000Y-100291333D01*
X166750000Y-101548638D01*
X166730315Y-101615677D01*
X166713681Y-101636319D01*
X166486319Y-101863681D01*
X166424996Y-101897166D01*
X166398638Y-101900000D01*
X163857032Y-101900000D01*
X163789993Y-101880315D01*
X163762884Y-101856698D01*
X163529852Y-101584827D01*
X163501169Y-101521116D01*
X163500000Y-101504129D01*
X163500000Y-100207032D01*
X163519685Y-100139993D01*
X163543302Y-100112884D01*
X163815173Y-99879852D01*
X163878884Y-99851169D01*
X163895871Y-99850000D01*
X166388000Y-99850000D01*
X166455039Y-99869685D01*
G37*
%TD.AperFunction*%
%TD*%
%TA.AperFunction,Conductor*%
%TO.N,/Power/VCC_FILT*%
G36*
X164815677Y-107719685D02*
G01*
X164836319Y-107736319D01*
X165163681Y-108063681D01*
X165197166Y-108125004D01*
X165200000Y-108151362D01*
X165200000Y-110248636D01*
X165180315Y-110315675D01*
X165163680Y-110336319D01*
X165136624Y-110363374D01*
X165075300Y-110396858D01*
X165032761Y-110398630D01*
X165000004Y-110394318D01*
X164999998Y-110394318D01*
X164843239Y-110414955D01*
X164843237Y-110414956D01*
X164697160Y-110475463D01*
X164697158Y-110475464D01*
X164697159Y-110475464D01*
X164571718Y-110571718D01*
X164510508Y-110651488D01*
X164454082Y-110692689D01*
X164412134Y-110700000D01*
X162999999Y-110700000D01*
X162600000Y-111099999D01*
X162600000Y-111448638D01*
X162580315Y-111515677D01*
X162563681Y-111536319D01*
X162436319Y-111663681D01*
X162374996Y-111697166D01*
X162348638Y-111700000D01*
X162051362Y-111700000D01*
X161984323Y-111680315D01*
X161963681Y-111663681D01*
X161836499Y-111536499D01*
X161803014Y-111475176D01*
X161801443Y-111431167D01*
X161801858Y-111428282D01*
X161805500Y-111402954D01*
X161805500Y-110129271D01*
X161804205Y-110118148D01*
X161800417Y-110085616D01*
X161800000Y-110078438D01*
X161800000Y-109700000D01*
X161441818Y-109341818D01*
X161408334Y-109280496D01*
X161405500Y-109254138D01*
X161405500Y-108145861D01*
X161425185Y-108078822D01*
X161441814Y-108058185D01*
X161763681Y-107736318D01*
X161825004Y-107702834D01*
X161851362Y-107700000D01*
X164748638Y-107700000D01*
X164815677Y-107719685D01*
G37*
%TD.AperFunction*%
%TD*%
%TA.AperFunction,Conductor*%
%TO.N,GND*%
G36*
X133860943Y-83818589D02*
G01*
X133891904Y-83840408D01*
X135212073Y-85113428D01*
X135246667Y-85174132D01*
X135250000Y-85202688D01*
X135250000Y-85601517D01*
X135230315Y-85668556D01*
X135217116Y-85685624D01*
X134694176Y-86252142D01*
X134634240Y-86288051D01*
X134585524Y-86290789D01*
X134340917Y-86255845D01*
X134277335Y-86226877D01*
X134270772Y-86220772D01*
X133651517Y-85601517D01*
X132886316Y-84836316D01*
X132852833Y-84774996D01*
X132850000Y-84748647D01*
X132850000Y-84498233D01*
X132869685Y-84431194D01*
X132882593Y-84414444D01*
X133368549Y-83884309D01*
X133428358Y-83848194D01*
X133446246Y-83844861D01*
X133792142Y-83806428D01*
X133860943Y-83818589D01*
G37*
%TD.AperFunction*%
%TD*%
%TA.AperFunction,Conductor*%
%TO.N,GND*%
G36*
X169025706Y-80919685D02*
G01*
X169033062Y-80924796D01*
X169150400Y-81012800D01*
X169192221Y-81068771D01*
X169200000Y-81112000D01*
X169200000Y-82004129D01*
X169180315Y-82071168D01*
X169170148Y-82084827D01*
X168937116Y-82356698D01*
X168878542Y-82394788D01*
X168842968Y-82400000D01*
X166518727Y-82400000D01*
X166451688Y-82380315D01*
X166413575Y-82341720D01*
X166218848Y-82030156D01*
X166200000Y-81964436D01*
X166200000Y-81159597D01*
X166219685Y-81092558D01*
X166246536Y-81062771D01*
X166416035Y-80927172D01*
X166480681Y-80900664D01*
X166493497Y-80900000D01*
X168958667Y-80900000D01*
X169025706Y-80919685D01*
G37*
%TD.AperFunction*%
%TD*%
%TA.AperFunction,Conductor*%
%TO.N,+3.3V*%
G36*
X145324684Y-109219685D02*
G01*
X145345326Y-109236319D01*
X145563682Y-109454675D01*
X145597166Y-109515996D01*
X145600000Y-109542354D01*
X145600000Y-111748638D01*
X145580315Y-111815677D01*
X145563681Y-111836319D01*
X145436319Y-111963681D01*
X145374996Y-111997166D01*
X145348638Y-112000000D01*
X145082660Y-112000000D01*
X145015621Y-111980315D01*
X144971259Y-111930458D01*
X144964202Y-111916022D01*
X144959919Y-111910024D01*
X144955420Y-111904244D01*
X144955418Y-111904242D01*
X144917724Y-111869542D01*
X144898703Y-111850521D01*
X144865219Y-111789199D01*
X144869808Y-111720583D01*
X144870714Y-111718084D01*
X144886912Y-111673397D01*
X144900003Y-111617943D01*
X144905500Y-111570728D01*
X144905500Y-111058078D01*
X144903117Y-111026874D01*
X144897399Y-110989654D01*
X144864988Y-110906447D01*
X144864987Y-110906446D01*
X144864984Y-110906440D01*
X144823624Y-110844730D01*
X144824457Y-110844171D01*
X144800508Y-110783531D01*
X144800000Y-110772319D01*
X144800000Y-110699999D01*
X144449600Y-110437199D01*
X144407779Y-110381228D01*
X144400000Y-110337999D01*
X144400000Y-109551362D01*
X144419685Y-109484323D01*
X144436319Y-109463681D01*
X144663681Y-109236319D01*
X144725004Y-109202834D01*
X144751362Y-109200000D01*
X145257645Y-109200000D01*
X145324684Y-109219685D01*
G37*
%TD.AperFunction*%
%TD*%
M02*
