%TF.GenerationSoftware,KiCad,Pcbnew,7.0.6-0*%
%TF.CreationDate,2024-10-14T12:06:59-04:00*%
%TF.ProjectId,GuitarFX,47756974-6172-4465-982e-6b696361645f,rev?*%
%TF.SameCoordinates,Original*%
%TF.FileFunction,Copper,L4,Bot*%
%TF.FilePolarity,Positive*%
%FSLAX46Y46*%
G04 Gerber Fmt 4.6, Leading zero omitted, Abs format (unit mm)*
G04 Created by KiCad (PCBNEW 7.0.6-0) date 2024-10-14 12:06:59*
%MOMM*%
%LPD*%
G01*
G04 APERTURE LIST*
%TA.AperFunction,ComponentPad*%
%ADD10C,0.800000*%
%TD*%
%TA.AperFunction,ComponentPad*%
%ADD11C,6.400000*%
%TD*%
%TA.AperFunction,ComponentPad*%
%ADD12R,2.200000X2.200000*%
%TD*%
%TA.AperFunction,ComponentPad*%
%ADD13C,2.200000*%
%TD*%
%TA.AperFunction,ComponentPad*%
%ADD14O,2.100000X1.000000*%
%TD*%
%TA.AperFunction,ComponentPad*%
%ADD15O,1.600000X1.000000*%
%TD*%
%TA.AperFunction,ViaPad*%
%ADD16C,0.700000*%
%TD*%
%TA.AperFunction,ViaPad*%
%ADD17C,0.800000*%
%TD*%
%TA.AperFunction,Conductor*%
%ADD18C,0.500000*%
%TD*%
%TA.AperFunction,Conductor*%
%ADD19C,0.200000*%
%TD*%
%TA.AperFunction,Conductor*%
%ADD20C,0.300000*%
%TD*%
%TA.AperFunction,Conductor*%
%ADD21C,0.293370*%
%TD*%
G04 APERTURE END LIST*
D10*
%TO.P,H102,1,1*%
%TO.N,GND*%
X172600000Y-63500000D03*
X173302944Y-61802944D03*
X173302944Y-65197056D03*
X175000000Y-61100000D03*
D11*
X175000000Y-63500000D03*
D10*
X175000000Y-65900000D03*
X176697056Y-61802944D03*
X176697056Y-65197056D03*
X177400000Y-63500000D03*
%TD*%
%TO.P,H103,1,1*%
%TO.N,GND*%
X172600000Y-138500000D03*
X173302944Y-136802944D03*
X173302944Y-140197056D03*
X175000000Y-136100000D03*
D11*
X175000000Y-138500000D03*
D10*
X175000000Y-140900000D03*
X176697056Y-136802944D03*
X176697056Y-140197056D03*
X177400000Y-138500000D03*
%TD*%
D12*
%TO.P,J402,1,Pin_1*%
%TO.N,/Codec/AUDIO_VOUT*%
X113500000Y-129160000D03*
D13*
%TO.P,J402,2,Pin_2*%
%TO.N,GND*%
X113500000Y-131700000D03*
%TD*%
D12*
%TO.P,J303,1,Pin_1*%
%TO.N,/MCU/ADC3_INP1*%
X113500000Y-96120000D03*
D13*
%TO.P,J303,2,Pin_2*%
%TO.N,/MCU/ADC3_INP0*%
X113500000Y-98660000D03*
%TO.P,J303,3,Pin_3*%
%TO.N,/MCU/ADC3_INP11*%
X113500000Y-101200000D03*
%TO.P,J303,4,Pin_4*%
%TO.N,/MCU/ADC3_INP10*%
X113500000Y-103740000D03*
%TO.P,J303,5,Pin_5*%
%TO.N,+3.3V*%
X113500000Y-106280000D03*
%TO.P,J303,6,Pin_6*%
%TO.N,GND*%
X113500000Y-108820000D03*
%TD*%
D10*
%TO.P,H104,1,1*%
%TO.N,GND*%
X112600000Y-138500000D03*
X113302944Y-136802944D03*
X113302944Y-140197056D03*
X115000000Y-136100000D03*
D11*
X115000000Y-138500000D03*
D10*
X115000000Y-140900000D03*
X116697056Y-136802944D03*
X116697056Y-140197056D03*
X117400000Y-138500000D03*
%TD*%
D12*
%TO.P,J202,1,Pin_1*%
%TO.N,GND*%
X176500000Y-96450000D03*
D13*
%TO.P,J202,2,Pin_2*%
%TO.N,VCC*%
X176500000Y-93910000D03*
%TD*%
D10*
%TO.P,H101,1,1*%
%TO.N,GND*%
X112600000Y-63500000D03*
X113302944Y-61802944D03*
X113302944Y-65197056D03*
X115000000Y-61100000D03*
D11*
X115000000Y-63500000D03*
D10*
X115000000Y-65900000D03*
X116697056Y-61802944D03*
X116697056Y-65197056D03*
X117400000Y-63500000D03*
%TD*%
D12*
%TO.P,J401,1,Pin_1*%
%TO.N,GND*%
X176500000Y-131680000D03*
D13*
%TO.P,J401,2,Pin_2*%
%TO.N,/Codec/AUDIO_VIN*%
X176500000Y-129140000D03*
%TD*%
D14*
%TO.P,J301,S1,SHIELD*%
%TO.N,unconnected-(J301-SHIELD-PadS1)*%
X174320000Y-80670000D03*
D15*
X178500000Y-80670000D03*
D14*
X174320000Y-72030000D03*
D15*
X178500000Y-72030000D03*
%TD*%
D16*
%TO.N,+5VA*%
X143199500Y-125200000D03*
X151750000Y-125200000D03*
X141800500Y-125200000D03*
X150300500Y-125200000D03*
D17*
%TO.N,GND*%
X162500000Y-73500000D03*
D16*
X152750000Y-67450000D03*
D17*
X170000000Y-71000000D03*
X172500000Y-131000000D03*
D16*
X172100000Y-80400000D03*
D17*
X135000000Y-136000000D03*
X162500000Y-136000000D03*
X125000000Y-73500000D03*
D16*
X143900000Y-74100000D03*
D17*
X160000000Y-103500000D03*
X167500000Y-88500000D03*
X165000000Y-91000000D03*
X170000000Y-123500000D03*
D16*
X139550000Y-107300000D03*
D17*
X157500000Y-121000000D03*
X112500000Y-121000000D03*
X167500000Y-61000000D03*
X132500000Y-128500000D03*
X177500000Y-113500000D03*
X117500000Y-113500000D03*
X152500000Y-68500000D03*
X155000000Y-118500000D03*
X170000000Y-103500000D03*
D16*
X139350000Y-104050000D03*
D17*
X155000000Y-63500000D03*
X140000000Y-68500000D03*
X117500000Y-86000000D03*
X112500000Y-118500000D03*
X120000000Y-71000000D03*
X152500000Y-116000000D03*
X172500000Y-68500000D03*
D16*
X137300000Y-113200000D03*
D17*
X177500000Y-123500000D03*
X165000000Y-63500000D03*
X125000000Y-123500000D03*
X125000000Y-136000000D03*
X122500000Y-83500000D03*
X157500000Y-118500000D03*
X172500000Y-83500000D03*
X120000000Y-93500000D03*
X177500000Y-111000000D03*
X122500000Y-141000000D03*
D16*
X143200000Y-124300000D03*
D17*
X125000000Y-113500000D03*
D16*
X147550000Y-130750000D03*
D17*
X165000000Y-141000000D03*
X122500000Y-138500000D03*
X127500000Y-81000000D03*
X115000000Y-113500000D03*
X132500000Y-81000000D03*
X117500000Y-123500000D03*
X152500000Y-71000000D03*
D16*
X173900000Y-82350000D03*
D17*
X172500000Y-101000000D03*
X172500000Y-88500000D03*
X125000000Y-111000000D03*
X152500000Y-61000000D03*
X170000000Y-108500000D03*
D16*
X159800000Y-119050000D03*
D17*
X145000000Y-61000000D03*
X167500000Y-123500000D03*
X170000000Y-83500000D03*
D16*
X159100000Y-77500000D03*
D17*
X132500000Y-138500000D03*
X122500000Y-126000000D03*
D16*
X162700000Y-106750000D03*
D17*
X175000000Y-98500000D03*
X157500000Y-68500000D03*
X120000000Y-136000000D03*
D16*
X160815500Y-134100000D03*
X133350000Y-134500000D03*
D17*
X172500000Y-116000000D03*
X122500000Y-71000000D03*
D16*
X165650000Y-81200000D03*
D17*
X132500000Y-123500000D03*
D16*
X172100000Y-72300000D03*
D17*
X167500000Y-91000000D03*
D16*
X159800000Y-122100000D03*
D17*
X172500000Y-133500000D03*
D16*
X169300000Y-99800000D03*
X148300000Y-127950000D03*
D17*
X167500000Y-126000000D03*
X162500000Y-63500000D03*
D16*
X149700000Y-71400000D03*
X156168989Y-111296853D03*
D17*
X120000000Y-73500000D03*
X175000000Y-113500000D03*
X157500000Y-138500000D03*
X120000000Y-118500000D03*
X122500000Y-123500000D03*
X112500000Y-91000000D03*
D16*
X146950000Y-123500000D03*
X168550000Y-119000000D03*
D17*
X167500000Y-141000000D03*
X137500000Y-63500000D03*
X125000000Y-61000000D03*
X137500000Y-136000000D03*
D16*
X171300000Y-73100000D03*
D17*
X125000000Y-63500000D03*
X115000000Y-118500000D03*
X150000000Y-63500000D03*
X162500000Y-66000000D03*
X152500000Y-121000000D03*
X167500000Y-71000000D03*
X177500000Y-88500000D03*
X172500000Y-123500000D03*
D16*
X170850000Y-75850000D03*
D17*
X157500000Y-123500000D03*
D16*
X144561902Y-107603815D03*
D17*
X165000000Y-71000000D03*
X137500000Y-61000000D03*
X177500000Y-121000000D03*
X170000000Y-111000000D03*
X177500000Y-126000000D03*
X127500000Y-121000000D03*
X130000000Y-138500000D03*
D16*
X142200000Y-109900000D03*
D17*
X177500000Y-133500000D03*
X175000000Y-83500000D03*
X142500000Y-136000000D03*
X117500000Y-78500000D03*
X155000000Y-68500000D03*
X130000000Y-113500000D03*
D16*
X139700000Y-98050000D03*
D17*
X165000000Y-61000000D03*
X172500000Y-71000000D03*
X165000000Y-136000000D03*
X172500000Y-121000000D03*
X120000000Y-76000000D03*
D16*
X139500000Y-121700000D03*
X152750000Y-108300000D03*
D17*
X165000000Y-86000000D03*
D16*
X148450000Y-74100000D03*
D17*
X167500000Y-136000000D03*
X177500000Y-83500000D03*
X125000000Y-81000000D03*
X155000000Y-73500000D03*
X132500000Y-113500000D03*
X147500000Y-63500000D03*
X167500000Y-113500000D03*
D16*
X152803815Y-109450000D03*
D17*
X130000000Y-61000000D03*
X130000000Y-81000000D03*
X130000000Y-63500000D03*
X127500000Y-136000000D03*
D16*
X116250000Y-86700000D03*
X170300000Y-135000000D03*
D17*
X175000000Y-133500000D03*
X170000000Y-121000000D03*
X115000000Y-83500000D03*
X167500000Y-86000000D03*
X162500000Y-61000000D03*
X155000000Y-71000000D03*
D16*
X150300000Y-124250000D03*
X151000000Y-72950000D03*
X159400000Y-107100000D03*
D17*
X120000000Y-88500000D03*
X120000000Y-81000000D03*
X112500000Y-76000000D03*
X177500000Y-103500000D03*
D16*
X171300000Y-79600000D03*
X139650000Y-78550000D03*
D17*
X127500000Y-93500000D03*
X127500000Y-76000000D03*
X135000000Y-128500000D03*
X137500000Y-68500000D03*
X135000000Y-63500000D03*
X160000000Y-63500000D03*
D16*
X158800000Y-115550000D03*
D17*
X120000000Y-91000000D03*
D16*
X136560000Y-133200000D03*
D17*
X162500000Y-68500000D03*
X132500000Y-61000000D03*
X135000000Y-123500000D03*
X125000000Y-66000000D03*
X157500000Y-111000000D03*
D16*
X168100000Y-131350000D03*
D17*
X167500000Y-66000000D03*
X130000000Y-111000000D03*
X130000000Y-93500000D03*
D16*
X147750000Y-101700000D03*
X149950000Y-119550000D03*
D17*
X157500000Y-73500000D03*
D16*
X168550000Y-121150000D03*
D17*
X117500000Y-76000000D03*
X157500000Y-136000000D03*
X157500000Y-141000000D03*
X132500000Y-111000000D03*
X167500000Y-103500000D03*
X165000000Y-73500000D03*
X140000000Y-66000000D03*
X127500000Y-118500000D03*
D16*
X149700000Y-72950000D03*
D17*
X160000000Y-136000000D03*
X167500000Y-116000000D03*
X125000000Y-88500000D03*
D16*
X134500000Y-85050000D03*
X169300000Y-101050000D03*
X139500000Y-92300000D03*
D17*
X130000000Y-88500000D03*
D16*
X145300000Y-123500000D03*
D17*
X172500000Y-111000000D03*
X167500000Y-63500000D03*
X175000000Y-118500000D03*
X157500000Y-103500000D03*
X115000000Y-76000000D03*
X120000000Y-63500000D03*
X177500000Y-118500000D03*
X117500000Y-73500000D03*
X127500000Y-91000000D03*
X135000000Y-66000000D03*
X177500000Y-86000000D03*
X172500000Y-91000000D03*
X140000000Y-61000000D03*
X170000000Y-116000000D03*
D16*
X149950000Y-118600000D03*
D17*
X117500000Y-83500000D03*
X157500000Y-113500000D03*
D16*
X170300000Y-99800000D03*
D17*
X175000000Y-106000000D03*
X130000000Y-83500000D03*
D16*
X126850000Y-131000000D03*
D17*
X132500000Y-91000000D03*
X162500000Y-138500000D03*
X157500000Y-61000000D03*
D16*
X166700000Y-82000000D03*
D17*
X170000000Y-66000000D03*
X170000000Y-88500000D03*
D16*
X138400000Y-130800000D03*
D17*
X130000000Y-121000000D03*
X152500000Y-123500000D03*
X125000000Y-68500000D03*
X142500000Y-61000000D03*
X115000000Y-78500000D03*
D16*
X171300000Y-72300000D03*
X159800000Y-119950000D03*
D17*
X147500000Y-116000000D03*
X120000000Y-126000000D03*
D16*
X136060000Y-77826444D03*
D17*
X175000000Y-108500000D03*
X122500000Y-68500000D03*
X165000000Y-123500000D03*
X130000000Y-141000000D03*
X167500000Y-108500000D03*
X115000000Y-81000000D03*
X125000000Y-121000000D03*
X132500000Y-141000000D03*
X112500000Y-123500000D03*
X167500000Y-138500000D03*
X127500000Y-78500000D03*
X177500000Y-106000000D03*
X162500000Y-71000000D03*
D16*
X134550000Y-91750000D03*
X139550000Y-72650000D03*
D17*
X120000000Y-86000000D03*
X117500000Y-81000000D03*
X115000000Y-111000000D03*
X177500000Y-108500000D03*
X170000000Y-61000000D03*
X115000000Y-116000000D03*
X125000000Y-138500000D03*
D16*
X152800000Y-112450000D03*
D17*
X160000000Y-61000000D03*
D16*
X136650000Y-93400000D03*
D17*
X140000000Y-63500000D03*
D16*
X171300000Y-101050000D03*
X168550000Y-122050000D03*
X140700000Y-121700000D03*
D17*
X127500000Y-83500000D03*
X160000000Y-106000000D03*
X127500000Y-88500000D03*
X122500000Y-81000000D03*
X132500000Y-83500000D03*
D16*
X143250000Y-132700000D03*
D17*
X170000000Y-141000000D03*
X127500000Y-141000000D03*
X130000000Y-123500000D03*
X117500000Y-91000000D03*
X125000000Y-86000000D03*
D16*
X162700000Y-128035000D03*
X169808550Y-74050500D03*
D17*
X132500000Y-118500000D03*
X127500000Y-138500000D03*
D16*
X168550000Y-119900000D03*
D17*
X120000000Y-66000000D03*
X137500000Y-116000000D03*
X175000000Y-121000000D03*
X147500000Y-136000000D03*
D16*
X168700000Y-82000000D03*
D17*
X132500000Y-136000000D03*
X115000000Y-123500000D03*
X157500000Y-71000000D03*
X175000000Y-103500000D03*
D16*
X170300000Y-101050000D03*
D17*
X150000000Y-136000000D03*
X137500000Y-128500000D03*
X165000000Y-113500000D03*
D16*
X137300000Y-118900000D03*
D17*
X112500000Y-111000000D03*
X170000000Y-126000000D03*
X125000000Y-71000000D03*
X170000000Y-136000000D03*
X172500000Y-126000000D03*
D16*
X168600000Y-133300000D03*
D17*
X127500000Y-86000000D03*
D16*
X119500000Y-134950000D03*
D17*
X155000000Y-121000000D03*
D16*
X135239447Y-97652634D03*
D17*
X167500000Y-73500000D03*
D16*
X114980000Y-82130000D03*
D17*
X130000000Y-96000000D03*
X172500000Y-86000000D03*
X117500000Y-116000000D03*
X125000000Y-91000000D03*
X170000000Y-91000000D03*
X160000000Y-138500000D03*
X170000000Y-138500000D03*
X112500000Y-133500000D03*
D16*
X154750000Y-112450000D03*
X135300000Y-78600000D03*
D17*
X157500000Y-116000000D03*
X175000000Y-68500000D03*
X165000000Y-93500000D03*
X115000000Y-68500000D03*
X137500000Y-123500000D03*
X170000000Y-63500000D03*
D16*
X153798034Y-128979291D03*
D17*
X117500000Y-133500000D03*
X120000000Y-123500000D03*
D16*
X159800000Y-121200000D03*
X173850000Y-70350000D03*
D17*
X175000000Y-123500000D03*
D16*
X147600000Y-76100000D03*
D17*
X125000000Y-126000000D03*
X122500000Y-121000000D03*
D16*
X143600000Y-111300000D03*
D17*
X165000000Y-83500000D03*
X152500000Y-73500000D03*
X112500000Y-116000000D03*
X157500000Y-63500000D03*
X172500000Y-113500000D03*
X162500000Y-141000000D03*
X167500000Y-111000000D03*
X115000000Y-121000000D03*
X177500000Y-98500000D03*
X122500000Y-136000000D03*
X115000000Y-91000000D03*
D16*
X128650000Y-128500000D03*
D17*
X127500000Y-96000000D03*
X140000000Y-123500000D03*
X122500000Y-108500000D03*
X122500000Y-76000000D03*
X122500000Y-86000000D03*
X120000000Y-78500000D03*
X112500000Y-68500000D03*
D16*
X172100000Y-73100000D03*
D17*
X127500000Y-68500000D03*
X165000000Y-96000000D03*
X175000000Y-88500000D03*
X120000000Y-68500000D03*
X127500000Y-111000000D03*
X135000000Y-61000000D03*
X137500000Y-66000000D03*
D16*
X151000000Y-71400000D03*
D17*
X117500000Y-71000000D03*
D16*
X151000000Y-69900000D03*
D17*
X117500000Y-131000000D03*
D16*
X154401490Y-130653028D03*
D17*
X127500000Y-73500000D03*
D16*
X158050000Y-91150000D03*
X156250000Y-128000000D03*
X159000000Y-109300000D03*
D17*
X175000000Y-111000000D03*
X142500000Y-63500000D03*
D16*
X139950000Y-79500000D03*
D17*
X125000000Y-116000000D03*
X117500000Y-126000000D03*
X145000000Y-116000000D03*
X170000000Y-86000000D03*
X152500000Y-118500000D03*
D16*
X141800000Y-124300000D03*
D17*
X117500000Y-111000000D03*
X175000000Y-101000000D03*
D16*
X137950000Y-101500500D03*
D17*
X120000000Y-61000000D03*
D16*
X161300000Y-101450000D03*
D17*
X147500000Y-61000000D03*
X127500000Y-63500000D03*
X127500000Y-123500000D03*
X165000000Y-88500000D03*
X132500000Y-116000000D03*
X130000000Y-78500000D03*
X127500000Y-116000000D03*
X165000000Y-111000000D03*
X155000000Y-61000000D03*
D16*
X158300000Y-78200000D03*
D17*
X115000000Y-73500000D03*
X117500000Y-68500000D03*
X160000000Y-141000000D03*
X155000000Y-113500000D03*
D16*
X146450000Y-100850000D03*
D17*
X120000000Y-141000000D03*
D16*
X151750000Y-124250000D03*
D17*
X132500000Y-93500000D03*
X140000000Y-136000000D03*
X157500000Y-106000000D03*
X122500000Y-78500000D03*
X130000000Y-86000000D03*
D16*
X134550000Y-68500000D03*
D17*
X127500000Y-126000000D03*
X167500000Y-106000000D03*
X165000000Y-138500000D03*
X177500000Y-101000000D03*
X152500000Y-63500000D03*
D16*
X129000000Y-68400000D03*
D17*
X127500000Y-61000000D03*
D16*
X149700000Y-69900000D03*
D17*
X132500000Y-66000000D03*
X120000000Y-111000000D03*
X125000000Y-141000000D03*
D16*
X172100000Y-79600000D03*
D17*
X125000000Y-78500000D03*
X122500000Y-88500000D03*
D16*
X171300000Y-80400000D03*
D17*
X122500000Y-91000000D03*
X112500000Y-71000000D03*
D16*
X153350000Y-89450000D03*
D17*
X115000000Y-133500000D03*
X177500000Y-116000000D03*
X122500000Y-73500000D03*
X130000000Y-91000000D03*
X165000000Y-66000000D03*
X177500000Y-68500000D03*
X132500000Y-121000000D03*
D16*
X159000000Y-108300000D03*
D17*
X127500000Y-71000000D03*
D16*
X147978486Y-109014319D03*
D17*
X122500000Y-63500000D03*
X172500000Y-118500000D03*
X155000000Y-123500000D03*
X145000000Y-136000000D03*
X125000000Y-83500000D03*
D16*
X129450000Y-75100000D03*
D17*
X122500000Y-61000000D03*
X165000000Y-68500000D03*
X112500000Y-113500000D03*
X170000000Y-118500000D03*
X150000000Y-61000000D03*
X122500000Y-66000000D03*
X132500000Y-63500000D03*
X175000000Y-86000000D03*
D16*
X146956241Y-108066747D03*
D17*
X172500000Y-103500000D03*
X155000000Y-116000000D03*
X172500000Y-106000000D03*
D16*
X156300000Y-89550000D03*
D17*
X157500000Y-108500000D03*
X175000000Y-116000000D03*
D16*
X160850000Y-130585000D03*
D17*
X130000000Y-118500000D03*
X115000000Y-71000000D03*
X130000000Y-136000000D03*
X167500000Y-128500000D03*
X125000000Y-76000000D03*
X117500000Y-88500000D03*
D16*
X122000000Y-129490000D03*
D17*
X170000000Y-106000000D03*
X122500000Y-111000000D03*
X122500000Y-93500000D03*
X122500000Y-116000000D03*
X145000000Y-63500000D03*
X172500000Y-108500000D03*
X172500000Y-98500000D03*
D16*
X171300000Y-99800000D03*
D17*
X112500000Y-73500000D03*
X142500000Y-116000000D03*
X125000000Y-93500000D03*
D16*
X126222196Y-129303180D03*
X131639447Y-97152634D03*
D17*
X170000000Y-113500000D03*
X130000000Y-116000000D03*
X167500000Y-83500000D03*
X120000000Y-138500000D03*
D16*
X158800000Y-114600000D03*
X160400000Y-107100000D03*
X138650000Y-99100000D03*
%TO.N,/Power/VCC_FILT*%
X152750000Y-66500000D03*
X161300000Y-100500000D03*
%TO.N,+3.3V*%
X135995803Y-94154196D03*
X157050000Y-90250000D03*
X115200000Y-86700000D03*
X143900000Y-75000000D03*
X147754258Y-100758224D03*
X144600000Y-108996185D03*
X136013994Y-79224241D03*
X134550000Y-69450000D03*
X148450000Y-75000000D03*
X131862500Y-86362500D03*
X159950500Y-78700000D03*
X151750000Y-108300000D03*
X138600000Y-102250000D03*
%TO.N,VUSB_FILT*%
X162750000Y-105750000D03*
X165650000Y-80300000D03*
%TO.N,/MCU/MCU_NRST*%
X139500000Y-81600000D03*
X141405971Y-83528532D03*
%TO.N,/MCU/NRST*%
X138183452Y-77593438D03*
X129850000Y-69250000D03*
%TO.N,I2C1_SCL*%
X152800000Y-111550000D03*
X154750000Y-111500000D03*
%TO.N,I2C1_SDA*%
X152700000Y-110400000D03*
X156100000Y-110400000D03*
%TO.N,/Codec/CODEC_LRCK1*%
X147650000Y-109900000D03*
X146000000Y-108300000D03*
%TO.N,/MCU/ADC3_INP10*%
X145100000Y-93300000D03*
X138750000Y-108000000D03*
%TO.N,/MCU/ADC3_INP11*%
X138750000Y-106450000D03*
X144350000Y-94000000D03*
%TO.N,/MCU/ADC3_INP0*%
X143650000Y-94700000D03*
X138700000Y-104900000D03*
%TO.N,/MCU/ADC3_INP1*%
X142800000Y-95350000D03*
X138650000Y-103250000D03*
%TD*%
D18*
%TO.N,+5VA*%
X151750000Y-125200000D02*
X150300500Y-125200000D01*
X143199500Y-125200000D02*
X141800500Y-125200000D01*
%TO.N,/Power/VCC_FILT*%
X161300000Y-100500000D02*
X160950000Y-100500000D01*
X160750000Y-68250000D02*
X159000000Y-66500000D01*
X160950000Y-100500000D02*
X160750000Y-100300000D01*
X159000000Y-66500000D02*
X152750000Y-66500000D01*
X160750000Y-100300000D02*
X160750000Y-68250000D01*
%TO.N,+3.3V*%
X137450000Y-102300000D02*
X132350000Y-102300000D01*
X142850000Y-89350000D02*
X142900000Y-89400000D01*
X138550000Y-102300000D02*
X137450000Y-102300000D01*
X133500000Y-91831371D02*
X133500000Y-89400000D01*
X142850000Y-89350000D02*
X142850000Y-75000000D01*
X132350000Y-102300000D02*
X129100000Y-99050000D01*
X147750000Y-89400000D02*
X150600000Y-89400000D01*
X112600000Y-89400000D02*
X111500000Y-90500000D01*
X135822825Y-94154196D02*
X133500000Y-91831371D01*
X137684020Y-79224241D02*
X136013994Y-79224241D01*
X138983452Y-77924809D02*
X137684020Y-79224241D01*
X159150000Y-75000000D02*
X159600000Y-75450000D01*
X129100000Y-89400000D02*
X115200000Y-89400000D01*
X136400000Y-69450000D02*
X134550000Y-69450000D01*
X137450000Y-107950000D02*
X138496185Y-108996185D01*
X129100000Y-99050000D02*
X129100000Y-89400000D01*
X137450000Y-102300000D02*
X137450000Y-107950000D01*
X142900000Y-89400000D02*
X147750000Y-89400000D01*
X148450000Y-75000000D02*
X156300000Y-75000000D01*
X115200000Y-89400000D02*
X115200000Y-88800000D01*
X143431371Y-109000000D02*
X143435186Y-108996185D01*
X111500000Y-105500000D02*
X112280000Y-106280000D01*
X115200000Y-89400000D02*
X112600000Y-89400000D01*
X143900000Y-75000000D02*
X142850000Y-75000000D01*
X151750000Y-90550000D02*
X151750000Y-108300000D01*
X157350000Y-89950000D02*
X157050000Y-90250000D01*
X142796185Y-108996185D02*
X142800000Y-109000000D01*
X138600000Y-102250000D02*
X138550000Y-102300000D01*
X133500000Y-89400000D02*
X131900000Y-89400000D01*
X115200000Y-86700000D02*
X115200000Y-88800000D01*
X112280000Y-106280000D02*
X113500000Y-106280000D01*
X131862500Y-89362500D02*
X131900000Y-89400000D01*
X150600000Y-89400000D02*
X151750000Y-90550000D01*
X131862500Y-86362500D02*
X131862500Y-89362500D01*
X138983452Y-75000000D02*
X137900000Y-75000000D01*
X142800000Y-89400000D02*
X142850000Y-89350000D01*
X111500000Y-90500000D02*
X111500000Y-105500000D01*
X131900000Y-89400000D02*
X129100000Y-89400000D01*
X147754258Y-89404258D02*
X147750000Y-89400000D01*
X137350000Y-74450000D02*
X137350000Y-70400000D01*
X159950500Y-75800500D02*
X159950500Y-78700000D01*
X137350000Y-70400000D02*
X136400000Y-69450000D01*
X133500000Y-89400000D02*
X142800000Y-89400000D01*
X159600000Y-75450000D02*
X159950500Y-75800500D01*
X142850000Y-75000000D02*
X138983452Y-75000000D01*
X138496185Y-108996185D02*
X142796185Y-108996185D01*
X156300000Y-75000000D02*
X157350000Y-75000000D01*
X157350000Y-75000000D02*
X159150000Y-75000000D01*
X143435186Y-108996185D02*
X144600000Y-108996185D01*
X137900000Y-75000000D02*
X137350000Y-74450000D01*
X142800000Y-109000000D02*
X143431371Y-109000000D01*
X138983452Y-75000000D02*
X138983452Y-77924809D01*
X135995803Y-94154196D02*
X135822825Y-94154196D01*
X147754258Y-100758224D02*
X147754258Y-89404258D01*
X157350000Y-75000000D02*
X157350000Y-89950000D01*
%TO.N,VUSB_FILT*%
X162750000Y-105750000D02*
X162250000Y-105250000D01*
X162250000Y-81500000D02*
X163450000Y-80300000D01*
X162250000Y-105250000D02*
X162250000Y-81500000D01*
X163450000Y-80300000D02*
X165650000Y-80300000D01*
D19*
%TO.N,/MCU/MCU_NRST*%
X141405971Y-83528532D02*
X141405971Y-83505971D01*
X141405971Y-83505971D02*
X139500000Y-81600000D01*
%TO.N,/MCU/NRST*%
X129850000Y-69250000D02*
X129850000Y-69265007D01*
X129850000Y-69265007D02*
X138178431Y-77593438D01*
X138178431Y-77593438D02*
X138183452Y-77593438D01*
D20*
%TO.N,I2C1_SCL*%
X154750000Y-111500000D02*
X152850000Y-111500000D01*
X152850000Y-111500000D02*
X152800000Y-111550000D01*
%TO.N,I2C1_SDA*%
X156100000Y-110400000D02*
X152700000Y-110400000D01*
D21*
%TO.N,/Codec/CODEC_LRCK1*%
X147600000Y-109900000D02*
X147650000Y-109900000D01*
X146000000Y-108300000D02*
X147600000Y-109900000D01*
D20*
%TO.N,/MCU/ADC3_INP10*%
X145100000Y-93300000D02*
X145100000Y-104700000D01*
X145100000Y-104700000D02*
X143800994Y-105999006D01*
X143800994Y-105999006D02*
X141800000Y-108000000D01*
X141800000Y-108000000D02*
X138750000Y-108000000D01*
%TO.N,/MCU/ADC3_INP11*%
X142850497Y-105099503D02*
X141500000Y-106450000D01*
X144350000Y-94000000D02*
X144350000Y-103600000D01*
X141500000Y-106450000D02*
X138750000Y-106450000D01*
X144350000Y-103600000D02*
X142850497Y-105099503D01*
%TO.N,/MCU/ADC3_INP0*%
X141100000Y-104900000D02*
X138700000Y-104900000D01*
X143650000Y-94700000D02*
X143650000Y-102350000D01*
X142000000Y-104000000D02*
X141800000Y-104200000D01*
X141800000Y-104200000D02*
X141100000Y-104900000D01*
X143650000Y-102350000D02*
X142000000Y-104000000D01*
%TO.N,/MCU/ADC3_INP1*%
X140950000Y-103250000D02*
X142800000Y-101400000D01*
X142800000Y-101400000D02*
X142800000Y-95350000D01*
X138650000Y-103250000D02*
X140950000Y-103250000D01*
%TD*%
M02*
