%TF.GenerationSoftware,KiCad,Pcbnew,7.0.6-0*%
%TF.CreationDate,2024-10-14T12:06:59-04:00*%
%TF.ProjectId,GuitarFX,47756974-6172-4465-982e-6b696361645f,rev?*%
%TF.SameCoordinates,Original*%
%TF.FileFunction,Copper,L3,Inr*%
%TF.FilePolarity,Positive*%
%FSLAX46Y46*%
G04 Gerber Fmt 4.6, Leading zero omitted, Abs format (unit mm)*
G04 Created by KiCad (PCBNEW 7.0.6-0) date 2024-10-14 12:06:59*
%MOMM*%
%LPD*%
G01*
G04 APERTURE LIST*
%TA.AperFunction,ComponentPad*%
%ADD10C,0.800000*%
%TD*%
%TA.AperFunction,ComponentPad*%
%ADD11C,6.400000*%
%TD*%
%TA.AperFunction,ComponentPad*%
%ADD12R,2.200000X2.200000*%
%TD*%
%TA.AperFunction,ComponentPad*%
%ADD13C,2.200000*%
%TD*%
%TA.AperFunction,ComponentPad*%
%ADD14O,2.100000X1.000000*%
%TD*%
%TA.AperFunction,ComponentPad*%
%ADD15O,1.600000X1.000000*%
%TD*%
%TA.AperFunction,ViaPad*%
%ADD16C,0.700000*%
%TD*%
%TA.AperFunction,ViaPad*%
%ADD17C,0.800000*%
%TD*%
G04 APERTURE END LIST*
D10*
%TO.N,GND*%
%TO.C,H102*%
X172600000Y-63500000D03*
X173302944Y-61802944D03*
X173302944Y-65197056D03*
X175000000Y-61100000D03*
D11*
X175000000Y-63500000D03*
D10*
X175000000Y-65900000D03*
X176697056Y-61802944D03*
X176697056Y-65197056D03*
X177400000Y-63500000D03*
%TD*%
%TO.N,GND*%
%TO.C,H103*%
X172600000Y-138500000D03*
X173302944Y-136802944D03*
X173302944Y-140197056D03*
X175000000Y-136100000D03*
D11*
X175000000Y-138500000D03*
D10*
X175000000Y-140900000D03*
X176697056Y-136802944D03*
X176697056Y-140197056D03*
X177400000Y-138500000D03*
%TD*%
D12*
%TO.N,/Codec/AUDIO_VOUT*%
%TO.C,J402*%
X113500000Y-129160000D03*
D13*
%TO.N,GND*%
X113500000Y-131700000D03*
%TD*%
D12*
%TO.N,/MCU/ADC3_INP1*%
%TO.C,J303*%
X113500000Y-96120000D03*
D13*
%TO.N,/MCU/ADC3_INP0*%
X113500000Y-98660000D03*
%TO.N,/MCU/ADC3_INP11*%
X113500000Y-101200000D03*
%TO.N,/MCU/ADC3_INP10*%
X113500000Y-103740000D03*
%TO.N,+3.3V*%
X113500000Y-106280000D03*
%TO.N,GND*%
X113500000Y-108820000D03*
%TD*%
D10*
%TO.N,GND*%
%TO.C,H104*%
X112600000Y-138500000D03*
X113302944Y-136802944D03*
X113302944Y-140197056D03*
X115000000Y-136100000D03*
D11*
X115000000Y-138500000D03*
D10*
X115000000Y-140900000D03*
X116697056Y-136802944D03*
X116697056Y-140197056D03*
X117400000Y-138500000D03*
%TD*%
D12*
%TO.N,GND*%
%TO.C,J202*%
X176500000Y-96450000D03*
D13*
%TO.N,VCC*%
X176500000Y-93910000D03*
%TD*%
D10*
%TO.N,GND*%
%TO.C,H101*%
X112600000Y-63500000D03*
X113302944Y-61802944D03*
X113302944Y-65197056D03*
X115000000Y-61100000D03*
D11*
X115000000Y-63500000D03*
D10*
X115000000Y-65900000D03*
X116697056Y-61802944D03*
X116697056Y-65197056D03*
X117400000Y-63500000D03*
%TD*%
D12*
%TO.N,GND*%
%TO.C,J401*%
X176500000Y-131680000D03*
D13*
%TO.N,/Codec/AUDIO_VIN*%
X176500000Y-129140000D03*
%TD*%
D14*
%TO.N,unconnected-(J301-SHIELD-PadS1)*%
%TO.C,J301*%
X174320000Y-80670000D03*
D15*
X178500000Y-80670000D03*
D14*
X174320000Y-72030000D03*
D15*
X178500000Y-72030000D03*
%TD*%
D16*
%TO.N,+5VA*%
X143199500Y-125200000D03*
X151750000Y-125200000D03*
X141800500Y-125200000D03*
X150300500Y-125200000D03*
D17*
%TO.N,GND*%
X162500000Y-73500000D03*
D16*
X152750000Y-67450000D03*
D17*
X170000000Y-71000000D03*
X172500000Y-131000000D03*
D16*
X172100000Y-80400000D03*
D17*
X135000000Y-136000000D03*
X162500000Y-136000000D03*
X125000000Y-73500000D03*
D16*
X143900000Y-74100000D03*
D17*
X160000000Y-103500000D03*
X167500000Y-88500000D03*
X165000000Y-91000000D03*
X170000000Y-123500000D03*
D16*
X139550000Y-107300000D03*
D17*
X157500000Y-121000000D03*
X112500000Y-121000000D03*
X167500000Y-61000000D03*
X132500000Y-128500000D03*
X177500000Y-113500000D03*
X117500000Y-113500000D03*
X152500000Y-68500000D03*
X155000000Y-118500000D03*
X170000000Y-103500000D03*
D16*
X139350000Y-104050000D03*
D17*
X155000000Y-63500000D03*
X140000000Y-68500000D03*
X117500000Y-86000000D03*
X112500000Y-118500000D03*
X120000000Y-71000000D03*
X152500000Y-116000000D03*
X172500000Y-68500000D03*
D16*
X137300000Y-113200000D03*
D17*
X177500000Y-123500000D03*
X165000000Y-63500000D03*
X125000000Y-123500000D03*
X125000000Y-136000000D03*
X122500000Y-83500000D03*
X157500000Y-118500000D03*
X172500000Y-83500000D03*
X120000000Y-93500000D03*
X177500000Y-111000000D03*
X122500000Y-141000000D03*
D16*
X143200000Y-124300000D03*
D17*
X125000000Y-113500000D03*
D16*
X147550000Y-130750000D03*
D17*
X165000000Y-141000000D03*
X122500000Y-138500000D03*
X127500000Y-81000000D03*
X115000000Y-113500000D03*
X132500000Y-81000000D03*
X117500000Y-123500000D03*
X152500000Y-71000000D03*
D16*
X173900000Y-82350000D03*
D17*
X172500000Y-101000000D03*
X172500000Y-88500000D03*
X125000000Y-111000000D03*
X152500000Y-61000000D03*
X170000000Y-108500000D03*
D16*
X159800000Y-119050000D03*
D17*
X145000000Y-61000000D03*
X167500000Y-123500000D03*
X170000000Y-83500000D03*
D16*
X159100000Y-77500000D03*
D17*
X132500000Y-138500000D03*
X122500000Y-126000000D03*
D16*
X162700000Y-106750000D03*
D17*
X175000000Y-98500000D03*
X157500000Y-68500000D03*
X120000000Y-136000000D03*
D16*
X160815500Y-134100000D03*
X133350000Y-134500000D03*
D17*
X172500000Y-116000000D03*
X122500000Y-71000000D03*
D16*
X165650000Y-81200000D03*
D17*
X132500000Y-123500000D03*
D16*
X172100000Y-72300000D03*
D17*
X167500000Y-91000000D03*
D16*
X159800000Y-122100000D03*
D17*
X172500000Y-133500000D03*
D16*
X169300000Y-99800000D03*
X148300000Y-127950000D03*
D17*
X167500000Y-126000000D03*
X162500000Y-63500000D03*
D16*
X149700000Y-71400000D03*
X156168989Y-111296853D03*
D17*
X120000000Y-73500000D03*
X175000000Y-113500000D03*
X157500000Y-138500000D03*
X120000000Y-118500000D03*
X122500000Y-123500000D03*
X112500000Y-91000000D03*
D16*
X146950000Y-123500000D03*
X168550000Y-119000000D03*
D17*
X167500000Y-141000000D03*
X137500000Y-63500000D03*
X125000000Y-61000000D03*
X137500000Y-136000000D03*
D16*
X171300000Y-73100000D03*
D17*
X125000000Y-63500000D03*
X115000000Y-118500000D03*
X150000000Y-63500000D03*
X162500000Y-66000000D03*
X152500000Y-121000000D03*
X167500000Y-71000000D03*
X177500000Y-88500000D03*
X172500000Y-123500000D03*
D16*
X170850000Y-75850000D03*
D17*
X157500000Y-123500000D03*
D16*
X144561902Y-107603815D03*
D17*
X165000000Y-71000000D03*
X137500000Y-61000000D03*
X177500000Y-121000000D03*
X170000000Y-111000000D03*
X177500000Y-126000000D03*
X127500000Y-121000000D03*
X130000000Y-138500000D03*
D16*
X142200000Y-109900000D03*
D17*
X177500000Y-133500000D03*
X175000000Y-83500000D03*
X142500000Y-136000000D03*
X117500000Y-78500000D03*
X155000000Y-68500000D03*
X130000000Y-113500000D03*
D16*
X139700000Y-98050000D03*
D17*
X165000000Y-61000000D03*
X172500000Y-71000000D03*
X165000000Y-136000000D03*
X172500000Y-121000000D03*
X120000000Y-76000000D03*
D16*
X139500000Y-121700000D03*
X152750000Y-108300000D03*
D17*
X165000000Y-86000000D03*
D16*
X148450000Y-74100000D03*
D17*
X167500000Y-136000000D03*
X177500000Y-83500000D03*
X125000000Y-81000000D03*
X155000000Y-73500000D03*
X132500000Y-113500000D03*
X147500000Y-63500000D03*
X167500000Y-113500000D03*
D16*
X152803815Y-109450000D03*
D17*
X130000000Y-61000000D03*
X130000000Y-81000000D03*
X130000000Y-63500000D03*
X127500000Y-136000000D03*
D16*
X116250000Y-86700000D03*
X170300000Y-135000000D03*
D17*
X175000000Y-133500000D03*
X170000000Y-121000000D03*
X115000000Y-83500000D03*
X167500000Y-86000000D03*
X162500000Y-61000000D03*
X155000000Y-71000000D03*
D16*
X150300000Y-124250000D03*
X151000000Y-72950000D03*
X159400000Y-107100000D03*
D17*
X120000000Y-88500000D03*
X120000000Y-81000000D03*
X112500000Y-76000000D03*
X177500000Y-103500000D03*
D16*
X171300000Y-79600000D03*
X139650000Y-78550000D03*
D17*
X127500000Y-93500000D03*
X127500000Y-76000000D03*
X135000000Y-128500000D03*
X137500000Y-68500000D03*
X135000000Y-63500000D03*
X160000000Y-63500000D03*
D16*
X158800000Y-115550000D03*
D17*
X120000000Y-91000000D03*
D16*
X136560000Y-133200000D03*
D17*
X162500000Y-68500000D03*
X132500000Y-61000000D03*
X135000000Y-123500000D03*
X125000000Y-66000000D03*
X157500000Y-111000000D03*
D16*
X168100000Y-131350000D03*
D17*
X167500000Y-66000000D03*
X130000000Y-111000000D03*
X130000000Y-93500000D03*
D16*
X147750000Y-101700000D03*
X149950000Y-119550000D03*
D17*
X157500000Y-73500000D03*
D16*
X168550000Y-121150000D03*
D17*
X117500000Y-76000000D03*
X157500000Y-136000000D03*
X157500000Y-141000000D03*
X132500000Y-111000000D03*
X167500000Y-103500000D03*
X165000000Y-73500000D03*
X140000000Y-66000000D03*
X127500000Y-118500000D03*
D16*
X149700000Y-72950000D03*
D17*
X160000000Y-136000000D03*
X167500000Y-116000000D03*
X125000000Y-88500000D03*
D16*
X134500000Y-85050000D03*
X169300000Y-101050000D03*
X139500000Y-92300000D03*
D17*
X130000000Y-88500000D03*
D16*
X145300000Y-123500000D03*
D17*
X172500000Y-111000000D03*
X167500000Y-63500000D03*
X175000000Y-118500000D03*
X157500000Y-103500000D03*
X115000000Y-76000000D03*
X120000000Y-63500000D03*
X177500000Y-118500000D03*
X117500000Y-73500000D03*
X127500000Y-91000000D03*
X135000000Y-66000000D03*
X177500000Y-86000000D03*
X172500000Y-91000000D03*
X140000000Y-61000000D03*
X170000000Y-116000000D03*
D16*
X149950000Y-118600000D03*
D17*
X117500000Y-83500000D03*
X157500000Y-113500000D03*
D16*
X170300000Y-99800000D03*
D17*
X175000000Y-106000000D03*
X130000000Y-83500000D03*
D16*
X126850000Y-131000000D03*
D17*
X132500000Y-91000000D03*
X162500000Y-138500000D03*
X157500000Y-61000000D03*
D16*
X166700000Y-82000000D03*
D17*
X170000000Y-66000000D03*
X170000000Y-88500000D03*
D16*
X138400000Y-130800000D03*
D17*
X130000000Y-121000000D03*
X152500000Y-123500000D03*
X125000000Y-68500000D03*
X142500000Y-61000000D03*
X115000000Y-78500000D03*
D16*
X171300000Y-72300000D03*
X159800000Y-119950000D03*
D17*
X147500000Y-116000000D03*
X120000000Y-126000000D03*
D16*
X136060000Y-77826444D03*
D17*
X175000000Y-108500000D03*
X122500000Y-68500000D03*
X165000000Y-123500000D03*
X130000000Y-141000000D03*
X167500000Y-108500000D03*
X115000000Y-81000000D03*
X125000000Y-121000000D03*
X132500000Y-141000000D03*
X112500000Y-123500000D03*
X167500000Y-138500000D03*
X127500000Y-78500000D03*
X177500000Y-106000000D03*
X162500000Y-71000000D03*
D16*
X134550000Y-91750000D03*
X139550000Y-72650000D03*
D17*
X120000000Y-86000000D03*
X117500000Y-81000000D03*
X115000000Y-111000000D03*
X177500000Y-108500000D03*
X170000000Y-61000000D03*
X115000000Y-116000000D03*
X125000000Y-138500000D03*
D16*
X152800000Y-112450000D03*
D17*
X160000000Y-61000000D03*
D16*
X136650000Y-93400000D03*
D17*
X140000000Y-63500000D03*
D16*
X171300000Y-101050000D03*
X168550000Y-122050000D03*
X140700000Y-121700000D03*
D17*
X127500000Y-83500000D03*
X160000000Y-106000000D03*
X127500000Y-88500000D03*
X122500000Y-81000000D03*
X132500000Y-83500000D03*
D16*
X143250000Y-132700000D03*
D17*
X170000000Y-141000000D03*
X127500000Y-141000000D03*
X130000000Y-123500000D03*
X117500000Y-91000000D03*
X125000000Y-86000000D03*
D16*
X162700000Y-128035000D03*
X169808550Y-74050500D03*
D17*
X132500000Y-118500000D03*
X127500000Y-138500000D03*
D16*
X168550000Y-119900000D03*
D17*
X120000000Y-66000000D03*
X137500000Y-116000000D03*
X175000000Y-121000000D03*
X147500000Y-136000000D03*
D16*
X168700000Y-82000000D03*
D17*
X132500000Y-136000000D03*
X115000000Y-123500000D03*
X157500000Y-71000000D03*
X175000000Y-103500000D03*
D16*
X170300000Y-101050000D03*
D17*
X150000000Y-136000000D03*
X137500000Y-128500000D03*
X165000000Y-113500000D03*
D16*
X137300000Y-118900000D03*
D17*
X112500000Y-111000000D03*
X170000000Y-126000000D03*
X125000000Y-71000000D03*
X170000000Y-136000000D03*
X172500000Y-126000000D03*
D16*
X168600000Y-133300000D03*
D17*
X127500000Y-86000000D03*
D16*
X119500000Y-134950000D03*
D17*
X155000000Y-121000000D03*
D16*
X135239447Y-97652634D03*
D17*
X167500000Y-73500000D03*
D16*
X114980000Y-82130000D03*
D17*
X130000000Y-96000000D03*
X172500000Y-86000000D03*
X117500000Y-116000000D03*
X125000000Y-91000000D03*
X170000000Y-91000000D03*
X160000000Y-138500000D03*
X170000000Y-138500000D03*
X112500000Y-133500000D03*
D16*
X154750000Y-112450000D03*
X135300000Y-78600000D03*
D17*
X157500000Y-116000000D03*
X175000000Y-68500000D03*
X165000000Y-93500000D03*
X115000000Y-68500000D03*
X137500000Y-123500000D03*
X170000000Y-63500000D03*
D16*
X153798034Y-128979291D03*
D17*
X117500000Y-133500000D03*
X120000000Y-123500000D03*
D16*
X159800000Y-121200000D03*
X173850000Y-70350000D03*
D17*
X175000000Y-123500000D03*
D16*
X147600000Y-76100000D03*
D17*
X125000000Y-126000000D03*
X122500000Y-121000000D03*
D16*
X143600000Y-111300000D03*
D17*
X165000000Y-83500000D03*
X152500000Y-73500000D03*
X112500000Y-116000000D03*
X157500000Y-63500000D03*
X172500000Y-113500000D03*
X162500000Y-141000000D03*
X167500000Y-111000000D03*
X115000000Y-121000000D03*
X177500000Y-98500000D03*
X122500000Y-136000000D03*
X115000000Y-91000000D03*
D16*
X128650000Y-128500000D03*
D17*
X127500000Y-96000000D03*
X140000000Y-123500000D03*
X122500000Y-108500000D03*
X122500000Y-76000000D03*
X122500000Y-86000000D03*
X120000000Y-78500000D03*
X112500000Y-68500000D03*
D16*
X172100000Y-73100000D03*
D17*
X127500000Y-68500000D03*
X165000000Y-96000000D03*
X175000000Y-88500000D03*
X120000000Y-68500000D03*
X127500000Y-111000000D03*
X135000000Y-61000000D03*
X137500000Y-66000000D03*
D16*
X151000000Y-71400000D03*
D17*
X117500000Y-71000000D03*
D16*
X151000000Y-69900000D03*
D17*
X117500000Y-131000000D03*
D16*
X154401490Y-130653028D03*
D17*
X127500000Y-73500000D03*
D16*
X158050000Y-91150000D03*
X156250000Y-128000000D03*
X159000000Y-109300000D03*
D17*
X175000000Y-111000000D03*
X142500000Y-63500000D03*
D16*
X139950000Y-79500000D03*
D17*
X125000000Y-116000000D03*
X117500000Y-126000000D03*
X145000000Y-116000000D03*
X170000000Y-86000000D03*
X152500000Y-118500000D03*
D16*
X141800000Y-124300000D03*
D17*
X117500000Y-111000000D03*
X175000000Y-101000000D03*
D16*
X137950000Y-101500500D03*
D17*
X120000000Y-61000000D03*
D16*
X161300000Y-101450000D03*
D17*
X147500000Y-61000000D03*
X127500000Y-63500000D03*
X127500000Y-123500000D03*
X165000000Y-88500000D03*
X132500000Y-116000000D03*
X130000000Y-78500000D03*
X127500000Y-116000000D03*
X165000000Y-111000000D03*
X155000000Y-61000000D03*
D16*
X158300000Y-78200000D03*
D17*
X115000000Y-73500000D03*
X117500000Y-68500000D03*
X160000000Y-141000000D03*
X155000000Y-113500000D03*
D16*
X146450000Y-100850000D03*
D17*
X120000000Y-141000000D03*
D16*
X151750000Y-124250000D03*
D17*
X132500000Y-93500000D03*
X140000000Y-136000000D03*
X157500000Y-106000000D03*
X122500000Y-78500000D03*
X130000000Y-86000000D03*
D16*
X134550000Y-68500000D03*
D17*
X127500000Y-126000000D03*
X167500000Y-106000000D03*
X165000000Y-138500000D03*
X177500000Y-101000000D03*
X152500000Y-63500000D03*
D16*
X129000000Y-68400000D03*
D17*
X127500000Y-61000000D03*
D16*
X149700000Y-69900000D03*
D17*
X132500000Y-66000000D03*
X120000000Y-111000000D03*
X125000000Y-141000000D03*
D16*
X172100000Y-79600000D03*
D17*
X125000000Y-78500000D03*
X122500000Y-88500000D03*
D16*
X171300000Y-80400000D03*
D17*
X122500000Y-91000000D03*
X112500000Y-71000000D03*
D16*
X153350000Y-89450000D03*
D17*
X115000000Y-133500000D03*
X177500000Y-116000000D03*
X122500000Y-73500000D03*
X130000000Y-91000000D03*
X165000000Y-66000000D03*
X177500000Y-68500000D03*
X132500000Y-121000000D03*
D16*
X159000000Y-108300000D03*
D17*
X127500000Y-71000000D03*
D16*
X147978486Y-109014319D03*
D17*
X122500000Y-63500000D03*
X172500000Y-118500000D03*
X155000000Y-123500000D03*
X145000000Y-136000000D03*
X125000000Y-83500000D03*
D16*
X129450000Y-75100000D03*
D17*
X122500000Y-61000000D03*
X165000000Y-68500000D03*
X112500000Y-113500000D03*
X170000000Y-118500000D03*
X150000000Y-61000000D03*
X122500000Y-66000000D03*
X132500000Y-63500000D03*
X175000000Y-86000000D03*
D16*
X146956241Y-108066747D03*
D17*
X172500000Y-103500000D03*
X155000000Y-116000000D03*
X172500000Y-106000000D03*
D16*
X156300000Y-89550000D03*
D17*
X157500000Y-108500000D03*
X175000000Y-116000000D03*
D16*
X160850000Y-130585000D03*
D17*
X130000000Y-118500000D03*
X115000000Y-71000000D03*
X130000000Y-136000000D03*
X167500000Y-128500000D03*
X125000000Y-76000000D03*
X117500000Y-88500000D03*
D16*
X122000000Y-129490000D03*
D17*
X170000000Y-106000000D03*
X122500000Y-111000000D03*
X122500000Y-93500000D03*
X122500000Y-116000000D03*
X145000000Y-63500000D03*
X172500000Y-108500000D03*
X172500000Y-98500000D03*
D16*
X171300000Y-99800000D03*
D17*
X112500000Y-73500000D03*
X142500000Y-116000000D03*
X125000000Y-93500000D03*
D16*
X126222196Y-129303180D03*
X131639447Y-97152634D03*
D17*
X170000000Y-113500000D03*
X130000000Y-116000000D03*
X167500000Y-83500000D03*
X120000000Y-138500000D03*
D16*
X158800000Y-114600000D03*
X160400000Y-107100000D03*
X138650000Y-99100000D03*
%TO.N,/Power/VCC_FILT*%
X152750000Y-66500000D03*
X161300000Y-100500000D03*
%TO.N,+3.3V*%
X135995803Y-94154196D03*
X157050000Y-90250000D03*
X115200000Y-86700000D03*
X143900000Y-75000000D03*
X147754258Y-100758224D03*
X144600000Y-108996185D03*
X136013994Y-79224241D03*
X134550000Y-69450000D03*
X148450000Y-75000000D03*
X131862500Y-86362500D03*
X159950500Y-78700000D03*
X151750000Y-108300000D03*
X138600000Y-102250000D03*
%TO.N,VUSB_FILT*%
X162750000Y-105750000D03*
X165650000Y-80300000D03*
%TO.N,/MCU/MCU_NRST*%
X139500000Y-81600000D03*
X141405971Y-83528532D03*
%TO.N,/MCU/NRST*%
X138183452Y-77593438D03*
X129850000Y-69250000D03*
%TO.N,I2C1_SCL*%
X152800000Y-111550000D03*
X154750000Y-111500000D03*
%TO.N,I2C1_SDA*%
X152700000Y-110400000D03*
X156100000Y-110400000D03*
%TO.N,/Codec/CODEC_LRCK1*%
X147650000Y-109900000D03*
X146000000Y-108300000D03*
%TO.N,/MCU/ADC3_INP10*%
X145100000Y-93300000D03*
X138750000Y-108000000D03*
%TO.N,/MCU/ADC3_INP11*%
X138750000Y-106450000D03*
X144350000Y-94000000D03*
%TO.N,/MCU/ADC3_INP0*%
X143650000Y-94700000D03*
X138700000Y-104900000D03*
%TO.N,/MCU/ADC3_INP1*%
X142800000Y-95350000D03*
X138650000Y-103250000D03*
%TD*%
%TA.AperFunction,Conductor*%
%TO.N,GND*%
G36*
X175410694Y-58768431D02*
G01*
X175417155Y-58768995D01*
X175821540Y-58822234D01*
X175827893Y-58823354D01*
X176163326Y-58897717D01*
X176226080Y-58911630D01*
X176232361Y-58913313D01*
X176621322Y-59035952D01*
X176627432Y-59038176D01*
X177004217Y-59194245D01*
X177010104Y-59196989D01*
X177060519Y-59223234D01*
X177371864Y-59385310D01*
X177377489Y-59388557D01*
X177536726Y-59490002D01*
X177721455Y-59607688D01*
X177726781Y-59611417D01*
X178050358Y-59859706D01*
X178055306Y-59863858D01*
X178311803Y-60098894D01*
X178356004Y-60139397D01*
X178360602Y-60143995D01*
X178636139Y-60444691D01*
X178640295Y-60449644D01*
X178806131Y-60665766D01*
X178888582Y-60773218D01*
X178892311Y-60778544D01*
X179111438Y-61122503D01*
X179114689Y-61128135D01*
X179303006Y-61489888D01*
X179305754Y-61495782D01*
X179461823Y-61872567D01*
X179464047Y-61878677D01*
X179586686Y-62267638D01*
X179588369Y-62273919D01*
X179676640Y-62672081D01*
X179677769Y-62678484D01*
X179731002Y-63082827D01*
X179731568Y-63089305D01*
X179749500Y-63499999D01*
X179749500Y-71730611D01*
X179729538Y-71805111D01*
X179675000Y-71859649D01*
X179600500Y-71879611D01*
X179526000Y-71859649D01*
X179471462Y-71805111D01*
X179461183Y-71783448D01*
X179459790Y-71779776D01*
X179459790Y-71779775D01*
X179380734Y-71629148D01*
X179380732Y-71629146D01*
X179380732Y-71629145D01*
X179267932Y-71501820D01*
X179267930Y-71501819D01*
X179267929Y-71501817D01*
X179127930Y-71405182D01*
X179127929Y-71405181D01*
X178968874Y-71344860D01*
X178932729Y-71340471D01*
X178842372Y-71329500D01*
X178157628Y-71329500D01*
X178078565Y-71339100D01*
X178031125Y-71344860D01*
X177872070Y-71405181D01*
X177732071Y-71501817D01*
X177732067Y-71501820D01*
X177619267Y-71629145D01*
X177540209Y-71779775D01*
X177499500Y-71944943D01*
X177499500Y-72115056D01*
X177540209Y-72280224D01*
X177619267Y-72430854D01*
X177732067Y-72558179D01*
X177732071Y-72558183D01*
X177872070Y-72654818D01*
X177974151Y-72693532D01*
X178031128Y-72715140D01*
X178157628Y-72730500D01*
X178157634Y-72730500D01*
X178842365Y-72730500D01*
X178842372Y-72730500D01*
X178968872Y-72715140D01*
X179127930Y-72654818D01*
X179267929Y-72558183D01*
X179380734Y-72430852D01*
X179459790Y-72280225D01*
X179459793Y-72280211D01*
X179461181Y-72276555D01*
X179463151Y-72273819D01*
X179463978Y-72272245D01*
X179464201Y-72272362D01*
X179506263Y-72213974D01*
X179576595Y-72182318D01*
X179653333Y-72190069D01*
X179715914Y-72235151D01*
X179747570Y-72305483D01*
X179749500Y-72329388D01*
X179749500Y-80370611D01*
X179729538Y-80445111D01*
X179675000Y-80499649D01*
X179600500Y-80519611D01*
X179526000Y-80499649D01*
X179471462Y-80445111D01*
X179461183Y-80423448D01*
X179459790Y-80419776D01*
X179459790Y-80419775D01*
X179380734Y-80269148D01*
X179380732Y-80269146D01*
X179380732Y-80269145D01*
X179267932Y-80141820D01*
X179267930Y-80141819D01*
X179267929Y-80141817D01*
X179127930Y-80045182D01*
X179127929Y-80045181D01*
X178968874Y-79984860D01*
X178924646Y-79979490D01*
X178842372Y-79969500D01*
X178157628Y-79969500D01*
X178078565Y-79979100D01*
X178031125Y-79984860D01*
X177872070Y-80045181D01*
X177732071Y-80141817D01*
X177732067Y-80141820D01*
X177619267Y-80269145D01*
X177540209Y-80419775D01*
X177499500Y-80584943D01*
X177499500Y-80755056D01*
X177540209Y-80920224D01*
X177619267Y-81070854D01*
X177732067Y-81198179D01*
X177732071Y-81198183D01*
X177872070Y-81294818D01*
X178031128Y-81355140D01*
X178157628Y-81370500D01*
X178157634Y-81370500D01*
X178842365Y-81370500D01*
X178842372Y-81370500D01*
X178968872Y-81355140D01*
X179127930Y-81294818D01*
X179267929Y-81198183D01*
X179380734Y-81070852D01*
X179459790Y-80920225D01*
X179459793Y-80920211D01*
X179461181Y-80916555D01*
X179463151Y-80913819D01*
X179463978Y-80912245D01*
X179464201Y-80912362D01*
X179506263Y-80853974D01*
X179576595Y-80822318D01*
X179653333Y-80830069D01*
X179715914Y-80875151D01*
X179747570Y-80945483D01*
X179749500Y-80969388D01*
X179749500Y-93128994D01*
X179729538Y-93203494D01*
X179675000Y-93258032D01*
X179600500Y-93277994D01*
X179526000Y-93258032D01*
X179521227Y-93255156D01*
X179393888Y-93175144D01*
X179293735Y-93140099D01*
X179221495Y-93114821D01*
X179085520Y-93099500D01*
X178994480Y-93099500D01*
X178858505Y-93114821D01*
X178686111Y-93175144D01*
X178531464Y-93272316D01*
X178531462Y-93272316D01*
X178402316Y-93401462D01*
X178402316Y-93401464D01*
X178305145Y-93556110D01*
X178267425Y-93663907D01*
X178223977Y-93727633D01*
X178154487Y-93761097D01*
X178077574Y-93755334D01*
X178013848Y-93711886D01*
X177982346Y-93651275D01*
X177924063Y-93421119D01*
X177824173Y-93193393D01*
X177688164Y-92985215D01*
X177688163Y-92985214D01*
X177688162Y-92985212D01*
X177519743Y-92802261D01*
X177323510Y-92649527D01*
X177323505Y-92649523D01*
X177104815Y-92531174D01*
X177104811Y-92531172D01*
X176869613Y-92450428D01*
X176869609Y-92450427D01*
X176624335Y-92409500D01*
X176375665Y-92409500D01*
X176375664Y-92409500D01*
X176130390Y-92450427D01*
X176130386Y-92450428D01*
X175895188Y-92531172D01*
X175895184Y-92531174D01*
X175676494Y-92649523D01*
X175676489Y-92649527D01*
X175480256Y-92802261D01*
X175311837Y-92985212D01*
X175175827Y-93193392D01*
X175075937Y-93421117D01*
X175014891Y-93662183D01*
X174994357Y-93909998D01*
X174994357Y-93910001D01*
X175014891Y-94157816D01*
X175014891Y-94157819D01*
X175014892Y-94157821D01*
X175032945Y-94229110D01*
X175075937Y-94398882D01*
X175175827Y-94626607D01*
X175217773Y-94690811D01*
X175241809Y-94764098D01*
X175225981Y-94839585D01*
X175174530Y-94897044D01*
X175164440Y-94903082D01*
X175157908Y-94906648D01*
X175042812Y-94992809D01*
X175042809Y-94992812D01*
X174956650Y-95107905D01*
X174956645Y-95107915D01*
X174906401Y-95242622D01*
X174900001Y-95302157D01*
X174900000Y-95302177D01*
X174900000Y-96200000D01*
X176005148Y-96200000D01*
X175956441Y-96337047D01*
X175946123Y-96487886D01*
X175976884Y-96635915D01*
X176010090Y-96700000D01*
X174900000Y-96700000D01*
X174900000Y-97597822D01*
X174900001Y-97597842D01*
X174906401Y-97657377D01*
X174956645Y-97792084D01*
X174956650Y-97792094D01*
X175042809Y-97907187D01*
X175042812Y-97907190D01*
X175157905Y-97993349D01*
X175157915Y-97993354D01*
X175292623Y-98043598D01*
X175292621Y-98043598D01*
X175352157Y-98049998D01*
X175352177Y-98050000D01*
X176250000Y-98050000D01*
X176250000Y-96941683D01*
X176278819Y-96959209D01*
X176424404Y-97000000D01*
X176537622Y-97000000D01*
X176649783Y-96984584D01*
X176750000Y-96941053D01*
X176750000Y-98050000D01*
X177647823Y-98050000D01*
X177647842Y-98049998D01*
X177707377Y-98043598D01*
X177842084Y-97993354D01*
X177842094Y-97993349D01*
X177957187Y-97907190D01*
X177957190Y-97907187D01*
X178043349Y-97792094D01*
X178043354Y-97792084D01*
X178093598Y-97657377D01*
X178099998Y-97597842D01*
X178100000Y-97597822D01*
X178100000Y-96994593D01*
X178119962Y-96920093D01*
X178174500Y-96865555D01*
X178249000Y-96845593D01*
X178323500Y-96865555D01*
X178375162Y-96915321D01*
X178378160Y-96920093D01*
X178402316Y-96958536D01*
X178531464Y-97087684D01*
X178686112Y-97184856D01*
X178858505Y-97245179D01*
X178994480Y-97260500D01*
X179085520Y-97260500D01*
X179221495Y-97245179D01*
X179393888Y-97184856D01*
X179521228Y-97104842D01*
X179594928Y-97082109D01*
X179670122Y-97099272D01*
X179726662Y-97151732D01*
X179749396Y-97225433D01*
X179749500Y-97231005D01*
X179749500Y-128358994D01*
X179729538Y-128433494D01*
X179675000Y-128488032D01*
X179600500Y-128507994D01*
X179526000Y-128488032D01*
X179521227Y-128485156D01*
X179393888Y-128405144D01*
X179393887Y-128405144D01*
X179221495Y-128344821D01*
X179085520Y-128329500D01*
X178994480Y-128329500D01*
X178858505Y-128344821D01*
X178686111Y-128405144D01*
X178531464Y-128502316D01*
X178531462Y-128502316D01*
X178402316Y-128631462D01*
X178402316Y-128631464D01*
X178305144Y-128786112D01*
X178298146Y-128806111D01*
X178267425Y-128893907D01*
X178223977Y-128957633D01*
X178154487Y-128991097D01*
X178077574Y-128985334D01*
X178013848Y-128941886D01*
X177982346Y-128881275D01*
X177924063Y-128651119D01*
X177824173Y-128423393D01*
X177688164Y-128215215D01*
X177688163Y-128215214D01*
X177688162Y-128215212D01*
X177519743Y-128032261D01*
X177323510Y-127879527D01*
X177323505Y-127879523D01*
X177104815Y-127761174D01*
X177104811Y-127761172D01*
X176869613Y-127680428D01*
X176869609Y-127680427D01*
X176624335Y-127639500D01*
X176375665Y-127639500D01*
X176375664Y-127639500D01*
X176130390Y-127680427D01*
X176130386Y-127680428D01*
X175895188Y-127761172D01*
X175895184Y-127761174D01*
X175676494Y-127879523D01*
X175676489Y-127879527D01*
X175480256Y-128032261D01*
X175311837Y-128215212D01*
X175175827Y-128423392D01*
X175075937Y-128651117D01*
X175014891Y-128892183D01*
X174994357Y-129139998D01*
X174994357Y-129140001D01*
X175014891Y-129387816D01*
X175014891Y-129387819D01*
X175014892Y-129387821D01*
X175041752Y-129493888D01*
X175075937Y-129628882D01*
X175175827Y-129856607D01*
X175217773Y-129920811D01*
X175241809Y-129994098D01*
X175225981Y-130069585D01*
X175174530Y-130127044D01*
X175164440Y-130133082D01*
X175157908Y-130136648D01*
X175042812Y-130222809D01*
X175042809Y-130222812D01*
X174956650Y-130337905D01*
X174956645Y-130337915D01*
X174906401Y-130472622D01*
X174900001Y-130532157D01*
X174900000Y-130532177D01*
X174900000Y-131430000D01*
X176005148Y-131430000D01*
X175956441Y-131567047D01*
X175946123Y-131717886D01*
X175976884Y-131865915D01*
X176010090Y-131930000D01*
X174900000Y-131930000D01*
X174900000Y-132827822D01*
X174900001Y-132827842D01*
X174906401Y-132887377D01*
X174956645Y-133022084D01*
X174956650Y-133022094D01*
X175042809Y-133137187D01*
X175042812Y-133137190D01*
X175157905Y-133223349D01*
X175157915Y-133223354D01*
X175292623Y-133273598D01*
X175292621Y-133273598D01*
X175352157Y-133279998D01*
X175352177Y-133280000D01*
X176250000Y-133280000D01*
X176250000Y-132171683D01*
X176278819Y-132189209D01*
X176424404Y-132230000D01*
X176537622Y-132230000D01*
X176649783Y-132214584D01*
X176750000Y-132171053D01*
X176750000Y-133280000D01*
X177647823Y-133280000D01*
X177647842Y-133279998D01*
X177707377Y-133273598D01*
X177842084Y-133223354D01*
X177842094Y-133223349D01*
X177957187Y-133137190D01*
X177957190Y-133137187D01*
X178043349Y-133022094D01*
X178043354Y-133022084D01*
X178093598Y-132887377D01*
X178099998Y-132827842D01*
X178100000Y-132827822D01*
X178100000Y-132224593D01*
X178119962Y-132150093D01*
X178174500Y-132095555D01*
X178249000Y-132075593D01*
X178323500Y-132095555D01*
X178375162Y-132145321D01*
X178393401Y-132174349D01*
X178402316Y-132188536D01*
X178531464Y-132317684D01*
X178686112Y-132414856D01*
X178858505Y-132475179D01*
X178994480Y-132490500D01*
X179085520Y-132490500D01*
X179221495Y-132475179D01*
X179393888Y-132414856D01*
X179521228Y-132334842D01*
X179594928Y-132312109D01*
X179670122Y-132329272D01*
X179726662Y-132381732D01*
X179749396Y-132455433D01*
X179749500Y-132461005D01*
X179749500Y-138500000D01*
X179731568Y-138910694D01*
X179731002Y-138917172D01*
X179677769Y-139321515D01*
X179676640Y-139327918D01*
X179588369Y-139726080D01*
X179586686Y-139732361D01*
X179464047Y-140121322D01*
X179461823Y-140127432D01*
X179305754Y-140504217D01*
X179303006Y-140510111D01*
X179114689Y-140871864D01*
X179111438Y-140877496D01*
X178892311Y-141221455D01*
X178888582Y-141226781D01*
X178640308Y-141550340D01*
X178636128Y-141555321D01*
X178360602Y-141856004D01*
X178356004Y-141860602D01*
X178055321Y-142136128D01*
X178050340Y-142140308D01*
X177726781Y-142388582D01*
X177721455Y-142392311D01*
X177377496Y-142611438D01*
X177371864Y-142614689D01*
X177010111Y-142803006D01*
X177004217Y-142805754D01*
X176627432Y-142961823D01*
X176621322Y-142964047D01*
X176232361Y-143086686D01*
X176226080Y-143088369D01*
X175827918Y-143176640D01*
X175821518Y-143177768D01*
X175680427Y-143196343D01*
X175417172Y-143231002D01*
X175410694Y-143231568D01*
X175000000Y-143249500D01*
X115000000Y-143249500D01*
X114589305Y-143231568D01*
X114582827Y-143231002D01*
X114441739Y-143212427D01*
X114178477Y-143177767D01*
X114172088Y-143176641D01*
X114074699Y-143155050D01*
X113773919Y-143088369D01*
X113767638Y-143086686D01*
X113378677Y-142964047D01*
X113372567Y-142961823D01*
X112995782Y-142805754D01*
X112989888Y-142803006D01*
X112628135Y-142614689D01*
X112622503Y-142611438D01*
X112278544Y-142392311D01*
X112273218Y-142388582D01*
X112165766Y-142306131D01*
X111949644Y-142140295D01*
X111944691Y-142136139D01*
X111643995Y-141860602D01*
X111639397Y-141856004D01*
X111598894Y-141811803D01*
X111363858Y-141555306D01*
X111359706Y-141550358D01*
X111111417Y-141226781D01*
X111107688Y-141221455D01*
X110888561Y-140877496D01*
X110885310Y-140871864D01*
X110696993Y-140510111D01*
X110694245Y-140504217D01*
X110538176Y-140127432D01*
X110535952Y-140121322D01*
X110413313Y-139732361D01*
X110411630Y-139726080D01*
X110378891Y-139578404D01*
X110323354Y-139327893D01*
X110322234Y-139321540D01*
X110268995Y-138917155D01*
X110268431Y-138910694D01*
X110250500Y-138500000D01*
X110250500Y-132481005D01*
X110270462Y-132406505D01*
X110325000Y-132351967D01*
X110399500Y-132332005D01*
X110474000Y-132351967D01*
X110478756Y-132354833D01*
X110606112Y-132434856D01*
X110778505Y-132495179D01*
X110914480Y-132510500D01*
X111005520Y-132510500D01*
X111141495Y-132495179D01*
X111313888Y-132434856D01*
X111468536Y-132337684D01*
X111597684Y-132208536D01*
X111683479Y-132071993D01*
X111740016Y-132019534D01*
X111815211Y-132002371D01*
X111888912Y-132025105D01*
X111941373Y-132081643D01*
X111954523Y-132116483D01*
X111973601Y-132195946D01*
X111973604Y-132195958D01*
X112069979Y-132428628D01*
X112069982Y-132428633D01*
X112201564Y-132643356D01*
X112201569Y-132643364D01*
X112202266Y-132644178D01*
X112974070Y-131872374D01*
X112976884Y-131885915D01*
X113046442Y-132020156D01*
X113149638Y-132130652D01*
X113278819Y-132209209D01*
X113330002Y-132223550D01*
X112555820Y-132997732D01*
X112556633Y-132998428D01*
X112556636Y-132998431D01*
X112771373Y-133130021D01*
X113004041Y-133226395D01*
X113004055Y-133226399D01*
X113248920Y-133285185D01*
X113248927Y-133285187D01*
X113500000Y-133304947D01*
X113751072Y-133285187D01*
X113751079Y-133285185D01*
X113995944Y-133226399D01*
X113995958Y-133226395D01*
X114228628Y-133130020D01*
X114228633Y-133130017D01*
X114443360Y-132998433D01*
X114444178Y-132997732D01*
X113671568Y-132225121D01*
X113788458Y-132174349D01*
X113905739Y-132078934D01*
X113992928Y-131955415D01*
X114023354Y-131869801D01*
X114797732Y-132644178D01*
X114798433Y-132643360D01*
X114930017Y-132428633D01*
X114930020Y-132428628D01*
X115026395Y-132195958D01*
X115026399Y-132195944D01*
X115085185Y-131951079D01*
X115085187Y-131951072D01*
X115104947Y-131700000D01*
X115085187Y-131448927D01*
X115085185Y-131448920D01*
X115026399Y-131204055D01*
X115026395Y-131204041D01*
X114930020Y-130971371D01*
X114930017Y-130971366D01*
X114810913Y-130777005D01*
X114789007Y-130703053D01*
X114807012Y-130628056D01*
X114832598Y-130593794D01*
X114928047Y-130498345D01*
X114928050Y-130498342D01*
X114985646Y-130385304D01*
X115000500Y-130291519D01*
X115000499Y-128028482D01*
X114985646Y-127934696D01*
X114928050Y-127821658D01*
X114838342Y-127731950D01*
X114838342Y-127731949D01*
X114725305Y-127674354D01*
X114709673Y-127671878D01*
X114631519Y-127659500D01*
X114631514Y-127659500D01*
X112368481Y-127659500D01*
X112274695Y-127674354D01*
X112274693Y-127674355D01*
X112161657Y-127731950D01*
X112071950Y-127821657D01*
X112014354Y-127934694D01*
X112014353Y-127934696D01*
X112014354Y-127934696D01*
X111999500Y-128028481D01*
X111999500Y-128028482D01*
X111999500Y-128028485D01*
X111999500Y-128799783D01*
X111979538Y-128874283D01*
X111925000Y-128928821D01*
X111850500Y-128948783D01*
X111776000Y-128928821D01*
X111721462Y-128874283D01*
X111709861Y-128848994D01*
X111694856Y-128806112D01*
X111597684Y-128651464D01*
X111468536Y-128522316D01*
X111313888Y-128425144D01*
X111141495Y-128364821D01*
X111005520Y-128349500D01*
X110914480Y-128349500D01*
X110778505Y-128364821D01*
X110606108Y-128425145D01*
X110478771Y-128505156D01*
X110405070Y-128527890D01*
X110329875Y-128510727D01*
X110273337Y-128458266D01*
X110250603Y-128384565D01*
X110250500Y-128379047D01*
X110250500Y-125200000D01*
X141045251Y-125200000D01*
X141064186Y-125368056D01*
X141064186Y-125368058D01*
X141064187Y-125368059D01*
X141120044Y-125527690D01*
X141210023Y-125670890D01*
X141329610Y-125790477D01*
X141472810Y-125880456D01*
X141632441Y-125936313D01*
X141744480Y-125948937D01*
X141800499Y-125955249D01*
X141800500Y-125955249D01*
X141800501Y-125955249D01*
X141842514Y-125950515D01*
X141968559Y-125936313D01*
X142128190Y-125880456D01*
X142271390Y-125790477D01*
X142390977Y-125670890D01*
X142390977Y-125670889D01*
X142394641Y-125667226D01*
X142461436Y-125628662D01*
X142538564Y-125628662D01*
X142605359Y-125667226D01*
X142609022Y-125670889D01*
X142609023Y-125670890D01*
X142728610Y-125790477D01*
X142871810Y-125880456D01*
X143031441Y-125936313D01*
X143143480Y-125948937D01*
X143199499Y-125955249D01*
X143199500Y-125955249D01*
X143199501Y-125955249D01*
X143241514Y-125950515D01*
X143367559Y-125936313D01*
X143527190Y-125880456D01*
X143670390Y-125790477D01*
X143789977Y-125670890D01*
X143879956Y-125527690D01*
X143935813Y-125368059D01*
X143954749Y-125200000D01*
X149545251Y-125200000D01*
X149564186Y-125368056D01*
X149564186Y-125368058D01*
X149564187Y-125368059D01*
X149620044Y-125527690D01*
X149710023Y-125670890D01*
X149829610Y-125790477D01*
X149972810Y-125880456D01*
X150132441Y-125936313D01*
X150244480Y-125948937D01*
X150300499Y-125955249D01*
X150300500Y-125955249D01*
X150300501Y-125955249D01*
X150342514Y-125950515D01*
X150468559Y-125936313D01*
X150628190Y-125880456D01*
X150771390Y-125790477D01*
X150890977Y-125670890D01*
X150899087Y-125657982D01*
X150955627Y-125605521D01*
X151030821Y-125588358D01*
X151104522Y-125611092D01*
X151151412Y-125657982D01*
X151157220Y-125667226D01*
X151159523Y-125670890D01*
X151279110Y-125790477D01*
X151422310Y-125880456D01*
X151581941Y-125936313D01*
X151693980Y-125948937D01*
X151749999Y-125955249D01*
X151750000Y-125955249D01*
X151750001Y-125955249D01*
X151792014Y-125950515D01*
X151918059Y-125936313D01*
X152077690Y-125880456D01*
X152220890Y-125790477D01*
X152340477Y-125670890D01*
X152430456Y-125527690D01*
X152486313Y-125368059D01*
X152505249Y-125200000D01*
X152486313Y-125031941D01*
X152430456Y-124872310D01*
X152340477Y-124729110D01*
X152220890Y-124609523D01*
X152077690Y-124519544D01*
X151918059Y-124463687D01*
X151918058Y-124463686D01*
X151918056Y-124463686D01*
X151750001Y-124444751D01*
X151749999Y-124444751D01*
X151581943Y-124463686D01*
X151422309Y-124519544D01*
X151279110Y-124609523D01*
X151279109Y-124609523D01*
X151159523Y-124729108D01*
X151159518Y-124729115D01*
X151151410Y-124742020D01*
X151094870Y-124794480D01*
X151019676Y-124811641D01*
X150945975Y-124788905D01*
X150899090Y-124742020D01*
X150890981Y-124729115D01*
X150890976Y-124729109D01*
X150890975Y-124729108D01*
X150771390Y-124609523D01*
X150628190Y-124519544D01*
X150468559Y-124463687D01*
X150468558Y-124463686D01*
X150468556Y-124463686D01*
X150300501Y-124444751D01*
X150300499Y-124444751D01*
X150132443Y-124463686D01*
X149972809Y-124519544D01*
X149829610Y-124609523D01*
X149829609Y-124609524D01*
X149710024Y-124729108D01*
X149710023Y-124729110D01*
X149620044Y-124872309D01*
X149564186Y-125031943D01*
X149545251Y-125199999D01*
X149545251Y-125200000D01*
X143954749Y-125200000D01*
X143935813Y-125031941D01*
X143879956Y-124872310D01*
X143789977Y-124729110D01*
X143670390Y-124609523D01*
X143527190Y-124519544D01*
X143367559Y-124463687D01*
X143367558Y-124463686D01*
X143367556Y-124463686D01*
X143199501Y-124444751D01*
X143199499Y-124444751D01*
X143031443Y-124463686D01*
X142871809Y-124519544D01*
X142728610Y-124609523D01*
X142605359Y-124732774D01*
X142538564Y-124771338D01*
X142461436Y-124771338D01*
X142394641Y-124732774D01*
X142271391Y-124609524D01*
X142271390Y-124609523D01*
X142128190Y-124519544D01*
X141968559Y-124463687D01*
X141968558Y-124463686D01*
X141968556Y-124463686D01*
X141800501Y-124444751D01*
X141800499Y-124444751D01*
X141632443Y-124463686D01*
X141472809Y-124519544D01*
X141329610Y-124609523D01*
X141329609Y-124609524D01*
X141210024Y-124729108D01*
X141210023Y-124729110D01*
X141120044Y-124872309D01*
X141064186Y-125031943D01*
X141045251Y-125199999D01*
X141045251Y-125200000D01*
X110250500Y-125200000D01*
X110250500Y-108820000D01*
X111895052Y-108820000D01*
X111914812Y-109071072D01*
X111914814Y-109071079D01*
X111973600Y-109315944D01*
X111973604Y-109315958D01*
X112069979Y-109548628D01*
X112069982Y-109548633D01*
X112201564Y-109763356D01*
X112201569Y-109763364D01*
X112202266Y-109764178D01*
X112974070Y-108992373D01*
X112976884Y-109005915D01*
X113046442Y-109140156D01*
X113149638Y-109250652D01*
X113278819Y-109329209D01*
X113330002Y-109343550D01*
X112555820Y-110117732D01*
X112556633Y-110118428D01*
X112556636Y-110118431D01*
X112771373Y-110250021D01*
X113004041Y-110346395D01*
X113004055Y-110346399D01*
X113248920Y-110405185D01*
X113248927Y-110405187D01*
X113500000Y-110424947D01*
X113751072Y-110405187D01*
X113751079Y-110405185D01*
X113995944Y-110346399D01*
X113995958Y-110346395D01*
X114228628Y-110250020D01*
X114228633Y-110250017D01*
X114443360Y-110118433D01*
X114444178Y-110117732D01*
X114226446Y-109900000D01*
X146894751Y-109900000D01*
X146913686Y-110068056D01*
X146913686Y-110068058D01*
X146913687Y-110068059D01*
X146969544Y-110227690D01*
X147059523Y-110370890D01*
X147179110Y-110490477D01*
X147322310Y-110580456D01*
X147481941Y-110636313D01*
X147593980Y-110648937D01*
X147649999Y-110655249D01*
X147650000Y-110655249D01*
X147650001Y-110655249D01*
X147692014Y-110650515D01*
X147818059Y-110636313D01*
X147977690Y-110580456D01*
X148120890Y-110490477D01*
X148211367Y-110400000D01*
X151944751Y-110400000D01*
X151963686Y-110568056D01*
X151963686Y-110568058D01*
X151963687Y-110568059D01*
X152019544Y-110727690D01*
X152109523Y-110870890D01*
X152109524Y-110870891D01*
X152167261Y-110928628D01*
X152205825Y-110995423D01*
X152205825Y-111072551D01*
X152188064Y-111113259D01*
X152119545Y-111222306D01*
X152063686Y-111381943D01*
X152044751Y-111549999D01*
X152044751Y-111550000D01*
X152063686Y-111718056D01*
X152063686Y-111718058D01*
X152063687Y-111718059D01*
X152119544Y-111877690D01*
X152209523Y-112020890D01*
X152329110Y-112140477D01*
X152472310Y-112230456D01*
X152631941Y-112286313D01*
X152743980Y-112298937D01*
X152799999Y-112305249D01*
X152800000Y-112305249D01*
X152800001Y-112305249D01*
X152842014Y-112300515D01*
X152968059Y-112286313D01*
X153127690Y-112230456D01*
X153270890Y-112140477D01*
X153390477Y-112020890D01*
X153480456Y-111877690D01*
X153536313Y-111718059D01*
X153555249Y-111550000D01*
X153549615Y-111500000D01*
X153994751Y-111500000D01*
X154013686Y-111668056D01*
X154013686Y-111668058D01*
X154013687Y-111668059D01*
X154069544Y-111827690D01*
X154159523Y-111970890D01*
X154279110Y-112090477D01*
X154422310Y-112180456D01*
X154581941Y-112236313D01*
X154693980Y-112248937D01*
X154749999Y-112255249D01*
X154750000Y-112255249D01*
X154750001Y-112255249D01*
X154792014Y-112250515D01*
X154918059Y-112236313D01*
X155077690Y-112180456D01*
X155220890Y-112090477D01*
X155340477Y-111970890D01*
X155430456Y-111827690D01*
X155486313Y-111668059D01*
X155505249Y-111500000D01*
X155486313Y-111331941D01*
X155433548Y-111181148D01*
X155427786Y-111104239D01*
X155461250Y-111034749D01*
X155524977Y-110991301D01*
X155601889Y-110985538D01*
X155653461Y-111005778D01*
X155772310Y-111080456D01*
X155931941Y-111136313D01*
X156043980Y-111148937D01*
X156099999Y-111155249D01*
X156100000Y-111155249D01*
X156100001Y-111155249D01*
X156142014Y-111150515D01*
X156268059Y-111136313D01*
X156427690Y-111080456D01*
X156570890Y-110990477D01*
X156690477Y-110870890D01*
X156780456Y-110727690D01*
X156836313Y-110568059D01*
X156855249Y-110400000D01*
X156836313Y-110231941D01*
X156780456Y-110072310D01*
X156690477Y-109929110D01*
X156570890Y-109809523D01*
X156427690Y-109719544D01*
X156268059Y-109663687D01*
X156268058Y-109663686D01*
X156268056Y-109663686D01*
X156100001Y-109644751D01*
X156099999Y-109644751D01*
X155931943Y-109663686D01*
X155772309Y-109719544D01*
X155629110Y-109809523D01*
X155629108Y-109809524D01*
X155509524Y-109929108D01*
X155509523Y-109929110D01*
X155419544Y-110072309D01*
X155363686Y-110231943D01*
X155344751Y-110399999D01*
X155344751Y-110400000D01*
X155363686Y-110568056D01*
X155363686Y-110568057D01*
X155416450Y-110718848D01*
X155422213Y-110795761D01*
X155388748Y-110865250D01*
X155325022Y-110908698D01*
X155248109Y-110914461D01*
X155196538Y-110894221D01*
X155077690Y-110819544D01*
X154918056Y-110763686D01*
X154750001Y-110744751D01*
X154749999Y-110744751D01*
X154581943Y-110763686D01*
X154422309Y-110819544D01*
X154279110Y-110909523D01*
X154279109Y-110909523D01*
X154159523Y-111029108D01*
X154159523Y-111029110D01*
X154069544Y-111172309D01*
X154013686Y-111331943D01*
X153994751Y-111499999D01*
X153994751Y-111500000D01*
X153549615Y-111500000D01*
X153536313Y-111381941D01*
X153480456Y-111222310D01*
X153390477Y-111079110D01*
X153332738Y-111021371D01*
X153294174Y-110954576D01*
X153294174Y-110877448D01*
X153311936Y-110836738D01*
X153380455Y-110727692D01*
X153383550Y-110718848D01*
X153436313Y-110568059D01*
X153455249Y-110400000D01*
X153436313Y-110231941D01*
X153380456Y-110072310D01*
X153290477Y-109929110D01*
X153170890Y-109809523D01*
X153027690Y-109719544D01*
X152868059Y-109663687D01*
X152868058Y-109663686D01*
X152868056Y-109663686D01*
X152700001Y-109644751D01*
X152699999Y-109644751D01*
X152531943Y-109663686D01*
X152372309Y-109719544D01*
X152229110Y-109809523D01*
X152229108Y-109809524D01*
X152109524Y-109929108D01*
X152109523Y-109929110D01*
X152019544Y-110072309D01*
X151963686Y-110231943D01*
X151944751Y-110399999D01*
X151944751Y-110400000D01*
X148211367Y-110400000D01*
X148240477Y-110370890D01*
X148330456Y-110227690D01*
X148386313Y-110068059D01*
X148405249Y-109900000D01*
X148386313Y-109731941D01*
X148330456Y-109572310D01*
X148240477Y-109429110D01*
X148120890Y-109309523D01*
X147977690Y-109219544D01*
X147818059Y-109163687D01*
X147818058Y-109163686D01*
X147818056Y-109163686D01*
X147650001Y-109144751D01*
X147649999Y-109144751D01*
X147481943Y-109163686D01*
X147322309Y-109219544D01*
X147179110Y-109309523D01*
X147179109Y-109309523D01*
X147059523Y-109429108D01*
X147059523Y-109429110D01*
X146969544Y-109572309D01*
X146913686Y-109731943D01*
X146894751Y-109899999D01*
X146894751Y-109900000D01*
X114226446Y-109900000D01*
X113671568Y-109345121D01*
X113788458Y-109294349D01*
X113905739Y-109198934D01*
X113992928Y-109075415D01*
X114023355Y-108989801D01*
X114797732Y-109764178D01*
X114798433Y-109763360D01*
X114930017Y-109548633D01*
X114930020Y-109548628D01*
X115026395Y-109315958D01*
X115026399Y-109315944D01*
X115085185Y-109071079D01*
X115085187Y-109071072D01*
X115091081Y-108996185D01*
X143844751Y-108996185D01*
X143863686Y-109164241D01*
X143863686Y-109164243D01*
X143863687Y-109164244D01*
X143919544Y-109323875D01*
X144009523Y-109467075D01*
X144129110Y-109586662D01*
X144272310Y-109676641D01*
X144431941Y-109732498D01*
X144543980Y-109745121D01*
X144599999Y-109751434D01*
X144600000Y-109751434D01*
X144600001Y-109751434D01*
X144642014Y-109746700D01*
X144768059Y-109732498D01*
X144927690Y-109676641D01*
X145070890Y-109586662D01*
X145190477Y-109467075D01*
X145280456Y-109323875D01*
X145336313Y-109164244D01*
X145351316Y-109031084D01*
X145379494Y-108959289D01*
X145439795Y-108911200D01*
X145516061Y-108899705D01*
X145578653Y-108921607D01*
X145672307Y-108980455D01*
X145672310Y-108980456D01*
X145831941Y-109036313D01*
X145943980Y-109048937D01*
X145999999Y-109055249D01*
X146000000Y-109055249D01*
X146000001Y-109055249D01*
X146042014Y-109050515D01*
X146168059Y-109036313D01*
X146327690Y-108980456D01*
X146470890Y-108890477D01*
X146590477Y-108770890D01*
X146680456Y-108627690D01*
X146736313Y-108468059D01*
X146755249Y-108300000D01*
X150994751Y-108300000D01*
X151013686Y-108468056D01*
X151013686Y-108468058D01*
X151013687Y-108468059D01*
X151069544Y-108627690D01*
X151159523Y-108770890D01*
X151279110Y-108890477D01*
X151422310Y-108980456D01*
X151581941Y-109036313D01*
X151693980Y-109048937D01*
X151749999Y-109055249D01*
X151750000Y-109055249D01*
X151750001Y-109055249D01*
X151792014Y-109050515D01*
X151918059Y-109036313D01*
X152077690Y-108980456D01*
X152220890Y-108890477D01*
X152340477Y-108770890D01*
X152430456Y-108627690D01*
X152486313Y-108468059D01*
X152505249Y-108300000D01*
X152500727Y-108259871D01*
X152498594Y-108240936D01*
X152486313Y-108131941D01*
X152430456Y-107972310D01*
X152340477Y-107829110D01*
X152220890Y-107709523D01*
X152077690Y-107619544D01*
X151918059Y-107563687D01*
X151918058Y-107563686D01*
X151918056Y-107563686D01*
X151750001Y-107544751D01*
X151749999Y-107544751D01*
X151581943Y-107563686D01*
X151422309Y-107619544D01*
X151279110Y-107709523D01*
X151279109Y-107709523D01*
X151159523Y-107829108D01*
X151159523Y-107829110D01*
X151069544Y-107972309D01*
X151013686Y-108131943D01*
X150994751Y-108299999D01*
X150994751Y-108300000D01*
X146755249Y-108300000D01*
X146750727Y-108259871D01*
X146748594Y-108240936D01*
X146736313Y-108131941D01*
X146680456Y-107972310D01*
X146590477Y-107829110D01*
X146470890Y-107709523D01*
X146327690Y-107619544D01*
X146168059Y-107563687D01*
X146168058Y-107563686D01*
X146168056Y-107563686D01*
X146000001Y-107544751D01*
X145999999Y-107544751D01*
X145831943Y-107563686D01*
X145672309Y-107619544D01*
X145529110Y-107709523D01*
X145529108Y-107709524D01*
X145409524Y-107829108D01*
X145409523Y-107829110D01*
X145319544Y-107972309D01*
X145263686Y-108131942D01*
X145248683Y-108265100D01*
X145220505Y-108336896D01*
X145160203Y-108384984D01*
X145083936Y-108396479D01*
X145021347Y-108374578D01*
X144927690Y-108315729D01*
X144768056Y-108259871D01*
X144600001Y-108240936D01*
X144599999Y-108240936D01*
X144431943Y-108259871D01*
X144272309Y-108315729D01*
X144129110Y-108405708D01*
X144129108Y-108405708D01*
X144009523Y-108525294D01*
X144009523Y-108525295D01*
X143919544Y-108668494D01*
X143863686Y-108828128D01*
X143844751Y-108996184D01*
X143844751Y-108996185D01*
X115091081Y-108996185D01*
X115104947Y-108819999D01*
X115085187Y-108568927D01*
X115085185Y-108568920D01*
X115026399Y-108324055D01*
X115026395Y-108324041D01*
X114930021Y-108091373D01*
X114798431Y-107876636D01*
X114798428Y-107876633D01*
X114797732Y-107875820D01*
X114025929Y-108647622D01*
X114023116Y-108634085D01*
X113953558Y-108499844D01*
X113850362Y-108389348D01*
X113721181Y-108310791D01*
X113669994Y-108296449D01*
X114445186Y-107521258D01*
X114461335Y-107449982D01*
X114501663Y-107401810D01*
X114519744Y-107387738D01*
X114688164Y-107204785D01*
X114824173Y-106996607D01*
X114924063Y-106768881D01*
X114985108Y-106527821D01*
X115005643Y-106280000D01*
X114985108Y-106032179D01*
X114924063Y-105791119D01*
X114824173Y-105563393D01*
X114688164Y-105355215D01*
X114688163Y-105355214D01*
X114688162Y-105355212D01*
X114519744Y-105172262D01*
X114503377Y-105159523D01*
X114462336Y-105127580D01*
X114415809Y-105066071D01*
X114406268Y-104989536D01*
X114436273Y-104918483D01*
X114462333Y-104892422D01*
X114519744Y-104847738D01*
X114688164Y-104664785D01*
X114824173Y-104456607D01*
X114924063Y-104228881D01*
X114985108Y-103987821D01*
X115005643Y-103740000D01*
X114985108Y-103492179D01*
X114924063Y-103251119D01*
X114824173Y-103023393D01*
X114688164Y-102815215D01*
X114688163Y-102815214D01*
X114688162Y-102815212D01*
X114519744Y-102632262D01*
X114518044Y-102630939D01*
X114462336Y-102587580D01*
X114415809Y-102526071D01*
X114406268Y-102449536D01*
X114436273Y-102378483D01*
X114462333Y-102352422D01*
X114519744Y-102307738D01*
X114572896Y-102250000D01*
X137844751Y-102250000D01*
X137863686Y-102418056D01*
X137919544Y-102577690D01*
X138003003Y-102710513D01*
X138025737Y-102784214D01*
X138008575Y-102859408D01*
X138003003Y-102869058D01*
X137969545Y-102922306D01*
X137913686Y-103081943D01*
X137894751Y-103249999D01*
X137894751Y-103250000D01*
X137913686Y-103418056D01*
X137913686Y-103418058D01*
X137913687Y-103418059D01*
X137969544Y-103577690D01*
X138059523Y-103720890D01*
X138179110Y-103840477D01*
X138250710Y-103885466D01*
X138322311Y-103930457D01*
X138359408Y-103943437D01*
X138423135Y-103986883D01*
X138456601Y-104056373D01*
X138450838Y-104133285D01*
X138407392Y-104197012D01*
X138374860Y-104218314D01*
X138372320Y-104219537D01*
X138229110Y-104309523D01*
X138229108Y-104309524D01*
X138109524Y-104429108D01*
X138109523Y-104429110D01*
X138019544Y-104572309D01*
X137963686Y-104731943D01*
X137944751Y-104899999D01*
X137944751Y-104900000D01*
X137963686Y-105068056D01*
X137963686Y-105068058D01*
X137963687Y-105068059D01*
X138019544Y-105227690D01*
X138109523Y-105370890D01*
X138229110Y-105490477D01*
X138296990Y-105533129D01*
X138346990Y-105564546D01*
X138399450Y-105621085D01*
X138416613Y-105696280D01*
X138393879Y-105769981D01*
X138346991Y-105816869D01*
X138279112Y-105859520D01*
X138159523Y-105979109D01*
X138159523Y-105979110D01*
X138069544Y-106122309D01*
X138013686Y-106281943D01*
X137994751Y-106449999D01*
X137994751Y-106450000D01*
X138013686Y-106618056D01*
X138013686Y-106618058D01*
X138013687Y-106618059D01*
X138069544Y-106777690D01*
X138159523Y-106920890D01*
X138235240Y-106996607D01*
X138279109Y-107040476D01*
X138279112Y-107040478D01*
X138371991Y-107098839D01*
X138424451Y-107155378D01*
X138441613Y-107230572D01*
X138418878Y-107304274D01*
X138371991Y-107351161D01*
X138279112Y-107409521D01*
X138279109Y-107409523D01*
X138159523Y-107529108D01*
X138159523Y-107529110D01*
X138069544Y-107672309D01*
X138013686Y-107831943D01*
X137994751Y-107999999D01*
X137994751Y-108000000D01*
X138013686Y-108168056D01*
X138013686Y-108168058D01*
X138013687Y-108168059D01*
X138069544Y-108327690D01*
X138159523Y-108470890D01*
X138279110Y-108590477D01*
X138422310Y-108680456D01*
X138581941Y-108736313D01*
X138693980Y-108748937D01*
X138749999Y-108755249D01*
X138750000Y-108755249D01*
X138750001Y-108755249D01*
X138792014Y-108750515D01*
X138918059Y-108736313D01*
X139077690Y-108680456D01*
X139220890Y-108590477D01*
X139340477Y-108470890D01*
X139430456Y-108327690D01*
X139486313Y-108168059D01*
X139505249Y-108000000D01*
X139486313Y-107831941D01*
X139430456Y-107672310D01*
X139340477Y-107529110D01*
X139220890Y-107409523D01*
X139128008Y-107351161D01*
X139075549Y-107294623D01*
X139058386Y-107219428D01*
X139081120Y-107145727D01*
X139128009Y-107098838D01*
X139220890Y-107040477D01*
X139340477Y-106920890D01*
X139430456Y-106777690D01*
X139486313Y-106618059D01*
X139505249Y-106450000D01*
X139486313Y-106281941D01*
X139430456Y-106122310D01*
X139340477Y-105979110D01*
X139220890Y-105859523D01*
X139103009Y-105785453D01*
X139070114Y-105750000D01*
X161994751Y-105750000D01*
X162013686Y-105918056D01*
X162013686Y-105918058D01*
X162013687Y-105918059D01*
X162069544Y-106077690D01*
X162159523Y-106220890D01*
X162279110Y-106340477D01*
X162422310Y-106430456D01*
X162581941Y-106486313D01*
X162693980Y-106498936D01*
X162749999Y-106505249D01*
X162750000Y-106505249D01*
X162750001Y-106505249D01*
X162792014Y-106500515D01*
X162918059Y-106486313D01*
X163077690Y-106430456D01*
X163220890Y-106340477D01*
X163340477Y-106220890D01*
X163430456Y-106077690D01*
X163486313Y-105918059D01*
X163505249Y-105750000D01*
X163486313Y-105581941D01*
X163430456Y-105422310D01*
X163340477Y-105279110D01*
X163220890Y-105159523D01*
X163077690Y-105069544D01*
X162918059Y-105013687D01*
X162918058Y-105013686D01*
X162918056Y-105013686D01*
X162750001Y-104994751D01*
X162749999Y-104994751D01*
X162581943Y-105013686D01*
X162422309Y-105069544D01*
X162279110Y-105159523D01*
X162279109Y-105159523D01*
X162159523Y-105279109D01*
X162159523Y-105279110D01*
X162069544Y-105422309D01*
X162013686Y-105581943D01*
X161994751Y-105749999D01*
X161994751Y-105750000D01*
X139070114Y-105750000D01*
X139050549Y-105728914D01*
X139033386Y-105653719D01*
X139056120Y-105580018D01*
X139103010Y-105533129D01*
X139170890Y-105490477D01*
X139290477Y-105370890D01*
X139380456Y-105227690D01*
X139436313Y-105068059D01*
X139455249Y-104900000D01*
X139436313Y-104731941D01*
X139380456Y-104572310D01*
X139290477Y-104429110D01*
X139170890Y-104309523D01*
X139027690Y-104219544D01*
X138990588Y-104206561D01*
X138926863Y-104163114D01*
X138893398Y-104093624D01*
X138899161Y-104016712D01*
X138942609Y-103952986D01*
X138975155Y-103931677D01*
X138977686Y-103930457D01*
X138977690Y-103930456D01*
X139120890Y-103840477D01*
X139240477Y-103720890D01*
X139330456Y-103577690D01*
X139386313Y-103418059D01*
X139405249Y-103250000D01*
X139386313Y-103081941D01*
X139330456Y-102922310D01*
X139330455Y-102922307D01*
X139263163Y-102815215D01*
X139246996Y-102789485D01*
X139224262Y-102715785D01*
X139241424Y-102640591D01*
X139246997Y-102630939D01*
X139280456Y-102577690D01*
X139336313Y-102418059D01*
X139355249Y-102250000D01*
X139336313Y-102081941D01*
X139280456Y-101922310D01*
X139190477Y-101779110D01*
X139070890Y-101659523D01*
X138927690Y-101569544D01*
X138768059Y-101513687D01*
X138768058Y-101513686D01*
X138768056Y-101513686D01*
X138600001Y-101494751D01*
X138599999Y-101494751D01*
X138431943Y-101513686D01*
X138272309Y-101569544D01*
X138129110Y-101659523D01*
X138129108Y-101659523D01*
X138009523Y-101779109D01*
X138009523Y-101779110D01*
X137919544Y-101922309D01*
X137863686Y-102081943D01*
X137844751Y-102249999D01*
X137844751Y-102250000D01*
X114572896Y-102250000D01*
X114688164Y-102124785D01*
X114824173Y-101916607D01*
X114924063Y-101688881D01*
X114985108Y-101447821D01*
X115005643Y-101200000D01*
X114985108Y-100952179D01*
X114935992Y-100758224D01*
X146999009Y-100758224D01*
X147017944Y-100926280D01*
X147017944Y-100926282D01*
X147017945Y-100926283D01*
X147073802Y-101085914D01*
X147163781Y-101229114D01*
X147283368Y-101348701D01*
X147426568Y-101438680D01*
X147586199Y-101494537D01*
X147698238Y-101507160D01*
X147754257Y-101513473D01*
X147754258Y-101513473D01*
X147754259Y-101513473D01*
X147796272Y-101508739D01*
X147922317Y-101494537D01*
X148081948Y-101438680D01*
X148225148Y-101348701D01*
X148344735Y-101229114D01*
X148434714Y-101085914D01*
X148490571Y-100926283D01*
X148509507Y-100758224D01*
X148490571Y-100590165D01*
X148459021Y-100500000D01*
X160544751Y-100500000D01*
X160563686Y-100668056D01*
X160563686Y-100668058D01*
X160563687Y-100668059D01*
X160619544Y-100827690D01*
X160709523Y-100970890D01*
X160829110Y-101090477D01*
X160972310Y-101180456D01*
X161131941Y-101236313D01*
X161243980Y-101248936D01*
X161299999Y-101255249D01*
X161300000Y-101255249D01*
X161300001Y-101255249D01*
X161342014Y-101250515D01*
X161468059Y-101236313D01*
X161627690Y-101180456D01*
X161770890Y-101090477D01*
X161890477Y-100970890D01*
X161980456Y-100827690D01*
X162036313Y-100668059D01*
X162055249Y-100500000D01*
X162036313Y-100331941D01*
X161980456Y-100172310D01*
X161890477Y-100029110D01*
X161770890Y-99909523D01*
X161627690Y-99819544D01*
X161468059Y-99763687D01*
X161468058Y-99763686D01*
X161468056Y-99763686D01*
X161300001Y-99744751D01*
X161299999Y-99744751D01*
X161131943Y-99763686D01*
X160972309Y-99819544D01*
X160829110Y-99909523D01*
X160829108Y-99909524D01*
X160709524Y-100029108D01*
X160709523Y-100029110D01*
X160619544Y-100172309D01*
X160563686Y-100331943D01*
X160544751Y-100499999D01*
X160544751Y-100500000D01*
X148459021Y-100500000D01*
X148434714Y-100430534D01*
X148344735Y-100287334D01*
X148344734Y-100287333D01*
X148344734Y-100287332D01*
X148225149Y-100167748D01*
X148225148Y-100167747D01*
X148081948Y-100077768D01*
X147922317Y-100021911D01*
X147922316Y-100021910D01*
X147922314Y-100021910D01*
X147754259Y-100002975D01*
X147754257Y-100002975D01*
X147586201Y-100021910D01*
X147426567Y-100077768D01*
X147283368Y-100167747D01*
X147283367Y-100167747D01*
X147163782Y-100287333D01*
X147163781Y-100287334D01*
X147073802Y-100430533D01*
X147017944Y-100590167D01*
X146999009Y-100758223D01*
X146999009Y-100758224D01*
X114935992Y-100758224D01*
X114924063Y-100711119D01*
X114824173Y-100483393D01*
X114688164Y-100275215D01*
X114688163Y-100275214D01*
X114688162Y-100275212D01*
X114519743Y-100092261D01*
X114462338Y-100047581D01*
X114415808Y-99986069D01*
X114406268Y-99909533D01*
X114436274Y-99838481D01*
X114462333Y-99812422D01*
X114519744Y-99767738D01*
X114688164Y-99584785D01*
X114824173Y-99376607D01*
X114924063Y-99148881D01*
X114985108Y-98907821D01*
X115005643Y-98660000D01*
X114985108Y-98412179D01*
X114924063Y-98171119D01*
X114824173Y-97943393D01*
X114724688Y-97791120D01*
X114700654Y-97717836D01*
X114716482Y-97642350D01*
X114767932Y-97584890D01*
X114781777Y-97576871D01*
X114838342Y-97548050D01*
X114928050Y-97458342D01*
X114985646Y-97345304D01*
X115000500Y-97251519D01*
X115000499Y-95350000D01*
X142044751Y-95350000D01*
X142063686Y-95518056D01*
X142063686Y-95518058D01*
X142063687Y-95518059D01*
X142119544Y-95677690D01*
X142209523Y-95820890D01*
X142329110Y-95940477D01*
X142472310Y-96030456D01*
X142631941Y-96086313D01*
X142743980Y-96098936D01*
X142799999Y-96105249D01*
X142800000Y-96105249D01*
X142800001Y-96105249D01*
X142842014Y-96100515D01*
X142968059Y-96086313D01*
X143127690Y-96030456D01*
X143270890Y-95940477D01*
X143390477Y-95820890D01*
X143480456Y-95677690D01*
X143523606Y-95554372D01*
X143567051Y-95490649D01*
X143636540Y-95457184D01*
X143647561Y-95455523D01*
X143649996Y-95455248D01*
X143650000Y-95455249D01*
X143818059Y-95436313D01*
X143977690Y-95380456D01*
X144120890Y-95290477D01*
X144240477Y-95170890D01*
X144330456Y-95027690D01*
X144386313Y-94868059D01*
X144386348Y-94867742D01*
X144386435Y-94867522D01*
X144388175Y-94859900D01*
X144389322Y-94860161D01*
X144414516Y-94795947D01*
X144474812Y-94747851D01*
X144509959Y-94738433D01*
X144509900Y-94738175D01*
X144516817Y-94736595D01*
X144517739Y-94736348D01*
X144518059Y-94736313D01*
X144677690Y-94680456D01*
X144820890Y-94590477D01*
X144940477Y-94470890D01*
X145030456Y-94327690D01*
X145086313Y-94168059D01*
X145086313Y-94168053D01*
X145088175Y-94159900D01*
X145090786Y-94160496D01*
X145113884Y-94101641D01*
X145174185Y-94053552D01*
X145217085Y-94042056D01*
X145268059Y-94036313D01*
X145427690Y-93980456D01*
X145570890Y-93890477D01*
X145690477Y-93770890D01*
X145780456Y-93627690D01*
X145836313Y-93468059D01*
X145855249Y-93300000D01*
X145852769Y-93277994D01*
X145836313Y-93131943D01*
X145836313Y-93131942D01*
X145836313Y-93131941D01*
X145780456Y-92972310D01*
X145690477Y-92829110D01*
X145570890Y-92709523D01*
X145427690Y-92619544D01*
X145268059Y-92563687D01*
X145268058Y-92563686D01*
X145268056Y-92563686D01*
X145100001Y-92544751D01*
X145099999Y-92544751D01*
X144931943Y-92563686D01*
X144772309Y-92619544D01*
X144629110Y-92709523D01*
X144629108Y-92709524D01*
X144509524Y-92829108D01*
X144509523Y-92829110D01*
X144419544Y-92972309D01*
X144363686Y-93131942D01*
X144361825Y-93140099D01*
X144359221Y-93139504D01*
X144336085Y-93198398D01*
X144275769Y-93246467D01*
X144232914Y-93257943D01*
X144189657Y-93262817D01*
X144181941Y-93263687D01*
X144157281Y-93272316D01*
X144022309Y-93319544D01*
X143879110Y-93409523D01*
X143879109Y-93409523D01*
X143759523Y-93529108D01*
X143759523Y-93529110D01*
X143669544Y-93672309D01*
X143613686Y-93831942D01*
X143613684Y-93831950D01*
X143613647Y-93832287D01*
X143613554Y-93832523D01*
X143611825Y-93840099D01*
X143610682Y-93839838D01*
X143585460Y-93904080D01*
X143525153Y-93952161D01*
X143490040Y-93961569D01*
X143490099Y-93961825D01*
X143483266Y-93963384D01*
X143482287Y-93963647D01*
X143481950Y-93963684D01*
X143481942Y-93963686D01*
X143322309Y-94019544D01*
X143179110Y-94109523D01*
X143179109Y-94109523D01*
X143059523Y-94229108D01*
X143059523Y-94229110D01*
X142969542Y-94372311D01*
X142926393Y-94495625D01*
X142882945Y-94559351D01*
X142813455Y-94592816D01*
X142802438Y-94594476D01*
X142631943Y-94613686D01*
X142472309Y-94669544D01*
X142329110Y-94759523D01*
X142329108Y-94759523D01*
X142209523Y-94879109D01*
X142209523Y-94879110D01*
X142119544Y-95022309D01*
X142063686Y-95181943D01*
X142044751Y-95349999D01*
X142044751Y-95350000D01*
X115000499Y-95350000D01*
X115000499Y-94988482D01*
X114985646Y-94894696D01*
X114928050Y-94781658D01*
X114838342Y-94691950D01*
X114794368Y-94669544D01*
X114725305Y-94634354D01*
X114709673Y-94631878D01*
X114631519Y-94619500D01*
X114631514Y-94619500D01*
X112368481Y-94619500D01*
X112274695Y-94634354D01*
X112274693Y-94634355D01*
X112161657Y-94691950D01*
X112071950Y-94781657D01*
X112014354Y-94894694D01*
X112012461Y-94906647D01*
X111999500Y-94988481D01*
X111999500Y-94988482D01*
X111999500Y-94988485D01*
X111999500Y-97251518D01*
X112014354Y-97345304D01*
X112014355Y-97345306D01*
X112071950Y-97458342D01*
X112161658Y-97548050D01*
X112218217Y-97576869D01*
X112275534Y-97628478D01*
X112299367Y-97701831D01*
X112283330Y-97777274D01*
X112275309Y-97791123D01*
X112175827Y-97943391D01*
X112075937Y-98171117D01*
X112014891Y-98412183D01*
X111994357Y-98659998D01*
X111994357Y-98660001D01*
X112014891Y-98907816D01*
X112075937Y-99148882D01*
X112175827Y-99376607D01*
X112311837Y-99584787D01*
X112480257Y-99767739D01*
X112480260Y-99767742D01*
X112537659Y-99812417D01*
X112584189Y-99873928D01*
X112593730Y-99950464D01*
X112563724Y-100021516D01*
X112537662Y-100047579D01*
X112480259Y-100092259D01*
X112480257Y-100092260D01*
X112311837Y-100275212D01*
X112175827Y-100483392D01*
X112075937Y-100711117D01*
X112014891Y-100952183D01*
X111994357Y-101199998D01*
X111994357Y-101200001D01*
X112014891Y-101447816D01*
X112014891Y-101447819D01*
X112014892Y-101447821D01*
X112031571Y-101513686D01*
X112075937Y-101688882D01*
X112175827Y-101916607D01*
X112311837Y-102124787D01*
X112480257Y-102307739D01*
X112480262Y-102307744D01*
X112537660Y-102352419D01*
X112584190Y-102413931D01*
X112593730Y-102490467D01*
X112563723Y-102561518D01*
X112537660Y-102587581D01*
X112480262Y-102632255D01*
X112480257Y-102632260D01*
X112311837Y-102815212D01*
X112175827Y-103023392D01*
X112075937Y-103251117D01*
X112014891Y-103492183D01*
X111994357Y-103739998D01*
X111994357Y-103740001D01*
X112014891Y-103987816D01*
X112014891Y-103987819D01*
X112014892Y-103987821D01*
X112022208Y-104016712D01*
X112075937Y-104228882D01*
X112175827Y-104456607D01*
X112311837Y-104664787D01*
X112480257Y-104847739D01*
X112480262Y-104847744D01*
X112537660Y-104892419D01*
X112584190Y-104953931D01*
X112593730Y-105030467D01*
X112563723Y-105101518D01*
X112537660Y-105127581D01*
X112480262Y-105172255D01*
X112480257Y-105172260D01*
X112311837Y-105355212D01*
X112175827Y-105563392D01*
X112075937Y-105791117D01*
X112014891Y-106032183D01*
X111994357Y-106279998D01*
X111994357Y-106280001D01*
X112014891Y-106527816D01*
X112014891Y-106527819D01*
X112014892Y-106527821D01*
X112046174Y-106651352D01*
X112075937Y-106768882D01*
X112175827Y-106996607D01*
X112311837Y-107204787D01*
X112480257Y-107387739D01*
X112498336Y-107401811D01*
X112544865Y-107463324D01*
X112555044Y-107521490D01*
X113328432Y-108294878D01*
X113211542Y-108345651D01*
X113094261Y-108441066D01*
X113007072Y-108564585D01*
X112976644Y-108650198D01*
X112202266Y-107875820D01*
X112201569Y-107876635D01*
X112069978Y-108091373D01*
X111973604Y-108324041D01*
X111973600Y-108324055D01*
X111914814Y-108568920D01*
X111914812Y-108568927D01*
X111895052Y-108820000D01*
X110250500Y-108820000D01*
X110250500Y-94154196D01*
X135240554Y-94154196D01*
X135259489Y-94322252D01*
X135259489Y-94322254D01*
X135259490Y-94322255D01*
X135315347Y-94481886D01*
X135405326Y-94625086D01*
X135524913Y-94744673D01*
X135668113Y-94834652D01*
X135827744Y-94890509D01*
X135939331Y-94903082D01*
X135995802Y-94909445D01*
X135995803Y-94909445D01*
X135995804Y-94909445D01*
X136052275Y-94903082D01*
X136163862Y-94890509D01*
X136323493Y-94834652D01*
X136466693Y-94744673D01*
X136586280Y-94625086D01*
X136676259Y-94481886D01*
X136732116Y-94322255D01*
X136751052Y-94154196D01*
X136746018Y-94109523D01*
X136743987Y-94091495D01*
X136732116Y-93986137D01*
X136676259Y-93826506D01*
X136586280Y-93683306D01*
X136466693Y-93563719D01*
X136323493Y-93473740D01*
X136163862Y-93417883D01*
X136163861Y-93417882D01*
X136163859Y-93417882D01*
X135995804Y-93398947D01*
X135995802Y-93398947D01*
X135827746Y-93417882D01*
X135668112Y-93473740D01*
X135524913Y-93563719D01*
X135524911Y-93563719D01*
X135405326Y-93683305D01*
X135405326Y-93683306D01*
X135315347Y-93826505D01*
X135259489Y-93986139D01*
X135240554Y-94154195D01*
X135240554Y-94154196D01*
X110250500Y-94154196D01*
X110250500Y-90250000D01*
X156294751Y-90250000D01*
X156313686Y-90418056D01*
X156313686Y-90418058D01*
X156313687Y-90418059D01*
X156369544Y-90577690D01*
X156459523Y-90720890D01*
X156579110Y-90840477D01*
X156722310Y-90930456D01*
X156881941Y-90986313D01*
X156993980Y-90998936D01*
X157049999Y-91005249D01*
X157050000Y-91005249D01*
X157050001Y-91005249D01*
X157092014Y-91000515D01*
X157218059Y-90986313D01*
X157377690Y-90930456D01*
X157520890Y-90840477D01*
X157640477Y-90720890D01*
X157730456Y-90577690D01*
X157786313Y-90418059D01*
X157805249Y-90250000D01*
X157786313Y-90081941D01*
X157730456Y-89922310D01*
X157640477Y-89779110D01*
X157520890Y-89659523D01*
X157377690Y-89569544D01*
X157218059Y-89513687D01*
X157218058Y-89513686D01*
X157218056Y-89513686D01*
X157050001Y-89494751D01*
X157049999Y-89494751D01*
X156881943Y-89513686D01*
X156722309Y-89569544D01*
X156579110Y-89659523D01*
X156579109Y-89659523D01*
X156459523Y-89779109D01*
X156459523Y-89779110D01*
X156369544Y-89922309D01*
X156313686Y-90081943D01*
X156294751Y-90249999D01*
X156294751Y-90250000D01*
X110250500Y-90250000D01*
X110250500Y-86700000D01*
X114444751Y-86700000D01*
X114463686Y-86868056D01*
X114463686Y-86868058D01*
X114463687Y-86868059D01*
X114519544Y-87027690D01*
X114609523Y-87170890D01*
X114729110Y-87290477D01*
X114872310Y-87380456D01*
X115031941Y-87436313D01*
X115143980Y-87448936D01*
X115199999Y-87455249D01*
X115200000Y-87455249D01*
X115200001Y-87455249D01*
X115242014Y-87450515D01*
X115368059Y-87436313D01*
X115527690Y-87380456D01*
X115670890Y-87290477D01*
X115790477Y-87170890D01*
X115880456Y-87027690D01*
X115936313Y-86868059D01*
X115955249Y-86700000D01*
X115936313Y-86531941D01*
X115880456Y-86372310D01*
X115874292Y-86362500D01*
X131107251Y-86362500D01*
X131126186Y-86530556D01*
X131126186Y-86530558D01*
X131126187Y-86530559D01*
X131182044Y-86690190D01*
X131272023Y-86833390D01*
X131391610Y-86952977D01*
X131534810Y-87042956D01*
X131694441Y-87098813D01*
X131806480Y-87111436D01*
X131862499Y-87117749D01*
X131862500Y-87117749D01*
X131862501Y-87117749D01*
X131904514Y-87113014D01*
X132030559Y-87098813D01*
X132190190Y-87042956D01*
X132333390Y-86952977D01*
X132452977Y-86833390D01*
X132542956Y-86690190D01*
X132598813Y-86530559D01*
X132617749Y-86362500D01*
X132598813Y-86194441D01*
X132542956Y-86034810D01*
X132452977Y-85891610D01*
X132333390Y-85772023D01*
X132190190Y-85682044D01*
X132030559Y-85626187D01*
X132030558Y-85626186D01*
X132030556Y-85626186D01*
X131862501Y-85607251D01*
X131862499Y-85607251D01*
X131694443Y-85626186D01*
X131534809Y-85682044D01*
X131391610Y-85772023D01*
X131272023Y-85891610D01*
X131182044Y-86034809D01*
X131126186Y-86194443D01*
X131107251Y-86362499D01*
X131107251Y-86362500D01*
X115874292Y-86362500D01*
X115790477Y-86229110D01*
X115670890Y-86109523D01*
X115527690Y-86019544D01*
X115368059Y-85963687D01*
X115368058Y-85963686D01*
X115368056Y-85963686D01*
X115200001Y-85944751D01*
X115199999Y-85944751D01*
X115031943Y-85963686D01*
X114872309Y-86019544D01*
X114729110Y-86109523D01*
X114729108Y-86109524D01*
X114609524Y-86229108D01*
X114609523Y-86229110D01*
X114519544Y-86372309D01*
X114463686Y-86531943D01*
X114444751Y-86699999D01*
X114444751Y-86700000D01*
X110250500Y-86700000D01*
X110250500Y-85996270D01*
X111179500Y-85996270D01*
X111220791Y-86163796D01*
X111300977Y-86316576D01*
X111300979Y-86316579D01*
X111415390Y-86445722D01*
X111415391Y-86445723D01*
X111557389Y-86543737D01*
X111718717Y-86604921D01*
X111847025Y-86620500D01*
X111847031Y-86620500D01*
X111932969Y-86620500D01*
X111932975Y-86620500D01*
X112061283Y-86604921D01*
X112222611Y-86543737D01*
X112364609Y-86445723D01*
X112479024Y-86316574D01*
X112559208Y-86163797D01*
X112600500Y-85996270D01*
X112600500Y-85823730D01*
X112559208Y-85656203D01*
X112479024Y-85503426D01*
X112479022Y-85503424D01*
X112479022Y-85503423D01*
X112479020Y-85503420D01*
X112364609Y-85374277D01*
X112222612Y-85276264D01*
X112222613Y-85276264D01*
X112222611Y-85276263D01*
X112222606Y-85276261D01*
X112061285Y-85215079D01*
X112024623Y-85210627D01*
X111932975Y-85199500D01*
X111847025Y-85199500D01*
X111773706Y-85208402D01*
X111718714Y-85215079D01*
X111557393Y-85276261D01*
X111557387Y-85276264D01*
X111415390Y-85374277D01*
X111300979Y-85503420D01*
X111300977Y-85503423D01*
X111220791Y-85656203D01*
X111179500Y-85823729D01*
X111179500Y-85996270D01*
X110250500Y-85996270D01*
X110250500Y-82996270D01*
X111179500Y-82996270D01*
X111220791Y-83163796D01*
X111300977Y-83316576D01*
X111300979Y-83316579D01*
X111415390Y-83445722D01*
X111415391Y-83445723D01*
X111557389Y-83543737D01*
X111718717Y-83604921D01*
X111847025Y-83620500D01*
X111847031Y-83620500D01*
X111932969Y-83620500D01*
X111932975Y-83620500D01*
X112061283Y-83604921D01*
X112222611Y-83543737D01*
X112244639Y-83528532D01*
X140650722Y-83528532D01*
X140669657Y-83696588D01*
X140669657Y-83696590D01*
X140669658Y-83696591D01*
X140725515Y-83856222D01*
X140815494Y-83999422D01*
X140935081Y-84119009D01*
X141078281Y-84208988D01*
X141237912Y-84264845D01*
X141349951Y-84277468D01*
X141405970Y-84283781D01*
X141405971Y-84283781D01*
X141405972Y-84283781D01*
X141447985Y-84279046D01*
X141574030Y-84264845D01*
X141733661Y-84208988D01*
X141876861Y-84119009D01*
X141996448Y-83999422D01*
X142086427Y-83856222D01*
X142142284Y-83696591D01*
X142161220Y-83528532D01*
X142142284Y-83360473D01*
X142086427Y-83200842D01*
X141996448Y-83057642D01*
X141876861Y-82938055D01*
X141733661Y-82848076D01*
X141574030Y-82792219D01*
X141574029Y-82792218D01*
X141574027Y-82792218D01*
X141405972Y-82773283D01*
X141405970Y-82773283D01*
X141237914Y-82792218D01*
X141078280Y-82848076D01*
X140935081Y-82938055D01*
X140935079Y-82938055D01*
X140815494Y-83057641D01*
X140815494Y-83057642D01*
X140725515Y-83200841D01*
X140669657Y-83360475D01*
X140650722Y-83528531D01*
X140650722Y-83528532D01*
X112244639Y-83528532D01*
X112364609Y-83445723D01*
X112479024Y-83316574D01*
X112559208Y-83163797D01*
X112600500Y-82996270D01*
X112600500Y-82823730D01*
X112559208Y-82656203D01*
X112479024Y-82503426D01*
X112479022Y-82503424D01*
X112479022Y-82503423D01*
X112479020Y-82503420D01*
X112364609Y-82374277D01*
X112337042Y-82355249D01*
X112222611Y-82276263D01*
X112222606Y-82276261D01*
X112061285Y-82215079D01*
X112024623Y-82210627D01*
X111932975Y-82199500D01*
X111847025Y-82199500D01*
X111773706Y-82208402D01*
X111718714Y-82215079D01*
X111557393Y-82276261D01*
X111557387Y-82276264D01*
X111415390Y-82374277D01*
X111300979Y-82503420D01*
X111300977Y-82503423D01*
X111220791Y-82656203D01*
X111179500Y-82823729D01*
X111179500Y-82996270D01*
X110250500Y-82996270D01*
X110250500Y-81600000D01*
X138744751Y-81600000D01*
X138763686Y-81768056D01*
X138763686Y-81768058D01*
X138763687Y-81768059D01*
X138819544Y-81927690D01*
X138909523Y-82070890D01*
X139029110Y-82190477D01*
X139172310Y-82280456D01*
X139331941Y-82336313D01*
X139443980Y-82348936D01*
X139499999Y-82355249D01*
X139500000Y-82355249D01*
X139500001Y-82355249D01*
X139542014Y-82350515D01*
X139668059Y-82336313D01*
X139827690Y-82280456D01*
X139970890Y-82190477D01*
X140090477Y-82070890D01*
X140180456Y-81927690D01*
X140236313Y-81768059D01*
X140255249Y-81600000D01*
X140236313Y-81431941D01*
X140180456Y-81272310D01*
X140090477Y-81129110D01*
X139970890Y-81009523D01*
X139827690Y-80919544D01*
X139668059Y-80863687D01*
X139668058Y-80863686D01*
X139668056Y-80863686D01*
X139500001Y-80844751D01*
X139499999Y-80844751D01*
X139331943Y-80863686D01*
X139172309Y-80919544D01*
X139029110Y-81009523D01*
X139029108Y-81009524D01*
X138909524Y-81129108D01*
X138909523Y-81129110D01*
X138819544Y-81272309D01*
X138763686Y-81431943D01*
X138744751Y-81599999D01*
X138744751Y-81600000D01*
X110250500Y-81600000D01*
X110250500Y-80300000D01*
X164894751Y-80300000D01*
X164913686Y-80468056D01*
X164913686Y-80468058D01*
X164913687Y-80468059D01*
X164969544Y-80627690D01*
X165059523Y-80770890D01*
X165179110Y-80890477D01*
X165322310Y-80980456D01*
X165481941Y-81036313D01*
X165593980Y-81048936D01*
X165649999Y-81055249D01*
X165650000Y-81055249D01*
X165650001Y-81055249D01*
X165692014Y-81050515D01*
X165818059Y-81036313D01*
X165977690Y-80980456D01*
X166120890Y-80890477D01*
X166240477Y-80770890D01*
X166250426Y-80755056D01*
X173069500Y-80755056D01*
X173110209Y-80920224D01*
X173189267Y-81070854D01*
X173302067Y-81198179D01*
X173302071Y-81198183D01*
X173442070Y-81294818D01*
X173601128Y-81355140D01*
X173727628Y-81370500D01*
X173727634Y-81370500D01*
X174912365Y-81370500D01*
X174912372Y-81370500D01*
X175038872Y-81355140D01*
X175197930Y-81294818D01*
X175337929Y-81198183D01*
X175450734Y-81070852D01*
X175529790Y-80920225D01*
X175570500Y-80755056D01*
X175570500Y-80584944D01*
X175529790Y-80419775D01*
X175450734Y-80269148D01*
X175450732Y-80269146D01*
X175450732Y-80269145D01*
X175337932Y-80141820D01*
X175337930Y-80141819D01*
X175337929Y-80141817D01*
X175197930Y-80045182D01*
X175197928Y-80045181D01*
X175151488Y-80027569D01*
X175088908Y-79982486D01*
X175057253Y-79912153D01*
X175065005Y-79835416D01*
X175110088Y-79772836D01*
X175137054Y-79756719D01*
X175136821Y-79756315D01*
X175145272Y-79751434D01*
X175145276Y-79751433D01*
X175267583Y-79657583D01*
X175361433Y-79535276D01*
X175420429Y-79392846D01*
X175420429Y-79392845D01*
X175420430Y-79392843D01*
X175440552Y-79240002D01*
X175440552Y-79239997D01*
X175420430Y-79087156D01*
X175361433Y-78944723D01*
X175306123Y-78872643D01*
X175267583Y-78822417D01*
X175239211Y-78800646D01*
X175145276Y-78728566D01*
X175002843Y-78669569D01*
X174888378Y-78654500D01*
X174888373Y-78654500D01*
X174811627Y-78654500D01*
X174811621Y-78654500D01*
X174697156Y-78669569D01*
X174554723Y-78728566D01*
X174432419Y-78822415D01*
X174432415Y-78822419D01*
X174338566Y-78944723D01*
X174279569Y-79087156D01*
X174259448Y-79239997D01*
X174259448Y-79240002D01*
X174279569Y-79392843D01*
X174338566Y-79535276D01*
X174403228Y-79619544D01*
X174432417Y-79657583D01*
X174490683Y-79702292D01*
X174537634Y-79763481D01*
X174547700Y-79839950D01*
X174518184Y-79911207D01*
X174456994Y-79958159D01*
X174399975Y-79969500D01*
X173727628Y-79969500D01*
X173648565Y-79979100D01*
X173601125Y-79984860D01*
X173442070Y-80045181D01*
X173302071Y-80141817D01*
X173302067Y-80141820D01*
X173189267Y-80269145D01*
X173110209Y-80419775D01*
X173069500Y-80584943D01*
X173069500Y-80755056D01*
X166250426Y-80755056D01*
X166330456Y-80627690D01*
X166386313Y-80468059D01*
X166405249Y-80300000D01*
X166386313Y-80131941D01*
X166330456Y-79972310D01*
X166240477Y-79829110D01*
X166120890Y-79709523D01*
X165977690Y-79619544D01*
X165818059Y-79563687D01*
X165818058Y-79563686D01*
X165818056Y-79563686D01*
X165650001Y-79544751D01*
X165649999Y-79544751D01*
X165481943Y-79563686D01*
X165322309Y-79619544D01*
X165179110Y-79709523D01*
X165179109Y-79709523D01*
X165059523Y-79829108D01*
X165059523Y-79829110D01*
X164969544Y-79972309D01*
X164913686Y-80131943D01*
X164894751Y-80299999D01*
X164894751Y-80300000D01*
X110250500Y-80300000D01*
X110250500Y-79224241D01*
X135258745Y-79224241D01*
X135277680Y-79392297D01*
X135277680Y-79392299D01*
X135277681Y-79392300D01*
X135333538Y-79551931D01*
X135423517Y-79695131D01*
X135543104Y-79814718D01*
X135686304Y-79904697D01*
X135845935Y-79960554D01*
X135925332Y-79969500D01*
X136013993Y-79979490D01*
X136013994Y-79979490D01*
X136013995Y-79979490D01*
X136077726Y-79972309D01*
X136182053Y-79960554D01*
X136341684Y-79904697D01*
X136484884Y-79814718D01*
X136604471Y-79695131D01*
X136694450Y-79551931D01*
X136750307Y-79392300D01*
X136769243Y-79224241D01*
X136750307Y-79056182D01*
X136694450Y-78896551D01*
X136604471Y-78753351D01*
X136551120Y-78700000D01*
X159195251Y-78700000D01*
X159214186Y-78868056D01*
X159214186Y-78868058D01*
X159214187Y-78868059D01*
X159270044Y-79027690D01*
X159360023Y-79170890D01*
X159479610Y-79290477D01*
X159622810Y-79380456D01*
X159782441Y-79436313D01*
X159894480Y-79448936D01*
X159950499Y-79455249D01*
X159950500Y-79455249D01*
X159950501Y-79455249D01*
X159992514Y-79450515D01*
X160118559Y-79436313D01*
X160278190Y-79380456D01*
X160421390Y-79290477D01*
X160540977Y-79170890D01*
X160630956Y-79027690D01*
X160686813Y-78868059D01*
X160705749Y-78700000D01*
X160686813Y-78531941D01*
X160630956Y-78372310D01*
X160540977Y-78229110D01*
X160421390Y-78109523D01*
X160278190Y-78019544D01*
X160118559Y-77963687D01*
X160118558Y-77963686D01*
X160118556Y-77963686D01*
X159950501Y-77944751D01*
X159950499Y-77944751D01*
X159782443Y-77963686D01*
X159622809Y-78019544D01*
X159479610Y-78109523D01*
X159479609Y-78109523D01*
X159360024Y-78229108D01*
X159360023Y-78229110D01*
X159270044Y-78372309D01*
X159214186Y-78531943D01*
X159195251Y-78699999D01*
X159195251Y-78700000D01*
X136551120Y-78700000D01*
X136484884Y-78633764D01*
X136341684Y-78543785D01*
X136182053Y-78487928D01*
X136182052Y-78487927D01*
X136182050Y-78487927D01*
X136013995Y-78468992D01*
X136013993Y-78468992D01*
X135845937Y-78487927D01*
X135686303Y-78543785D01*
X135543104Y-78633764D01*
X135543102Y-78633765D01*
X135423517Y-78753350D01*
X135423517Y-78753351D01*
X135333538Y-78896550D01*
X135277680Y-79056184D01*
X135258745Y-79224240D01*
X135258745Y-79224241D01*
X110250500Y-79224241D01*
X110250500Y-77593438D01*
X137428203Y-77593438D01*
X137447138Y-77761494D01*
X137447138Y-77761496D01*
X137447139Y-77761497D01*
X137502996Y-77921128D01*
X137592975Y-78064328D01*
X137712562Y-78183915D01*
X137855762Y-78273894D01*
X138015393Y-78329751D01*
X138127432Y-78342375D01*
X138183451Y-78348687D01*
X138183452Y-78348687D01*
X138183453Y-78348687D01*
X138225466Y-78343952D01*
X138351511Y-78329751D01*
X138511142Y-78273894D01*
X138654342Y-78183915D01*
X138773929Y-78064328D01*
X138863908Y-77921128D01*
X138919765Y-77761497D01*
X138938701Y-77593438D01*
X138919765Y-77425379D01*
X138863908Y-77265748D01*
X138773929Y-77122548D01*
X138773928Y-77122547D01*
X138773928Y-77122546D01*
X138654342Y-77002961D01*
X138511142Y-76912982D01*
X138351508Y-76857124D01*
X138183453Y-76838189D01*
X138183451Y-76838189D01*
X138015395Y-76857124D01*
X137855761Y-76912982D01*
X137712562Y-77002961D01*
X137712560Y-77002961D01*
X137592975Y-77122547D01*
X137592975Y-77122548D01*
X137502996Y-77265747D01*
X137447138Y-77425381D01*
X137428203Y-77593437D01*
X137428203Y-77593438D01*
X110250500Y-77593438D01*
X110250500Y-75223653D01*
X130065673Y-75223653D01*
X130096354Y-75397651D01*
X130166333Y-75559882D01*
X130271837Y-75701597D01*
X130271838Y-75701597D01*
X130271840Y-75701600D01*
X130407185Y-75815168D01*
X130565072Y-75894462D01*
X130736991Y-75935208D01*
X130736994Y-75935208D01*
X130869346Y-75935208D01*
X130869350Y-75935208D01*
X131000817Y-75919842D01*
X131166842Y-75859413D01*
X131314457Y-75762326D01*
X131435703Y-75633813D01*
X131524043Y-75480803D01*
X131573148Y-75316781D01*
X131613636Y-75251142D01*
X131681524Y-75214536D01*
X131758619Y-75216779D01*
X131824264Y-75257270D01*
X131856813Y-75311139D01*
X131919461Y-75493626D01*
X131919462Y-75493628D01*
X131971873Y-75590476D01*
X132033669Y-75704664D01*
X132033672Y-75704669D01*
X132181053Y-75894026D01*
X132181056Y-75894029D01*
X132181058Y-75894031D01*
X132357603Y-76056552D01*
X132558490Y-76187798D01*
X132558492Y-76187799D01*
X132778237Y-76284188D01*
X132778238Y-76284188D01*
X132778240Y-76284189D01*
X133010859Y-76343096D01*
X133190118Y-76357950D01*
X133190123Y-76357950D01*
X133309877Y-76357950D01*
X133309882Y-76357950D01*
X133489141Y-76343096D01*
X133721760Y-76284189D01*
X133941510Y-76187798D01*
X134142397Y-76056552D01*
X134318942Y-75894031D01*
X134466329Y-75704668D01*
X134580538Y-75493628D01*
X134658453Y-75266669D01*
X134697950Y-75029981D01*
X134697950Y-75000000D01*
X143144751Y-75000000D01*
X143163686Y-75168056D01*
X143163686Y-75168058D01*
X143163687Y-75168059D01*
X143219544Y-75327690D01*
X143309523Y-75470890D01*
X143429110Y-75590477D01*
X143572310Y-75680456D01*
X143731941Y-75736313D01*
X143843980Y-75748936D01*
X143899999Y-75755249D01*
X143900000Y-75755249D01*
X143900001Y-75755249D01*
X143942014Y-75750515D01*
X144068059Y-75736313D01*
X144227690Y-75680456D01*
X144370890Y-75590477D01*
X144490477Y-75470890D01*
X144580456Y-75327690D01*
X144636313Y-75168059D01*
X144655249Y-75000000D01*
X147694751Y-75000000D01*
X147713686Y-75168056D01*
X147713686Y-75168058D01*
X147713687Y-75168059D01*
X147769544Y-75327690D01*
X147859523Y-75470890D01*
X147979110Y-75590477D01*
X148122310Y-75680456D01*
X148281941Y-75736313D01*
X148393980Y-75748936D01*
X148449999Y-75755249D01*
X148450000Y-75755249D01*
X148450001Y-75755249D01*
X148492014Y-75750515D01*
X148618059Y-75736313D01*
X148777690Y-75680456D01*
X148920890Y-75590477D01*
X149040477Y-75470890D01*
X149130456Y-75327690D01*
X149186313Y-75168059D01*
X149205249Y-75000000D01*
X149186313Y-74831941D01*
X149130456Y-74672310D01*
X149040477Y-74529110D01*
X148920890Y-74409523D01*
X148777690Y-74319544D01*
X148618059Y-74263687D01*
X148618058Y-74263686D01*
X148618056Y-74263686D01*
X148450001Y-74244751D01*
X148449999Y-74244751D01*
X148281943Y-74263686D01*
X148122309Y-74319544D01*
X147979110Y-74409523D01*
X147979109Y-74409523D01*
X147859523Y-74529108D01*
X147859523Y-74529110D01*
X147769544Y-74672309D01*
X147713686Y-74831943D01*
X147694751Y-74999999D01*
X147694751Y-75000000D01*
X144655249Y-75000000D01*
X144636313Y-74831941D01*
X144580456Y-74672310D01*
X144490477Y-74529110D01*
X144370890Y-74409523D01*
X144227690Y-74319544D01*
X144068059Y-74263687D01*
X144068058Y-74263686D01*
X144068056Y-74263686D01*
X143900001Y-74244751D01*
X143899999Y-74244751D01*
X143731943Y-74263686D01*
X143572309Y-74319544D01*
X143429110Y-74409523D01*
X143429108Y-74409524D01*
X143309524Y-74529108D01*
X143309523Y-74529110D01*
X143219544Y-74672309D01*
X143163686Y-74831943D01*
X143144751Y-74999999D01*
X143144751Y-75000000D01*
X134697950Y-75000000D01*
X134697950Y-74790019D01*
X134658453Y-74553331D01*
X134580538Y-74326372D01*
X134466329Y-74115332D01*
X134411976Y-74045499D01*
X134391079Y-74018650D01*
X134361073Y-73947598D01*
X134370614Y-73871062D01*
X134417144Y-73809551D01*
X134488196Y-73779545D01*
X134564732Y-73789086D01*
X134600176Y-73809549D01*
X134602660Y-73811482D01*
X134602667Y-73811488D01*
X134803554Y-73942734D01*
X134803556Y-73942735D01*
X135023301Y-74039124D01*
X135023302Y-74039124D01*
X135023304Y-74039125D01*
X135255923Y-74098032D01*
X135435182Y-74112886D01*
X135435187Y-74112886D01*
X135554941Y-74112886D01*
X135554946Y-74112886D01*
X135734205Y-74098032D01*
X135966824Y-74039125D01*
X136186574Y-73942734D01*
X136387461Y-73811488D01*
X136564006Y-73648967D01*
X136711393Y-73459604D01*
X136825602Y-73248564D01*
X136903517Y-73021605D01*
X136943014Y-72784917D01*
X136943014Y-72544955D01*
X136903517Y-72308267D01*
X136837188Y-72115056D01*
X173069500Y-72115056D01*
X173110209Y-72280224D01*
X173189267Y-72430854D01*
X173302067Y-72558179D01*
X173302071Y-72558183D01*
X173442069Y-72654818D01*
X173442070Y-72654818D01*
X173544151Y-72693532D01*
X173601128Y-72715140D01*
X173727628Y-72730500D01*
X173727634Y-72730500D01*
X174399975Y-72730500D01*
X174474475Y-72750462D01*
X174529013Y-72805000D01*
X174548975Y-72879500D01*
X174529013Y-72954000D01*
X174490683Y-72997707D01*
X174432420Y-73042415D01*
X174432416Y-73042418D01*
X174432415Y-73042419D01*
X174338566Y-73164723D01*
X174279569Y-73307156D01*
X174259448Y-73459997D01*
X174259448Y-73460002D01*
X174279569Y-73612843D01*
X174338566Y-73755276D01*
X174381696Y-73811483D01*
X174432417Y-73877583D01*
X174482643Y-73916123D01*
X174554723Y-73971433D01*
X174697156Y-74030430D01*
X174786223Y-74042155D01*
X174811622Y-74045499D01*
X174811625Y-74045500D01*
X174811627Y-74045500D01*
X174888375Y-74045500D01*
X174888376Y-74045499D01*
X174936795Y-74039125D01*
X175002843Y-74030430D01*
X175002845Y-74030429D01*
X175002846Y-74030429D01*
X175145276Y-73971433D01*
X175267583Y-73877583D01*
X175361433Y-73755276D01*
X175420429Y-73612846D01*
X175420429Y-73612845D01*
X175420430Y-73612843D01*
X175440552Y-73460002D01*
X175440552Y-73459997D01*
X175420430Y-73307156D01*
X175361433Y-73164723D01*
X175283041Y-73062562D01*
X175267583Y-73042417D01*
X175155177Y-72956164D01*
X175145275Y-72948566D01*
X175136821Y-72943685D01*
X175137749Y-72942077D01*
X175086107Y-72902445D01*
X175056596Y-72831186D01*
X175066669Y-72754718D01*
X175113626Y-72693532D01*
X175151483Y-72672432D01*
X175197930Y-72654818D01*
X175337929Y-72558183D01*
X175450734Y-72430852D01*
X175529790Y-72280225D01*
X175570500Y-72115056D01*
X175570500Y-71944944D01*
X175529790Y-71779775D01*
X175450734Y-71629148D01*
X175450732Y-71629146D01*
X175450732Y-71629145D01*
X175337932Y-71501820D01*
X175337930Y-71501819D01*
X175337929Y-71501817D01*
X175197930Y-71405182D01*
X175197929Y-71405181D01*
X175038874Y-71344860D01*
X175002729Y-71340471D01*
X174912372Y-71329500D01*
X173727628Y-71329500D01*
X173648565Y-71339100D01*
X173601125Y-71344860D01*
X173442070Y-71405181D01*
X173302071Y-71501817D01*
X173302067Y-71501820D01*
X173189267Y-71629145D01*
X173110209Y-71779775D01*
X173069500Y-71944943D01*
X173069500Y-72115056D01*
X136837188Y-72115056D01*
X136825602Y-72081308D01*
X136711393Y-71870268D01*
X136660679Y-71805111D01*
X136564010Y-71680909D01*
X136564007Y-71680906D01*
X136507783Y-71629148D01*
X136387461Y-71518384D01*
X136186574Y-71387138D01*
X136186571Y-71387136D01*
X135966826Y-71290747D01*
X135874715Y-71267422D01*
X135734205Y-71231840D01*
X135734200Y-71231839D01*
X135734202Y-71231839D01*
X135618653Y-71222264D01*
X135554946Y-71216986D01*
X135435182Y-71216986D01*
X135366599Y-71222668D01*
X135255927Y-71231839D01*
X135023301Y-71290747D01*
X134803556Y-71387136D01*
X134725889Y-71437879D01*
X134602667Y-71518384D01*
X134602664Y-71518386D01*
X134602662Y-71518388D01*
X134426120Y-71680906D01*
X134426117Y-71680909D01*
X134278736Y-71870266D01*
X134278733Y-71870271D01*
X134164525Y-72081309D01*
X134086612Y-72308262D01*
X134086611Y-72308266D01*
X134086611Y-72308267D01*
X134066155Y-72430854D01*
X134047114Y-72544957D01*
X134047114Y-72784914D01*
X134047113Y-72784914D01*
X134050465Y-72805000D01*
X134083361Y-73002132D01*
X134086612Y-73021609D01*
X134164525Y-73248562D01*
X134278733Y-73459600D01*
X134278736Y-73459605D01*
X134353984Y-73556285D01*
X134383990Y-73627337D01*
X134374449Y-73703873D01*
X134327919Y-73765384D01*
X134256867Y-73795390D01*
X134180331Y-73785849D01*
X134144889Y-73765388D01*
X134142401Y-73763451D01*
X134142398Y-73763449D01*
X134142397Y-73763448D01*
X133941510Y-73632202D01*
X133941507Y-73632200D01*
X133721762Y-73535811D01*
X133629651Y-73512486D01*
X133489141Y-73476904D01*
X133489136Y-73476903D01*
X133489138Y-73476903D01*
X133373589Y-73467328D01*
X133309882Y-73462050D01*
X133190118Y-73462050D01*
X133121535Y-73467732D01*
X133010863Y-73476903D01*
X132778237Y-73535811D01*
X132558492Y-73632200D01*
X132460861Y-73695985D01*
X132357603Y-73763448D01*
X132357600Y-73763450D01*
X132357598Y-73763452D01*
X132181056Y-73925970D01*
X132181053Y-73925973D01*
X132033672Y-74115330D01*
X132033669Y-74115335D01*
X131919461Y-74326373D01*
X131841548Y-74553326D01*
X131841547Y-74553330D01*
X131841547Y-74553331D01*
X131812900Y-74725003D01*
X131802050Y-74790021D01*
X131802050Y-74813888D01*
X131782088Y-74888388D01*
X131727550Y-74942926D01*
X131653050Y-74962888D01*
X131578550Y-74942926D01*
X131524012Y-74888388D01*
X131516236Y-74872904D01*
X131484328Y-74798934D01*
X131378824Y-74657218D01*
X131378823Y-74657217D01*
X131378822Y-74657216D01*
X131243477Y-74543648D01*
X131085590Y-74464354D01*
X130913671Y-74423608D01*
X130781312Y-74423608D01*
X130676138Y-74435900D01*
X130649844Y-74438974D01*
X130649842Y-74438975D01*
X130483819Y-74499403D01*
X130336203Y-74596491D01*
X130214960Y-74725001D01*
X130214958Y-74725003D01*
X130126620Y-74878011D01*
X130126617Y-74878017D01*
X130075946Y-75047269D01*
X130065673Y-75223647D01*
X130065673Y-75223653D01*
X110250500Y-75223653D01*
X110250500Y-71437876D01*
X128209947Y-71437876D01*
X128220618Y-71501820D01*
X128238556Y-71609317D01*
X128249446Y-71674571D01*
X128327359Y-71901524D01*
X128441567Y-72112562D01*
X128441570Y-72112567D01*
X128588951Y-72301924D01*
X128588954Y-72301927D01*
X128588956Y-72301929D01*
X128765501Y-72464450D01*
X128966388Y-72595696D01*
X129186138Y-72692087D01*
X129248299Y-72707828D01*
X129315617Y-72745466D01*
X129355098Y-72811723D01*
X129356162Y-72888844D01*
X129318523Y-72956164D01*
X129252266Y-72995645D01*
X129229023Y-73000260D01*
X129213009Y-73002132D01*
X129213005Y-73002132D01*
X129213004Y-73002133D01*
X129213001Y-73002133D01*
X129213001Y-73002134D01*
X129046978Y-73062562D01*
X128899362Y-73159650D01*
X128778119Y-73288160D01*
X128778117Y-73288162D01*
X128689779Y-73441170D01*
X128689776Y-73441176D01*
X128639105Y-73610428D01*
X128628832Y-73786806D01*
X128628832Y-73786812D01*
X128659513Y-73960810D01*
X128729492Y-74123041D01*
X128834996Y-74264756D01*
X128834997Y-74264756D01*
X128834999Y-74264759D01*
X128970344Y-74378327D01*
X129128231Y-74457621D01*
X129300150Y-74498367D01*
X129300153Y-74498367D01*
X129432505Y-74498367D01*
X129432509Y-74498367D01*
X129563976Y-74483001D01*
X129730001Y-74422572D01*
X129877616Y-74325485D01*
X129998862Y-74196972D01*
X130087202Y-74043962D01*
X130137875Y-73874704D01*
X130148148Y-73698322D01*
X130117467Y-73524326D01*
X130097012Y-73476904D01*
X130047487Y-73362092D01*
X129941983Y-73220377D01*
X129941982Y-73220376D01*
X129941981Y-73220375D01*
X129806636Y-73106807D01*
X129684939Y-73045688D01*
X129627324Y-72994414D01*
X129603064Y-72921201D01*
X129618661Y-72845666D01*
X129669936Y-72788050D01*
X129739505Y-72764047D01*
X129897039Y-72750994D01*
X130129658Y-72692087D01*
X130349408Y-72595696D01*
X130550295Y-72464450D01*
X130726840Y-72301929D01*
X130874227Y-72112566D01*
X130988436Y-71901526D01*
X131066351Y-71674567D01*
X131105848Y-71437879D01*
X131105848Y-71197917D01*
X131066351Y-70961229D01*
X131049839Y-70913130D01*
X132939355Y-70913130D01*
X132970036Y-71087128D01*
X133040015Y-71249359D01*
X133145519Y-71391074D01*
X133145520Y-71391074D01*
X133145522Y-71391077D01*
X133280867Y-71504645D01*
X133438754Y-71583939D01*
X133610673Y-71624685D01*
X133610676Y-71624685D01*
X133743028Y-71624685D01*
X133743032Y-71624685D01*
X133874499Y-71609319D01*
X134040524Y-71548890D01*
X134188139Y-71451803D01*
X134309385Y-71323290D01*
X134397725Y-71170280D01*
X134448398Y-71001022D01*
X134458671Y-70824640D01*
X134427990Y-70650644D01*
X134358011Y-70488413D01*
X134315420Y-70431204D01*
X134286944Y-70359527D01*
X134298121Y-70283213D01*
X134345958Y-70222712D01*
X134417636Y-70194235D01*
X134451619Y-70194164D01*
X134549999Y-70205249D01*
X134550000Y-70205249D01*
X134550001Y-70205249D01*
X134592014Y-70200515D01*
X134718059Y-70186313D01*
X134877690Y-70130456D01*
X135020890Y-70040477D01*
X135140477Y-69920890D01*
X135230456Y-69777690D01*
X135286313Y-69618059D01*
X135305249Y-69450000D01*
X135286313Y-69281941D01*
X135230456Y-69122310D01*
X135140477Y-68979110D01*
X135020890Y-68859523D01*
X134877690Y-68769544D01*
X134718059Y-68713687D01*
X134718058Y-68713686D01*
X134718056Y-68713686D01*
X134550001Y-68694751D01*
X134549999Y-68694751D01*
X134381943Y-68713686D01*
X134222309Y-68769544D01*
X134079110Y-68859523D01*
X134079109Y-68859523D01*
X133959523Y-68979109D01*
X133959523Y-68979110D01*
X133869544Y-69122309D01*
X133813686Y-69281943D01*
X133794751Y-69449999D01*
X133794751Y-69450000D01*
X133813686Y-69618056D01*
X133869544Y-69777690D01*
X133938015Y-69886661D01*
X133960749Y-69960363D01*
X133943586Y-70035557D01*
X133891126Y-70092096D01*
X133817424Y-70114830D01*
X133794558Y-70113927D01*
X133787353Y-70113085D01*
X133654994Y-70113085D01*
X133549820Y-70125377D01*
X133523526Y-70128451D01*
X133523524Y-70128452D01*
X133357501Y-70188880D01*
X133209885Y-70285968D01*
X133088642Y-70414478D01*
X133088640Y-70414480D01*
X133000302Y-70567488D01*
X133000299Y-70567494D01*
X132949628Y-70736746D01*
X132939355Y-70913124D01*
X132939355Y-70913130D01*
X131049839Y-70913130D01*
X130988436Y-70734270D01*
X130874227Y-70523230D01*
X130814912Y-70447022D01*
X130798977Y-70426548D01*
X130768971Y-70355496D01*
X130778512Y-70278960D01*
X130825042Y-70217449D01*
X130896094Y-70187443D01*
X130972630Y-70196984D01*
X131008074Y-70217447D01*
X131010558Y-70219380D01*
X131010565Y-70219386D01*
X131205423Y-70346693D01*
X131211454Y-70350633D01*
X131431199Y-70447022D01*
X131431200Y-70447022D01*
X131431202Y-70447023D01*
X131663821Y-70505930D01*
X131843080Y-70520784D01*
X131843085Y-70520784D01*
X131962839Y-70520784D01*
X131962844Y-70520784D01*
X132142103Y-70505930D01*
X132374722Y-70447023D01*
X132594472Y-70350632D01*
X132795359Y-70219386D01*
X132971904Y-70056865D01*
X133119291Y-69867502D01*
X133233500Y-69656462D01*
X133311415Y-69429503D01*
X133350912Y-69192815D01*
X133350912Y-68952853D01*
X133311415Y-68716165D01*
X133233500Y-68489206D01*
X133119291Y-68278166D01*
X133070161Y-68215044D01*
X132971908Y-68088807D01*
X132971905Y-68088804D01*
X132795363Y-67926286D01*
X132795364Y-67926286D01*
X132795359Y-67926282D01*
X132594472Y-67795036D01*
X132594469Y-67795034D01*
X132374724Y-67698645D01*
X132282613Y-67675320D01*
X132142103Y-67639738D01*
X132142098Y-67639737D01*
X132142100Y-67639737D01*
X132026551Y-67630162D01*
X131962844Y-67624884D01*
X131843080Y-67624884D01*
X131774497Y-67630566D01*
X131663825Y-67639737D01*
X131431199Y-67698645D01*
X131211454Y-67795034D01*
X131113823Y-67858819D01*
X131010565Y-67926282D01*
X131010562Y-67926284D01*
X131010560Y-67926286D01*
X130834018Y-68088804D01*
X130834015Y-68088807D01*
X130686634Y-68278164D01*
X130686631Y-68278169D01*
X130572424Y-68489205D01*
X130540733Y-68581518D01*
X130497662Y-68645499D01*
X130428370Y-68679373D01*
X130351425Y-68674064D01*
X130320535Y-68659300D01*
X130177690Y-68569544D01*
X130018059Y-68513687D01*
X130018058Y-68513686D01*
X130018056Y-68513686D01*
X129850001Y-68494751D01*
X129849999Y-68494751D01*
X129681943Y-68513686D01*
X129522309Y-68569544D01*
X129379110Y-68659523D01*
X129379109Y-68659523D01*
X129259523Y-68779109D01*
X129259523Y-68779110D01*
X129169544Y-68922309D01*
X129113686Y-69081943D01*
X129094751Y-69249999D01*
X129094751Y-69250000D01*
X129113686Y-69418056D01*
X129169544Y-69577690D01*
X129261656Y-69724285D01*
X129284390Y-69797986D01*
X129267227Y-69873181D01*
X129214767Y-69929720D01*
X129191592Y-69940800D01*
X129191782Y-69941233D01*
X128966390Y-70040098D01*
X128886802Y-70092096D01*
X128765501Y-70171346D01*
X128765498Y-70171348D01*
X128765496Y-70171350D01*
X128588954Y-70333868D01*
X128588951Y-70333871D01*
X128441570Y-70523228D01*
X128441567Y-70523233D01*
X128327359Y-70734271D01*
X128249446Y-70961224D01*
X128249445Y-70961228D01*
X128249445Y-70961229D01*
X128242805Y-71001023D01*
X128209948Y-71197919D01*
X128209948Y-71437876D01*
X128209947Y-71437876D01*
X110250500Y-71437876D01*
X110250500Y-66500000D01*
X151994751Y-66500000D01*
X152013686Y-66668056D01*
X152013686Y-66668058D01*
X152013687Y-66668059D01*
X152069544Y-66827690D01*
X152159523Y-66970890D01*
X152279110Y-67090477D01*
X152422310Y-67180456D01*
X152581941Y-67236313D01*
X152693980Y-67248936D01*
X152749999Y-67255249D01*
X152750000Y-67255249D01*
X152750001Y-67255249D01*
X152792014Y-67250515D01*
X152918059Y-67236313D01*
X153077690Y-67180456D01*
X153220890Y-67090477D01*
X153340477Y-66970890D01*
X153430456Y-66827690D01*
X153486313Y-66668059D01*
X153505249Y-66500000D01*
X153486313Y-66331941D01*
X153430456Y-66172310D01*
X153340477Y-66029110D01*
X153220890Y-65909523D01*
X153077690Y-65819544D01*
X152918059Y-65763687D01*
X152918058Y-65763686D01*
X152918056Y-65763686D01*
X152750001Y-65744751D01*
X152749999Y-65744751D01*
X152581943Y-65763686D01*
X152422309Y-65819544D01*
X152279110Y-65909523D01*
X152279109Y-65909523D01*
X152159523Y-66029108D01*
X152159523Y-66029110D01*
X152069544Y-66172309D01*
X152013686Y-66331943D01*
X151994751Y-66499999D01*
X151994751Y-66500000D01*
X110250500Y-66500000D01*
X110250500Y-63499999D01*
X110268431Y-63089303D01*
X110268995Y-63082846D01*
X110322235Y-62678455D01*
X110323353Y-62672110D01*
X110411630Y-62273918D01*
X110413313Y-62267638D01*
X110535952Y-61878677D01*
X110538176Y-61872567D01*
X110694245Y-61495782D01*
X110696985Y-61489904D01*
X110885311Y-61128132D01*
X110888551Y-61122520D01*
X111107690Y-60778540D01*
X111111417Y-60773218D01*
X111359715Y-60449630D01*
X111363848Y-60444704D01*
X111639405Y-60143986D01*
X111643986Y-60139405D01*
X111944704Y-59863848D01*
X111949630Y-59859715D01*
X112273225Y-59611412D01*
X112278544Y-59607688D01*
X112622520Y-59388551D01*
X112628135Y-59385310D01*
X112989904Y-59196985D01*
X112995773Y-59194249D01*
X113372566Y-59038176D01*
X113378677Y-59035952D01*
X113767638Y-58913313D01*
X113773919Y-58911630D01*
X114172110Y-58823353D01*
X114178455Y-58822235D01*
X114582846Y-58768995D01*
X114589303Y-58768431D01*
X115000000Y-58750500D01*
X115044170Y-58750500D01*
X174955830Y-58750500D01*
X175000000Y-58750500D01*
X175410694Y-58768431D01*
G37*
%TD.AperFunction*%
%TD*%
M02*
