%TF.GenerationSoftware,KiCad,Pcbnew,7.0.6-0*%
%TF.CreationDate,2024-10-14T12:06:59-04:00*%
%TF.ProjectId,GuitarFX,47756974-6172-4465-982e-6b696361645f,rev?*%
%TF.SameCoordinates,Original*%
%TF.FileFunction,Legend,Top*%
%TF.FilePolarity,Positive*%
%FSLAX46Y46*%
G04 Gerber Fmt 4.6, Leading zero omitted, Abs format (unit mm)*
G04 Created by KiCad (PCBNEW 7.0.6-0) date 2024-10-14 12:06:59*
%MOMM*%
%LPD*%
G01*
G04 APERTURE LIST*
%ADD10C,0.150000*%
%ADD11C,0.200000*%
%ADD12C,0.300000*%
%ADD13C,0.400000*%
%ADD14C,0.125000*%
%ADD15C,0.120000*%
G04 APERTURE END LIST*
D10*
X110950000Y-134850000D02*
X110950000Y-134150000D01*
D11*
X165600000Y-116700000D02*
X179200000Y-116700000D01*
D10*
X110950000Y-126650000D02*
X110950000Y-125950000D01*
D11*
X135550000Y-115300000D02*
X139450000Y-115300000D01*
D10*
X178950000Y-99500000D02*
X178950000Y-98800000D01*
D11*
X110700000Y-115300000D02*
X119500000Y-115300000D01*
X135550000Y-116700000D02*
X139450000Y-116700000D01*
X165600000Y-115300000D02*
X179200000Y-115300000D01*
D10*
X178950000Y-91650000D02*
X178950000Y-90950000D01*
X178950000Y-134850000D02*
X178950000Y-134150000D01*
D11*
X110700000Y-116700000D02*
X118750000Y-116700000D01*
X150500000Y-116700000D02*
X162600000Y-116700000D01*
D10*
X178950000Y-126650000D02*
X178950000Y-125950000D01*
X178600000Y-91300000D02*
X179300000Y-91300000D01*
D11*
X150500000Y-115300000D02*
X157600000Y-115300000D01*
X129600000Y-116700000D02*
X133100000Y-116700000D01*
D10*
X110600000Y-126300000D02*
X111300000Y-126300000D01*
X178600000Y-126300000D02*
X179300000Y-126300000D01*
D11*
X129600000Y-115300000D02*
X133100000Y-115300000D01*
D10*
X111370112Y-89896009D02*
X111512969Y-89943628D01*
X111512969Y-89943628D02*
X111560588Y-89991247D01*
X111560588Y-89991247D02*
X111608207Y-90086485D01*
X111608207Y-90086485D02*
X111608207Y-90229342D01*
X111608207Y-90229342D02*
X111560588Y-90324580D01*
X111560588Y-90324580D02*
X111512969Y-90372200D01*
X111512969Y-90372200D02*
X111417731Y-90419819D01*
X111417731Y-90419819D02*
X111036779Y-90419819D01*
X111036779Y-90419819D02*
X111036779Y-89419819D01*
X111036779Y-89419819D02*
X111370112Y-89419819D01*
X111370112Y-89419819D02*
X111465350Y-89467438D01*
X111465350Y-89467438D02*
X111512969Y-89515057D01*
X111512969Y-89515057D02*
X111560588Y-89610295D01*
X111560588Y-89610295D02*
X111560588Y-89705533D01*
X111560588Y-89705533D02*
X111512969Y-89800771D01*
X111512969Y-89800771D02*
X111465350Y-89848390D01*
X111465350Y-89848390D02*
X111370112Y-89896009D01*
X111370112Y-89896009D02*
X111036779Y-89896009D01*
X112227255Y-89419819D02*
X112417731Y-89419819D01*
X112417731Y-89419819D02*
X112512969Y-89467438D01*
X112512969Y-89467438D02*
X112608207Y-89562676D01*
X112608207Y-89562676D02*
X112655826Y-89753152D01*
X112655826Y-89753152D02*
X112655826Y-90086485D01*
X112655826Y-90086485D02*
X112608207Y-90276961D01*
X112608207Y-90276961D02*
X112512969Y-90372200D01*
X112512969Y-90372200D02*
X112417731Y-90419819D01*
X112417731Y-90419819D02*
X112227255Y-90419819D01*
X112227255Y-90419819D02*
X112132017Y-90372200D01*
X112132017Y-90372200D02*
X112036779Y-90276961D01*
X112036779Y-90276961D02*
X111989160Y-90086485D01*
X111989160Y-90086485D02*
X111989160Y-89753152D01*
X111989160Y-89753152D02*
X112036779Y-89562676D01*
X112036779Y-89562676D02*
X112132017Y-89467438D01*
X112132017Y-89467438D02*
X112227255Y-89419819D01*
X113274874Y-89419819D02*
X113465350Y-89419819D01*
X113465350Y-89419819D02*
X113560588Y-89467438D01*
X113560588Y-89467438D02*
X113655826Y-89562676D01*
X113655826Y-89562676D02*
X113703445Y-89753152D01*
X113703445Y-89753152D02*
X113703445Y-90086485D01*
X113703445Y-90086485D02*
X113655826Y-90276961D01*
X113655826Y-90276961D02*
X113560588Y-90372200D01*
X113560588Y-90372200D02*
X113465350Y-90419819D01*
X113465350Y-90419819D02*
X113274874Y-90419819D01*
X113274874Y-90419819D02*
X113179636Y-90372200D01*
X113179636Y-90372200D02*
X113084398Y-90276961D01*
X113084398Y-90276961D02*
X113036779Y-90086485D01*
X113036779Y-90086485D02*
X113036779Y-89753152D01*
X113036779Y-89753152D02*
X113084398Y-89562676D01*
X113084398Y-89562676D02*
X113179636Y-89467438D01*
X113179636Y-89467438D02*
X113274874Y-89419819D01*
X113989160Y-89419819D02*
X114560588Y-89419819D01*
X114274874Y-90419819D02*
X114274874Y-89419819D01*
D12*
G36*
X174229943Y-90045535D02*
G01*
X174266947Y-90082539D01*
X174311653Y-90171951D01*
X174311653Y-90315418D01*
X174266946Y-90404831D01*
X174229941Y-90441836D01*
X174140529Y-90486542D01*
X173754510Y-90486542D01*
X173754510Y-90000828D01*
X174140529Y-90000828D01*
X174229943Y-90045535D01*
G37*
G36*
X177444229Y-90045535D02*
G01*
X177481233Y-90082539D01*
X177525939Y-90171951D01*
X177525939Y-90315418D01*
X177481232Y-90404831D01*
X177444227Y-90441836D01*
X177354815Y-90486542D01*
X176968796Y-90486542D01*
X176968796Y-90000828D01*
X177354815Y-90000828D01*
X177444229Y-90045535D01*
G37*
G36*
X178040225Y-91715114D02*
G01*
X173240224Y-91715114D01*
X173240224Y-91350828D01*
X173454510Y-91350828D01*
X173474606Y-91425828D01*
X173529510Y-91480732D01*
X173604510Y-91500828D01*
X173679510Y-91480732D01*
X173734414Y-91425828D01*
X173754510Y-91350828D01*
X173754510Y-90786542D01*
X174175939Y-90786542D01*
X174209242Y-90777618D01*
X174243021Y-90770706D01*
X174385878Y-90699278D01*
X174403947Y-90683254D01*
X174424862Y-90671180D01*
X174496291Y-90599751D01*
X174508365Y-90578836D01*
X174524389Y-90560767D01*
X174595817Y-90417909D01*
X174602728Y-90384133D01*
X174611653Y-90350828D01*
X174611653Y-90136542D01*
X174602728Y-90103236D01*
X174595817Y-90069461D01*
X174524389Y-89926603D01*
X174508365Y-89908533D01*
X174496290Y-89887618D01*
X174494243Y-89885571D01*
X174815732Y-89885571D01*
X175172875Y-91385571D01*
X175173951Y-91387562D01*
X175173954Y-91389824D01*
X175192337Y-91421577D01*
X175209796Y-91453877D01*
X175211723Y-91455063D01*
X175212857Y-91457021D01*
X175244654Y-91475328D01*
X175275924Y-91494571D01*
X175278186Y-91494634D01*
X175280147Y-91495763D01*
X175316835Y-91495719D01*
X175353539Y-91496749D01*
X175355530Y-91495672D01*
X175357792Y-91495670D01*
X175389545Y-91477286D01*
X175421845Y-91459828D01*
X175423031Y-91457900D01*
X175424989Y-91456767D01*
X175443296Y-91424969D01*
X175462539Y-91393700D01*
X175462602Y-91391437D01*
X175463731Y-91389477D01*
X175604510Y-90861554D01*
X175745290Y-91389477D01*
X175746418Y-91391437D01*
X175746482Y-91393700D01*
X175765724Y-91424969D01*
X175784032Y-91456767D01*
X175785989Y-91457900D01*
X175787176Y-91459828D01*
X175819475Y-91477286D01*
X175851229Y-91495670D01*
X175853490Y-91495672D01*
X175855482Y-91496749D01*
X175892185Y-91495719D01*
X175928874Y-91495763D01*
X175930834Y-91494634D01*
X175933097Y-91494571D01*
X175964366Y-91475328D01*
X175996164Y-91457021D01*
X175997297Y-91455063D01*
X175999225Y-91453877D01*
X176016683Y-91421577D01*
X176035067Y-91389824D01*
X176035069Y-91387562D01*
X176036146Y-91385571D01*
X176044418Y-91350828D01*
X176668796Y-91350828D01*
X176688892Y-91425828D01*
X176743796Y-91480732D01*
X176818796Y-91500828D01*
X176893796Y-91480732D01*
X176948700Y-91425828D01*
X176968796Y-91350828D01*
X176968796Y-90786542D01*
X177097841Y-90786542D01*
X177553054Y-91436847D01*
X177612527Y-91486765D01*
X177688992Y-91500259D01*
X177761958Y-91473713D01*
X177811876Y-91414240D01*
X177825370Y-91337775D01*
X177798824Y-91264809D01*
X177453497Y-90771485D01*
X177457307Y-90770706D01*
X177600164Y-90699278D01*
X177618233Y-90683254D01*
X177639148Y-90671180D01*
X177710577Y-90599751D01*
X177722651Y-90578836D01*
X177738675Y-90560767D01*
X177810103Y-90417909D01*
X177817014Y-90384133D01*
X177825939Y-90350828D01*
X177825939Y-90136542D01*
X177817014Y-90103236D01*
X177810103Y-90069461D01*
X177738675Y-89926603D01*
X177722651Y-89908533D01*
X177710576Y-89887618D01*
X177639147Y-89816190D01*
X177618232Y-89804115D01*
X177600164Y-89788093D01*
X177457307Y-89716664D01*
X177423526Y-89709751D01*
X177390225Y-89700828D01*
X176818796Y-89700828D01*
X176743796Y-89720924D01*
X176688892Y-89775828D01*
X176668796Y-89850828D01*
X176668796Y-91350828D01*
X176044418Y-91350828D01*
X176393289Y-89885571D01*
X176391111Y-89807956D01*
X176350417Y-89741828D01*
X176282111Y-89704907D01*
X176204496Y-89707085D01*
X176138368Y-89747779D01*
X176101447Y-89816085D01*
X175881991Y-90737797D01*
X175749445Y-90240750D01*
X175749352Y-90240588D01*
X175749352Y-90240404D01*
X175730041Y-90207048D01*
X175710703Y-90173461D01*
X175710542Y-90173367D01*
X175710449Y-90173207D01*
X175677108Y-90154011D01*
X175643506Y-90134557D01*
X175643318Y-90134556D01*
X175643159Y-90134465D01*
X175604718Y-90134511D01*
X175565860Y-90134465D01*
X175565698Y-90134557D01*
X175565514Y-90134558D01*
X175532158Y-90153868D01*
X175498571Y-90173207D01*
X175498477Y-90173367D01*
X175498317Y-90173461D01*
X175479121Y-90206801D01*
X175459667Y-90240404D01*
X175459666Y-90240591D01*
X175459575Y-90240751D01*
X175327029Y-90737797D01*
X175107574Y-89816085D01*
X175070653Y-89747779D01*
X175004525Y-89707085D01*
X174926910Y-89704907D01*
X174858604Y-89741828D01*
X174817910Y-89807956D01*
X174815732Y-89885571D01*
X174494243Y-89885571D01*
X174424861Y-89816190D01*
X174403946Y-89804115D01*
X174385878Y-89788093D01*
X174243021Y-89716664D01*
X174209240Y-89709751D01*
X174175939Y-89700828D01*
X173604510Y-89700828D01*
X173529510Y-89720924D01*
X173474606Y-89775828D01*
X173454510Y-89850828D01*
X173454510Y-91350828D01*
X173240224Y-91350828D01*
X173240224Y-89486542D01*
X178040225Y-89486542D01*
X178040225Y-91715114D01*
G37*
D10*
X117960588Y-108367438D02*
X117865350Y-108319819D01*
X117865350Y-108319819D02*
X117722493Y-108319819D01*
X117722493Y-108319819D02*
X117579636Y-108367438D01*
X117579636Y-108367438D02*
X117484398Y-108462676D01*
X117484398Y-108462676D02*
X117436779Y-108557914D01*
X117436779Y-108557914D02*
X117389160Y-108748390D01*
X117389160Y-108748390D02*
X117389160Y-108891247D01*
X117389160Y-108891247D02*
X117436779Y-109081723D01*
X117436779Y-109081723D02*
X117484398Y-109176961D01*
X117484398Y-109176961D02*
X117579636Y-109272200D01*
X117579636Y-109272200D02*
X117722493Y-109319819D01*
X117722493Y-109319819D02*
X117817731Y-109319819D01*
X117817731Y-109319819D02*
X117960588Y-109272200D01*
X117960588Y-109272200D02*
X118008207Y-109224580D01*
X118008207Y-109224580D02*
X118008207Y-108891247D01*
X118008207Y-108891247D02*
X117817731Y-108891247D01*
X118436779Y-109319819D02*
X118436779Y-108319819D01*
X118436779Y-108319819D02*
X119008207Y-109319819D01*
X119008207Y-109319819D02*
X119008207Y-108319819D01*
X119484398Y-109319819D02*
X119484398Y-108319819D01*
X119484398Y-108319819D02*
X119722493Y-108319819D01*
X119722493Y-108319819D02*
X119865350Y-108367438D01*
X119865350Y-108367438D02*
X119960588Y-108462676D01*
X119960588Y-108462676D02*
X120008207Y-108557914D01*
X120008207Y-108557914D02*
X120055826Y-108748390D01*
X120055826Y-108748390D02*
X120055826Y-108891247D01*
X120055826Y-108891247D02*
X120008207Y-109081723D01*
X120008207Y-109081723D02*
X119960588Y-109176961D01*
X119960588Y-109176961D02*
X119865350Y-109272200D01*
X119865350Y-109272200D02*
X119722493Y-109319819D01*
X119722493Y-109319819D02*
X119484398Y-109319819D01*
D12*
G36*
X112829942Y-125245535D02*
G01*
X112926208Y-125341801D01*
X112983082Y-125569292D01*
X112983082Y-126032363D01*
X112926208Y-126259854D01*
X112829941Y-126356122D01*
X112740529Y-126400828D01*
X112525635Y-126400828D01*
X112436221Y-126356121D01*
X112339954Y-126259854D01*
X112283082Y-126032364D01*
X112283082Y-125569291D01*
X112339954Y-125341802D01*
X112436221Y-125245534D01*
X112525635Y-125200828D01*
X112740529Y-125200828D01*
X112829942Y-125245535D01*
G37*
G36*
X116354512Y-126915114D02*
G01*
X111768796Y-126915114D01*
X111768796Y-126050828D01*
X111983082Y-126050828D01*
X111987872Y-126068705D01*
X111987561Y-126087208D01*
X112058989Y-126372922D01*
X112059621Y-126374060D01*
X112059621Y-126375365D01*
X112078433Y-126407948D01*
X112096675Y-126440809D01*
X112097792Y-126441479D01*
X112098444Y-126442608D01*
X112241302Y-126585466D01*
X112262216Y-126597540D01*
X112280286Y-126613564D01*
X112423144Y-126684992D01*
X112456919Y-126691903D01*
X112490225Y-126700828D01*
X112775939Y-126700828D01*
X112809242Y-126691904D01*
X112843021Y-126684992D01*
X112985878Y-126613564D01*
X113003947Y-126597540D01*
X113024862Y-126585466D01*
X113167719Y-126442608D01*
X113168370Y-126441479D01*
X113169488Y-126440809D01*
X113187744Y-126407922D01*
X113206542Y-126375364D01*
X113206542Y-126374061D01*
X113207174Y-126372923D01*
X113234126Y-126265114D01*
X113625939Y-126265114D01*
X113634862Y-126298415D01*
X113641775Y-126332196D01*
X113713204Y-126475053D01*
X113729226Y-126493121D01*
X113741302Y-126514037D01*
X113812731Y-126585466D01*
X113833645Y-126597540D01*
X113851715Y-126613564D01*
X113994573Y-126684992D01*
X114028348Y-126691903D01*
X114061654Y-126700828D01*
X114347368Y-126700828D01*
X114380671Y-126691904D01*
X114414450Y-126684992D01*
X114557307Y-126613564D01*
X114575376Y-126597540D01*
X114596291Y-126585466D01*
X114667720Y-126514037D01*
X114679794Y-126493122D01*
X114695818Y-126475053D01*
X114767246Y-126332195D01*
X114774157Y-126298419D01*
X114783082Y-126265114D01*
X114783082Y-125050828D01*
X114983083Y-125050828D01*
X115003179Y-125125828D01*
X115058083Y-125180732D01*
X115133083Y-125200828D01*
X115411654Y-125200828D01*
X115411654Y-126550828D01*
X115431750Y-126625828D01*
X115486654Y-126680732D01*
X115561654Y-126700828D01*
X115636654Y-126680732D01*
X115691558Y-126625828D01*
X115711654Y-126550828D01*
X115711654Y-125200828D01*
X115990226Y-125200828D01*
X116065226Y-125180732D01*
X116120130Y-125125828D01*
X116140226Y-125050828D01*
X116120130Y-124975828D01*
X116065226Y-124920924D01*
X115990226Y-124900828D01*
X115133083Y-124900828D01*
X115058083Y-124920924D01*
X115003179Y-124975828D01*
X114983083Y-125050828D01*
X114783082Y-125050828D01*
X114762986Y-124975828D01*
X114708082Y-124920924D01*
X114633082Y-124900828D01*
X114558082Y-124920924D01*
X114503178Y-124975828D01*
X114483082Y-125050828D01*
X114483082Y-126229704D01*
X114438375Y-126319117D01*
X114401370Y-126356122D01*
X114311958Y-126400828D01*
X114097064Y-126400828D01*
X114007650Y-126356121D01*
X113970646Y-126319117D01*
X113925939Y-126229703D01*
X113925939Y-125050828D01*
X113905843Y-124975828D01*
X113850939Y-124920924D01*
X113775939Y-124900828D01*
X113700939Y-124920924D01*
X113646035Y-124975828D01*
X113625939Y-125050828D01*
X113625939Y-126265114D01*
X113234126Y-126265114D01*
X113278603Y-126087209D01*
X113278291Y-126068704D01*
X113283082Y-126050828D01*
X113283082Y-125550828D01*
X113278291Y-125532951D01*
X113278603Y-125514447D01*
X113207174Y-125228733D01*
X113206541Y-125227594D01*
X113206542Y-125226291D01*
X113187736Y-125193719D01*
X113169488Y-125160847D01*
X113168370Y-125160176D01*
X113167719Y-125159048D01*
X113024862Y-125016191D01*
X113003946Y-125004115D01*
X112985878Y-124988093D01*
X112843021Y-124916664D01*
X112809240Y-124909751D01*
X112775939Y-124900828D01*
X112490225Y-124900828D01*
X112456924Y-124909750D01*
X112423142Y-124916664D01*
X112280286Y-124988093D01*
X112262216Y-125004115D01*
X112241302Y-125016191D01*
X112098444Y-125159048D01*
X112097792Y-125160176D01*
X112096675Y-125160847D01*
X112078433Y-125193707D01*
X112059621Y-125226291D01*
X112059621Y-125227595D01*
X112058989Y-125228734D01*
X111987561Y-125514448D01*
X111987872Y-125532950D01*
X111983082Y-125550828D01*
X111983082Y-126050828D01*
X111768796Y-126050828D01*
X111768796Y-124686542D01*
X116354512Y-124686542D01*
X116354512Y-126915114D01*
G37*
G36*
X170387769Y-68767647D02*
G01*
X170416946Y-68796824D01*
X170461653Y-68886237D01*
X170461653Y-69029704D01*
X170416946Y-69119117D01*
X170379941Y-69156122D01*
X170290529Y-69200828D01*
X169904510Y-69200828D01*
X169904510Y-68715114D01*
X170230167Y-68715114D01*
X170387769Y-68767647D01*
G37*
G36*
X170308514Y-68045535D02*
G01*
X170345518Y-68082539D01*
X170390225Y-68171952D01*
X170390225Y-68243989D01*
X170345518Y-68333402D01*
X170308514Y-68370407D01*
X170219100Y-68415114D01*
X169904510Y-68415114D01*
X169904510Y-68000828D01*
X170219100Y-68000828D01*
X170308514Y-68045535D01*
G37*
G36*
X170975939Y-69715114D02*
G01*
X166390224Y-69715114D01*
X166390224Y-69065114D01*
X166604510Y-69065114D01*
X166613433Y-69098415D01*
X166620346Y-69132196D01*
X166691775Y-69275053D01*
X166707797Y-69293121D01*
X166719873Y-69314037D01*
X166791302Y-69385466D01*
X166812216Y-69397540D01*
X166830286Y-69413564D01*
X166973144Y-69484992D01*
X167006919Y-69491903D01*
X167040225Y-69500828D01*
X167325939Y-69500828D01*
X167359242Y-69491904D01*
X167393021Y-69484992D01*
X167535878Y-69413564D01*
X167553947Y-69397540D01*
X167574862Y-69385466D01*
X167646291Y-69314037D01*
X167658365Y-69293122D01*
X167674389Y-69275053D01*
X167745817Y-69132195D01*
X167752728Y-69098419D01*
X167761653Y-69065114D01*
X167761653Y-68279400D01*
X168104511Y-68279400D01*
X168113434Y-68312703D01*
X168120347Y-68346482D01*
X168191775Y-68489339D01*
X168207798Y-68507408D01*
X168219874Y-68528324D01*
X168291303Y-68599752D01*
X168312217Y-68611826D01*
X168330286Y-68627849D01*
X168473142Y-68699278D01*
X168489368Y-68702598D01*
X168503845Y-68710635D01*
X168773583Y-68778069D01*
X168879942Y-68831248D01*
X168916946Y-68868253D01*
X168961654Y-68957667D01*
X168961654Y-69029703D01*
X168916946Y-69119117D01*
X168879943Y-69156121D01*
X168790530Y-69200828D01*
X168493140Y-69200828D01*
X168301945Y-69137097D01*
X168224439Y-69132445D01*
X168154990Y-69167170D01*
X168112208Y-69231966D01*
X168107556Y-69309472D01*
X168142281Y-69378921D01*
X168207077Y-69421703D01*
X168421363Y-69493131D01*
X168445471Y-69494578D01*
X168468797Y-69500828D01*
X168825939Y-69500828D01*
X168859244Y-69491903D01*
X168893020Y-69484992D01*
X169035879Y-69413564D01*
X169053948Y-69397540D01*
X169074864Y-69385465D01*
X169109501Y-69350828D01*
X169604510Y-69350828D01*
X169624606Y-69425828D01*
X169679510Y-69480732D01*
X169754510Y-69500828D01*
X170325939Y-69500828D01*
X170359242Y-69491904D01*
X170393021Y-69484992D01*
X170535878Y-69413564D01*
X170553947Y-69397540D01*
X170574862Y-69385466D01*
X170646291Y-69314037D01*
X170658365Y-69293122D01*
X170674389Y-69275053D01*
X170745817Y-69132195D01*
X170752728Y-69098419D01*
X170761653Y-69065114D01*
X170761653Y-68850828D01*
X170752728Y-68817522D01*
X170745817Y-68783747D01*
X170674389Y-68640889D01*
X170658365Y-68622819D01*
X170646291Y-68601905D01*
X170574862Y-68530476D01*
X170573497Y-68529687D01*
X170574862Y-68528323D01*
X170586937Y-68507407D01*
X170602960Y-68489339D01*
X170674389Y-68346483D01*
X170681302Y-68312700D01*
X170690225Y-68279400D01*
X170690225Y-68136542D01*
X170681302Y-68103241D01*
X170674389Y-68069459D01*
X170602960Y-67926603D01*
X170586937Y-67908534D01*
X170574862Y-67887619D01*
X170503434Y-67816191D01*
X170482519Y-67804116D01*
X170464450Y-67788093D01*
X170321592Y-67716664D01*
X170287811Y-67709751D01*
X170254510Y-67700828D01*
X169754510Y-67700828D01*
X169679510Y-67720924D01*
X169624606Y-67775828D01*
X169604510Y-67850828D01*
X169604510Y-69350828D01*
X169109501Y-69350828D01*
X169146292Y-69314036D01*
X169158366Y-69293121D01*
X169174389Y-69275053D01*
X169245818Y-69132197D01*
X169252731Y-69098414D01*
X169261654Y-69065114D01*
X169261654Y-68922257D01*
X169252731Y-68888956D01*
X169245818Y-68855174D01*
X169174389Y-68712318D01*
X169158366Y-68694249D01*
X169146292Y-68673335D01*
X169074864Y-68601906D01*
X169053948Y-68589830D01*
X169035879Y-68573807D01*
X168893021Y-68502378D01*
X168876796Y-68499057D01*
X168862319Y-68491021D01*
X168592581Y-68423586D01*
X168486221Y-68370406D01*
X168449216Y-68333401D01*
X168404511Y-68243990D01*
X168404511Y-68171951D01*
X168449216Y-68082540D01*
X168486221Y-68045535D01*
X168575635Y-68000828D01*
X168873028Y-68000828D01*
X169064219Y-68064559D01*
X169141725Y-68069212D01*
X169211174Y-68034488D01*
X169253956Y-67969691D01*
X169258609Y-67892185D01*
X169223884Y-67822736D01*
X169159088Y-67779954D01*
X168944802Y-67708526D01*
X168920696Y-67707078D01*
X168897368Y-67700828D01*
X168540225Y-67700828D01*
X168506924Y-67709750D01*
X168473142Y-67716664D01*
X168330286Y-67788093D01*
X168312217Y-67804115D01*
X168291303Y-67816190D01*
X168219874Y-67887618D01*
X168207798Y-67908533D01*
X168191775Y-67926603D01*
X168120347Y-68069460D01*
X168113434Y-68103238D01*
X168104511Y-68136542D01*
X168104511Y-68279400D01*
X167761653Y-68279400D01*
X167761653Y-67850828D01*
X167741557Y-67775828D01*
X167686653Y-67720924D01*
X167611653Y-67700828D01*
X167536653Y-67720924D01*
X167481749Y-67775828D01*
X167461653Y-67850828D01*
X167461653Y-69029704D01*
X167416946Y-69119117D01*
X167379941Y-69156122D01*
X167290529Y-69200828D01*
X167075635Y-69200828D01*
X166986221Y-69156121D01*
X166949217Y-69119117D01*
X166904510Y-69029703D01*
X166904510Y-67850828D01*
X166884414Y-67775828D01*
X166829510Y-67720924D01*
X166754510Y-67700828D01*
X166679510Y-67720924D01*
X166624606Y-67775828D01*
X166604510Y-67850828D01*
X166604510Y-69065114D01*
X166390224Y-69065114D01*
X166390224Y-67486542D01*
X170975939Y-67486542D01*
X170975939Y-69715114D01*
G37*
D10*
X111608207Y-79319819D02*
X111274874Y-78843628D01*
X111036779Y-79319819D02*
X111036779Y-78319819D01*
X111036779Y-78319819D02*
X111417731Y-78319819D01*
X111417731Y-78319819D02*
X111512969Y-78367438D01*
X111512969Y-78367438D02*
X111560588Y-78415057D01*
X111560588Y-78415057D02*
X111608207Y-78510295D01*
X111608207Y-78510295D02*
X111608207Y-78653152D01*
X111608207Y-78653152D02*
X111560588Y-78748390D01*
X111560588Y-78748390D02*
X111512969Y-78796009D01*
X111512969Y-78796009D02*
X111417731Y-78843628D01*
X111417731Y-78843628D02*
X111036779Y-78843628D01*
X112036779Y-78319819D02*
X112036779Y-79129342D01*
X112036779Y-79129342D02*
X112084398Y-79224580D01*
X112084398Y-79224580D02*
X112132017Y-79272200D01*
X112132017Y-79272200D02*
X112227255Y-79319819D01*
X112227255Y-79319819D02*
X112417731Y-79319819D01*
X112417731Y-79319819D02*
X112512969Y-79272200D01*
X112512969Y-79272200D02*
X112560588Y-79224580D01*
X112560588Y-79224580D02*
X112608207Y-79129342D01*
X112608207Y-79129342D02*
X112608207Y-78319819D01*
X113084398Y-79319819D02*
X113084398Y-78319819D01*
X113084398Y-78319819D02*
X113655826Y-79319819D01*
X113655826Y-79319819D02*
X113655826Y-78319819D01*
D13*
X135286966Y-138829676D02*
X135096490Y-138734438D01*
X135096490Y-138734438D02*
X134810776Y-138734438D01*
X134810776Y-138734438D02*
X134525061Y-138829676D01*
X134525061Y-138829676D02*
X134334585Y-139020152D01*
X134334585Y-139020152D02*
X134239347Y-139210628D01*
X134239347Y-139210628D02*
X134144109Y-139591580D01*
X134144109Y-139591580D02*
X134144109Y-139877295D01*
X134144109Y-139877295D02*
X134239347Y-140258247D01*
X134239347Y-140258247D02*
X134334585Y-140448723D01*
X134334585Y-140448723D02*
X134525061Y-140639200D01*
X134525061Y-140639200D02*
X134810776Y-140734438D01*
X134810776Y-140734438D02*
X135001252Y-140734438D01*
X135001252Y-140734438D02*
X135286966Y-140639200D01*
X135286966Y-140639200D02*
X135382204Y-140543961D01*
X135382204Y-140543961D02*
X135382204Y-139877295D01*
X135382204Y-139877295D02*
X135001252Y-139877295D01*
X137096490Y-139401104D02*
X137096490Y-140734438D01*
X136239347Y-139401104D02*
X136239347Y-140448723D01*
X136239347Y-140448723D02*
X136334585Y-140639200D01*
X136334585Y-140639200D02*
X136525061Y-140734438D01*
X136525061Y-140734438D02*
X136810776Y-140734438D01*
X136810776Y-140734438D02*
X137001252Y-140639200D01*
X137001252Y-140639200D02*
X137096490Y-140543961D01*
X138048871Y-140734438D02*
X138048871Y-139401104D01*
X138048871Y-138734438D02*
X137953633Y-138829676D01*
X137953633Y-138829676D02*
X138048871Y-138924914D01*
X138048871Y-138924914D02*
X138144109Y-138829676D01*
X138144109Y-138829676D02*
X138048871Y-138734438D01*
X138048871Y-138734438D02*
X138048871Y-138924914D01*
X138715538Y-139401104D02*
X139477442Y-139401104D01*
X139001252Y-138734438D02*
X139001252Y-140448723D01*
X139001252Y-140448723D02*
X139096490Y-140639200D01*
X139096490Y-140639200D02*
X139286966Y-140734438D01*
X139286966Y-140734438D02*
X139477442Y-140734438D01*
X141001252Y-140734438D02*
X141001252Y-139686819D01*
X141001252Y-139686819D02*
X140906014Y-139496342D01*
X140906014Y-139496342D02*
X140715538Y-139401104D01*
X140715538Y-139401104D02*
X140334585Y-139401104D01*
X140334585Y-139401104D02*
X140144109Y-139496342D01*
X141001252Y-140639200D02*
X140810776Y-140734438D01*
X140810776Y-140734438D02*
X140334585Y-140734438D01*
X140334585Y-140734438D02*
X140144109Y-140639200D01*
X140144109Y-140639200D02*
X140048871Y-140448723D01*
X140048871Y-140448723D02*
X140048871Y-140258247D01*
X140048871Y-140258247D02*
X140144109Y-140067771D01*
X140144109Y-140067771D02*
X140334585Y-139972533D01*
X140334585Y-139972533D02*
X140810776Y-139972533D01*
X140810776Y-139972533D02*
X141001252Y-139877295D01*
X141953633Y-140734438D02*
X141953633Y-139401104D01*
X141953633Y-139782057D02*
X142048871Y-139591580D01*
X142048871Y-139591580D02*
X142144109Y-139496342D01*
X142144109Y-139496342D02*
X142334585Y-139401104D01*
X142334585Y-139401104D02*
X142525062Y-139401104D01*
X143858395Y-139686819D02*
X143191728Y-139686819D01*
X143191728Y-140734438D02*
X143191728Y-138734438D01*
X143191728Y-138734438D02*
X144144109Y-138734438D01*
X144715538Y-138734438D02*
X146048871Y-140734438D01*
X146048871Y-138734438D02*
X144715538Y-140734438D01*
X149001253Y-139686819D02*
X149286967Y-139782057D01*
X149286967Y-139782057D02*
X149382205Y-139877295D01*
X149382205Y-139877295D02*
X149477443Y-140067771D01*
X149477443Y-140067771D02*
X149477443Y-140353485D01*
X149477443Y-140353485D02*
X149382205Y-140543961D01*
X149382205Y-140543961D02*
X149286967Y-140639200D01*
X149286967Y-140639200D02*
X149096491Y-140734438D01*
X149096491Y-140734438D02*
X148334586Y-140734438D01*
X148334586Y-140734438D02*
X148334586Y-138734438D01*
X148334586Y-138734438D02*
X149001253Y-138734438D01*
X149001253Y-138734438D02*
X149191729Y-138829676D01*
X149191729Y-138829676D02*
X149286967Y-138924914D01*
X149286967Y-138924914D02*
X149382205Y-139115390D01*
X149382205Y-139115390D02*
X149382205Y-139305866D01*
X149382205Y-139305866D02*
X149286967Y-139496342D01*
X149286967Y-139496342D02*
X149191729Y-139591580D01*
X149191729Y-139591580D02*
X149001253Y-139686819D01*
X149001253Y-139686819D02*
X148334586Y-139686819D01*
X150620300Y-140734438D02*
X150429824Y-140639200D01*
X150429824Y-140639200D02*
X150334586Y-140543961D01*
X150334586Y-140543961D02*
X150239348Y-140353485D01*
X150239348Y-140353485D02*
X150239348Y-139782057D01*
X150239348Y-139782057D02*
X150334586Y-139591580D01*
X150334586Y-139591580D02*
X150429824Y-139496342D01*
X150429824Y-139496342D02*
X150620300Y-139401104D01*
X150620300Y-139401104D02*
X150906015Y-139401104D01*
X150906015Y-139401104D02*
X151096491Y-139496342D01*
X151096491Y-139496342D02*
X151191729Y-139591580D01*
X151191729Y-139591580D02*
X151286967Y-139782057D01*
X151286967Y-139782057D02*
X151286967Y-140353485D01*
X151286967Y-140353485D02*
X151191729Y-140543961D01*
X151191729Y-140543961D02*
X151096491Y-140639200D01*
X151096491Y-140639200D02*
X150906015Y-140734438D01*
X150906015Y-140734438D02*
X150620300Y-140734438D01*
X153001253Y-140734438D02*
X153001253Y-139686819D01*
X153001253Y-139686819D02*
X152906015Y-139496342D01*
X152906015Y-139496342D02*
X152715539Y-139401104D01*
X152715539Y-139401104D02*
X152334586Y-139401104D01*
X152334586Y-139401104D02*
X152144110Y-139496342D01*
X153001253Y-140639200D02*
X152810777Y-140734438D01*
X152810777Y-140734438D02*
X152334586Y-140734438D01*
X152334586Y-140734438D02*
X152144110Y-140639200D01*
X152144110Y-140639200D02*
X152048872Y-140448723D01*
X152048872Y-140448723D02*
X152048872Y-140258247D01*
X152048872Y-140258247D02*
X152144110Y-140067771D01*
X152144110Y-140067771D02*
X152334586Y-139972533D01*
X152334586Y-139972533D02*
X152810777Y-139972533D01*
X152810777Y-139972533D02*
X153001253Y-139877295D01*
X153953634Y-140734438D02*
X153953634Y-139401104D01*
X153953634Y-139782057D02*
X154048872Y-139591580D01*
X154048872Y-139591580D02*
X154144110Y-139496342D01*
X154144110Y-139496342D02*
X154334586Y-139401104D01*
X154334586Y-139401104D02*
X154525063Y-139401104D01*
X156048872Y-140734438D02*
X156048872Y-138734438D01*
X156048872Y-140639200D02*
X155858396Y-140734438D01*
X155858396Y-140734438D02*
X155477443Y-140734438D01*
X155477443Y-140734438D02*
X155286967Y-140639200D01*
X155286967Y-140639200D02*
X155191729Y-140543961D01*
X155191729Y-140543961D02*
X155096491Y-140353485D01*
X155096491Y-140353485D02*
X155096491Y-139782057D01*
X155096491Y-139782057D02*
X155191729Y-139591580D01*
X155191729Y-139591580D02*
X155286967Y-139496342D01*
X155286967Y-139496342D02*
X155477443Y-139401104D01*
X155477443Y-139401104D02*
X155858396Y-139401104D01*
X155858396Y-139401104D02*
X156048872Y-139496342D01*
D14*
X138897712Y-141954452D02*
X138814378Y-142621119D01*
X138885807Y-142049690D02*
X138939378Y-142002071D01*
X138939378Y-142002071D02*
X139040569Y-141954452D01*
X139040569Y-141954452D02*
X139183426Y-141954452D01*
X139183426Y-141954452D02*
X139272712Y-142002071D01*
X139272712Y-142002071D02*
X139308426Y-142097309D01*
X139308426Y-142097309D02*
X139242950Y-142621119D01*
X139719140Y-142621119D02*
X139802474Y-141954452D01*
X139844140Y-141621119D02*
X139790569Y-141668738D01*
X139790569Y-141668738D02*
X139832236Y-141716357D01*
X139832236Y-141716357D02*
X139885807Y-141668738D01*
X139885807Y-141668738D02*
X139844140Y-141621119D01*
X139844140Y-141621119D02*
X139832236Y-141716357D01*
X140629854Y-142573500D02*
X140528664Y-142621119D01*
X140528664Y-142621119D02*
X140338188Y-142621119D01*
X140338188Y-142621119D02*
X140248902Y-142573500D01*
X140248902Y-142573500D02*
X140207235Y-142525880D01*
X140207235Y-142525880D02*
X140171521Y-142430642D01*
X140171521Y-142430642D02*
X140207235Y-142144928D01*
X140207235Y-142144928D02*
X140266759Y-142049690D01*
X140266759Y-142049690D02*
X140320330Y-142002071D01*
X140320330Y-142002071D02*
X140421521Y-141954452D01*
X140421521Y-141954452D02*
X140611997Y-141954452D01*
X140611997Y-141954452D02*
X140701283Y-142002071D01*
X141052473Y-142621119D02*
X141177473Y-141621119D01*
X141481045Y-142621119D02*
X141546521Y-142097309D01*
X141546521Y-142097309D02*
X141510807Y-142002071D01*
X141510807Y-142002071D02*
X141421521Y-141954452D01*
X141421521Y-141954452D02*
X141278664Y-141954452D01*
X141278664Y-141954452D02*
X141177473Y-142002071D01*
X141177473Y-142002071D02*
X141123902Y-142049690D01*
X142100093Y-142621119D02*
X142010807Y-142573500D01*
X142010807Y-142573500D02*
X141969140Y-142525880D01*
X141969140Y-142525880D02*
X141933426Y-142430642D01*
X141933426Y-142430642D02*
X141969140Y-142144928D01*
X141969140Y-142144928D02*
X142028664Y-142049690D01*
X142028664Y-142049690D02*
X142082235Y-142002071D01*
X142082235Y-142002071D02*
X142183426Y-141954452D01*
X142183426Y-141954452D02*
X142326283Y-141954452D01*
X142326283Y-141954452D02*
X142415569Y-142002071D01*
X142415569Y-142002071D02*
X142457235Y-142049690D01*
X142457235Y-142049690D02*
X142492950Y-142144928D01*
X142492950Y-142144928D02*
X142457235Y-142430642D01*
X142457235Y-142430642D02*
X142397712Y-142525880D01*
X142397712Y-142525880D02*
X142344140Y-142573500D01*
X142344140Y-142573500D02*
X142242950Y-142621119D01*
X142242950Y-142621119D02*
X142100093Y-142621119D01*
X143004855Y-142621119D02*
X142915569Y-142573500D01*
X142915569Y-142573500D02*
X142879855Y-142478261D01*
X142879855Y-142478261D02*
X142986997Y-141621119D01*
X143814379Y-142621119D02*
X143879855Y-142097309D01*
X143879855Y-142097309D02*
X143844141Y-142002071D01*
X143844141Y-142002071D02*
X143754855Y-141954452D01*
X143754855Y-141954452D02*
X143564379Y-141954452D01*
X143564379Y-141954452D02*
X143463188Y-142002071D01*
X143820331Y-142573500D02*
X143719141Y-142621119D01*
X143719141Y-142621119D02*
X143481045Y-142621119D01*
X143481045Y-142621119D02*
X143391760Y-142573500D01*
X143391760Y-142573500D02*
X143356045Y-142478261D01*
X143356045Y-142478261D02*
X143367950Y-142383023D01*
X143367950Y-142383023D02*
X143427474Y-142287785D01*
X143427474Y-142287785D02*
X143528665Y-142240166D01*
X143528665Y-142240166D02*
X143766760Y-142240166D01*
X143766760Y-142240166D02*
X143867950Y-142192547D01*
X144248903Y-142573500D02*
X144338188Y-142621119D01*
X144338188Y-142621119D02*
X144528665Y-142621119D01*
X144528665Y-142621119D02*
X144629855Y-142573500D01*
X144629855Y-142573500D02*
X144689379Y-142478261D01*
X144689379Y-142478261D02*
X144695331Y-142430642D01*
X144695331Y-142430642D02*
X144659617Y-142335404D01*
X144659617Y-142335404D02*
X144570331Y-142287785D01*
X144570331Y-142287785D02*
X144427474Y-142287785D01*
X144427474Y-142287785D02*
X144338188Y-142240166D01*
X144338188Y-142240166D02*
X144302474Y-142144928D01*
X144302474Y-142144928D02*
X144308427Y-142097309D01*
X144308427Y-142097309D02*
X144367950Y-142002071D01*
X144367950Y-142002071D02*
X144469141Y-141954452D01*
X144469141Y-141954452D02*
X144611998Y-141954452D01*
X144611998Y-141954452D02*
X144701284Y-142002071D01*
X145058427Y-142573500D02*
X145147712Y-142621119D01*
X145147712Y-142621119D02*
X145338189Y-142621119D01*
X145338189Y-142621119D02*
X145439379Y-142573500D01*
X145439379Y-142573500D02*
X145498903Y-142478261D01*
X145498903Y-142478261D02*
X145504855Y-142430642D01*
X145504855Y-142430642D02*
X145469141Y-142335404D01*
X145469141Y-142335404D02*
X145379855Y-142287785D01*
X145379855Y-142287785D02*
X145236998Y-142287785D01*
X145236998Y-142287785D02*
X145147712Y-142240166D01*
X145147712Y-142240166D02*
X145111998Y-142144928D01*
X145111998Y-142144928D02*
X145117951Y-142097309D01*
X145117951Y-142097309D02*
X145177474Y-142002071D01*
X145177474Y-142002071D02*
X145278665Y-141954452D01*
X145278665Y-141954452D02*
X145421522Y-141954452D01*
X145421522Y-141954452D02*
X145510808Y-142002071D01*
X145909617Y-142621119D02*
X146034617Y-141621119D01*
X146338189Y-142621119D02*
X146403665Y-142097309D01*
X146403665Y-142097309D02*
X146367951Y-142002071D01*
X146367951Y-142002071D02*
X146278665Y-141954452D01*
X146278665Y-141954452D02*
X146135808Y-141954452D01*
X146135808Y-141954452D02*
X146034617Y-142002071D01*
X146034617Y-142002071D02*
X145981046Y-142049690D01*
X146957237Y-142621119D02*
X146867951Y-142573500D01*
X146867951Y-142573500D02*
X146826284Y-142525880D01*
X146826284Y-142525880D02*
X146790570Y-142430642D01*
X146790570Y-142430642D02*
X146826284Y-142144928D01*
X146826284Y-142144928D02*
X146885808Y-142049690D01*
X146885808Y-142049690D02*
X146939379Y-142002071D01*
X146939379Y-142002071D02*
X147040570Y-141954452D01*
X147040570Y-141954452D02*
X147183427Y-141954452D01*
X147183427Y-141954452D02*
X147272713Y-142002071D01*
X147272713Y-142002071D02*
X147314379Y-142049690D01*
X147314379Y-142049690D02*
X147350094Y-142144928D01*
X147350094Y-142144928D02*
X147314379Y-142430642D01*
X147314379Y-142430642D02*
X147254856Y-142525880D01*
X147254856Y-142525880D02*
X147201284Y-142573500D01*
X147201284Y-142573500D02*
X147100094Y-142621119D01*
X147100094Y-142621119D02*
X146957237Y-142621119D01*
X147719141Y-142621119D02*
X147802475Y-141954452D01*
X147778665Y-142144928D02*
X147838189Y-142049690D01*
X147838189Y-142049690D02*
X147891760Y-142002071D01*
X147891760Y-142002071D02*
X147992951Y-141954452D01*
X147992951Y-141954452D02*
X148088189Y-141954452D01*
X148278666Y-141954452D02*
X148659618Y-141954452D01*
X148463189Y-141621119D02*
X148356047Y-142478261D01*
X148356047Y-142478261D02*
X148391761Y-142573500D01*
X148391761Y-142573500D02*
X148481047Y-142621119D01*
X148481047Y-142621119D02*
X148576285Y-142621119D01*
X148921523Y-142525880D02*
X148963190Y-142573500D01*
X148963190Y-142573500D02*
X148909618Y-142621119D01*
X148909618Y-142621119D02*
X148867952Y-142573500D01*
X148867952Y-142573500D02*
X148921523Y-142525880D01*
X148921523Y-142525880D02*
X148909618Y-142621119D01*
X149820332Y-142573500D02*
X149719142Y-142621119D01*
X149719142Y-142621119D02*
X149528666Y-142621119D01*
X149528666Y-142621119D02*
X149439380Y-142573500D01*
X149439380Y-142573500D02*
X149397713Y-142525880D01*
X149397713Y-142525880D02*
X149361999Y-142430642D01*
X149361999Y-142430642D02*
X149397713Y-142144928D01*
X149397713Y-142144928D02*
X149457237Y-142049690D01*
X149457237Y-142049690D02*
X149510808Y-142002071D01*
X149510808Y-142002071D02*
X149611999Y-141954452D01*
X149611999Y-141954452D02*
X149802475Y-141954452D01*
X149802475Y-141954452D02*
X149891761Y-142002071D01*
X150385809Y-142621119D02*
X150296523Y-142573500D01*
X150296523Y-142573500D02*
X150254856Y-142525880D01*
X150254856Y-142525880D02*
X150219142Y-142430642D01*
X150219142Y-142430642D02*
X150254856Y-142144928D01*
X150254856Y-142144928D02*
X150314380Y-142049690D01*
X150314380Y-142049690D02*
X150367951Y-142002071D01*
X150367951Y-142002071D02*
X150469142Y-141954452D01*
X150469142Y-141954452D02*
X150611999Y-141954452D01*
X150611999Y-141954452D02*
X150701285Y-142002071D01*
X150701285Y-142002071D02*
X150742951Y-142049690D01*
X150742951Y-142049690D02*
X150778666Y-142144928D01*
X150778666Y-142144928D02*
X150742951Y-142430642D01*
X150742951Y-142430642D02*
X150683428Y-142525880D01*
X150683428Y-142525880D02*
X150629856Y-142573500D01*
X150629856Y-142573500D02*
X150528666Y-142621119D01*
X150528666Y-142621119D02*
X150385809Y-142621119D01*
X151147713Y-142621119D02*
X151231047Y-141954452D01*
X151219142Y-142049690D02*
X151272713Y-142002071D01*
X151272713Y-142002071D02*
X151373904Y-141954452D01*
X151373904Y-141954452D02*
X151516761Y-141954452D01*
X151516761Y-141954452D02*
X151606047Y-142002071D01*
X151606047Y-142002071D02*
X151641761Y-142097309D01*
X151641761Y-142097309D02*
X151576285Y-142621119D01*
X151641761Y-142097309D02*
X151701285Y-142002071D01*
X151701285Y-142002071D02*
X151802475Y-141954452D01*
X151802475Y-141954452D02*
X151945332Y-141954452D01*
X151945332Y-141954452D02*
X152034618Y-142002071D01*
X152034618Y-142002071D02*
X152070332Y-142097309D01*
X152070332Y-142097309D02*
X152004856Y-142621119D01*
D12*
G36*
X130437768Y-65253361D02*
G01*
X130538375Y-65353968D01*
X130591554Y-65460327D01*
X130654510Y-65712148D01*
X130654510Y-65889507D01*
X130591554Y-66141328D01*
X130538375Y-66247688D01*
X130437769Y-66348294D01*
X130280167Y-66400828D01*
X130097367Y-66400828D01*
X130097367Y-65200828D01*
X130280170Y-65200828D01*
X130437768Y-65253361D01*
G37*
G36*
X131168796Y-66915114D02*
G01*
X126368796Y-66915114D01*
X126368796Y-65479400D01*
X126583082Y-65479400D01*
X126592005Y-65512703D01*
X126598918Y-65546482D01*
X126670346Y-65689339D01*
X126686369Y-65707408D01*
X126698445Y-65728324D01*
X126769874Y-65799752D01*
X126790788Y-65811826D01*
X126808857Y-65827849D01*
X126951713Y-65899278D01*
X126967939Y-65902598D01*
X126982416Y-65910635D01*
X127252154Y-65978069D01*
X127358513Y-66031248D01*
X127395517Y-66068253D01*
X127440225Y-66157667D01*
X127440225Y-66229703D01*
X127395517Y-66319117D01*
X127358514Y-66356121D01*
X127269101Y-66400828D01*
X126971711Y-66400828D01*
X126780516Y-66337097D01*
X126703010Y-66332445D01*
X126633561Y-66367170D01*
X126590779Y-66431966D01*
X126586127Y-66509472D01*
X126620852Y-66578921D01*
X126685648Y-66621703D01*
X126899934Y-66693131D01*
X126924042Y-66694578D01*
X126947368Y-66700828D01*
X127304510Y-66700828D01*
X127337815Y-66691903D01*
X127371591Y-66684992D01*
X127514450Y-66613564D01*
X127532519Y-66597540D01*
X127553435Y-66585465D01*
X127624863Y-66514036D01*
X127636937Y-66493121D01*
X127652960Y-66475053D01*
X127724389Y-66332197D01*
X127731302Y-66298414D01*
X127740225Y-66265114D01*
X127740225Y-66122257D01*
X127731302Y-66088956D01*
X127724389Y-66055174D01*
X127652960Y-65912318D01*
X127636937Y-65894249D01*
X127624863Y-65873335D01*
X127553435Y-65801906D01*
X127532519Y-65789830D01*
X127514450Y-65773807D01*
X127371592Y-65702378D01*
X127355367Y-65699057D01*
X127340890Y-65691021D01*
X127071152Y-65623586D01*
X126964792Y-65570406D01*
X126927787Y-65533401D01*
X126883082Y-65443990D01*
X126883082Y-65371951D01*
X126927787Y-65282540D01*
X126964792Y-65245535D01*
X127054206Y-65200828D01*
X127351599Y-65200828D01*
X127542790Y-65264559D01*
X127620296Y-65269212D01*
X127689745Y-65234488D01*
X127732527Y-65169691D01*
X127737180Y-65092185D01*
X127733873Y-65085571D01*
X127944303Y-65085571D01*
X128301446Y-66585571D01*
X128302522Y-66587562D01*
X128302525Y-66589824D01*
X128320908Y-66621577D01*
X128338367Y-66653877D01*
X128340294Y-66655063D01*
X128341428Y-66657021D01*
X128373225Y-66675328D01*
X128404495Y-66694571D01*
X128406757Y-66694634D01*
X128408718Y-66695763D01*
X128445406Y-66695719D01*
X128482110Y-66696749D01*
X128484101Y-66695672D01*
X128486363Y-66695670D01*
X128518116Y-66677286D01*
X128550416Y-66659828D01*
X128551602Y-66657900D01*
X128553560Y-66656767D01*
X128571867Y-66624969D01*
X128591110Y-66593700D01*
X128591173Y-66591437D01*
X128592302Y-66589477D01*
X128733081Y-66061554D01*
X128873861Y-66589477D01*
X128874989Y-66591437D01*
X128875053Y-66593700D01*
X128894295Y-66624969D01*
X128912603Y-66656767D01*
X128914560Y-66657900D01*
X128915747Y-66659828D01*
X128948046Y-66677286D01*
X128979800Y-66695670D01*
X128982061Y-66695672D01*
X128984053Y-66696749D01*
X129020756Y-66695719D01*
X129057445Y-66695763D01*
X129059405Y-66694634D01*
X129061668Y-66694571D01*
X129092937Y-66675328D01*
X129124735Y-66657021D01*
X129125868Y-66655063D01*
X129127796Y-66653877D01*
X129145254Y-66621577D01*
X129163638Y-66589824D01*
X129163640Y-66587562D01*
X129164717Y-66585571D01*
X129172989Y-66550828D01*
X129797367Y-66550828D01*
X129817463Y-66625828D01*
X129872367Y-66680732D01*
X129947367Y-66700828D01*
X130304510Y-66700828D01*
X130327835Y-66694578D01*
X130351944Y-66693131D01*
X130566230Y-66621703D01*
X130595005Y-66602703D01*
X130624862Y-66585466D01*
X130767719Y-66442608D01*
X130779794Y-66421693D01*
X130795817Y-66403624D01*
X130867246Y-66260768D01*
X130870566Y-66244541D01*
X130878603Y-66230065D01*
X130950031Y-65944351D01*
X130949719Y-65925848D01*
X130954510Y-65907971D01*
X130954510Y-65693685D01*
X130949719Y-65675807D01*
X130950031Y-65657305D01*
X130878603Y-65371591D01*
X130870566Y-65357114D01*
X130867246Y-65340888D01*
X130795817Y-65198032D01*
X130779794Y-65179963D01*
X130767719Y-65159048D01*
X130624862Y-65016191D01*
X130595005Y-64998953D01*
X130566230Y-64979954D01*
X130351944Y-64908526D01*
X130327838Y-64907078D01*
X130304510Y-64900828D01*
X129947367Y-64900828D01*
X129872367Y-64920924D01*
X129817463Y-64975828D01*
X129797367Y-65050828D01*
X129797367Y-66550828D01*
X129172989Y-66550828D01*
X129521860Y-65085571D01*
X129519682Y-65007956D01*
X129478988Y-64941828D01*
X129410682Y-64904907D01*
X129333067Y-64907085D01*
X129266939Y-64947779D01*
X129230018Y-65016085D01*
X129010562Y-65937797D01*
X128878016Y-65440750D01*
X128877923Y-65440588D01*
X128877923Y-65440404D01*
X128858612Y-65407048D01*
X128839274Y-65373461D01*
X128839113Y-65373367D01*
X128839020Y-65373207D01*
X128805679Y-65354011D01*
X128772077Y-65334557D01*
X128771889Y-65334556D01*
X128771730Y-65334465D01*
X128733289Y-65334511D01*
X128694431Y-65334465D01*
X128694269Y-65334557D01*
X128694085Y-65334558D01*
X128660729Y-65353868D01*
X128627142Y-65373207D01*
X128627048Y-65373367D01*
X128626888Y-65373461D01*
X128607692Y-65406801D01*
X128588238Y-65440404D01*
X128588237Y-65440591D01*
X128588146Y-65440751D01*
X128455600Y-65937797D01*
X128236145Y-65016085D01*
X128199224Y-64947779D01*
X128133096Y-64907085D01*
X128055481Y-64904907D01*
X127987175Y-64941828D01*
X127946481Y-65007956D01*
X127944303Y-65085571D01*
X127733873Y-65085571D01*
X127702455Y-65022736D01*
X127637659Y-64979954D01*
X127423373Y-64908526D01*
X127399267Y-64907078D01*
X127375939Y-64900828D01*
X127018796Y-64900828D01*
X126985495Y-64909750D01*
X126951713Y-64916664D01*
X126808857Y-64988093D01*
X126790788Y-65004115D01*
X126769874Y-65016190D01*
X126698445Y-65087618D01*
X126686369Y-65108533D01*
X126670346Y-65126603D01*
X126598918Y-65269460D01*
X126592005Y-65303238D01*
X126583082Y-65336542D01*
X126583082Y-65479400D01*
X126368796Y-65479400D01*
X126368796Y-64686542D01*
X131168796Y-64686542D01*
X131168796Y-66915114D01*
G37*
D11*
X151726816Y-134757219D02*
X152060149Y-135757219D01*
X152060149Y-135757219D02*
X152393482Y-134757219D01*
X153250625Y-135757219D02*
X152679197Y-135757219D01*
X152964911Y-135757219D02*
X152964911Y-134757219D01*
X152964911Y-134757219D02*
X152869673Y-134900076D01*
X152869673Y-134900076D02*
X152774435Y-134995314D01*
X152774435Y-134995314D02*
X152679197Y-135042933D01*
X153679197Y-135661980D02*
X153726816Y-135709600D01*
X153726816Y-135709600D02*
X153679197Y-135757219D01*
X153679197Y-135757219D02*
X153631578Y-135709600D01*
X153631578Y-135709600D02*
X153679197Y-135661980D01*
X153679197Y-135661980D02*
X153679197Y-135757219D01*
X154345863Y-134757219D02*
X154441101Y-134757219D01*
X154441101Y-134757219D02*
X154536339Y-134804838D01*
X154536339Y-134804838D02*
X154583958Y-134852457D01*
X154583958Y-134852457D02*
X154631577Y-134947695D01*
X154631577Y-134947695D02*
X154679196Y-135138171D01*
X154679196Y-135138171D02*
X154679196Y-135376266D01*
X154679196Y-135376266D02*
X154631577Y-135566742D01*
X154631577Y-135566742D02*
X154583958Y-135661980D01*
X154583958Y-135661980D02*
X154536339Y-135709600D01*
X154536339Y-135709600D02*
X154441101Y-135757219D01*
X154441101Y-135757219D02*
X154345863Y-135757219D01*
X154345863Y-135757219D02*
X154250625Y-135709600D01*
X154250625Y-135709600D02*
X154203006Y-135661980D01*
X154203006Y-135661980D02*
X154155387Y-135566742D01*
X154155387Y-135566742D02*
X154107768Y-135376266D01*
X154107768Y-135376266D02*
X154107768Y-135138171D01*
X154107768Y-135138171D02*
X154155387Y-134947695D01*
X154155387Y-134947695D02*
X154203006Y-134852457D01*
X154203006Y-134852457D02*
X154250625Y-134804838D01*
X154250625Y-134804838D02*
X154345863Y-134757219D01*
X152060149Y-136367219D02*
X152155387Y-136367219D01*
X152155387Y-136367219D02*
X152250625Y-136414838D01*
X152250625Y-136414838D02*
X152298244Y-136462457D01*
X152298244Y-136462457D02*
X152345863Y-136557695D01*
X152345863Y-136557695D02*
X152393482Y-136748171D01*
X152393482Y-136748171D02*
X152393482Y-136986266D01*
X152393482Y-136986266D02*
X152345863Y-137176742D01*
X152345863Y-137176742D02*
X152298244Y-137271980D01*
X152298244Y-137271980D02*
X152250625Y-137319600D01*
X152250625Y-137319600D02*
X152155387Y-137367219D01*
X152155387Y-137367219D02*
X152060149Y-137367219D01*
X152060149Y-137367219D02*
X151964911Y-137319600D01*
X151964911Y-137319600D02*
X151917292Y-137271980D01*
X151917292Y-137271980D02*
X151869673Y-137176742D01*
X151869673Y-137176742D02*
X151822054Y-136986266D01*
X151822054Y-136986266D02*
X151822054Y-136748171D01*
X151822054Y-136748171D02*
X151869673Y-136557695D01*
X151869673Y-136557695D02*
X151917292Y-136462457D01*
X151917292Y-136462457D02*
X151964911Y-136414838D01*
X151964911Y-136414838D02*
X152060149Y-136367219D01*
X152869673Y-137367219D02*
X153060149Y-137367219D01*
X153060149Y-137367219D02*
X153155387Y-137319600D01*
X153155387Y-137319600D02*
X153203006Y-137271980D01*
X153203006Y-137271980D02*
X153298244Y-137129123D01*
X153298244Y-137129123D02*
X153345863Y-136938647D01*
X153345863Y-136938647D02*
X153345863Y-136557695D01*
X153345863Y-136557695D02*
X153298244Y-136462457D01*
X153298244Y-136462457D02*
X153250625Y-136414838D01*
X153250625Y-136414838D02*
X153155387Y-136367219D01*
X153155387Y-136367219D02*
X152964911Y-136367219D01*
X152964911Y-136367219D02*
X152869673Y-136414838D01*
X152869673Y-136414838D02*
X152822054Y-136462457D01*
X152822054Y-136462457D02*
X152774435Y-136557695D01*
X152774435Y-136557695D02*
X152774435Y-136795790D01*
X152774435Y-136795790D02*
X152822054Y-136891028D01*
X152822054Y-136891028D02*
X152869673Y-136938647D01*
X152869673Y-136938647D02*
X152964911Y-136986266D01*
X152964911Y-136986266D02*
X153155387Y-136986266D01*
X153155387Y-136986266D02*
X153250625Y-136938647D01*
X153250625Y-136938647D02*
X153298244Y-136891028D01*
X153298244Y-136891028D02*
X153345863Y-136795790D01*
X154488720Y-136319600D02*
X153631578Y-137605314D01*
X154774435Y-136462457D02*
X154822054Y-136414838D01*
X154822054Y-136414838D02*
X154917292Y-136367219D01*
X154917292Y-136367219D02*
X155155387Y-136367219D01*
X155155387Y-136367219D02*
X155250625Y-136414838D01*
X155250625Y-136414838D02*
X155298244Y-136462457D01*
X155298244Y-136462457D02*
X155345863Y-136557695D01*
X155345863Y-136557695D02*
X155345863Y-136652933D01*
X155345863Y-136652933D02*
X155298244Y-136795790D01*
X155298244Y-136795790D02*
X154726816Y-137367219D01*
X154726816Y-137367219D02*
X155345863Y-137367219D01*
X156203006Y-136700552D02*
X156203006Y-137367219D01*
X155964911Y-136319600D02*
X155726816Y-137033885D01*
X155726816Y-137033885D02*
X156345863Y-137033885D01*
D12*
G36*
X176190225Y-126715114D02*
G01*
X173890224Y-126715114D01*
X173890224Y-126350828D01*
X174104510Y-126350828D01*
X174124606Y-126425828D01*
X174179510Y-126480732D01*
X174254510Y-126500828D01*
X174329510Y-126480732D01*
X174384414Y-126425828D01*
X174404510Y-126350828D01*
X174818796Y-126350828D01*
X174838892Y-126425828D01*
X174893796Y-126480732D01*
X174968796Y-126500828D01*
X175043796Y-126480732D01*
X175098700Y-126425828D01*
X175118796Y-126350828D01*
X175118796Y-125415661D01*
X175695703Y-126425249D01*
X175695945Y-126425493D01*
X175696035Y-126425828D01*
X175723255Y-126453048D01*
X175750361Y-126480397D01*
X175750695Y-126480488D01*
X175750939Y-126480732D01*
X175788039Y-126490672D01*
X175825271Y-126500827D01*
X175825606Y-126500738D01*
X175825939Y-126500828D01*
X175863038Y-126490887D01*
X175900360Y-126481065D01*
X175900605Y-126480821D01*
X175900939Y-126480732D01*
X175928103Y-126453567D01*
X175955508Y-126426406D01*
X175955599Y-126426071D01*
X175955843Y-126425828D01*
X175965783Y-126388727D01*
X175975938Y-126351496D01*
X175975849Y-126351160D01*
X175975939Y-126350828D01*
X175975939Y-124850828D01*
X175955843Y-124775828D01*
X175900939Y-124720924D01*
X175825939Y-124700828D01*
X175750939Y-124720924D01*
X175696035Y-124775828D01*
X175675939Y-124850828D01*
X175675939Y-125785992D01*
X175099032Y-124776407D01*
X175098789Y-124776162D01*
X175098700Y-124775828D01*
X175071479Y-124748607D01*
X175044374Y-124721259D01*
X175044039Y-124721167D01*
X175043796Y-124720924D01*
X175006695Y-124710983D01*
X174969464Y-124700829D01*
X174969128Y-124700917D01*
X174968796Y-124700828D01*
X174931590Y-124710797D01*
X174894375Y-124720592D01*
X174894130Y-124720834D01*
X174893796Y-124720924D01*
X174866575Y-124748144D01*
X174839227Y-124775250D01*
X174839135Y-124775584D01*
X174838892Y-124775828D01*
X174828951Y-124812928D01*
X174818797Y-124850160D01*
X174818885Y-124850495D01*
X174818796Y-124850828D01*
X174818796Y-126350828D01*
X174404510Y-126350828D01*
X174404510Y-124850828D01*
X174384414Y-124775828D01*
X174329510Y-124720924D01*
X174254510Y-124700828D01*
X174179510Y-124720924D01*
X174124606Y-124775828D01*
X174104510Y-124850828D01*
X174104510Y-126350828D01*
X173890224Y-126350828D01*
X173890224Y-124486542D01*
X176190225Y-124486542D01*
X176190225Y-126715114D01*
G37*
G36*
X114922800Y-92295535D02*
G01*
X114959804Y-92332539D01*
X115004510Y-92421951D01*
X115004510Y-92565418D01*
X114959803Y-92654831D01*
X114922798Y-92691836D01*
X114833386Y-92736542D01*
X114447367Y-92736542D01*
X114447367Y-92250828D01*
X114833386Y-92250828D01*
X114922800Y-92295535D01*
G37*
G36*
X116875939Y-93965114D02*
G01*
X111218796Y-93965114D01*
X111218796Y-92957971D01*
X111433082Y-92957971D01*
X111437872Y-92975848D01*
X111437561Y-92994351D01*
X111508989Y-93280065D01*
X111517025Y-93294542D01*
X111520346Y-93310767D01*
X111591775Y-93453624D01*
X111607797Y-93471693D01*
X111619873Y-93492608D01*
X111762730Y-93635466D01*
X111792589Y-93652705D01*
X111821362Y-93671703D01*
X112035648Y-93743131D01*
X112059756Y-93744578D01*
X112083082Y-93750828D01*
X112225939Y-93750828D01*
X112249264Y-93744578D01*
X112273373Y-93743131D01*
X112487659Y-93671703D01*
X112516434Y-93652703D01*
X112546292Y-93635465D01*
X112617720Y-93564036D01*
X112656542Y-93496793D01*
X112656542Y-93419147D01*
X112617718Y-93351904D01*
X112550475Y-93313082D01*
X112472829Y-93313082D01*
X112405586Y-93351906D01*
X112359198Y-93398294D01*
X112201596Y-93450828D01*
X112107425Y-93450828D01*
X111949822Y-93398294D01*
X111849217Y-93297688D01*
X111796036Y-93191328D01*
X111733082Y-92939507D01*
X111733082Y-92762148D01*
X111796036Y-92510327D01*
X111849217Y-92403967D01*
X111949823Y-92303361D01*
X112107425Y-92250828D01*
X112201599Y-92250828D01*
X112359197Y-92303361D01*
X112405587Y-92349751D01*
X112472830Y-92388574D01*
X112550476Y-92388574D01*
X112617719Y-92349751D01*
X112656542Y-92282508D01*
X112656542Y-92204862D01*
X112617719Y-92137619D01*
X112580928Y-92100828D01*
X112790225Y-92100828D01*
X112810321Y-92175828D01*
X112865225Y-92230732D01*
X112940225Y-92250828D01*
X113218796Y-92250828D01*
X113218796Y-93600828D01*
X113238892Y-93675828D01*
X113293796Y-93730732D01*
X113368796Y-93750828D01*
X113443796Y-93730732D01*
X113498700Y-93675828D01*
X113518796Y-93600828D01*
X114147367Y-93600828D01*
X114167463Y-93675828D01*
X114222367Y-93730732D01*
X114297367Y-93750828D01*
X114372367Y-93730732D01*
X114427271Y-93675828D01*
X114447367Y-93600828D01*
X114447367Y-93036542D01*
X114576412Y-93036542D01*
X115031625Y-93686847D01*
X115091098Y-93736765D01*
X115167563Y-93750259D01*
X115240529Y-93723713D01*
X115290447Y-93664240D01*
X115301637Y-93600828D01*
X115647367Y-93600828D01*
X115667463Y-93675828D01*
X115722367Y-93730732D01*
X115797367Y-93750828D01*
X116511653Y-93750828D01*
X116586653Y-93730732D01*
X116641557Y-93675828D01*
X116661653Y-93600828D01*
X116641557Y-93525828D01*
X116586653Y-93470924D01*
X116511653Y-93450828D01*
X115947367Y-93450828D01*
X115947367Y-92100828D01*
X115927271Y-92025828D01*
X115872367Y-91970924D01*
X115797367Y-91950828D01*
X115722367Y-91970924D01*
X115667463Y-92025828D01*
X115647367Y-92100828D01*
X115647367Y-93600828D01*
X115301637Y-93600828D01*
X115303941Y-93587775D01*
X115277395Y-93514809D01*
X114932068Y-93021485D01*
X114935878Y-93020706D01*
X115078735Y-92949278D01*
X115096804Y-92933254D01*
X115117719Y-92921180D01*
X115189148Y-92849751D01*
X115201222Y-92828836D01*
X115217246Y-92810767D01*
X115288674Y-92667909D01*
X115295585Y-92634133D01*
X115304510Y-92600828D01*
X115304510Y-92386542D01*
X115295585Y-92353236D01*
X115288674Y-92319461D01*
X115217246Y-92176603D01*
X115201222Y-92158533D01*
X115189147Y-92137618D01*
X115117718Y-92066190D01*
X115096803Y-92054115D01*
X115078735Y-92038093D01*
X114935878Y-91966664D01*
X114902097Y-91959751D01*
X114868796Y-91950828D01*
X114297367Y-91950828D01*
X114222367Y-91970924D01*
X114167463Y-92025828D01*
X114147367Y-92100828D01*
X114147367Y-93600828D01*
X113518796Y-93600828D01*
X113518796Y-92250828D01*
X113797368Y-92250828D01*
X113872368Y-92230732D01*
X113927272Y-92175828D01*
X113947368Y-92100828D01*
X113927272Y-92025828D01*
X113872368Y-91970924D01*
X113797368Y-91950828D01*
X112940225Y-91950828D01*
X112865225Y-91970924D01*
X112810321Y-92025828D01*
X112790225Y-92100828D01*
X112580928Y-92100828D01*
X112546291Y-92066191D01*
X112516434Y-92048953D01*
X112487659Y-92029954D01*
X112273373Y-91958526D01*
X112249267Y-91957078D01*
X112225939Y-91950828D01*
X112083082Y-91950828D01*
X112059753Y-91957078D01*
X112035647Y-91958526D01*
X111821362Y-92029955D01*
X111792589Y-92048951D01*
X111762730Y-92066191D01*
X111619873Y-92209048D01*
X111607797Y-92229963D01*
X111591775Y-92248032D01*
X111520346Y-92390889D01*
X111517025Y-92407113D01*
X111508989Y-92421591D01*
X111437561Y-92707305D01*
X111437872Y-92725807D01*
X111433082Y-92743685D01*
X111433082Y-92957971D01*
X111218796Y-92957971D01*
X111218796Y-91736542D01*
X116875939Y-91736542D01*
X116875939Y-93965114D01*
G37*
D10*
X117341541Y-105519819D02*
X117960588Y-105519819D01*
X117960588Y-105519819D02*
X117627255Y-105900771D01*
X117627255Y-105900771D02*
X117770112Y-105900771D01*
X117770112Y-105900771D02*
X117865350Y-105948390D01*
X117865350Y-105948390D02*
X117912969Y-105996009D01*
X117912969Y-105996009D02*
X117960588Y-106091247D01*
X117960588Y-106091247D02*
X117960588Y-106329342D01*
X117960588Y-106329342D02*
X117912969Y-106424580D01*
X117912969Y-106424580D02*
X117865350Y-106472200D01*
X117865350Y-106472200D02*
X117770112Y-106519819D01*
X117770112Y-106519819D02*
X117484398Y-106519819D01*
X117484398Y-106519819D02*
X117389160Y-106472200D01*
X117389160Y-106472200D02*
X117341541Y-106424580D01*
X118389160Y-106424580D02*
X118436779Y-106472200D01*
X118436779Y-106472200D02*
X118389160Y-106519819D01*
X118389160Y-106519819D02*
X118341541Y-106472200D01*
X118341541Y-106472200D02*
X118389160Y-106424580D01*
X118389160Y-106424580D02*
X118389160Y-106519819D01*
X118770112Y-105519819D02*
X119389159Y-105519819D01*
X119389159Y-105519819D02*
X119055826Y-105900771D01*
X119055826Y-105900771D02*
X119198683Y-105900771D01*
X119198683Y-105900771D02*
X119293921Y-105948390D01*
X119293921Y-105948390D02*
X119341540Y-105996009D01*
X119341540Y-105996009D02*
X119389159Y-106091247D01*
X119389159Y-106091247D02*
X119389159Y-106329342D01*
X119389159Y-106329342D02*
X119341540Y-106424580D01*
X119341540Y-106424580D02*
X119293921Y-106472200D01*
X119293921Y-106472200D02*
X119198683Y-106519819D01*
X119198683Y-106519819D02*
X118912969Y-106519819D01*
X118912969Y-106519819D02*
X118817731Y-106472200D01*
X118817731Y-106472200D02*
X118770112Y-106424580D01*
X119674874Y-105519819D02*
X120008207Y-106519819D01*
X120008207Y-106519819D02*
X120341540Y-105519819D01*
D15*
%TO.C,R202*%
X144543641Y-73030000D02*
X144236359Y-73030000D01*
X144543641Y-72270000D02*
X144236359Y-72270000D01*
%TO.C,R309*%
X154712770Y-83458303D02*
X155048303Y-83122770D01*
X155451697Y-84197230D02*
X155787230Y-83861697D01*
%TO.C,Y301*%
X136491529Y-95841924D02*
X134158076Y-93508471D01*
X134158076Y-93508471D02*
X131329649Y-96336898D01*
%TO.C,R302*%
X136402217Y-98350937D02*
X136737750Y-98015404D01*
X137141144Y-99089864D02*
X137476677Y-98754331D01*
%TO.C,R421*%
X133022500Y-130412742D02*
X133022500Y-130887258D01*
X131977500Y-130412742D02*
X131977500Y-130887258D01*
%TO.C,R409*%
X166928641Y-131745000D02*
X166621359Y-131745000D01*
X166928641Y-130985000D02*
X166621359Y-130985000D01*
%TO.C,D303*%
X159452171Y-80493363D02*
X157083363Y-82862171D01*
X156482322Y-77523515D02*
X159452171Y-80493363D01*
X155350951Y-77523515D02*
X156482322Y-77523515D01*
X157083363Y-82862171D02*
X153547829Y-79326637D01*
X153547829Y-79326637D02*
X155350951Y-77523515D01*
%TO.C,R310*%
X153462770Y-82208303D02*
X153798303Y-81872770D01*
X154201697Y-82947230D02*
X154537230Y-82611697D01*
%TO.C,R427*%
X121620000Y-128293641D02*
X121620000Y-127986359D01*
X122380000Y-128293641D02*
X122380000Y-127986359D01*
%TO.C,R301*%
X135410060Y-83032659D02*
X135627341Y-83249940D01*
X134872659Y-83570060D02*
X135089940Y-83787341D01*
%TO.C,C203*%
X162511252Y-122395000D02*
X161988748Y-122395000D01*
X162511252Y-120925000D02*
X161988748Y-120925000D01*
%TO.C,R305*%
X138748303Y-75287230D02*
X138412770Y-74951697D01*
X139487230Y-74548303D02*
X139151697Y-74212770D01*
%TO.C,D201*%
X163450000Y-109770000D02*
X165450000Y-109770000D01*
X163450000Y-109770000D02*
X163450000Y-105760000D01*
X165450000Y-109770000D02*
X165450000Y-105760000D01*
%TO.C,R407*%
X153252500Y-132577258D02*
X153252500Y-132102742D01*
X154297500Y-132577258D02*
X154297500Y-132102742D01*
%TO.C,C206*%
X166738748Y-100165000D02*
X167261252Y-100165000D01*
X166738748Y-101635000D02*
X167261252Y-101635000D01*
%TO.C,J402*%
X110840000Y-127360000D02*
X110100000Y-127360000D01*
X110100000Y-127360000D02*
X110100000Y-127860000D01*
X116660000Y-127600000D02*
X110340000Y-127600000D01*
X116660000Y-127600000D02*
X116660000Y-133260000D01*
X116200000Y-127600000D02*
X116200000Y-133260000D01*
X110900000Y-127600000D02*
X110900000Y-128370000D01*
X110340000Y-127600000D02*
X110340000Y-128370000D01*
X110900000Y-129950000D02*
X110900000Y-130910000D01*
X110340000Y-129950000D02*
X110340000Y-130910000D01*
X110900000Y-132490000D02*
X110900000Y-133260000D01*
X110340000Y-132490000D02*
X110340000Y-133260000D01*
X116660000Y-133260000D02*
X110340000Y-133260000D01*
%TO.C,R425*%
X126070000Y-128053641D02*
X126070000Y-127746359D01*
X126830000Y-128053641D02*
X126830000Y-127746359D01*
%TO.C,R411*%
X134872500Y-115862742D02*
X134872500Y-116337258D01*
X133827500Y-115862742D02*
X133827500Y-116337258D01*
%TO.C,R303*%
X175403641Y-82730000D02*
X175096359Y-82730000D01*
X175403641Y-81970000D02*
X175096359Y-81970000D01*
%TO.C,R401*%
X144546359Y-127880000D02*
X144853641Y-127880000D01*
X144546359Y-128640000D02*
X144853641Y-128640000D01*
%TO.C,FB302*%
X167850279Y-79310000D02*
X167524721Y-79310000D01*
X167850279Y-78290000D02*
X167524721Y-78290000D01*
%TO.C,C405*%
X147078748Y-125865000D02*
X147601252Y-125865000D01*
X147078748Y-127335000D02*
X147601252Y-127335000D01*
%TO.C,C429*%
X144857836Y-111770000D02*
X144642164Y-111770000D01*
X144857836Y-111050000D02*
X144642164Y-111050000D01*
%TO.C,C201*%
X166038748Y-118675000D02*
X166561252Y-118675000D01*
X166038748Y-120145000D02*
X166561252Y-120145000D01*
%TO.C,C204*%
X162511252Y-120145000D02*
X161988748Y-120145000D01*
X162511252Y-118675000D02*
X161988748Y-118675000D01*
%TO.C,C423*%
X132860000Y-133892164D02*
X132860000Y-134107836D01*
X132140000Y-133892164D02*
X132140000Y-134107836D01*
%TO.C,FB201*%
X164760000Y-99524721D02*
X164760000Y-99850279D01*
X163740000Y-99524721D02*
X163740000Y-99850279D01*
%TO.C,R429*%
X138846359Y-120530000D02*
X139153641Y-120530000D01*
X138846359Y-121290000D02*
X139153641Y-121290000D01*
%TO.C,J303*%
X110840000Y-94320000D02*
X110100000Y-94320000D01*
X110100000Y-94320000D02*
X110100000Y-94820000D01*
X116660000Y-94560000D02*
X110340000Y-94560000D01*
X116660000Y-94560000D02*
X116660000Y-110380000D01*
X116200000Y-94560000D02*
X116200000Y-110380000D01*
X110900000Y-94560000D02*
X110900000Y-110380000D01*
X110340000Y-94560000D02*
X110340000Y-110380000D01*
X116660000Y-110380000D02*
X110340000Y-110380000D01*
%TO.C,D401*%
X171950000Y-127672500D02*
X168650000Y-127672500D01*
X171950000Y-127672500D02*
X171950000Y-133182500D01*
X168650000Y-127672500D02*
X168650000Y-133182500D01*
%TO.C,R406*%
X157762258Y-133722500D02*
X157287742Y-133722500D01*
X157762258Y-132677500D02*
X157287742Y-132677500D01*
%TO.C,R420*%
X146522500Y-106262742D02*
X146522500Y-106737258D01*
X145477500Y-106262742D02*
X145477500Y-106737258D01*
%TO.C,C421*%
X130107836Y-128860000D02*
X129892164Y-128860000D01*
X130107836Y-128140000D02*
X129892164Y-128140000D01*
%TO.C,C410*%
X152884420Y-129330000D02*
X153165580Y-129330000D01*
X152884420Y-130350000D02*
X153165580Y-130350000D01*
%TO.C,C316*%
X138669190Y-80287616D02*
X138821693Y-80135113D01*
X139178307Y-80796733D02*
X139330810Y-80644230D01*
%TO.C,R404*%
X166928641Y-130495000D02*
X166621359Y-130495000D01*
X166928641Y-129735000D02*
X166621359Y-129735000D01*
D11*
%TO.C,IC401*%
X149800000Y-112325000D02*
X149800000Y-113800000D01*
X149850000Y-114150000D02*
X149850000Y-117850000D01*
X140150000Y-114150000D02*
X149850000Y-114150000D01*
X149850000Y-117850000D02*
X140150000Y-117850000D01*
X140150000Y-117850000D02*
X140150000Y-114150000D01*
%TO.C,G\u002A\u002A\u002A*%
G36*
X126902169Y-114888645D02*
G01*
X126953704Y-115091358D01*
X126842837Y-115353403D01*
X126640124Y-115404938D01*
X126378080Y-115294071D01*
X126326544Y-115091358D01*
X126437411Y-114829314D01*
X126640124Y-114777778D01*
X126902169Y-114888645D01*
G37*
G36*
X125070019Y-112275683D02*
G01*
X125444571Y-112305836D01*
X125631794Y-112375365D01*
X125694768Y-112500038D01*
X125699383Y-112582716D01*
X125751976Y-112787872D01*
X125964548Y-112878543D01*
X126326544Y-112896296D01*
X126736855Y-112922593D01*
X126918197Y-113028879D01*
X126953704Y-113209877D01*
X127064572Y-113471921D01*
X127267285Y-113523457D01*
X127529329Y-113634324D01*
X127580865Y-113837037D01*
X127691732Y-114099082D01*
X127894445Y-114150617D01*
X128156490Y-114261485D01*
X128208025Y-114464198D01*
X128318893Y-114726242D01*
X128521606Y-114777778D01*
X128696747Y-114812103D01*
X128791383Y-114962889D01*
X128829421Y-115301847D01*
X128835186Y-115718519D01*
X128823744Y-116243941D01*
X128773482Y-116527852D01*
X128660496Y-116641965D01*
X128521606Y-116659259D01*
X128259561Y-116770127D01*
X128208025Y-116972840D01*
X128155432Y-117177995D01*
X127942860Y-117268666D01*
X127580865Y-117286420D01*
X127170554Y-117312716D01*
X126989212Y-117419002D01*
X126953704Y-117600000D01*
X126927517Y-117756239D01*
X126806905Y-117849877D01*
X126528790Y-117896683D01*
X126030095Y-117912427D01*
X125699383Y-117913580D01*
X125074427Y-117920127D01*
X124699875Y-117950280D01*
X124512651Y-118019809D01*
X124449678Y-118144483D01*
X124445062Y-118227161D01*
X124555930Y-118489205D01*
X124758643Y-118540741D01*
X124963798Y-118593334D01*
X125054469Y-118805906D01*
X125072223Y-119167901D01*
X125045926Y-119578213D01*
X124939640Y-119759554D01*
X124758643Y-119795062D01*
X124496598Y-119905929D01*
X124445062Y-120108642D01*
X124334195Y-120370687D01*
X124131482Y-120422222D01*
X123869438Y-120311355D01*
X123817902Y-120108642D01*
X123707035Y-119846598D01*
X123504322Y-119795062D01*
X123242277Y-119684195D01*
X123190741Y-119481482D01*
X123156416Y-119306341D01*
X123005631Y-119211704D01*
X122666672Y-119173666D01*
X122250001Y-119167901D01*
X121724578Y-119179343D01*
X121440667Y-119229605D01*
X121326555Y-119342591D01*
X121309260Y-119481482D01*
X121198393Y-119743526D01*
X120995680Y-119795062D01*
X120733635Y-119905929D01*
X120682099Y-120108642D01*
X120571232Y-120370687D01*
X120368519Y-120422222D01*
X120106475Y-120533090D01*
X120054939Y-120735803D01*
X120165806Y-120997847D01*
X120368519Y-121049383D01*
X120543660Y-121083708D01*
X120638297Y-121234494D01*
X120676334Y-121573452D01*
X120682099Y-121990124D01*
X120682099Y-122930864D01*
X119741359Y-122930864D01*
X119215936Y-122919423D01*
X118932025Y-122869161D01*
X118817913Y-122756175D01*
X118800618Y-122617284D01*
X118689751Y-122355240D01*
X118487038Y-122303704D01*
X118224993Y-122192837D01*
X118173457Y-121990124D01*
X118062590Y-121728079D01*
X117859877Y-121676543D01*
X117597833Y-121565676D01*
X117546297Y-121362963D01*
X117435430Y-121100919D01*
X117232717Y-121049383D01*
X116970672Y-120938516D01*
X116919136Y-120735803D01*
X116808269Y-120473758D01*
X116605556Y-120422222D01*
X116343512Y-120311355D01*
X116291976Y-120108642D01*
X116181109Y-119846598D01*
X115978396Y-119795062D01*
X115716351Y-119684195D01*
X115664815Y-119481482D01*
X116291976Y-119481482D01*
X116402843Y-119743526D01*
X116605556Y-119795062D01*
X116867601Y-119905929D01*
X116919136Y-120108642D01*
X117030004Y-120370687D01*
X117232717Y-120422222D01*
X117494761Y-120533090D01*
X117546297Y-120735803D01*
X117657164Y-120997847D01*
X117859877Y-121049383D01*
X118121922Y-121160250D01*
X118173457Y-121362963D01*
X118284325Y-121625008D01*
X118487038Y-121676543D01*
X118749082Y-121787411D01*
X118800618Y-121990124D01*
X118853211Y-122195279D01*
X119065783Y-122285950D01*
X119427778Y-122303704D01*
X120054939Y-122303704D01*
X120054939Y-121676543D01*
X120028642Y-121266232D01*
X119922356Y-121084891D01*
X119741359Y-121049383D01*
X119479314Y-120938516D01*
X119427778Y-120735803D01*
X119538646Y-120473758D01*
X119741359Y-120422222D01*
X120003403Y-120311355D01*
X120054939Y-120108642D01*
X120165806Y-119846598D01*
X120368519Y-119795062D01*
X120630564Y-119684195D01*
X120682099Y-119481482D01*
X120792967Y-119219437D01*
X120995680Y-119167901D01*
X121257724Y-119057034D01*
X121309260Y-118854321D01*
X121343585Y-118679180D01*
X121494371Y-118584543D01*
X121833329Y-118546506D01*
X122250001Y-118540741D01*
X122775423Y-118552183D01*
X123059334Y-118602445D01*
X123173447Y-118715431D01*
X123190741Y-118854321D01*
X123301609Y-119116366D01*
X123504322Y-119167901D01*
X123766366Y-119278769D01*
X123817902Y-119481482D01*
X123928769Y-119743526D01*
X124131482Y-119795062D01*
X124336638Y-119742469D01*
X124427309Y-119529897D01*
X124445062Y-119167901D01*
X124418766Y-118757590D01*
X124312480Y-118576249D01*
X124131482Y-118540741D01*
X123869438Y-118429874D01*
X123817902Y-118227161D01*
X123928769Y-117965116D01*
X124131482Y-117913580D01*
X124393527Y-117802713D01*
X124445062Y-117600000D01*
X124471249Y-117443761D01*
X124591862Y-117350123D01*
X124869977Y-117303317D01*
X125368672Y-117287574D01*
X125699383Y-117286420D01*
X126324340Y-117279873D01*
X126698892Y-117249720D01*
X126886115Y-117180191D01*
X126949089Y-117055517D01*
X126953704Y-116972840D01*
X127006297Y-116767684D01*
X127218869Y-116677013D01*
X127580865Y-116659259D01*
X128208025Y-116659259D01*
X128208025Y-115718519D01*
X128208025Y-114777778D01*
X127580865Y-114777778D01*
X126953704Y-114777778D01*
X126953704Y-114150617D01*
X126953704Y-113523457D01*
X126326544Y-113523457D01*
X125916233Y-113497160D01*
X125734891Y-113390874D01*
X125699383Y-113209877D01*
X125673196Y-113053638D01*
X125552584Y-112960000D01*
X125274469Y-112913194D01*
X124775774Y-112897450D01*
X124445062Y-112896296D01*
X123820106Y-112902843D01*
X123445554Y-112932996D01*
X123258330Y-113002525D01*
X123195357Y-113127199D01*
X123190741Y-113209877D01*
X123156416Y-113385018D01*
X123005631Y-113479655D01*
X122666672Y-113517692D01*
X122250001Y-113523457D01*
X121724578Y-113512015D01*
X121440667Y-113461753D01*
X121326555Y-113348767D01*
X121309260Y-113209877D01*
X121256667Y-113004721D01*
X121044095Y-112914050D01*
X120682099Y-112896296D01*
X120271788Y-112922593D01*
X120090447Y-113028879D01*
X120054939Y-113209877D01*
X120165806Y-113471921D01*
X120368519Y-113523457D01*
X120630564Y-113634324D01*
X120682099Y-113837037D01*
X120792967Y-114099082D01*
X120995680Y-114150617D01*
X121200835Y-114203211D01*
X121291506Y-114415782D01*
X121309260Y-114777778D01*
X121282963Y-115188089D01*
X121176677Y-115369431D01*
X120995680Y-115404938D01*
X120790524Y-115457531D01*
X120699853Y-115670103D01*
X120682099Y-116032099D01*
X120655803Y-116442410D01*
X120549517Y-116623752D01*
X120368519Y-116659259D01*
X120106475Y-116770127D01*
X120054939Y-116972840D01*
X119944072Y-117234884D01*
X119741359Y-117286420D01*
X119536203Y-117339013D01*
X119445532Y-117551585D01*
X119427778Y-117913580D01*
X119401482Y-118323892D01*
X119295196Y-118505233D01*
X119114198Y-118540741D01*
X118852154Y-118651608D01*
X118800618Y-118854321D01*
X118689751Y-119116366D01*
X118487038Y-119167901D01*
X118224993Y-119278769D01*
X118173457Y-119481482D01*
X118062590Y-119743526D01*
X117859877Y-119795062D01*
X117597833Y-119684195D01*
X117546297Y-119481482D01*
X117493704Y-119276326D01*
X117281132Y-119185655D01*
X116919136Y-119167901D01*
X116508825Y-119194198D01*
X116327484Y-119300484D01*
X116291976Y-119481482D01*
X115664815Y-119481482D01*
X115775683Y-119219437D01*
X115978396Y-119167901D01*
X116240440Y-119057034D01*
X116291976Y-118854321D01*
X116344569Y-118649166D01*
X116557141Y-118558495D01*
X116919136Y-118540741D01*
X117329448Y-118567037D01*
X117510789Y-118673323D01*
X117546297Y-118854321D01*
X117657164Y-119116366D01*
X117859877Y-119167901D01*
X118121922Y-119057034D01*
X118173457Y-118854321D01*
X118284325Y-118592277D01*
X118487038Y-118540741D01*
X118692193Y-118488148D01*
X118782864Y-118275576D01*
X118800618Y-117913580D01*
X118826914Y-117503269D01*
X118933200Y-117321928D01*
X119114198Y-117286420D01*
X119376243Y-117175553D01*
X119427778Y-116972840D01*
X119538646Y-116710795D01*
X119741359Y-116659259D01*
X119946514Y-116606666D01*
X120037185Y-116394094D01*
X120054939Y-116032099D01*
X120081235Y-115621788D01*
X120187521Y-115440446D01*
X120368519Y-115404938D01*
X120573675Y-115352345D01*
X120664346Y-115139773D01*
X120682099Y-114777778D01*
X120655803Y-114367467D01*
X120549517Y-114186125D01*
X120368519Y-114150617D01*
X120106475Y-114039750D01*
X120054939Y-113837037D01*
X119944072Y-113574993D01*
X119741359Y-113523457D01*
X119479314Y-113412590D01*
X119427778Y-113209877D01*
X119538646Y-112947832D01*
X119741359Y-112896296D01*
X120003403Y-112785429D01*
X120054939Y-112582716D01*
X120107532Y-112377561D01*
X120320104Y-112286890D01*
X120682099Y-112269136D01*
X121092411Y-112295433D01*
X121273752Y-112401718D01*
X121309260Y-112582716D01*
X121343585Y-112757857D01*
X121494371Y-112852494D01*
X121833329Y-112890532D01*
X122250001Y-112896296D01*
X122775423Y-112884855D01*
X123059334Y-112834593D01*
X123173447Y-112721607D01*
X123190741Y-112582716D01*
X123216928Y-112426477D01*
X123337541Y-112332839D01*
X123615656Y-112286033D01*
X124114351Y-112270290D01*
X124445062Y-112269136D01*
X125070019Y-112275683D01*
G37*
D15*
%TO.C,C419*%
X123610000Y-130572164D02*
X123610000Y-130787836D01*
X122890000Y-130572164D02*
X122890000Y-130787836D01*
%TO.C,C312*%
X167047500Y-80692164D02*
X167047500Y-80907836D01*
X166327500Y-80692164D02*
X166327500Y-80907836D01*
%TO.C,C407*%
X151634420Y-126890000D02*
X151915580Y-126890000D01*
X151634420Y-127910000D02*
X151915580Y-127910000D01*
D11*
%TO.C,U407*%
X127400000Y-129450000D02*
X128600000Y-129450000D01*
X128950000Y-129500000D02*
X129550000Y-129500000D01*
X128950000Y-132400000D02*
X128950000Y-129500000D01*
X129550000Y-129500000D02*
X129550000Y-132400000D01*
X129550000Y-132400000D02*
X128950000Y-132400000D01*
D15*
%TO.C,C315*%
X134479779Y-98511104D02*
X134632282Y-98358601D01*
X134988896Y-99020221D02*
X135141399Y-98867718D01*
%TO.C,R424*%
X149022500Y-106247742D02*
X149022500Y-106722258D01*
X147977500Y-106247742D02*
X147977500Y-106722258D01*
%TO.C,C408*%
X166659420Y-132790000D02*
X166940580Y-132790000D01*
X166659420Y-133810000D02*
X166940580Y-133810000D01*
%TO.C,C313*%
X168842164Y-72990000D02*
X169057836Y-72990000D01*
X168842164Y-73710000D02*
X169057836Y-73710000D01*
%TO.C,R405*%
X160547500Y-130247742D02*
X160547500Y-130722258D01*
X159502500Y-130247742D02*
X159502500Y-130722258D01*
%TO.C,C433*%
X144917164Y-120550000D02*
X145132836Y-120550000D01*
X144917164Y-121270000D02*
X145132836Y-121270000D01*
%TO.C,C311*%
X169047500Y-80692164D02*
X169047500Y-80907836D01*
X168327500Y-80692164D02*
X168327500Y-80907836D01*
%TO.C,SW301*%
X112290000Y-80960000D02*
X111500000Y-80960000D01*
X113340000Y-82810000D02*
X113340000Y-84510000D01*
X113340000Y-85810000D02*
X113340000Y-86010000D01*
X111500000Y-87860000D02*
X112290000Y-87860000D01*
%TO.C,C404*%
X157662836Y-128360000D02*
X157447164Y-128360000D01*
X157662836Y-127640000D02*
X157447164Y-127640000D01*
%TO.C,C401*%
X151135000Y-129982164D02*
X151135000Y-130197836D01*
X150415000Y-129982164D02*
X150415000Y-130197836D01*
%TO.C,C431*%
X147132836Y-121270000D02*
X146917164Y-121270000D01*
X147132836Y-120550000D02*
X146917164Y-120550000D01*
%TO.C,R422*%
X130237258Y-134072500D02*
X129762742Y-134072500D01*
X130237258Y-133027500D02*
X129762742Y-133027500D01*
%TO.C,C304*%
X147478307Y-77644190D02*
X147630810Y-77796693D01*
X146969190Y-78153307D02*
X147121693Y-78305810D01*
%TO.C,C430*%
X147890580Y-122920000D02*
X147609420Y-122920000D01*
X147890580Y-121900000D02*
X147609420Y-121900000D01*
%TO.C,J202*%
X179160000Y-98250000D02*
X179900000Y-98250000D01*
X179900000Y-98250000D02*
X179900000Y-97750000D01*
X173340000Y-98010000D02*
X179660000Y-98010000D01*
X173340000Y-98010000D02*
X173340000Y-92350000D01*
X173800000Y-98010000D02*
X173800000Y-92350000D01*
X179100000Y-98010000D02*
X179100000Y-97240000D01*
X179660000Y-98010000D02*
X179660000Y-97240000D01*
X179100000Y-95660000D02*
X179100000Y-94700000D01*
X179660000Y-95660000D02*
X179660000Y-94700000D01*
X179100000Y-93120000D02*
X179100000Y-92350000D01*
X179660000Y-93120000D02*
X179660000Y-92350000D01*
X173340000Y-92350000D02*
X179660000Y-92350000D01*
%TO.C,C319*%
X148488781Y-77710030D02*
X148289970Y-77511219D01*
X149210030Y-76988781D02*
X149011219Y-76789970D01*
%TO.C,R428*%
X154022500Y-106262742D02*
X154022500Y-106737258D01*
X152977500Y-106262742D02*
X152977500Y-106737258D01*
%TO.C,C422*%
X124084420Y-127130000D02*
X124365580Y-127130000D01*
X124084420Y-128150000D02*
X124365580Y-128150000D01*
%TO.C,R304*%
X175353641Y-70730000D02*
X175046359Y-70730000D01*
X175353641Y-69970000D02*
X175046359Y-69970000D01*
D11*
%TO.C,U401*%
X146950000Y-132250000D02*
X145750000Y-132250000D01*
X145400000Y-132200000D02*
X144800000Y-132200000D01*
X145400000Y-129300000D02*
X145400000Y-132200000D01*
X144800000Y-132200000D02*
X144800000Y-129300000D01*
X144800000Y-129300000D02*
X145400000Y-129300000D01*
D15*
%TO.C,J401*%
X179160000Y-133480000D02*
X179900000Y-133480000D01*
X179900000Y-133480000D02*
X179900000Y-132980000D01*
X173340000Y-133240000D02*
X179660000Y-133240000D01*
X173340000Y-133240000D02*
X173340000Y-127580000D01*
X173800000Y-133240000D02*
X173800000Y-127580000D01*
X179100000Y-133240000D02*
X179100000Y-132470000D01*
X179660000Y-133240000D02*
X179660000Y-132470000D01*
X179100000Y-130890000D02*
X179100000Y-129930000D01*
X179660000Y-130890000D02*
X179660000Y-129930000D01*
X179100000Y-128350000D02*
X179100000Y-127580000D01*
X179660000Y-128350000D02*
X179660000Y-127580000D01*
X173340000Y-127580000D02*
X179660000Y-127580000D01*
%TO.C,R403*%
X146736359Y-127880000D02*
X147043641Y-127880000D01*
X146736359Y-128640000D02*
X147043641Y-128640000D01*
%TO.C,C420*%
X135122164Y-132840000D02*
X135337836Y-132840000D01*
X135122164Y-133560000D02*
X135337836Y-133560000D01*
%TO.C,U303*%
X134944942Y-88910000D02*
X135439916Y-89404975D01*
X135439916Y-89404975D02*
X134474716Y-90370176D01*
X145000000Y-98965058D02*
X144505025Y-98470084D01*
X135439916Y-88415025D02*
X134944942Y-88910000D01*
X145494975Y-98470084D02*
X145000000Y-98965058D01*
X144505025Y-79349916D02*
X145000000Y-78854942D01*
X154560084Y-89404975D02*
X155055058Y-88910000D01*
X145000000Y-78854942D02*
X145494975Y-79349916D01*
X155055058Y-88910000D02*
X154560084Y-88415025D01*
%TO.C,R426*%
X144022500Y-106262742D02*
X144022500Y-106737258D01*
X142977500Y-106262742D02*
X142977500Y-106737258D01*
%TO.C,R201*%
X164935000Y-115772936D02*
X164935000Y-116227064D01*
X163465000Y-115772936D02*
X163465000Y-116227064D01*
D11*
%TO.C,U402*%
X161425000Y-129050000D02*
X162625000Y-129050000D01*
X162975000Y-129100000D02*
X163575000Y-129100000D01*
X162975000Y-132000000D02*
X162975000Y-129100000D01*
X163575000Y-129100000D02*
X163575000Y-132000000D01*
X163575000Y-132000000D02*
X162975000Y-132000000D01*
D15*
%TO.C,C309*%
X139382282Y-99241399D02*
X139229779Y-99088896D01*
X139891399Y-98732282D02*
X139738896Y-98579779D01*
%TO.C,C432*%
X144384420Y-121900000D02*
X144665580Y-121900000D01*
X144384420Y-122920000D02*
X144665580Y-122920000D01*
%TO.C,R417*%
X152272500Y-110087742D02*
X152272500Y-110562258D01*
X151227500Y-110087742D02*
X151227500Y-110562258D01*
%TO.C,R402*%
X162178641Y-133680000D02*
X161871359Y-133680000D01*
X162178641Y-132920000D02*
X161871359Y-132920000D01*
D11*
%TO.C,U406*%
X137850000Y-132280000D02*
X136650000Y-132280000D01*
X136300000Y-132230000D02*
X135700000Y-132230000D01*
X136300000Y-129330000D02*
X136300000Y-132230000D01*
X135700000Y-132230000D02*
X135700000Y-129330000D01*
X135700000Y-129330000D02*
X136300000Y-129330000D01*
D15*
%TO.C,R306*%
X137549290Y-76468345D02*
X137213757Y-76132812D01*
X138288217Y-75729418D02*
X137952684Y-75393885D01*
%TO.C,C318*%
X156289970Y-92188781D02*
X156488781Y-91989970D01*
X157011219Y-92910030D02*
X157210030Y-92711219D01*
D11*
%TO.C,U403*%
X154925000Y-129050000D02*
X156125000Y-129050000D01*
X156475000Y-129100000D02*
X157075000Y-129100000D01*
X156475000Y-132000000D02*
X156475000Y-129100000D01*
X157075000Y-129100000D02*
X157075000Y-132000000D01*
X157075000Y-132000000D02*
X156475000Y-132000000D01*
D15*
%TO.C,C314*%
X136641399Y-97367718D02*
X136488896Y-97520221D01*
X136132282Y-96858601D02*
X135979779Y-97011104D01*
%TO.C,C411*%
X135038748Y-112515000D02*
X135561252Y-112515000D01*
X135038748Y-113985000D02*
X135561252Y-113985000D01*
%TO.C,U301*%
X168487500Y-77410000D02*
X170287500Y-77410000D01*
X168487500Y-77410000D02*
X167687500Y-77410000D01*
X168487500Y-74290000D02*
X169287500Y-74290000D01*
X168487500Y-74290000D02*
X167687500Y-74290000D01*
%TO.C,R408*%
X153620000Y-127803641D02*
X153620000Y-127496359D01*
X154380000Y-127803641D02*
X154380000Y-127496359D01*
%TO.C,C303*%
X135321693Y-93030810D02*
X135169190Y-92878307D01*
X135830810Y-92521693D02*
X135678307Y-92369190D01*
%TO.C,C307*%
X137121693Y-94780810D02*
X136969190Y-94628307D01*
X137630810Y-94271693D02*
X137478307Y-94119190D01*
%TO.C,D203*%
X172400000Y-92390000D02*
X169100000Y-92390000D01*
X172400000Y-92390000D02*
X172400000Y-97900000D01*
X169100000Y-92390000D02*
X169100000Y-97900000D01*
%TO.C,C306*%
X156391399Y-91417718D02*
X156238896Y-91570221D01*
X155882282Y-90908601D02*
X155729779Y-91061104D01*
%TO.C,C317*%
X159071693Y-79490810D02*
X158919190Y-79338307D01*
X159580810Y-78981693D02*
X159428307Y-78829190D01*
%TO.C,C428*%
X144390580Y-110420000D02*
X144109420Y-110420000D01*
X144390580Y-109400000D02*
X144109420Y-109400000D01*
%TO.C,C406*%
X164132836Y-133660000D02*
X163917164Y-133660000D01*
X164132836Y-132940000D02*
X163917164Y-132940000D01*
%TO.C,C409*%
X160385000Y-133522164D02*
X160385000Y-133737836D01*
X159665000Y-133522164D02*
X159665000Y-133737836D01*
%TO.C,U202*%
X149100000Y-71320000D02*
X143090000Y-71320000D01*
X146850000Y-64500000D02*
X143090000Y-64500000D01*
X143090000Y-71320000D02*
X143090000Y-70060000D01*
X143090000Y-64500000D02*
X143090000Y-65760000D01*
%TO.C,C205*%
X166738748Y-97665000D02*
X167261252Y-97665000D01*
X166738748Y-99135000D02*
X167261252Y-99135000D01*
%TO.C,R419*%
X151522500Y-106247742D02*
X151522500Y-106722258D01*
X150477500Y-106247742D02*
X150477500Y-106722258D01*
%TO.C,C207*%
X161461252Y-109395000D02*
X160938748Y-109395000D01*
X161461252Y-107925000D02*
X160938748Y-107925000D01*
%TO.C,C424*%
X125334420Y-129590000D02*
X125615580Y-129590000D01*
X125334420Y-130610000D02*
X125615580Y-130610000D01*
%TO.C,C302*%
X133869190Y-86071693D02*
X134021693Y-85919190D01*
X134378307Y-86580810D02*
X134530810Y-86428307D01*
%TO.C,D202*%
X166500000Y-97010000D02*
X168500000Y-97010000D01*
X166500000Y-97010000D02*
X166500000Y-93000000D01*
X168500000Y-97010000D02*
X168500000Y-93000000D01*
%TO.C,R410*%
X141403641Y-121290000D02*
X141096359Y-121290000D01*
X141403641Y-120530000D02*
X141096359Y-120530000D01*
%TO.C,J302*%
X132351975Y-70419872D02*
X132800988Y-70868885D01*
X131902962Y-70868885D02*
X132351975Y-70419872D01*
%TO.C,U201*%
X162760000Y-111910000D02*
X162760000Y-110110000D01*
X162760000Y-111910000D02*
X162760000Y-112710000D01*
X159640000Y-111910000D02*
X159640000Y-111110000D01*
X159640000Y-111910000D02*
X159640000Y-112710000D01*
%TO.C,J301*%
X175550000Y-81050000D02*
X177550000Y-81050000D01*
X175550000Y-71650000D02*
X177550000Y-71650000D01*
%TO.C,C310*%
X138271693Y-100280810D02*
X138119190Y-100128307D01*
X138780810Y-99771693D02*
X138628307Y-99619190D01*
%TO.C,D403*%
X121150000Y-127640000D02*
X117850000Y-127640000D01*
X121150000Y-127640000D02*
X121150000Y-133150000D01*
X117850000Y-127640000D02*
X117850000Y-133150000D01*
%TO.C,FB301*%
X140875727Y-100995522D02*
X140645522Y-101225727D01*
X140154478Y-100274273D02*
X139924273Y-100504478D01*
%TO.C,C402*%
X142760000Y-132092164D02*
X142760000Y-132307836D01*
X142040000Y-132092164D02*
X142040000Y-132307836D01*
%TO.C,R307*%
X134298303Y-79687230D02*
X133962770Y-79351697D01*
X135037230Y-78948303D02*
X134701697Y-78612770D01*
%TO.C,C202*%
X166038748Y-120925000D02*
X166561252Y-120925000D01*
X166038748Y-122395000D02*
X166561252Y-122395000D01*
%TO.C,C209*%
X146938748Y-71925000D02*
X147461252Y-71925000D01*
X146938748Y-73395000D02*
X147461252Y-73395000D01*
%TO.C,C308*%
X140396693Y-98280810D02*
X140244190Y-98128307D01*
X140905810Y-97771693D02*
X140753307Y-97619190D01*
%TO.C,R308*%
X137411783Y-79167188D02*
X137747316Y-78831655D01*
X138150710Y-79906115D02*
X138486243Y-79570582D01*
%TO.C,R423*%
X125727500Y-132987258D02*
X125727500Y-132512742D01*
X126772500Y-132987258D02*
X126772500Y-132512742D01*
%TO.C,D302*%
X137514232Y-77293616D02*
X136524282Y-76303666D01*
X134883794Y-77944154D02*
X136227297Y-79287657D01*
%TO.C,C403*%
X164132836Y-128410000D02*
X163917164Y-128410000D01*
X164132836Y-127690000D02*
X163917164Y-127690000D01*
%TO.C,C412*%
X135038748Y-118165000D02*
X135561252Y-118165000D01*
X135038748Y-119635000D02*
X135561252Y-119635000D01*
%TO.C,C301*%
X132675559Y-84828192D02*
X132874370Y-84629381D01*
X133396808Y-85549441D02*
X133595619Y-85350630D01*
%TO.C,C208*%
X161461252Y-115835000D02*
X160938748Y-115835000D01*
X161461252Y-114365000D02*
X160938748Y-114365000D01*
%TO.C,C210*%
X151485000Y-67148748D02*
X151485000Y-67671252D01*
X150015000Y-67148748D02*
X150015000Y-67671252D01*
%TO.C,R311*%
X152212770Y-80958303D02*
X152548303Y-80622770D01*
X152951697Y-81697230D02*
X153287230Y-81361697D01*
%TO.C,R418*%
X150522500Y-110087742D02*
X150522500Y-110562258D01*
X149477500Y-110087742D02*
X149477500Y-110562258D01*
%TO.C,D204*%
X139905000Y-71915000D02*
X139905000Y-73385000D01*
X139905000Y-73385000D02*
X142190000Y-73385000D01*
X142190000Y-71915000D02*
X139905000Y-71915000D01*
%TO.C,C305*%
X147680810Y-100128307D02*
X147528307Y-100280810D01*
X147171693Y-99619190D02*
X147019190Y-99771693D01*
%TD*%
M02*
